<?xml version="1.0" encoding="utf-8"?>
<!-- Generator: Adobe Illustrator 24.1.2, SVG Export Plug-In . SVG Version: 6.00 Build 0)  -->
<svg version="1.1" id="Layer_1" xmlns="http://www.w3.org/2000/svg" xmlns:xlink="http://www.w3.org/1999/xlink" x="0px" y="0px"
	 viewBox="0 0 17 16" style="enable-background:new 0 0 17 16;" xml:space="preserve">
<style type="text/css">
	.st0{fill-rule:evenodd;clip-rule:evenodd;fill:#FCF5A3;}
	.st1{fill:#FCF5A3;}
</style>
<path class="st0" d="M8.4,3.8C6.2,3.8,4.3,5.7,4.3,8c0,2.3,1.8,4.1,4.1,4.1c2.3,0,4.1-1.9,4.1-4.1C12.6,5.7,10.7,3.8,8.4,3.8z
	 M8.4,10.6C7,10.6,5.8,9.4,5.8,8c0-1.5,1.2-2.6,2.6-2.6c1.5,0,2.6,1.2,2.6,2.6C11.1,9.4,9.9,10.6,8.4,10.6z"/>
<path class="st1" d="M12.7,4.7c0.5,0,0.9-0.4,0.9-0.9s-0.4-0.9-0.9-0.9c-0.5,0-0.9,0.4-0.9,0.9S12.2,4.7,12.7,4.7z"/>
<path class="st0" d="M15.1,1.3c-0.8-0.9-2-1.3-3.4-1.3H5.1C2.3,0,0.4,1.9,0.4,4.7v6.6c0,1.4,0.5,2.6,1.4,3.5c0.9,0.8,2,1.3,3.4,1.3
	h6.6c1.4,0,2.5-0.5,3.4-1.3c0.9-0.8,1.3-2,1.3-3.4V4.7C16.4,3.3,16,2.2,15.1,1.3z M15,11.3c0,1-0.3,1.8-0.9,2.4
	c-0.6,0.5-1.4,0.8-2.4,0.8H5.1c-1,0-1.8-0.3-2.4-0.8c-0.6-0.6-0.9-1.4-0.9-2.4V4.7c0-1,0.3-1.8,0.9-2.4c0.5-0.5,1.4-0.8,2.4-0.8h6.6
	c1,0,1.8,0.3,2.4,0.9C14.7,2.9,15,3.7,15,4.7L15,11.3L15,11.3z"/>
</svg>
