<?xml version="1.0" encoding="utf-8"?>
<!-- Generator: Adobe Illustrator 24.1.2, SVG Export Plug-In . SVG Version: 6.00 Build 0)  -->
<svg version="1.1" id="Layer_1" xmlns="http://www.w3.org/2000/svg" xmlns:xlink="http://www.w3.org/1999/xlink" x="0px" y="0px"
	 viewBox="0 0 17 16" style="enable-background:new 0 0 17 16;" xml:space="preserve">
<style type="text/css">
	.st0{clip-path:url(#SVGID_2_);}
	.st1{fill-rule:evenodd;clip-rule:evenodd;fill:#FCF5A3;}
</style>
<g>
	<defs>
		<rect id="SVGID_1_" x="0.4" width="16.3" height="16"/>
	</defs>
	<clipPath id="SVGID_2_">
		<use xlink:href="#SVGID_1_"  style="overflow:visible;"/>
	</clipPath>
	<g class="st0">
		<path class="st1" d="M13.8,7.6H3.6c-1.6,0-2.9,1.3-2.9,2.9v2.4c0,1.6,1.3,2.9,2.9,2.9h10.2c1.6,0,2.9-1.3,2.9-2.9v-2.4
			C16.7,8.9,15.4,7.6,13.8,7.6z M5.8,9.4H4.8v4.7H3.9V9.4H3V8.6h2.8V9.4z M8.4,14.1H7.6v-0.4C7.5,13.8,7.3,14,7.2,14
			c-0.2,0.1-0.3,0.1-0.5,0.1c-0.2,0-0.3-0.1-0.4-0.2c-0.1-0.1-0.1-0.3-0.1-0.5v-3.4h0.8v3.1c0,0.1,0,0.2,0.1,0.2
			c0,0,0.1,0.1,0.2,0.1c0.1,0,0.1,0,0.2-0.1c0.1-0.1,0.2-0.1,0.3-0.2v-3.1h0.8V14.1z M11.4,13.3c0,0.3-0.1,0.5-0.2,0.7
			c-0.1,0.2-0.3,0.2-0.6,0.2c-0.2,0-0.3,0-0.4-0.1c-0.1-0.1-0.2-0.1-0.3-0.3v0.3H9V8.6h0.8v1.8c0.1-0.1,0.2-0.2,0.3-0.3
			c0.1-0.1,0.2-0.1,0.4-0.1c0.3,0,0.5,0.1,0.6,0.3c0.1,0.2,0.2,0.4,0.2,0.8L11.4,13.3L11.4,13.3z M14.2,12.2h-1.5v0.8
			c0,0.2,0,0.4,0.1,0.4c0.1,0.1,0.1,0.1,0.3,0.1c0.1,0,0.2,0,0.3-0.1c0.1-0.1,0.1-0.2,0.1-0.5v-0.2h0.8V13c0,0.4-0.1,0.7-0.3,0.9
			c-0.2,0.2-0.5,0.3-0.9,0.3c-0.4,0-0.6-0.1-0.9-0.3c-0.2-0.2-0.3-0.5-0.3-0.9v-1.8c0-0.4,0.1-0.6,0.3-0.9c0.2-0.2,0.5-0.3,0.9-0.3
			c0.4,0,0.7,0.1,0.9,0.3c0.2,0.2,0.3,0.5,0.3,0.9V12.2z"/>
		<path class="st1" d="M13,10.7c-0.1,0-0.2,0-0.3,0.1c-0.1,0.1-0.1,0.2-0.1,0.4v0.4h0.7v-0.4c0-0.2,0-0.3-0.1-0.4
			C13.2,10.7,13.1,10.7,13,10.7z"/>
		<path class="st1" d="M10.2,10.6c-0.1,0-0.1,0-0.2,0c-0.1,0-0.1,0.1-0.2,0.1v2.5c0.1,0.1,0.1,0.1,0.2,0.1c0.1,0,0.1,0,0.2,0
			c0.1,0,0.2,0,0.2-0.1c0-0.1,0.1-0.1,0.1-0.3v-2.1c0-0.1,0-0.2-0.1-0.3C10.4,10.7,10.3,10.6,10.2,10.6z"/>
		<path class="st1" d="M5,6.2h1V3.7l1.2-3.5h-1L5.5,2.5H5.4L4.8,0.1h-1L5,3.8V6.2z"/>
		<path class="st1" d="M8.6,6.3c0.4,0,0.7-0.1,1-0.3c0.2-0.2,0.4-0.5,0.4-0.9V2.8c0-0.3-0.1-0.6-0.4-0.8C9.3,1.7,9,1.6,8.6,1.6
			c-0.4,0-0.7,0.1-1,0.3C7.4,2.1,7.3,2.4,7.3,2.7V5c0,0.4,0.1,0.7,0.4,0.9C7.9,6.2,8.2,6.3,8.6,6.3z M8.2,2.7c0-0.1,0-0.2,0.1-0.2
			c0.1-0.1,0.2-0.1,0.3-0.1c0.1,0,0.2,0,0.3,0.1C8.9,2.5,9,2.6,9,2.7v2.4c0,0.1,0,0.2-0.1,0.3C8.8,5.5,8.7,5.5,8.6,5.5
			c-0.1,0-0.2,0-0.3-0.1C8.2,5.3,8.2,5.2,8.2,5.1L8.2,2.7z"/>
		<path class="st1" d="M11.3,6.2c0.2,0,0.3,0,0.5-0.1C12,6,12.2,5.9,12.3,5.7v0.5h0.9V1.7h-0.9v3.4c-0.1,0.1-0.2,0.2-0.3,0.2
			c-0.1,0.1-0.2,0.1-0.3,0.1c-0.1,0-0.1,0-0.2-0.1c0,0-0.1-0.1-0.1-0.2V1.7h-0.9v3.7c0,0.3,0.1,0.5,0.2,0.6
			C10.9,6.2,11.1,6.2,11.3,6.2z"/>
	</g>
</g>
</svg>
