<svg width="17" height="16" viewBox="0 0 17 16" fill="none" xmlns="http://www.w3.org/2000/svg">
<g clip-path="url(#clip0_8234_277)">
<path fill-rule="evenodd" clip-rule="evenodd" d="M13.7932 7.57874H3.62863C2.01296 7.57874 0.703247 8.88976 0.703247 10.5051V12.8565C0.703247 14.4718 2.01296 15.7825 3.62863 15.7825H13.7932C15.4086 15.7825 16.7186 14.4718 16.7186 12.8565V10.5051C16.7186 8.88976 15.4086 7.57874 13.7932 7.57874ZM5.76415 9.40927H4.81917V14.1048H3.90619V9.40927H2.96186V8.61057H5.76415V9.40927ZM8.43353 14.1048H7.62374V13.6607C7.47321 13.8249 7.3181 13.9503 7.15615 14.0349C6.99419 14.1231 6.83778 14.1642 6.68561 14.1642C6.49753 14.1642 6.35778 14.1045 6.2621 13.983C6.16806 13.8618 6.12006 13.6822 6.12006 13.4396V10.0512H6.92986V13.1608C6.92986 13.2568 6.94782 13.3257 6.98015 13.3685C7.01508 13.4125 7.07059 13.4328 7.14668 13.4328C7.20545 13.4328 7.28121 13.4047 7.37231 13.3479C7.46406 13.2904 7.54766 13.2186 7.62374 13.1298V10.0509H8.43353V14.1048ZM11.3736 13.2679C11.3736 13.5542 11.3099 13.7743 11.1829 13.9278C11.0566 14.0813 10.8717 14.1567 10.6324 14.1567C10.473 14.1567 10.3313 14.128 10.2082 14.0685C10.0845 14.0098 9.9679 13.9193 9.86178 13.7939V14.1044H9.04219V8.61057H9.86178V10.38C9.97149 10.2576 10.0874 10.1626 10.2086 10.0989C10.3323 10.0339 10.4567 10.0026 10.5828 10.0026C10.8391 10.0026 11.0343 10.0881 11.1695 10.2609C11.3054 10.4336 11.373 10.6867 11.373 11.0184V13.2679H11.3736ZM14.1828 12.1756H12.633V12.9394C12.633 13.1523 12.6592 13.3005 12.7121 13.3831C12.7663 13.4661 12.8574 13.5066 12.987 13.5066C13.1215 13.5066 13.2146 13.4716 13.2688 13.4018C13.321 13.3312 13.3491 13.1778 13.3491 12.9394V12.7549H14.1828V12.9629C14.1828 13.3782 14.0819 13.6914 13.8771 13.9027C13.6757 14.112 13.372 14.2158 12.9684 14.2158C12.605 14.2158 12.3186 14.1051 12.1106 13.8824C11.9032 13.661 11.7975 13.3538 11.7975 12.9632V11.1425C11.7975 10.7921 11.913 10.5038 12.1426 10.2827C12.3715 10.0617 12.6663 9.95131 13.0291 9.95131C13.4004 9.95131 13.6855 10.0535 13.8843 10.2586C14.0832 10.464 14.1828 10.7578 14.1828 11.1422V12.1756Z" fill="#346275"/>
<path fill-rule="evenodd" clip-rule="evenodd" d="M12.9949 10.6599C12.8655 10.6599 12.7735 10.6962 12.7173 10.7719C12.6598 10.8431 12.6331 10.9649 12.6331 11.135V11.5448H13.3491V11.135C13.3491 10.9649 13.3204 10.8428 13.2636 10.7719C13.2091 10.6965 13.118 10.6599 12.9949 10.6599Z" fill="#346275"/>
<path fill-rule="evenodd" clip-rule="evenodd" d="M10.2007 10.6462C10.1432 10.6462 10.0851 10.659 10.0292 10.6854C9.97243 10.7112 9.91692 10.754 9.86206 10.8095V13.3346C9.92704 13.3999 9.99137 13.4502 10.0541 13.4789C10.1164 13.5066 10.1811 13.5223 10.25 13.5223C10.3496 13.5223 10.4221 13.4936 10.4688 13.4355C10.5148 13.378 10.5383 13.2862 10.5383 13.1566V11.0632C10.5383 10.9254 10.5109 10.8222 10.4534 10.7514C10.394 10.6815 10.3097 10.6462 10.2007 10.6462Z" fill="#346275"/>
<path fill-rule="evenodd" clip-rule="evenodd" d="M4.95955 6.17078H5.98616V3.65976L7.18159 0.117554H6.138L5.50257 2.53715H5.43792L4.77082 0.117554H3.73669L4.95955 3.77274V6.17078Z" fill="#346275"/>
<path fill-rule="evenodd" clip-rule="evenodd" d="M8.5726 6.28339C8.98729 6.28339 9.31251 6.17465 9.54958 5.95718C9.785 5.73873 9.90288 5.44061 9.90288 5.05857V2.75196C9.90288 2.41204 9.78239 2.1322 9.54239 1.91637C9.30076 1.70118 8.99121 1.59277 8.61374 1.59277C8.19904 1.59277 7.86892 1.6953 7.62337 1.90004C7.37847 2.10477 7.25537 2.37939 7.25537 2.72649V5.04094C7.25537 5.42069 7.37521 5.7211 7.61455 5.94641C7.8539 6.17073 8.1739 6.28339 8.5726 6.28339ZM8.19447 2.69253C8.19447 2.59555 8.22941 2.51718 8.29766 2.45579C8.36851 2.39571 8.45831 2.36665 8.56998 2.36665C8.69047 2.36665 8.78811 2.39571 8.86256 2.45579C8.93668 2.51718 8.97357 2.59555 8.97357 2.69253V5.12551C8.97357 5.24469 8.93733 5.33939 8.86386 5.40763C8.79104 5.4762 8.69309 5.50984 8.56998 5.50984C8.44949 5.50984 8.35643 5.47718 8.29113 5.40861C8.2268 5.34167 8.19415 5.24763 8.19415 5.12518L8.19447 2.69253Z" fill="#346275"/>
<path fill-rule="evenodd" clip-rule="evenodd" d="M11.2798 6.2361C11.4513 6.2361 11.6273 6.18712 11.8085 6.09308C11.9917 5.99773 12.167 5.8583 12.3339 5.67642V6.17112H13.2459V1.70581H12.3339V5.0952C12.249 5.19218 12.1546 5.27185 12.0534 5.3352C11.9502 5.39789 11.8653 5.42924 11.7984 5.42924C11.7128 5.42924 11.6498 5.40573 11.6129 5.35708C11.5754 5.31038 11.5541 5.23397 11.5541 5.12916V1.70581H10.6434V5.43773C10.6434 5.70385 10.697 5.90271 10.8028 6.03463C10.9105 6.1685 11.0679 6.2361 11.2798 6.2361Z" fill="#346275"/>
</g>
<defs>
<clipPath id="clip0_8234_277">
<rect width="16.3265" height="16" fill="white" transform="translate(0.43457)"/>
</clipPath>
</defs>
</svg>
