<?xml version="1.0" encoding="utf-8"?>
<!-- Generator: Adobe Illustrator 24.1.2, SVG Export Plug-In . SVG Version: 6.00 Build 0)  -->
<svg version="1.1" id="Layer_2_1_" xmlns="http://www.w3.org/2000/svg" xmlns:xlink="http://www.w3.org/1999/xlink" x="0px" y="0px"
	 viewBox="0 0 798.2 167.5" style="enable-background:new 0 0 798.2 167.5;" xml:space="preserve">
<style type="text/css">
	.st0{fill:#FCF5A3;}
</style>
<g id="Layer_1-2_1_">
	<g id="Layer_1-2">
		<path class="st0" d="M353.3,63.3L310,19.5c-8.9-9-23.5-9.1-32.5-0.2l-43.8,43.4c-6.6,6.5-6.6,17.2-0.1,23.7l42.2,42.6
			c9.5,9.6,25.3,9.7,34.9,0.2L353.2,87C359.8,80.5,359.8,69.8,353.3,63.3z M336.9,77.4l-39,37.3c-2.4,2.3-6.4,2.4-8.9,0.1
			l-39.5-35.7c-2.5-2.3-2.5-6-0.1-8.3l39-37.3c2.4-2.3,6.4-2.4,8.9-0.1l39.5,35.7C339.3,71.4,339.3,75.1,336.9,77.4L336.9,77.4
			L336.9,77.4z"/>
		<path class="st0" d="M410.5,49.8L367,6.7c-8.9-8.9-23.6-8.9-32.6-0.2l-43.9,42.7c-6.6,6.4-6.6,16.9-0.1,23.3l42.3,41.9
			c9.6,9.5,25.3,9.6,35,0.2l42.7-41.5C416.9,66.7,417,56.2,410.5,49.8L410.5,49.8L410.5,49.8z M394.1,63.7L355,100.4
			c-2.4,2.3-6.4,2.3-8.9,0.1l-39.6-35.2c-2.5-2.2-2.5-5.9-0.1-8.2l39.1-36.7c2.4-2.3,6.4-2.3,8.9-0.1l39.6,35.2
			C396.4,57.8,396.5,61.4,394.1,63.7L394.1,63.7L394.1,63.7z"/>
		<path class="st0" d="M28.6,93.6l-8.5,20.3H0l35.5-79.5h25L97,113.8H76l-9.2-20.4C66.8,93.4,28.6,93.6,28.6,93.6z M62.1,79.5
			l-9.2-20c-2.2-4.8-3.9-9.6-5.6-13.9h-0.3c-1.6,4.3-3.1,9.1-5.1,13.8l-8.9,20.1H62.1z"/>
		<path class="st0" d="M121.9,34.4v79.5h-17.1V34.4H121.9z"/>
		<path class="st0" d="M139.9,34.4h20v36.5h0.4c2.7-2.9,5.7-5.6,8.4-8.1l31.4-28.4h25.5L185.3,68l43.3,45.8h-24l-33.8-36.7l-10.9,9
			v27.7h-20L139.9,34.4L139.9,34.4L139.9,34.4z"/>
		<path class="st0" d="M486.9,72.4c3.2,0.8,5.8,2,7.7,3.5c2,1.6,3.5,3.3,4.6,5.1c1.1,1.8,1.9,3.7,2.3,5.7s0.6,3.7,0.6,5.2
			c0,2.2-0.4,4.6-1.2,7.2c-0.8,2.6-2.3,5.1-4.5,7.4c-2.2,2.3-5.2,4.2-9.1,5.7c-3.8,1.6-8.8,2.3-14.8,2.3h-45.9V34.4h46.8
			c8.4,0,14.8,1.8,19.3,5.3c4.5,3.5,6.7,8.6,6.7,15.2c0,3.5-0.9,6.9-2.7,10.1C494.8,68.1,491.6,70.6,486.9,72.4L486.9,72.4
			L486.9,72.4z M483.9,43.2c-2.1-0.9-4.4-1.4-6.9-1.5c-2.5-0.1-4.8-0.2-7.1-0.2h-35.1v28h36c1,0,2.6-0.1,4.8-0.2
			c2.2-0.1,4.5-0.7,6.7-1.5c2.2-0.9,4.2-2.3,5.9-4.2c1.7-2,2.6-4.7,2.6-8.3s-0.7-6.3-2-8.1C487.5,45.3,485.8,44,483.9,43.2
			L483.9,43.2L483.9,43.2z M469.8,76.5h-35v30.8h36.5c1,0,2.7-0.1,5.1-0.2c2.5-0.1,5-0.7,7.5-1.7c2.6-1,4.8-2.5,6.8-4.7
			s2.9-5.3,2.9-9.3c0-3.7-0.8-6.5-2.4-8.5c-1.6-2-3.6-3.5-5.9-4.4c-2.4-1-4.9-1.6-7.7-1.7C474.9,76.6,472.2,76.5,469.8,76.5
			L469.8,76.5L469.8,76.5z"/>
		<path class="st0" d="M564.3,106.1c-2,2.2-4.2,4-6.6,5.4c-2.5,1.3-4.9,2.3-7.4,3c-2.5,0.7-4.9,1.1-7.3,1.3
			c-2.4,0.2-4.5,0.3-6.3,0.3c-0.9,0-2.2,0-3.9-0.1c-1.7-0.1-3.5-0.3-5.4-0.7c-1.9-0.4-3.9-0.9-5.9-1.7s-3.8-1.8-5.5-3.1
			c-1.6-1.3-3-3.1-4-5.1c-1-2.1-1.5-4.6-1.5-7.6s0.7-5.7,2-7.8c1.3-2.1,3.1-3.9,5.4-5.2c2.2-1.3,4.8-2.3,7.7-2.9
			c2.9-0.6,5.8-1,8.9-1.2l21.1-1.3c1.5-0.1,2.7-0.2,3.7-0.4c1-0.2,1.8-0.5,2.4-1s1-1.1,1.3-1.9s0.4-1.9,0.4-3.3
			c0-1.6-0.3-3.1-0.8-4.4c-0.5-1.4-1.5-2.6-3.1-3.6c-1.5-1-3.6-1.8-6.4-2.4s-6.3-0.9-10.6-0.9c-3.8,0-7,0.3-9.5,0.8
			c-2.5,0.5-4.6,1.4-6.2,2.6c-1.6,1.2-2.8,2.7-3.6,4.5c-0.8,1.8-1.4,4-1.7,6.6h-8.5c0.6-4.1,1.6-7.5,3-10.3c1.4-2.7,3.3-4.9,5.8-6.6
			c2.4-1.7,5.3-2.8,8.8-3.6c3.4-0.7,7.5-1.1,12.1-1.1c4.3,0,8.3,0.3,11.9,0.8c3.6,0.5,6.7,1.5,9.2,2.9c2.5,1.4,4.5,3.2,5.9,5.4
			s2.1,5.1,2.1,8.5v32.5c0,0.5,0,0.9,0.1,1.2c0,0.6,0.1,1.2,0.2,1.7c0.2,0.2,0.3,0.4,0.5,0.5c0.2,0.2,0.8,0.2,1.7,0.2
			c0.7,0,1.5-0.1,2.5-0.2c1-0.1,2.4-0.5,4.3-1.1v7.1c-1.5,0.4-2.9,0.8-4.2,1s-2.5,0.3-3.9,0.3c-3.4,0-5.7-0.8-6.8-2.5
			C565.1,111.4,564.4,109.1,564.3,106.1L564.3,106.1L564.3,106.1z M563.5,84.6c-2.1,0.9-4.9,1.5-8.2,1.7l-20.3,1.3
			c-5.1,0.4-9,1.3-11.8,2.8c-2.8,1.5-4.2,4-4.2,7.5c0,2.4,0.6,4.4,1.8,5.8c1.2,1.4,2.7,2.6,4.5,3.3c1.8,0.8,3.8,1.3,5.9,1.6
			c2.1,0.3,4.1,0.4,6,0.4c3,0,6.1-0.3,9.2-0.9s5.9-1.6,8.5-3c2.5-1.4,4.6-3.1,6.2-5.2c1.6-2.1,2.5-4.7,2.5-7.7L563.5,84.6
			L563.5,84.6L563.5,84.6z"/>
		<path class="st0" d="M595.3,64.5c2.3-2.7,5.4-5.1,9.2-7c3.9-2,8.8-2.9,14.6-2.9c4.8,0,8.9,0.5,12.1,1.3c3.3,0.9,6,2.1,8.1,3.5
			c2.2,1.4,3.8,3,5,4.8c1.1,1.8,2,3.6,2.6,5.4c0.6,1.8,0.9,3.5,1,5.2c0.1,1.7,0.1,3,0.1,4.1v35.6h-8.3V79.1c0-2.7-0.3-5.1-0.9-7.3
			c-0.6-2.2-1.6-4-3.2-5.5c-1.5-1.5-3.7-2.7-6.4-3.5c-2.7-0.8-6.1-1.2-10.3-1.2s-7.9,0.5-10.8,1.6c-3,1.1-5.4,2.5-7.3,4.3
			c-1.9,1.8-3.3,3.9-4.2,6.2c-0.9,2.3-1.3,4.7-1.3,7v33.8h-8.3V56.3h8.3L595.3,64.5L595.3,64.5L595.3,64.5z"/>
		<path class="st0" d="M713.9,114.5l-29.5-30.9l-14.3,9.8v21.1h-8.3V34.4h8.3v50l40.5-28.1h12.9L691,78.8l34.2,35.7L713.9,114.5
			L713.9,114.5z"/>
		<path class="st0" d="M761.2,158.2l-10.4-11.4l-5,3.6v7.8h-2.9v-29.4h2.9v18.4l14.3-10.3h4.5l-11.4,8.3l12,13.1L761.2,158.2
			L761.2,158.2z"/>
		<path class="st0" d="M779.8,106.1c-2,2.2-4.2,4-6.6,5.4c-2.5,1.3-4.9,2.3-7.4,3c-2.5,0.7-4.9,1.1-7.3,1.3
			c-2.4,0.2-4.5,0.3-6.3,0.3c-0.9,0-2.2,0-3.9-0.1c-1.7-0.1-3.5-0.3-5.4-0.7c-1.9-0.4-3.9-0.9-5.9-1.7s-3.8-1.8-5.5-3.1
			c-1.6-1.3-3-3.1-4-5.1c-1-2.1-1.5-4.6-1.5-7.6s0.7-5.7,2-7.8c1.3-2.1,3.1-3.9,5.4-5.2c2.2-1.3,4.8-2.3,7.7-2.9
			c2.9-0.6,5.8-1,8.9-1.2l21.1-1.3c1.5-0.1,2.7-0.2,3.7-0.4c1-0.2,1.8-0.5,2.4-1s1-1.1,1.3-1.9s0.4-1.9,0.4-3.3
			c0-1.6-0.3-3.1-0.8-4.4c-0.5-1.4-1.5-2.6-3.1-3.6c-1.5-1-3.6-1.8-6.4-2.4s-6.3-0.9-10.6-0.9c-3.8,0-7,0.3-9.5,0.8
			c-2.5,0.5-4.6,1.4-6.2,2.6c-1.6,1.2-2.8,2.7-3.6,4.5c-0.8,1.8-1.4,4-1.7,6.6h-8.5c0.6-4.1,1.6-7.5,3-10.3c1.4-2.7,3.3-4.9,5.8-6.6
			c2.4-1.7,5.3-2.8,8.8-3.6c3.4-0.7,7.5-1.1,12.1-1.1c4.3,0,8.3,0.3,11.9,0.8c3.6,0.5,6.7,1.5,9.2,2.9c2.5,1.4,4.5,3.2,5.9,5.4
			s2.1,5.1,2.1,8.5v32.5c0,0.5,0,0.9,0.1,1.2c0,0.6,0.1,1.2,0.2,1.7c0.2,0.2,0.3,0.4,0.5,0.5c0.2,0.2,0.8,0.2,1.7,0.2
			c0.7,0,1.5-0.1,2.5-0.2c1-0.1,2.4-0.5,4.3-1.1v7.1c-1.5,0.4-2.9,0.8-4.2,1s-2.5,0.3-3.9,0.3c-3.4,0-5.7-0.8-6.8-2.5
			C780.6,111.4,780,109.1,779.8,106.1L779.8,106.1L779.8,106.1z M779,84.6c-2.1,0.9-4.9,1.5-8.2,1.7l-20.3,1.3
			c-5.1,0.4-9,1.3-11.8,2.8c-2.8,1.5-4.2,4-4.2,7.5c0,2.4,0.6,4.4,1.8,5.8c1.2,1.4,2.7,2.6,4.5,3.3c1.8,0.8,3.8,1.3,5.9,1.6
			c2.1,0.3,4.1,0.4,6,0.4c3,0,6.1-0.3,9.2-0.9s5.9-1.6,8.5-3c2.5-1.4,4.6-3.1,6.2-5.2c1.6-2.1,2.5-4.7,2.5-7.7L779,84.6L779,84.6
			L779,84.6z"/>
		<path class="st0" d="M565.4,155c-0.7,0.8-1.5,1.5-2.4,2c-0.9,0.5-1.8,0.9-2.7,1.1s-1.8,0.4-2.7,0.5s-1.6,0.1-2.3,0.1
			c-0.3,0-0.8,0-1.4,0c-0.6,0-1.3-0.1-2-0.2c-0.7-0.1-1.4-0.3-2.2-0.6s-1.4-0.7-2-1.2c-0.6-0.5-1.1-1.1-1.5-1.9
			c-0.4-0.8-0.6-1.7-0.6-2.8s0.3-2.1,0.8-2.9s1.2-1.4,2-1.9c0.8-0.5,1.8-0.9,2.8-1.1s2.2-0.4,3.3-0.5l7.8-0.5c0.5,0,1-0.1,1.4-0.2
			c0.4-0.1,0.7-0.2,0.9-0.4s0.4-0.4,0.5-0.7c0.1-0.3,0.1-0.7,0.1-1.2c0-0.6-0.1-1.1-0.3-1.6c-0.2-0.5-0.6-0.9-1.1-1.3
			c-0.6-0.4-1.3-0.7-2.3-0.9c-1-0.2-2.3-0.3-3.9-0.3c-1.4,0-2.6,0.1-3.5,0.3c-0.9,0.2-1.7,0.5-2.3,1c-0.6,0.4-1,1-1.3,1.7
			s-0.5,1.5-0.6,2.4h-3.1c0.2-1.5,0.6-2.8,1.1-3.8c0.5-1,1.2-1.8,2.1-2.4c0.9-0.6,2-1.1,3.2-1.3c1.3-0.3,2.8-0.4,4.5-0.4
			c1.6,0,3.1,0.1,4.4,0.3s2.5,0.6,3.4,1.1s1.7,1.2,2.2,2s0.8,1.9,0.8,3.2v12c0,0.2,0,0.3,0,0.5c0,0.2,0,0.4,0.1,0.6
			c0.1,0.1,0.1,0.1,0.2,0.2s0.3,0.1,0.6,0.1c0.2,0,0.5,0,0.9-0.1c0.4-0.1,0.9-0.2,1.6-0.4v2.6c-0.6,0.2-1.1,0.3-1.5,0.4
			s-0.9,0.1-1.5,0.1c-1.3,0-2.1-0.3-2.5-0.9C565.7,156.9,565.5,156.1,565.4,155L565.4,155L565.4,155z M565.1,147
			c-0.8,0.4-1.8,0.6-3,0.6l-7.5,0.5c-1.9,0.1-3.3,0.5-4.3,1c-1,0.6-1.5,1.5-1.5,2.8c0,0.9,0.2,1.6,0.7,2.2c0.4,0.5,1,0.9,1.7,1.2
			c0.7,0.3,1.4,0.5,2.2,0.6c0.8,0.1,1.5,0.1,2.2,0.1c1.1,0,2.3-0.1,3.4-0.3c1.2-0.2,2.2-0.6,3.1-1.1c0.9-0.5,1.7-1.1,2.3-1.9
			c0.6-0.8,0.9-1.7,0.9-2.8L565.1,147L565.1,147L565.1,147z"/>
		<path class="st0" d="M630.8,155c-0.7,0.8-1.5,1.5-2.4,2c-0.9,0.5-1.8,0.9-2.7,1.1s-1.8,0.4-2.7,0.5s-1.6,0.1-2.3,0.1
			c-0.3,0-0.8,0-1.4,0c-0.6,0-1.3-0.1-2-0.2c-0.7-0.1-1.4-0.3-2.2-0.6s-1.4-0.7-2-1.2c-0.6-0.5-1.1-1.1-1.5-1.9
			c-0.4-0.8-0.6-1.7-0.6-2.8s0.3-2.1,0.8-2.9s1.2-1.4,2-1.9c0.8-0.5,1.8-0.9,2.8-1.1s2.2-0.4,3.3-0.5l7.8-0.5c0.5,0,1-0.1,1.4-0.2
			c0.4-0.1,0.7-0.2,0.9-0.4s0.4-0.4,0.5-0.7c0.1-0.3,0.1-0.7,0.1-1.2c0-0.6-0.1-1.1-0.3-1.6c-0.2-0.5-0.6-0.9-1.1-1.3
			c-0.6-0.4-1.3-0.7-2.3-0.9c-1-0.2-2.3-0.3-3.9-0.3c-1.4,0-2.6,0.1-3.5,0.3c-0.9,0.2-1.7,0.5-2.3,1c-0.6,0.4-1,1-1.3,1.7
			s-0.5,1.5-0.6,2.4h-3.1c0.2-1.5,0.6-2.8,1.1-3.8c0.5-1,1.2-1.8,2.1-2.4c0.9-0.6,2-1.1,3.2-1.3c1.3-0.3,2.8-0.4,4.5-0.4
			c1.6,0,3.1,0.1,4.4,0.3s2.5,0.6,3.4,1.1s1.7,1.2,2.2,2s0.8,1.9,0.8,3.2v12c0,0.2,0,0.3,0,0.5c0,0.2,0,0.4,0.1,0.6
			c0.1,0.1,0.1,0.1,0.2,0.2s0.3,0.1,0.6,0.1c0.2,0,0.5,0,0.9-0.1c0.4-0.1,0.9-0.2,1.6-0.4v2.6c-0.6,0.2-1.1,0.3-1.5,0.4
			s-0.9,0.1-1.5,0.1c-1.3,0-2.1-0.3-2.5-0.9C631.1,157,630.8,156.1,630.8,155L630.8,155L630.8,155z M630.4,147.1
			c-0.8,0.4-1.8,0.6-3,0.6l-7.5,0.5c-1.9,0.1-3.3,0.5-4.3,1c-1,0.6-1.5,1.5-1.5,2.8c0,0.9,0.2,1.6,0.7,2.2c0.4,0.5,1,0.9,1.7,1.2
			c0.7,0.3,1.4,0.5,2.2,0.6c0.8,0.1,1.5,0.1,2.2,0.1c1.1,0,2.3-0.1,3.4-0.3c1.2-0.2,2.2-0.6,3.1-1.1c0.9-0.5,1.7-1.1,2.3-1.9
			c0.6-0.8,0.9-1.7,0.9-2.8L630.4,147.1L630.4,147.1L630.4,147.1z"/>
		<path class="st0" d="M728.3,154.8c-0.7,0.8-1.5,1.5-2.4,2c-0.9,0.5-1.8,0.9-2.7,1.1s-1.8,0.4-2.7,0.5s-1.6,0.1-2.3,0.1
			c-0.3,0-0.8,0-1.4,0c-0.6,0-1.3-0.1-2-0.2c-0.7-0.1-1.4-0.3-2.2-0.6s-1.4-0.7-2-1.2c-0.6-0.5-1.1-1.1-1.5-1.9
			c-0.4-0.8-0.6-1.7-0.6-2.8s0.3-2.1,0.8-2.9s1.2-1.4,2-1.9c0.8-0.5,1.8-0.9,2.8-1.1s2.2-0.4,3.3-0.5l7.8-0.5c0.5,0,1-0.1,1.4-0.2
			c0.4-0.1,0.7-0.2,0.9-0.4s0.4-0.4,0.5-0.7c0.1-0.3,0.1-0.7,0.1-1.2c0-0.6-0.1-1.1-0.3-1.6c-0.2-0.5-0.6-0.9-1.1-1.3
			c-0.6-0.4-1.3-0.7-2.3-0.9c-1-0.2-2.3-0.3-3.9-0.3c-1.4,0-2.6,0.1-3.5,0.3c-0.9,0.2-1.7,0.5-2.3,1c-0.6,0.4-1,1-1.3,1.7
			s-0.5,1.5-0.6,2.4h-3.1c0.2-1.5,0.6-2.8,1.1-3.8c0.5-1,1.2-1.8,2.1-2.4c0.9-0.6,2-1.1,3.2-1.3c1.3-0.3,2.8-0.4,4.5-0.4
			c1.6,0,3.1,0.1,4.4,0.3s2.5,0.6,3.4,1.1s1.7,1.2,2.2,2s0.8,1.9,0.8,3.2v12c0,0.2,0,0.3,0,0.5c0,0.2,0,0.4,0.1,0.6
			c0.1,0.1,0.1,0.1,0.2,0.2s0.3,0.1,0.6,0.1c0.2,0,0.5,0,0.9-0.1c0.4-0.1,0.9-0.2,1.6-0.4v2.6c-0.6,0.2-1.1,0.3-1.5,0.4
			s-0.9,0.1-1.5,0.1c-1.3,0-2.1-0.3-2.5-0.9C728.6,156.7,728.4,155.8,728.3,154.8L728.3,154.8L728.3,154.8z M728,146.8
			c-0.8,0.4-1.8,0.6-3,0.6l-7.5,0.5c-1.9,0.1-3.3,0.5-4.3,1c-1,0.6-1.5,1.5-1.5,2.8c0,0.9,0.2,1.6,0.7,2.2c0.4,0.5,1,0.9,1.7,1.2
			c0.7,0.3,1.4,0.5,2.2,0.6c0.8,0.1,1.5,0.1,2.2,0.1c1.1,0,2.3-0.1,3.4-0.3c1.2-0.2,2.2-0.6,3.1-1.1c0.9-0.5,1.7-1.1,2.3-1.9
			c0.6-0.8,0.9-1.7,0.9-2.8L728,146.8L728,146.8L728,146.8z"/>
		<path class="st0" d="M792,154.8c-0.7,0.8-1.5,1.5-2.4,2c-0.9,0.5-1.8,0.9-2.7,1.1s-1.8,0.4-2.7,0.5s-1.6,0.1-2.3,0.1
			c-0.3,0-0.8,0-1.4,0c-0.6,0-1.3-0.1-2-0.2c-0.7-0.1-1.4-0.3-2.2-0.6s-1.4-0.7-2-1.2c-0.6-0.5-1.1-1.1-1.5-1.9
			c-0.4-0.8-0.6-1.7-0.6-2.8s0.3-2.1,0.8-2.9s1.2-1.4,2-1.9c0.8-0.5,1.8-0.9,2.8-1.1s2.2-0.4,3.3-0.5l7.8-0.5c0.5,0,1-0.1,1.4-0.2
			c0.4-0.1,0.7-0.2,0.9-0.4s0.4-0.4,0.5-0.7c0.1-0.3,0.1-0.7,0.1-1.2c0-0.6-0.1-1.1-0.3-1.6c-0.2-0.5-0.6-0.9-1.1-1.3
			c-0.6-0.4-1.3-0.7-2.3-0.9c-1-0.2-2.3-0.3-3.9-0.3c-1.4,0-2.6,0.1-3.5,0.3c-0.9,0.2-1.7,0.5-2.3,1c-0.6,0.4-1,1-1.3,1.7
			s-0.5,1.5-0.6,2.4h-3.1c0.2-1.5,0.6-2.8,1.1-3.8c0.5-1,1.2-1.8,2.1-2.4c0.9-0.6,2-1.1,3.2-1.3c1.3-0.3,2.8-0.4,4.5-0.4
			c1.6,0,3.1,0.1,4.4,0.3s2.5,0.6,3.4,1.1s1.7,1.2,2.2,2s0.8,1.9,0.8,3.2v12c0,0.2,0,0.3,0,0.5c0,0.2,0,0.4,0.1,0.6
			c0.1,0.1,0.1,0.1,0.2,0.2s0.3,0.1,0.6,0.1c0.2,0,0.5,0,0.9-0.1c0.4-0.1,0.9-0.2,1.6-0.4v2.6c-0.6,0.2-1.1,0.3-1.5,0.4
			s-0.9,0.1-1.5,0.1c-1.3,0-2.1-0.3-2.5-0.9C792.3,156.7,792.1,155.8,792,154.8L792,154.8L792,154.8z M791.7,146.8
			c-0.8,0.4-1.8,0.6-3,0.6l-7.5,0.5c-1.9,0.1-3.3,0.5-4.3,1c-1,0.6-1.5,1.5-1.5,2.8c0,0.9,0.2,1.6,0.7,2.2c0.4,0.5,1,0.9,1.7,1.2
			c0.7,0.3,1.4,0.5,2.2,0.6c0.8,0.1,1.5,0.1,2.2,0.1c1.1,0,2.3-0.1,3.4-0.3c1.2-0.2,2.2-0.6,3.1-1.1c0.9-0.5,1.7-1.1,2.3-1.9
			c0.6-0.8,0.9-1.7,0.9-2.8L791.7,146.8L791.7,146.8L791.7,146.8z"/>
		<path class="st0" d="M450.2,128.9v29.3h-3.1v-3.6c-1.3,1.4-2.8,2.4-4.5,3.1s-3.5,1.1-5.4,1.1c-3.5,0-6.5-1.1-9-3.3
			s-3.7-4.8-3.7-7.9s1.3-5.6,3.8-7.8s5.5-3.3,9-3.3c2,0,3.9,0.4,5.5,1.1s3.1,1.9,4.3,3.3v-12.1L450.2,128.9L450.2,128.9z
			 M437.5,139.1c-1.8,0-3.4,0.4-4.9,1.1s-2.7,1.8-3.6,3.1s-1.3,2.8-1.3,4.3s0.5,2.9,1.3,4.3s2.1,2.4,3.6,3.2s3.1,1.1,4.8,1.1
			s3.4-0.4,4.9-1.1s2.8-1.8,3.6-3.1s1.3-2.7,1.3-4.3c0-2.4-0.9-4.5-2.8-6.1S440.3,139.1,437.5,139.1L437.5,139.1L437.5,139.1z"/>
		<path class="st0" d="M473.4,136.2c3.8,0,7,1.2,9.5,3.6c2.3,2.2,3.4,4.8,3.4,7.7s-1.2,5.6-3.6,7.9c-2.4,2.2-5.5,3.4-9.3,3.4
			s-6.9-1.1-9.3-3.4s-3.6-4.9-3.6-7.9s1.1-5.5,3.4-7.7C466.4,137.4,469.6,136.2,473.4,136.2L473.4,136.2L473.4,136.2z M473.4,138.9
			c-2.6,0-4.9,0.9-6.8,2.5c-1.9,1.7-2.9,3.7-2.9,6.1c0,1.6,0.4,3,1.3,4.3s2,2.4,3.5,3.1c1.5,0.7,3.1,1.1,4.9,1.1s3.4-0.4,4.9-1.1
			s2.6-1.8,3.5-3.1s1.3-2.8,1.3-4.3c0-2.4-1-4.4-2.9-6.1S476,138.9,473.4,138.9L473.4,138.9L473.4,138.9z"/>
		<path class="st0" d="M496.9,136.8h3.2v3.8c1.1-1.4,2.2-2.4,3.4-3.1c1.6-0.9,3.3-1.3,5.1-1.3c1.2,0,2.3,0.2,3.4,0.6s2,1,2.6,1.7
			c0.7,0.7,1.3,1.7,1.8,3c1.1-1.7,2.4-3,4-3.9s3.3-1.3,5.1-1.3c1.7,0,3.2,0.4,4.5,1.1c1.3,0.8,2.3,1.8,2.9,3.2c0.6,1.4,1,3.4,1,6.2
			v12h-3.3v-12c0-2.4-0.2-4-0.6-4.9s-1-1.6-1.9-2.1s-2-0.8-3.3-0.8c-1.5,0-3,0.4-4.2,1.2s-2.2,1.9-2.8,3.2c-0.6,1.4-0.9,3.6-0.9,6.7
			v8.6h-3.2v-11.2c0-2.6-0.2-4.4-0.6-5.4s-1-1.7-1.9-2.3s-2-0.9-3.3-0.9c-1.5,0-2.8,0.4-4.1,1.2s-2.2,1.9-2.8,3.2s-0.9,3.4-0.9,6.1
			v9.3h-3.2L496.9,136.8L496.9,136.8L496.9,136.8z"/>
		<path class="st0" d="M602.2,140.5l-2.5,1.4c-2.2-2.6-5.2-3.9-8.9-3.9c-3,0-5.5,0.9-7.5,2.6c-2,1.7-3,3.9-3,6.4
			c0,1.6,0.5,3.1,1.4,4.6s2.2,2.5,3.8,3.3s3.4,1.2,5.4,1.2c3.6,0,6.6-1.3,8.9-3.9l2.5,1.5c-1.2,1.6-2.8,2.9-4.8,3.7
			s-4.3,1.3-6.8,1.3c-3.9,0-7.2-1.1-9.7-3.4s-3.9-5-3.9-8.2c0-2.2,0.6-4.2,1.8-6s2.9-3.3,5-4.3s4.5-1.6,7.1-1.6
			c1.6,0,3.2,0.2,4.7,0.7s2.8,1,3.9,1.8S601.5,139.3,602.2,140.5L602.2,140.5L602.2,140.5z"/>
		<path class="st0" d="M664.4,128c0.7,0,1.3,0.2,1.8,0.7c0.5,0.5,0.8,1,0.8,1.7s-0.3,1.2-0.8,1.7c-0.5,0.5-1.1,0.7-1.8,0.7
			s-1.3-0.2-1.8-0.7c-0.5-0.5-0.8-1-0.8-1.7s0.3-1.2,0.8-1.7C663.1,128.2,663.7,128,664.4,128z M662.8,137.2h3.2v22.3h-3.2V137.2z"
			/>
		<path class="st0" d="M694.8,137.2h3.2v25.1c0,1.8-0.4,3.2-1.1,4s-1.8,1.3-3.1,1.3c-1.1,0-2.3-0.2-3.6-0.7v-2.5
			c0.8,0.4,1.6,0.6,2.3,0.6c0.9,0,1.5-0.3,1.9-0.9c0.3-0.4,0.4-1.2,0.4-2.5L694.8,137.2L694.8,137.2L694.8,137.2z M696.4,128.2
			c0.7,0,1.3,0.2,1.8,0.7s0.8,1,0.8,1.6s-0.3,1.2-0.8,1.6s-1.1,0.7-1.8,0.7s-1.3-0.2-1.8-0.7s-0.8-1-0.8-1.6s0.3-1.2,0.8-1.6
			S695.7,128.2,696.4,128.2z"/>
		<polygon class="st0" points="589.7,133.6 592.3,133.6 597.8,128.1 594.8,128.1 		"/>
	</g>
</g>
</svg>
