<?xml version="1.0" encoding="UTF-8"?>
<svg id="Layer_2" data-name="Layer 2" xmlns="http://www.w3.org/2000/svg" viewBox="0 0 798.2 167.51">
  <defs>
    <style>
      .cls-1 {
        fill:#346275;
      }
    </style>
  </defs>
  <g id="Layer_1-2" data-name="Layer 1">
    <g id="Layer_1-2" data-name="Layer 1-2">
      <path class="cls-1" d="M353.32,63.3l-43.37-43.82c-8.91-9-23.55-9.08-32.55-.17l-43.82,43.37c-6.55,6.48-6.61,17.15-.12,23.7l42.19,42.63c9.55,9.65,25.27,9.74,34.92,.18l42.63-42.19c6.55-6.48,6.61-17.15,.12-23.7Zm-16.39,14.13l-38.98,37.3c-2.42,2.31-6.43,2.37-8.91,.12l-39.47-35.72c-2.48-2.25-2.53-5.98-.11-8.29l38.98-37.3c2.42-2.31,6.43-2.37,8.91-.12l39.47,35.72c2.48,2.25,2.53,5.98,.11,8.29h0Z"/>
      <path class="cls-1" d="M410.48,49.81L367.01,6.69c-8.93-8.86-23.61-8.93-32.63-.17l-43.93,42.67c-6.57,6.38-6.62,16.88-.12,23.32l42.29,41.95c9.58,9.5,25.33,9.58,35.01,.18l42.73-41.51c6.57-6.38,6.62-16.88,.12-23.32h0Zm-16.43,13.9l-39.08,36.71c-2.42,2.28-6.44,2.33-8.93,.12l-39.56-35.15c-2.49-2.21-2.54-5.88-.12-8.16l39.08-36.71c2.42-2.28,6.44-2.33,8.93-.12l39.56,35.15c2.49,2.21,2.54,5.88,.12,8.16h0Z"/>
      <path class="cls-1" d="M28.59,93.61l-8.45,20.25H0L35.51,34.4h24.95l36.57,79.45h-21.07l-9.17-20.44s-38.2,.2-38.2,.2Zm33.55-14.14l-9.15-20.02c-2.17-4.83-3.94-9.6-5.6-13.89h-.3c-1.57,4.34-3.13,9.15-5.09,13.8l-8.87,20.11h29.01Z"/>
      <path class="cls-1" d="M121.87,34.4V113.86h-17.12V34.4h17.12Z"/>
      <path class="cls-1" d="M139.89,34.4h19.99v36.51h.45c2.69-2.93,5.69-5.59,8.4-8.08l31.38-28.43h25.51l-40.33,33.63,43.34,45.82h-24.02l-33.84-36.73-10.89,8.99v27.74h-19.99V34.4h0Z"/>
      <path class="cls-1" d="M486.93,72.38c3.18,.79,5.76,1.97,7.71,3.52,1.96,1.55,3.49,3.25,4.59,5.08,1.1,1.84,1.86,3.73,2.27,5.68s.61,3.68,.61,5.19c0,2.16-.41,4.56-1.22,7.19-.82,2.63-2.33,5.08-4.53,7.36-2.2,2.27-5.23,4.18-9.06,5.73-3.84,1.55-8.78,2.33-14.82,2.33h-45.92V34.4h46.77c8.41,0,14.83,1.75,19.29,5.25,4.45,3.5,6.67,8.57,6.67,15.2,0,3.53-.9,6.89-2.69,10.06-1.8,3.17-5.02,5.66-9.67,7.46h0Zm-3.06-29.2c-2.12-.87-4.41-1.37-6.86-1.51-2.45-.14-4.82-.22-7.1-.22h-35.14v28.02h36c.98,0,2.59-.07,4.84-.22,2.24-.14,4.49-.65,6.73-1.51,2.24-.87,4.23-2.27,5.94-4.22,1.71-1.95,2.57-4.72,2.57-8.33s-.67-6.31-2.02-8.11c-1.35-1.8-3-3.1-4.96-3.89h0Zm-14.08,33.31h-35.02v30.83h36.49c.98,0,2.69-.07,5.14-.22,2.45-.14,4.96-.7,7.53-1.68,2.57-.97,4.84-2.54,6.8-4.71s2.94-5.26,2.94-9.3c0-3.68-.8-6.51-2.39-8.49-1.59-1.98-3.57-3.46-5.94-4.44-2.37-.97-4.94-1.55-7.71-1.73-2.78-.18-5.39-.27-7.84-.27h0Z"/>
      <path class="cls-1" d="M564.31,106.13c-1.96,2.24-4.16,4.02-6.61,5.36-2.45,1.34-4.92,2.34-7.41,3.03-2.49,.68-4.92,1.14-7.29,1.35-2.37,.22-4.45,.32-6.25,.32-.9,0-2.18-.04-3.86-.11-1.67-.07-3.47-.29-5.39-.65-1.92-.36-3.88-.92-5.88-1.68s-3.82-1.8-5.45-3.14c-1.63-1.33-2.96-3.05-3.98-5.14-1.02-2.09-1.53-4.61-1.53-7.57s.67-5.72,2.02-7.84c1.35-2.13,3.14-3.86,5.39-5.19,2.24-1.33,4.8-2.31,7.65-2.92,2.86-.61,5.84-1.03,8.94-1.24l21.06-1.3c1.47-.07,2.69-.22,3.67-.43,.98-.22,1.78-.54,2.39-.97s1.04-1.06,1.29-1.89,.37-1.93,.37-3.3c0-1.59-.27-3.06-.8-4.44-.53-1.37-1.55-2.56-3.06-3.57-1.51-1.01-3.63-1.8-6.37-2.38s-6.27-.87-10.59-.87c-3.84,0-7.02,.27-9.55,.81-2.53,.54-4.59,1.41-6.18,2.6-1.59,1.19-2.8,2.69-3.61,4.49-.82,1.8-1.39,4-1.71,6.6h-8.45c.57-4.11,1.57-7.54,3-10.28,1.43-2.74,3.35-4.94,5.75-6.6,2.41-1.66,5.33-2.85,8.75-3.57,3.43-.72,7.47-1.08,12.12-1.08,4.33,0,8.28,.27,11.88,.81,3.59,.54,6.65,1.5,9.18,2.87,2.53,1.37,4.49,3.17,5.88,5.41s2.08,5.08,2.08,8.55v32.51c0,.47,.04,.88,.12,1.24,0,.58,.08,1.15,.24,1.73,.16,.22,.35,.4,.55,.54,.2,.15,.75,.22,1.65,.22,.65,0,1.47-.07,2.45-.22,.98-.14,2.41-.5,4.29-1.08v7.14c-1.55,.43-2.94,.76-4.16,.97s-2.53,.32-3.92,.32c-3.43,0-5.69-.83-6.8-2.49-1.1-1.66-1.74-3.97-1.9-6.92h.03Zm-.86-21.53c-2.12,.94-4.86,1.51-8.2,1.73l-20.33,1.3c-5.06,.36-8.98,1.3-11.75,2.81-2.78,1.51-4.16,4-4.16,7.46,0,2.45,.59,4.4,1.78,5.84,1.18,1.44,2.67,2.56,4.47,3.35,1.79,.79,3.75,1.32,5.88,1.57,2.12,.25,4.12,.38,6,.38,3.02,0,6.08-.31,9.18-.92s5.92-1.6,8.45-2.98c2.53-1.37,4.61-3.1,6.24-5.19,1.63-2.09,2.45-4.65,2.45-7.68v-7.68h-.01Z"/>
      <path class="cls-1" d="M595.29,64.48c2.28-2.74,5.37-5.08,9.24-7.03,3.88-1.95,8.76-2.92,14.63-2.92,4.82,0,8.86,.45,12.12,1.35,3.26,.9,5.98,2.06,8.14,3.46,2.16,1.41,3.82,3.01,4.96,4.81,1.14,1.8,2,3.61,2.57,5.41,.57,1.8,.9,3.53,.98,5.19,.08,1.66,.12,3.03,.12,4.11v35.59h-8.33v-35.38c0-2.67-.29-5.08-.86-7.25-.57-2.16-1.63-4-3.18-5.52-1.55-1.51-3.67-2.69-6.37-3.52-2.69-.83-6.12-1.24-10.29-1.24s-7.86,.54-10.84,1.62c-2.98,1.08-5.43,2.53-7.35,4.33-1.92,1.8-3.33,3.86-4.22,6.17-.9,2.31-1.35,4.65-1.35,7.03v33.75h-8.33V56.26h8.33v8.22h.03Z"/>
      <path class="cls-1" d="M713.94,114.46l-29.51-30.94-14.33,9.85v21.1h-8.33V34.4h8.33v49.98l40.53-28.13h12.86l-32.45,22.5,34.16,35.7h-11.26Z"/>
      <path class="cls-1" d="M761.16,158.19l-10.38-11.37-5.04,3.62v7.75h-2.93v-29.43h2.93v18.37l14.26-10.34h4.52l-11.42,8.27,12.02,13.12h-3.96Z"/>
      <path class="cls-1" d="M779.82,106.13c-1.96,2.24-4.16,4.02-6.61,5.36-2.45,1.34-4.92,2.34-7.41,3.03-2.49,.68-4.92,1.14-7.29,1.35-2.37,.22-4.45,.32-6.25,.32-.9,0-2.18-.04-3.86-.11-1.67-.07-3.47-.29-5.39-.65-1.92-.36-3.88-.92-5.88-1.68s-3.82-1.8-5.45-3.14c-1.63-1.33-2.96-3.05-3.98-5.14-1.02-2.09-1.53-4.61-1.53-7.57s.67-5.72,2.02-7.84c1.35-2.13,3.14-3.86,5.39-5.19,2.24-1.33,4.8-2.31,7.65-2.92,2.86-.61,5.84-1.03,8.94-1.24l21.06-1.3c1.47-.07,2.69-.22,3.67-.43,.98-.22,1.78-.54,2.39-.97s1.04-1.06,1.29-1.89,.37-1.93,.37-3.3c0-1.59-.27-3.06-.8-4.44-.53-1.37-1.55-2.56-3.06-3.57-1.51-1.01-3.63-1.8-6.37-2.38s-6.27-.87-10.59-.87c-3.84,0-7.02,.27-9.55,.81-2.53,.54-4.59,1.41-6.18,2.6-1.59,1.19-2.8,2.69-3.61,4.49-.82,1.8-1.39,4-1.71,6.6h-8.45c.57-4.11,1.57-7.54,3-10.28,1.43-2.74,3.35-4.94,5.75-6.6,2.41-1.66,5.33-2.85,8.75-3.57,3.43-.72,7.47-1.08,12.12-1.08,4.33,0,8.28,.27,11.88,.81,3.59,.54,6.65,1.5,9.18,2.87,2.53,1.37,4.49,3.17,5.88,5.41s2.08,5.08,2.08,8.55v32.51c0,.47,.04,.88,.12,1.24,0,.58,.08,1.15,.24,1.73,.16,.22,.35,.4,.55,.54,.2,.15,.75,.22,1.65,.22,.65,0,1.47-.07,2.45-.22,.98-.14,2.41-.5,4.29-1.08v7.14c-1.55,.43-2.94,.76-4.16,.97s-2.53,.32-3.92,.32c-3.43,0-5.69-.83-6.8-2.49-1.1-1.66-1.74-3.97-1.9-6.92h.03Zm-.86-21.53c-2.12,.94-4.86,1.51-8.2,1.73l-20.33,1.3c-5.06,.36-8.98,1.3-11.75,2.81-2.78,1.51-4.16,4-4.16,7.46,0,2.45,.59,4.4,1.78,5.84,1.18,1.44,2.67,2.56,4.47,3.35,1.79,.79,3.75,1.32,5.88,1.57,2.12,.25,4.12,.38,6,.38,3.02,0,6.08-.31,9.18-.92s5.92-1.6,8.45-2.98c2.53-1.37,4.61-3.1,6.24-5.19,1.63-2.09,2.45-4.65,2.45-7.68v-7.68h-.01Z"/>
      <path class="cls-1" d="M565.39,154.99c-.72,.83-1.54,1.48-2.44,1.98-.9,.49-1.82,.87-2.74,1.12s-1.82,.42-2.69,.5-1.64,.12-2.31,.12c-.33,0-.81,0-1.42-.04-.62-.03-1.28-.11-1.99-.24-.71-.13-1.43-.34-2.17-.62s-1.41-.67-2.01-1.16c-.6-.49-1.09-1.12-1.47-1.9-.38-.77-.57-1.7-.57-2.8s.25-2.11,.75-2.9,1.16-1.42,1.99-1.92c.83-.49,1.77-.85,2.83-1.08s2.15-.38,3.3-.46l7.78-.48c.54-.03,.99-.08,1.36-.16,.36-.08,.66-.2,.88-.36s.38-.39,.47-.7c.09-.31,.14-.71,.14-1.22,0-.59-.1-1.13-.29-1.64-.2-.51-.57-.94-1.13-1.32-.56-.37-1.34-.67-2.35-.88-1.01-.21-2.31-.32-3.91-.32-1.42,0-2.59,.1-3.53,.3-.93,.2-1.7,.52-2.28,.96-.59,.44-1.03,.99-1.33,1.66s-.51,1.48-.63,2.44h-3.12c.21-1.52,.58-2.78,1.11-3.8,.53-1.01,1.24-1.82,2.13-2.44,.89-.61,1.97-1.05,3.23-1.32,1.27-.27,2.76-.4,4.48-.4,1.6,0,3.06,.1,4.39,.3s2.46,.55,3.39,1.06,1.66,1.17,2.17,2,.77,1.88,.77,3.16v12c0,.17,.01,.33,.05,.46,0,.21,.03,.43,.09,.64,.06,.08,.13,.15,.2,.2s.28,.08,.61,.08c.24,0,.54-.03,.9-.08,.36-.05,.89-.19,1.58-.4v2.64c-.57,.16-1.09,.28-1.54,.36s-.93,.12-1.45,.12c-1.27,0-2.1-.31-2.51-.92-.41-.61-.64-1.46-.7-2.56l-.02,.02Zm-.32-7.95c-.78,.35-1.79,.56-3.03,.64l-7.51,.48c-1.87,.13-3.32,.48-4.34,1.04-1.03,.56-1.54,1.48-1.54,2.76,0,.91,.22,1.62,.66,2.16,.44,.53,.99,.95,1.65,1.24,.66,.29,1.39,.49,2.17,.58,.78,.09,1.52,.14,2.22,.14,1.11,0,2.25-.11,3.39-.34,1.15-.23,2.19-.59,3.12-1.1,.93-.51,1.7-1.14,2.31-1.92,.6-.77,.9-1.72,.9-2.84v-2.84h0Z"/>
      <path class="cls-1" d="M630.76,155.04c-.72,.83-1.54,1.48-2.44,1.98-.9,.49-1.82,.87-2.74,1.12s-1.82,.42-2.69,.5-1.64,.12-2.31,.12c-.33,0-.81,0-1.42-.04-.62-.03-1.28-.11-1.99-.24-.71-.13-1.43-.34-2.17-.62s-1.41-.67-2.01-1.16c-.6-.49-1.09-1.12-1.47-1.9-.38-.77-.57-1.7-.57-2.8s.25-2.11,.75-2.9,1.16-1.42,1.99-1.92c.83-.49,1.77-.85,2.83-1.08s2.15-.38,3.3-.46l7.78-.48c.54-.03,.99-.08,1.36-.16,.36-.08,.66-.2,.88-.36s.38-.39,.47-.7c.09-.31,.14-.71,.14-1.22,0-.59-.1-1.13-.29-1.64-.2-.51-.57-.94-1.13-1.32-.56-.37-1.34-.67-2.35-.88-1.01-.21-2.31-.32-3.91-.32-1.42,0-2.59,.1-3.53,.3-.93,.2-1.7,.52-2.28,.96-.59,.44-1.03,.99-1.33,1.66s-.51,1.48-.63,2.44h-3.12c.21-1.52,.58-2.78,1.11-3.8,.53-1.01,1.24-1.82,2.13-2.44,.89-.61,1.97-1.05,3.23-1.32,1.27-.27,2.76-.4,4.48-.4,1.6,0,3.06,.1,4.39,.3s2.46,.55,3.39,1.06,1.66,1.17,2.17,2,.77,1.88,.77,3.16v12c0,.17,.01,.33,.05,.46,0,.21,.03,.43,.09,.64,.06,.08,.13,.15,.2,.2s.28,.08,.61,.08c.24,0,.54-.03,.9-.08,.36-.05,.89-.19,1.58-.4v2.64c-.57,.16-1.09,.28-1.54,.36s-.93,.12-1.45,.12c-1.27,0-2.1-.31-2.51-.92-.41-.61-.64-1.46-.7-2.56l-.02,.02Zm-.32-7.95c-.78,.35-1.79,.56-3.03,.64l-7.51,.48c-1.87,.13-3.32,.48-4.34,1.04-1.03,.56-1.54,1.48-1.54,2.76,0,.91,.22,1.62,.66,2.16,.44,.53,.99,.95,1.65,1.24,.66,.29,1.39,.49,2.17,.58,.78,.09,1.52,.14,2.22,.14,1.11,0,2.25-.11,3.39-.34,1.15-.23,2.19-.59,3.12-1.1,.93-.51,1.7-1.14,2.31-1.92,.6-.77,.9-1.72,.9-2.84v-2.84h0Z"/>
      <path class="cls-1" d="M728.32,154.76c-.72,.83-1.54,1.48-2.44,1.98-.9,.49-1.82,.87-2.74,1.12s-1.82,.42-2.69,.5-1.64,.12-2.31,.12c-.33,0-.81,0-1.42-.04-.62-.03-1.28-.11-1.99-.24-.71-.13-1.43-.34-2.17-.62s-1.41-.67-2.01-1.16c-.6-.49-1.09-1.12-1.47-1.9-.38-.77-.57-1.7-.57-2.8s.25-2.11,.75-2.9,1.16-1.42,1.99-1.92c.83-.49,1.77-.85,2.83-1.08s2.15-.38,3.3-.46l7.78-.48c.54-.03,.99-.08,1.36-.16,.36-.08,.66-.2,.88-.36s.38-.39,.47-.7c.09-.31,.14-.71,.14-1.22,0-.59-.1-1.13-.29-1.64-.2-.51-.57-.94-1.13-1.32-.56-.37-1.34-.67-2.35-.88-1.01-.21-2.31-.32-3.91-.32-1.42,0-2.59,.1-3.53,.3-.93,.2-1.7,.52-2.28,.96-.59,.44-1.03,.99-1.33,1.66s-.51,1.48-.63,2.44h-3.12c.21-1.52,.58-2.78,1.11-3.8,.53-1.01,1.24-1.82,2.13-2.44,.89-.61,1.97-1.05,3.23-1.32,1.27-.27,2.76-.4,4.48-.4,1.6,0,3.06,.1,4.39,.3s2.46,.55,3.39,1.06,1.66,1.17,2.17,2,.77,1.88,.77,3.16v12c0,.17,.01,.33,.05,.46,0,.21,.03,.43,.09,.64,.06,.08,.13,.15,.2,.2s.28,.08,.61,.08c.24,0,.54-.03,.9-.08,.36-.05,.89-.19,1.58-.4v2.64c-.57,.16-1.09,.28-1.54,.36s-.93,.12-1.45,.12c-1.27,0-2.1-.31-2.51-.92-.41-.61-.64-1.46-.7-2.56l-.02,.02Zm-.32-7.95c-.78,.35-1.79,.56-3.03,.64l-7.51,.48c-1.87,.13-3.32,.48-4.34,1.04-1.03,.56-1.54,1.48-1.54,2.76,0,.91,.22,1.62,.66,2.16,.44,.53,.99,.95,1.65,1.24,.66,.29,1.39,.49,2.17,.58,.78,.09,1.52,.14,2.22,.14,1.11,0,2.25-.11,3.39-.34,1.15-.23,2.19-.59,3.12-1.1,.93-.51,1.7-1.14,2.31-1.92,.6-.77,.9-1.72,.9-2.84v-2.84h0Z"/>
      <path class="cls-1" d="M791.98,154.76c-.72,.83-1.54,1.48-2.44,1.98-.9,.49-1.82,.87-2.74,1.12s-1.82,.42-2.69,.5-1.64,.12-2.31,.12c-.33,0-.81,0-1.42-.04-.62-.03-1.28-.11-1.99-.24-.71-.13-1.43-.34-2.17-.62s-1.41-.67-2.01-1.16c-.6-.49-1.09-1.12-1.47-1.9-.38-.77-.57-1.7-.57-2.8s.25-2.11,.75-2.9,1.16-1.42,1.99-1.92c.83-.49,1.77-.85,2.83-1.08s2.15-.38,3.3-.46l7.78-.48c.54-.03,.99-.08,1.36-.16,.36-.08,.66-.2,.88-.36s.38-.39,.47-.7c.09-.31,.14-.71,.14-1.22,0-.59-.1-1.13-.29-1.64-.2-.51-.57-.94-1.13-1.32-.56-.37-1.34-.67-2.35-.88-1.01-.21-2.31-.32-3.91-.32-1.42,0-2.59,.1-3.53,.3-.93,.2-1.7,.52-2.28,.96-.59,.44-1.03,.99-1.33,1.66s-.51,1.48-.63,2.44h-3.12c.21-1.52,.58-2.78,1.11-3.8,.53-1.01,1.24-1.82,2.13-2.44,.89-.61,1.97-1.05,3.23-1.32,1.27-.27,2.76-.4,4.48-.4,1.6,0,3.06,.1,4.39,.3s2.46,.55,3.39,1.06,1.66,1.17,2.17,2,.77,1.88,.77,3.16v12c0,.17,.01,.33,.05,.46,0,.21,.03,.43,.09,.64,.06,.08,.13,.15,.2,.2s.28,.08,.61,.08c.24,0,.54-.03,.9-.08,.36-.05,.89-.19,1.58-.4v2.64c-.57,.16-1.09,.28-1.54,.36s-.93,.12-1.45,.12c-1.27,0-2.1-.31-2.51-.92-.41-.61-.64-1.46-.7-2.56l-.02,.02Zm-.32-7.95c-.78,.35-1.79,.56-3.03,.64l-7.51,.48c-1.87,.13-3.32,.48-4.34,1.04-1.03,.56-1.54,1.48-1.54,2.76,0,.91,.22,1.62,.66,2.16,.44,.53,.99,.95,1.65,1.24,.66,.29,1.39,.49,2.17,.58,.78,.09,1.52,.14,2.22,.14,1.11,0,2.25-.11,3.39-.34,1.15-.23,2.19-.59,3.12-1.1,.93-.51,1.7-1.14,2.31-1.92,.6-.77,.9-1.72,.9-2.84v-2.84h0Z"/>
      <path class="cls-1" d="M450.2,128.85v29.31h-3.13v-3.63c-1.33,1.39-2.83,2.43-4.48,3.13s-3.47,1.05-5.44,1.05c-3.5,0-6.48-1.09-8.96-3.26s-3.71-4.81-3.71-7.92,1.25-5.65,3.75-7.81,5.5-3.25,9.01-3.25c2.03,0,3.86,.37,5.51,1.11s3.08,1.85,4.33,3.32v-12.05h3.12Zm-12.7,10.24c-1.77,0-3.4,.37-4.9,1.12s-2.69,1.79-3.57,3.14-1.33,2.77-1.33,4.27,.45,2.91,1.34,4.27,2.09,2.42,3.6,3.17,3.12,1.14,4.84,1.14,3.39-.37,4.94-1.13,2.76-1.77,3.6-3.05,1.26-2.72,1.26-4.33c0-2.45-.94-4.49-2.82-6.13s-4.2-2.47-6.95-2.47h-.01Z"/>
      <path class="cls-1" d="M473.39,136.24c3.81,0,6.96,1.19,9.46,3.58,2.27,2.18,3.41,4.76,3.41,7.74s-1.2,5.61-3.61,7.85c-2.4,2.24-5.49,3.36-9.27,3.36s-6.89-1.12-9.29-3.36-3.61-4.85-3.61-7.85,1.14-5.54,3.41-7.72c2.5-2.4,5.66-3.6,9.49-3.6h0Zm-.01,2.7c-2.64,0-4.91,.85-6.81,2.54-1.9,1.69-2.85,3.74-2.85,6.14,0,1.55,.43,2.99,1.3,4.33s2.04,2.37,3.51,3.1c1.47,.73,3.09,1.09,4.85,1.09s3.38-.36,4.85-1.09,2.64-1.76,3.51-3.1,1.3-2.78,1.3-4.33c0-2.4-.95-4.45-2.86-6.14s-4.17-2.54-6.8-2.54h0Z"/>
      <path class="cls-1" d="M496.88,136.8h3.18v3.79c1.11-1.4,2.24-2.42,3.41-3.07,1.61-.86,3.3-1.29,5.07-1.29,1.2,0,2.33,.21,3.41,.63s1.96,.97,2.64,1.67c.68,.69,1.27,1.69,1.77,2.98,1.06-1.72,2.38-3.03,3.96-3.93s3.29-1.34,5.12-1.34c1.71,0,3.21,.38,4.52,1.15,1.31,.77,2.28,1.84,2.91,3.21,.63,1.37,.95,3.43,.95,6.18v11.99h-3.25v-11.99c0-2.35-.19-3.97-.57-4.85s-1.02-1.59-1.93-2.13-2-.81-3.27-.81c-1.54,0-2.95,.4-4.22,1.21s-2.21,1.88-2.79,3.23c-.59,1.35-.88,3.59-.88,6.74v8.6h-3.18v-11.24c0-2.65-.19-4.45-.56-5.4s-1.02-1.71-1.94-2.28-2.02-.86-3.29-.86c-1.47,0-2.84,.39-4.12,1.18s-2.23,1.85-2.84,3.18-.92,3.37-.92,6.12v9.3h-3.18v-21.96h0Z"/>
      <path class="cls-1" d="M602.22,140.46l-2.52,1.41c-2.18-2.61-5.15-3.91-8.91-3.91-3.01,0-5.51,.87-7.5,2.62-1.99,1.74-2.98,3.86-2.98,6.36,0,1.62,.46,3.15,1.37,4.58s2.17,2.54,3.77,3.33,3.38,1.19,5.36,1.19c3.63,0,6.59-1.3,8.89-3.91l2.52,1.49c-1.18,1.6-2.77,2.85-4.76,3.73s-4.26,1.32-6.8,1.32c-3.91,0-7.15-1.12-9.72-3.36s-3.86-4.96-3.86-8.16c0-2.16,.6-4.16,1.81-6.01s2.86-3.29,4.96-4.33,4.46-1.56,7.06-1.56c1.63,0,3.21,.23,4.73,.68s2.81,1.04,3.87,1.76,1.96,1.64,2.7,2.76h0Z"/>
      <path class="cls-1" d="M664.38,127.99c.72,0,1.34,.23,1.85,.7,.51,.46,.77,1.02,.77,1.68s-.26,1.19-.77,1.66c-.51,.46-1.13,.7-1.85,.7s-1.32-.23-1.83-.7c-.51-.46-.77-1.02-.77-1.66s.26-1.21,.77-1.68c.51-.46,1.12-.7,1.83-.7Zm-1.58,9.17h3.18v22.26h-3.18v-22.26Z"/>
      <path class="cls-1" d="M694.85,137.19h3.22v25.07c0,1.83-.37,3.16-1.12,4s-1.77,1.25-3.08,1.25c-1.07,0-2.29-.23-3.63-.68v-2.52c.85,.39,1.61,.58,2.29,.58,.86,0,1.51-.31,1.93-.94,.26-.4,.39-1.23,.39-2.5v-24.25h0Zm1.57-8.98c.73,0,1.34,.23,1.85,.68s.76,1,.76,1.64-.25,1.17-.76,1.62-1.12,.68-1.85,.68-1.34-.23-1.85-.68-.76-.99-.76-1.62,.25-1.19,.76-1.64,1.12-.68,1.85-.68Z"/>
      <polygon class="cls-1" points="589.65 133.64 592.26 133.64 597.76 128.13 594.81 128.13 589.65 133.64"/>
    </g>
  </g>
</svg>