<?xml version="1.0" encoding="utf-8"?>
<!-- Generator: Adobe Illustrator 24.1.2, SVG Export Plug-In . SVG Version: 6.00 Build 0)  -->
<svg version="1.1" id="Layer_1" xmlns="http://www.w3.org/2000/svg" xmlns:xlink="http://www.w3.org/1999/xlink" x="0px" y="0px"
	 viewBox="0 0 190 50" style="enable-background:new 0 0 190 50;" xml:space="preserve">
<style type="text/css">
	.st0{fill-rule:evenodd;clip-rule:evenodd;fill:#FCF5A3;}
</style>
<g>
	<path class="st0" d="M39.6,22.8H3.4v17.1H0.3V45h42.4v-5.1h-3.1L39.6,22.8z M12.9,39.9H7.6V26.7c0-1.5,1.2-2.7,2.7-2.7
		s2.7,1.2,2.7,2.7L12.9,39.9L12.9,39.9z M24.2,39.9h-5.3V26.7c0-1.5,1.2-2.7,2.7-2.7s2.7,1.2,2.7,2.7v13.2H24.2z M35.3,39.9H30V26.7
		c0-1.5,1.2-2.7,2.7-2.7s2.7,1.2,2.7,2.7L35.3,39.9z M41.6,19.2v-1.5L21.5,5L1.4,17.7v1.5H0v2.1h43v-2.1H41.6z M21.5,10.5
		c1.8,0,3.3,1.5,3.3,3.3s-1.5,3.3-3.3,3.3s-3.3-1.5-3.3-3.3S19.7,10.5,21.5,10.5z"/>
	<path class="st0" d="M51,33.1c0.8,0.2,2.3,0.3,4.1,0.3c2.7,0,4.7-0.4,6.1-1.3c1.3-0.8,2.2-2.1,2.2-3.8c0-1.8-1-3-2.5-3.5v-0.1
		c1.8-0.5,3.3-1.8,3.3-3.8c0-1.4-0.8-2.4-1.9-3c-1.1-0.6-2.3-0.9-4-0.9c-1.6,0-3.1,0.2-4.2,0.4L51,33.1z M57,19.8
		c0.3-0.1,0.7-0.1,1.3-0.1c1.3,0,2.3,0.5,2.3,1.7c0,1.4-1.3,2.2-3.2,2.2h-1.2L57,19.8z M55.7,26.1h1.1c1.6,0,3,0.5,3,2.1
		c0,1.8-1.7,2.5-3.6,2.5c-0.5,0-0.9,0-1.3-0.1L55.7,26.1z M75.7,33.3c0-1.5,0.2-3.8,0.5-5.3l1.2-6.1c-1-0.3-2.5-0.6-3.9-0.6
		c-5.8,0-8.4,4.2-8.4,8.2c0,2.4,1.4,4.1,3.6,4.1c1.4,0,2.9-0.6,3.9-2.6h0.1c-0.1,0.8-0.1,1.6-0.2,2.3H75.7z M72.9,26.7
		c-0.5,2.9-1.8,4.1-2.8,4.1c-1,0-1.4-0.8-1.4-1.9c0-2.2,1.6-4.9,3.9-4.9c0.3,0,0.7,0,0.9,0.1L72.9,26.7z M81.7,33.3l1-5.2
		c0.5-2.6,1.8-4,2.9-4c0.9,0,1.2,0.6,1.2,1.4c0,0.4,0,0.9-0.1,1.3l-1.2,6.5h3.5l1.3-6.8c0.1-0.6,0.2-1.5,0.2-2c0-2-1.1-3.2-3-3.2
		c-1.6,0-3,0.7-4.1,2.2h0l0.2-1.9h-3.1c-0.1,1-0.3,2.3-0.6,3.8l-1.5,7.9H81.7z M95.2,33.3l0.7-3.8l1.3-1.2l2.1,5h3.8l-3.3-6.9l5-4.8
		h-4.2l-3,3.6c-0.3,0.4-0.7,0.9-1.1,1.3h0l1.9-10.2h-3.4l-3.2,17H95.2z M106.7,33.3h3.5l2.5-13.2h4.3l0.6-3h-12l-0.6,3h4.3
		L106.7,33.3z M118.4,33.3l0.8-4.4c0.4-2.3,1.5-4.3,3.7-4.3c0.2,0,0.4,0,0.6,0l0.7-3.4c-0.2,0-0.4,0-0.6,0c-1.6,0-2.9,1.1-3.7,2.7
		h-0.1c0.1-0.8,0.1-1.6,0.2-2.4h-3c-0.1,1-0.3,3-0.6,4.8l-1.3,7H118.4z M134.5,33.3c0-1.5,0.2-3.8,0.5-5.3l1.2-6.1
		c-1-0.3-2.5-0.6-3.9-0.6c-5.8,0-8.4,4.2-8.4,8.2c0,2.4,1.4,4.1,3.6,4.1c1.4,0,2.9-0.6,3.9-2.6h0.1c-0.1,0.8-0.1,1.6-0.2,2.3H134.5z
		 M131.8,26.7c-0.5,2.9-1.8,4.1-2.8,4.1c-1,0-1.4-0.8-1.4-1.9c0-2.2,1.6-4.9,3.9-4.9c0.3,0,0.7,0,0.9,0.1L131.8,26.7z M140.5,33.3
		l1-5.2c0.5-2.6,1.8-4,2.9-4c0.9,0,1.2,0.6,1.2,1.4c0,0.4,0,0.9-0.1,1.3l-1.2,6.5h3.5l1.3-6.8c0.1-0.6,0.2-1.5,0.2-2
		c0-2-1.1-3.2-3-3.2c-1.6,0-3,0.7-4.1,2.2h0l0.2-1.9h-3.1c-0.1,1-0.3,2.3-0.6,3.8l-1.5,7.9H140.5z M150.1,32.6
		c0.7,0.5,2.1,0.9,3.6,0.9c3.1,0,5.4-1.4,5.4-4.1c0-1.6-1.3-2.6-2.6-3.2c-1-0.5-1.4-0.9-1.4-1.3c0-0.6,0.6-1,1.5-1
		c1,0,1.8,0.3,2.4,0.5l0.8-2.4c-0.6-0.3-1.7-0.6-3-0.6c-3,0-5.2,1.6-5.2,4c0,1.5,1.1,2.4,2.5,3.1c1.1,0.5,1.5,0.9,1.5,1.5
		S155,31,154.1,31c-1.1,0-2.4-0.5-3.1-0.8L150.1,32.6z M164.4,33.3l1.7-9.1h2.3l0.5-2.6h-2.3l0.1-0.6c0.2-1.2,0.9-2.2,2-2.2
		c0.5,0,0.8,0.1,1.1,0.2l0.6-2.8c-0.4-0.2-1-0.3-1.8-0.3c-1.2,0-2.4,0.3-3.3,1.1c-1.2,1-1.7,2.4-2,3.8l-0.1,0.6h-1.5l-0.5,2.6h1.5
		l-1.7,9.1H164.4z M178,30.1c-0.9,0.5-2,0.7-3.3,0.7c-1,0-1.8-0.3-2.3-0.9c-0.2-0.3-0.4-0.9-0.4-1.2c4.7,0.1,7.6-1,7.6-4
		c0-2.2-1.7-3.5-4.1-3.5c-4.2,0-6.8,3.7-6.8,7.3c0,3,1.7,4.9,5.1,4.9c1.3,0,3-0.2,4.4-0.9L178,30.1z M176.5,24.8
		c0,1.1-1.3,1.4-4,1.4c0.2-1.1,1.2-2.4,2.8-2.4C176,23.8,176.5,24.2,176.5,24.8z M183.9,33.3l0.8-4.4c0.4-2.3,1.5-4.3,3.7-4.3
		c0.2,0,0.4,0,0.6,0l0.7-3.4c-0.2,0-0.4,0-0.6,0c-1.6,0-2.9,1.1-3.7,2.7h-0.1c0.1-0.8,0.1-1.6,0.2-2.4h-3c-0.1,1-0.3,3-0.6,4.8
		l-1.3,7H183.9z"/>
</g>
</svg>
