<svg height="50" viewBox="0 0 190 40" width="190" xmlns="http://www.w3.org/2000/svg"><g fill="#346275" fill-rule="evenodd"><path d="m39.6 17.8h-36.2v17.1h-3.1v5.1h42.4v-5.1h-3.1zm-26.7 17.1h-5.3v-13.2c0-1.5 1.2-2.7 2.7-2.7s2.7 1.2 2.7 2.7v13.2zm11.3 0h-5.3v-13.2c0-1.5 1.2-2.7 2.7-2.7s2.7 1.2 2.7 2.7v13.2zm11.1 0h-5.3v-13.2c0-1.5 1.2-2.7 2.7-2.7s2.7 1.2 2.7 2.7zm6.3-20.7v-1.5l-20.1-12.7-20.1 12.7v1.5h-1.4v2.1h43v-2.1zm-20.1-8.7c1.8 0 3.3 1.5 3.3 3.3s-1.5 3.3-3.3 3.3-3.3-1.5-3.3-3.3 1.5-3.3 3.3-3.3z"/><path d="m51 28.112c.792.168 2.256.288 4.08.288 2.688 0 4.728-.384 6.096-1.296 1.272-.84 2.208-2.112 2.208-3.84 0-1.776-.984-3.048-2.544-3.528v-.072c1.752-.504 3.264-1.8 3.264-3.84 0-1.368-.792-2.4-1.872-2.952-1.08-.648-2.328-.864-4.008-.864-1.608 0-3.096.168-4.248.384zm5.952-13.296c.264-.072.744-.12 1.344-.12 1.32 0 2.28.504 2.28 1.68 0 1.368-1.296 2.184-3.192 2.184h-1.152zm-1.248 6.264h1.08c1.608 0 2.952.48 2.952 2.088 0 1.8-1.704 2.544-3.576 2.544-.504 0-.912-.024-1.32-.072zm19.968 7.224c-.048-1.464.168-3.768.456-5.28l1.248-6.144c-.984-.312-2.496-.576-3.888-.576-5.784 0-8.4 4.224-8.4 8.184 0 2.448 1.44 4.08 3.552 4.08 1.368 0 2.856-.648 3.936-2.592h.072c-.072.84-.144 1.632-.168 2.328zm-2.736-6.576c-.528 2.88-1.8 4.056-2.832 4.056-.96 0-1.416-.792-1.416-1.944 0-2.184 1.632-4.92 3.864-4.92.336 0 .672.048.936.096zm8.736 6.576.984-5.208c.48-2.592 1.8-4.008 2.928-4.008.864 0 1.152.576 1.152 1.392 0 .432-.048.912-.12 1.32l-1.224 6.504h3.456l1.296-6.816c.096-.576.192-1.464.192-1.992 0-2.016-1.08-3.192-3-3.192-1.56 0-3.024.672-4.128 2.208h-.048l.24-1.944h-3.072c-.144 1.032-.336 2.328-.624 3.816l-1.488 7.92zm13.488 0 .72-3.792 1.296-1.224 2.064 5.016h3.84l-3.264-6.912 4.992-4.824h-4.248l-3 3.552c-.336.432-.696.888-1.056 1.344h-.048l1.92-10.2h-3.432l-3.216 17.04zm11.52 0h3.456l2.472-13.152h4.32l.576-3.024h-12.024l-.6 3.024h4.272zm11.736 0 .816-4.368c.432-2.304 1.464-4.272 3.672-4.272.192 0 .384 0 .552.024l.672-3.36c-.216-.024-.432-.024-.648-.024-1.608 0-2.928 1.104-3.744 2.664h-.072c.072-.816.144-1.608.216-2.4h-3c-.12 1.008-.264 2.976-.6 4.752l-1.32 6.984zm16.08 0c-.048-1.464.168-3.768.456-5.28l1.248-6.144c-.984-.312-2.496-.576-3.888-.576-5.784 0-8.4 4.224-8.4 8.184 0 2.448 1.44 4.08 3.552 4.08 1.368 0 2.856-.648 3.936-2.592h.072c-.072.84-.144 1.632-.168 2.328zm-2.736-6.576c-.528 2.88-1.8 4.056-2.832 4.056-.96 0-1.416-.792-1.416-1.944 0-2.184 1.632-4.92 3.864-4.92.336 0 .672.048.936.096zm8.736 6.576.984-5.208c.48-2.592 1.8-4.008 2.928-4.008.864 0 1.152.576 1.152 1.392 0 .432-.048.912-.12 1.32l-1.224 6.504h3.456l1.296-6.816c.096-.576.192-1.464.192-1.992 0-2.016-1.08-3.192-3-3.192-1.56 0-3.024.672-4.128 2.208h-.048l.24-1.944h-3.072c-.144 1.032-.336 2.328-.624 3.816l-1.488 7.92zm9.648-.672c.696.528 2.112.912 3.6.912 3.096 0 5.376-1.44 5.376-4.128 0-1.632-1.344-2.568-2.616-3.216-.96-.456-1.44-.864-1.44-1.344 0-.624.624-1.032 1.536-1.032 1.032 0 1.848.288 2.352.528l.816-2.448c-.576-.336-1.656-.6-3.024-.6-3.024 0-5.16 1.608-5.16 4.032 0 1.464 1.128 2.448 2.496 3.12 1.08.528 1.464.936 1.464 1.512s-.504 1.056-1.488 1.056c-1.128 0-2.4-.48-3.072-.816zm14.232.672 1.704-9.12h2.304l.504-2.616h-2.328l.12-.576c.216-1.176.912-2.16 2.016-2.16.456 0 .816.072 1.128.216l.6-2.76c-.384-.168-1.008-.288-1.848-.288-1.152 0-2.4.312-3.336 1.128-1.176.984-1.728 2.448-1.968 3.816l-.12.624h-1.512l-.504 2.616h1.512l-1.704 9.12zm13.632-3.168c-.936.456-2.016.744-3.288.744-1.008 0-1.8-.312-2.256-.912-.24-.336-.36-.864-.36-1.2 4.704.12 7.608-.96 7.608-3.96 0-2.184-1.704-3.504-4.08-3.504-4.248 0-6.84 3.72-6.84 7.296 0 3.048 1.728 4.944 5.088 4.944 1.296 0 3-.216 4.368-.912zm-1.536-5.304c0 1.056-1.344 1.44-4.032 1.416.24-1.104 1.152-2.424 2.76-2.424.792 0 1.272.408 1.272 1.008zm7.44 8.472.816-4.368c.432-2.304 1.464-4.272 3.672-4.272.192 0 .384 0 .552.024l.672-3.36c-.216-.024-.432-.024-.648-.024-1.608 0-2.928 1.104-3.744 2.664h-.072c.072-.816.144-1.608.216-2.4h-3c-.12 1.008-.264 2.976-.6 4.752l-1.32 6.984z"/></g></svg>