<?xml version="1.0" encoding="UTF-8"?>
<svg id="Layer_2" data-name="Layer 2" xmlns="http://www.w3.org/2000/svg" viewBox="0 0 698.25 119.01">
  <defs>
    <style>
      .cls-1 {
        fill: #346275;
      }
    </style>
  </defs>
  <g id="Layer_1-2" data-name="Layer 1">
    <g>
      <path class="cls-1" d="M378.11,57.35c0,9.97-.1,19.95,.06,29.92,.06,3.57-1.01,5.19-4.83,4.98-4.48-.25-8.99-.11-13.48-.03-3.18,.06-5.97,.2-5.91-4.43,.03-2.88-1.98-1.3-3.1-.6-4.23,2.66-8.45,5.26-13.47,6.31-17.76,3.69-30.19-5.44-30.85-23.5-.53-14.44-.09-28.92-.17-43.39-.02-3.16,1.16-4.48,4.42-4.36,5.15,.19,10.32,.2,15.48,0,3.51-.14,4.67,1.26,4.63,4.66-.13,10.8-.04,21.61-.04,32.42,0,1-.03,2,.02,2.99,.23,4.66-.07,9.83,5.03,12.14,5.34,2.41,10.74,1.07,15.86-1.44,2.47-1.21,2.36-3.37,2.36-5.54,0-13.13,.18-26.27-.08-39.4-.09-4.64,1.48-6.19,6.02-5.85,4.47,.33,8.99,.24,13.47,.03,3.51-.16,4.67,1.26,4.63,4.66-.13,10.14-.05,20.28-.05,30.42Z"/>
      <path class="cls-1" d="M659.39,65.91c4.37-12.66,8.76-24.28,12.31-36.14,1.68-5.64,4.31-7.77,10.11-7.07,4.27,.52,8.66,.28,12.98,.05,3.73-.2,4.09,.94,2.75,4.21-10.4,25.37-20.64,50.81-30.96,76.21-2,4.92-2.86,11.41-6.52,14.24-3.93,3.04-10.6,.82-16.07,.89-9.52,.14-9.51,.05-5.94-8.49,2.62-6.28,7.2-12.57,7.22-18.87,.02-6.3-4.51-12.63-7.09-18.92-6.11-14.92-12.15-29.86-18.43-44.7-1.45-3.42-1.29-4.75,2.84-4.56,5.32,.24,10.67,.27,15.99-.02,3.56-.19,5.3,.99,6.48,4.44,3.73,10.84,7.83,21.55,11.8,32.3,.68,1.84,1.44,3.66,2.54,6.44Z"/>
      <path class="cls-1" d="M415.28,94.21c-9.39-.01-17.54-1.48-25.55-3.97-3.23-1.01-4.63-2.81-4.42-6.17,.18-2.82-.04-5.66,.06-8.48,.17-4.67,1.79-5.62,5.96-3.23,6.01,3.45,12.39,5.6,19.27,6.46,3.72,.47,7.32,.07,10.87-.9,2.46-.67,4.96-1.67,5.08-4.73,.12-3.11-2.28-4.27-4.79-4.9-4.35-1.09-8.76-1.99-13.15-2.91-4.09-.85-8.11-1.91-11.82-3.88-13.28-7.03-14.89-23.75-3.16-33.16,5.77-4.63,12.63-6.61,19.83-7.53,10.4-1.33,20.58-.24,30.57,2.95,2.77,.89,4.17,2.33,3.95,5.38-.2,2.81,.02,5.65-.05,8.48-.11,4.63-1.36,5.52-5.45,3.43-5.09-2.6-10.32-4.63-16.01-5.37-4.2-.55-8.31-.25-12.26,1.38-1.96,.81-3.45,2.03-3.44,4.4,.01,2.36,1.5,3.61,3.46,4.4,4.36,1.75,9.02,2.3,13.6,3.16,3.78,.71,7.48,1.64,11.01,3.17,6.49,2.81,11.23,7.11,12.11,14.58,.99,8.32-1.7,15.07-8.65,19.93-8.42,5.9-18.06,7.31-27.03,7.5Z"/>
      <path class="cls-1" d="M260.51,66.03c1.6-1.48,1.84-3.54,2.47-5.39,3.78-11.18,7.61-22.35,11.15-33.61,1.14-3.64,3.01-5.01,6.81-4.79,5.14,.3,10.32,.14,15.48,.07,3.04-.04,3.85,1.06,2.71,3.94-8.33,21.02-16.6,42.06-24.86,63.12-.77,1.96-1.99,2.86-4.13,2.84-6.66-.06-13.32-.07-19.98,.02-2.34,.03-3.66-.92-4.49-3.08-8.13-20.92-16.29-41.83-24.51-62.71-1.2-3.04-.53-4.24,2.85-4.15,5.49,.14,11,.25,16.48-.04,3.51-.18,5.04,1.32,6.06,4.43,3.78,11.53,7.71,23.02,11.65,34.49,.57,1.66,.64,3.64,2.32,4.87Z"/>
      <path class="cls-1" d="M51.85,100.7C22.38,100.73-1.02,77.25,.03,49.02c.24-6.4,2.44-10.9,8.09-14.21,8.25-4.83,16.93-7.62,26.5-7.48,1.07,.02,2.52-.59,3.12,.7,.66,1.42-.83,1.91-1.66,2.64-11.72,10.28-13.76,23.79-5.35,35.36,7.94,10.92,22.37,13.48,35.19,5.9,2.49-1.47,3.63-.96,5.33,.83,4.23,4.47,8.48,8.93,13.01,13.09,2.12,1.95,1.26,2.73-.39,4.11-7.84,6.54-20.16,10.73-32.02,10.75Z"/>
      <path class="cls-1" d="M170.03,57.17c0-9.8,.15-19.61-.07-29.41-.09-3.96,.93-5.81,5.26-5.52,4.64,.32,9.32,.23,13.97,.02,3.55-.16,5.35,.9,5.01,4.74-.35,3.99,1.2,4.3,4.17,2.04,3.32-2.53,6.95-4.53,10.99-5.75,2.46-.74,4.04-.39,5.01,2.31,1.57,4.38,3.36,8.68,5.23,12.94,1.44,3.27,.86,4.66-2.96,4.11-6.02-.88-11.9-.12-17.77,1.48-3.44,.93-4.83,2.6-4.77,6.28,.2,11.96-.14,23.93,.17,35.89,.13,4.91-1.62,6.5-6.33,6.11-3.97-.32-8-.29-11.97,0-4.43,.32-6.2-1.08-6.04-5.83,.34-9.79,.1-19.61,.1-29.41Z"/>
      <path class="cls-1" d="M5.89,28.53c1.58-4.32,4.57-7.81,7.74-11.11C30.88-.57,60.94-3.22,81.33,11.18c3.41,2.41,4.04,4.09,.68,7.11-4.07,3.66-7.71,7.79-11.49,11.76-1.52,1.6-2.9,2.36-5.15,.99-18.69-11.4-37.84-12.28-57.4-2.28-.59,.3-1.22,.55-2.08-.22Z"/>
      <path class="cls-1" d="M548.65,25.17c-1.76-13.12-10.46-21.55-25.62-23.89-15.88-2.44-31.93-.53-47.88-1.18-3.75-.15-4.85,1-4.8,4.73,.2,13.81,.08,27.62,.08,41.43,0,13.98,.09,27.95-.07,41.93-.04,3.41,.89,4.76,4.47,4.59,5.48-.26,11-.25,16.48,0,3.58,.16,5.07-.76,4.86-4.67-.33-6.3-.09-12.64-.09-18.96,0-6.72,0-6.79,6.66-6.71,9.35,.11,18.63,.19,27.4-3.96,13.31-6.3,20.42-18.92,18.49-33.3Zm-34.4,18.22c-5.09,1.99-10.42,1.73-15.73,1.7-2.08-.01-2.43-1.26-2.42-2.94,.02-3.65,0-7.3,0-10.95,0-2.99,.2-5.99-.06-8.95-.32-3.6,.76-5.3,4.64-4.8,4.1,.53,8.33,.41,12.34,1.29,6.07,1.34,9.14,5.41,9.36,11.27,.25,6.7-2.46,11.16-8.15,13.39Z"/>
      <path class="cls-1" d="M618.19,44.42c-.38-11.76-5.68-17.93-17-21.07-12.25-3.4-24.69-3-37.14-1.1-8.01,1.22-7.89,1.27-9.49,9.26-2.03,10.14-2.55,10.52,8.51,7.2,8.8-2.64,17.65-3.46,26.45-.11,2.84,1.08,5.03,3.39,4.55,6.46-.5,3.21-3.79,1.94-5.86,2.14-9.61,.9-19.3,1.33-28.34,5.22-10.44,4.49-14.73,12.5-13.05,24.15,1.32,9.21,9.04,16.39,18.99,17.77,10.28,1.42,19.44-1.16,28.59-8.74-1.29,7.44,2.55,7.44,6.96,7.19,4.48-.25,8.99-.14,13.49-.03,2.49,.06,3.6-.73,3.58-3.4-.11-14.97,.24-29.96-.25-44.92Zm-28.32,33.03c-5.55,2.17-11.04,3.03-16.24-.21-4.31-2.69-3.69-10.33,.98-13.17,5.46-3.32,11.8-3.06,17.88-3.74,1.6-.18,1.84,1.1,1.86,2.33,.03,1.66,0,3.32,0,5.41,.33,3.66,.45,7.44-4.49,9.37Z"/>
      <path class="cls-1" d="M123.89,94.17c2.33,0,4.67,.15,6.98-.02,16.48-1.26,28.53-11.44,31.77-26.92,1.16-5.56,1.23-11.18,.48-16.85-1.89-14.22-10.65-24.38-24.51-28.34-6.01-1.72-12.13-1.88-18.29-1.72-21.07,.57-34.49,13.36-36.03,34.32-1.26,17.16,6.66,30.63,20.89,36.54,4.19,1.74,8.69,2.59,13.22,2.77l5.5,.21Zm13.92-26.71c-1.83,7.43-6.61,11.1-13.93,11.07-7.33-.03-11.85-3.7-13.76-11.25-.82-3.23-1.25-6.52-1.04-9.54-.15-4.02,.32-7.64,1.37-11.16,2.16-7.24,6.61-10.54,13.87-10.42,6.95,.11,11.24,3.43,13.22,10.6,1.88,6.85,1.97,13.81,.28,20.7Z"/>
    </g>
  </g>
</svg>