<?xml version="1.0" encoding="utf-8"?>
<!-- Generator: Adobe Illustrator 24.1.2, SVG Export Plug-In . SVG Version: 6.00 Build 0)  -->
<svg version="1.1" id="Layer_2_1_" xmlns="http://www.w3.org/2000/svg" xmlns:xlink="http://www.w3.org/1999/xlink" x="0px" y="0px"
	 viewBox="0 0 698.3 119" style="enable-background:new 0 0 698.3 119;" xml:space="preserve">
<style type="text/css">
	.st0{fill:#FCF5A3;}
</style>
<g id="Layer_1-2">
	<g>
		<path class="st0" d="M378.1,57.3c0,10-0.1,20,0.1,29.9c0.1,3.6-1,5.2-4.8,5c-4.5-0.3-9-0.1-13.5,0c-3.2,0.1-6,0.2-5.9-4.4
			c0-2.9-2-1.3-3.1-0.6c-4.2,2.7-8.5,5.3-13.5,6.3c-17.8,3.7-30.2-5.4-30.9-23.5c-0.5-14.4-0.1-28.9-0.2-43.4c0-3.2,1.2-4.5,4.4-4.4
			c5.1,0.2,10.3,0.2,15.5,0c3.5-0.1,4.7,1.3,4.6,4.7c-0.1,10.8,0,21.6,0,32.4c0,1,0,2,0,3c0.2,4.7-0.1,9.8,5,12.1
			c5.3,2.4,10.7,1.1,15.9-1.4c2.5-1.2,2.4-3.4,2.4-5.5c0-13.1,0.2-26.3-0.1-39.4c-0.1-4.6,1.5-6.2,6-5.9c4.5,0.3,9,0.2,13.5,0
			c3.5-0.2,4.7,1.3,4.6,4.7C378,37.1,378.1,47.2,378.1,57.3L378.1,57.3z"/>
		<path class="st0" d="M659.4,65.9c4.4-12.7,8.8-24.3,12.3-36.1c1.7-5.6,4.3-7.8,10.1-7.1c4.3,0.5,8.7,0.3,13,0
			c3.7-0.2,4.1,0.9,2.8,4.2c-10.4,25.4-20.6,50.8-31,76.2c-2,4.9-2.9,11.4-6.5,14.2c-3.9,3-10.6,0.8-16.1,0.9
			c-9.5,0.1-9.5,0.1-5.9-8.5c2.6-6.3,7.2-12.6,7.2-18.9c0-6.3-4.5-12.6-7.1-18.9c-6.1-14.9-12.2-29.9-18.4-44.7
			c-1.5-3.4-1.3-4.8,2.8-4.6c5.3,0.2,10.7,0.3,16,0c3.6-0.2,5.3,1,6.5,4.4c3.7,10.8,7.8,21.5,11.8,32.3
			C657.5,61.3,658.3,63.1,659.4,65.9L659.4,65.9z"/>
		<path class="st0" d="M415.3,94.2c-9.4,0-17.5-1.5-25.5-4c-3.2-1-4.6-2.8-4.4-6.2c0.2-2.8,0-5.7,0.1-8.5c0.2-4.7,1.8-5.6,6-3.2
			c6,3.4,12.4,5.6,19.3,6.5c3.7,0.5,7.3,0.1,10.9-0.9c2.5-0.7,5-1.7,5.1-4.7c0.1-3.1-2.3-4.3-4.8-4.9c-4.4-1.1-8.8-2-13.1-2.9
			c-4.1-0.8-8.1-1.9-11.8-3.9c-13.3-7-14.9-23.8-3.2-33.2c5.8-4.6,12.6-6.6,19.8-7.5c10.4-1.3,20.6-0.2,30.6,3
			c2.8,0.9,4.2,2.3,4,5.4c-0.2,2.8,0,5.7,0,8.5c-0.1,4.6-1.4,5.5-5.5,3.4c-5.1-2.6-10.3-4.6-16-5.4c-4.2-0.5-8.3-0.3-12.3,1.4
			c-2,0.8-3.5,2-3.4,4.4c0,2.4,1.5,3.6,3.5,4.4c4.4,1.8,9,2.3,13.6,3.2c3.8,0.7,7.5,1.6,11,3.2c6.5,2.8,11.2,7.1,12.1,14.6
			c1,8.3-1.7,15.1-8.6,19.9C433.9,92.6,424.2,94,415.3,94.2L415.3,94.2z"/>
		<path class="st0" d="M260.5,66c1.6-1.5,1.8-3.5,2.5-5.4c3.8-11.2,7.6-22.3,11.1-33.6c1.1-3.6,3-5,6.8-4.8
			c5.1,0.3,10.3,0.1,15.5,0.1c3,0,3.9,1.1,2.7,3.9c-8.3,21-16.6,42.1-24.9,63.1c-0.8,2-2,2.9-4.1,2.8c-6.7-0.1-13.3-0.1-20,0
			c-2.3,0-3.7-0.9-4.5-3.1c-8.1-20.9-16.3-41.8-24.5-62.7c-1.2-3-0.5-4.2,2.9-4.1c5.5,0.1,11,0.3,16.5,0c3.5-0.2,5,1.3,6.1,4.4
			c3.8,11.5,7.7,23,11.6,34.5C258.8,62.8,258.8,64.8,260.5,66L260.5,66z"/>
		<path class="st0" d="M51.8,100.7C22.4,100.7-1,77.3,0,49c0.2-6.4,2.4-10.9,8.1-14.2c8.2-4.8,16.9-7.6,26.5-7.5
			c1.1,0,2.5-0.6,3.1,0.7c0.7,1.4-0.8,1.9-1.7,2.6C24.4,41,22.3,54.5,30.7,66c7.9,10.9,22.4,13.5,35.2,5.9c2.5-1.5,3.6-1,5.3,0.8
			c4.2,4.5,8.5,8.9,13,13.1c2.1,1.9,1.3,2.7-0.4,4.1C76,96.5,63.7,100.7,51.8,100.7L51.8,100.7z"/>
		<path class="st0" d="M170,57.2c0-9.8,0.1-19.6-0.1-29.4c-0.1-4,0.9-5.8,5.3-5.5c4.6,0.3,9.3,0.2,14,0c3.6-0.2,5.4,0.9,5,4.7
			c-0.4,4,1.2,4.3,4.2,2c3.3-2.5,6.9-4.5,11-5.8c2.5-0.7,4-0.4,5,2.3c1.6,4.4,3.4,8.7,5.2,12.9c1.4,3.3,0.9,4.7-3,4.1
			c-6-0.9-11.9-0.1-17.8,1.5c-3.4,0.9-4.8,2.6-4.8,6.3c0.2,12-0.1,23.9,0.2,35.9c0.1,4.9-1.6,6.5-6.3,6.1c-4-0.3-8-0.3-12,0
			c-4.4,0.3-6.2-1.1-6-5.8C170.3,76.8,170,67,170,57.2L170,57.2z"/>
		<path class="st0" d="M5.9,28.5c1.6-4.3,4.6-7.8,7.7-11.1c17.3-18,47.3-20.6,67.7-6.2c3.4,2.4,4,4.1,0.7,7.1
			c-4.1,3.7-7.7,7.8-11.5,11.8c-1.5,1.6-2.9,2.4-5.2,1C46.7,19.6,27.5,18.8,8,28.8C7.4,29.1,6.8,29.3,5.9,28.5L5.9,28.5z"/>
		<path class="st0" d="M548.7,25.2C546.9,12.1,538.2,3.6,523,1.3c-15.9-2.4-31.9-0.5-47.9-1.2c-3.8-0.2-4.9,1-4.8,4.7
			c0.2,13.8,0.1,27.6,0.1,41.4c0,14,0.1,28-0.1,41.9c0,3.4,0.9,4.8,4.5,4.6c5.5-0.3,11-0.3,16.5,0c3.6,0.2,5.1-0.8,4.9-4.7
			c-0.3-6.3-0.1-12.6-0.1-19c0-6.7,0-6.8,6.7-6.7c9.4,0.1,18.6,0.2,27.4-4C543.5,52.2,550.6,39.6,548.7,25.2L548.7,25.2z
			 M514.3,43.4c-5.1,2-10.4,1.7-15.7,1.7c-2.1,0-2.4-1.3-2.4-2.9c0-3.7,0-7.3,0-11c0-3,0.2-6-0.1-9c-0.3-3.6,0.8-5.3,4.6-4.8
			c4.1,0.5,8.3,0.4,12.3,1.3c6.1,1.3,9.1,5.4,9.4,11.3C522.6,36.7,519.9,41.2,514.3,43.4L514.3,43.4z"/>
		<path class="st0" d="M618.2,44.4c-0.4-11.8-5.7-17.9-17-21.1c-12.3-3.4-24.7-3-37.1-1.1c-8,1.2-7.9,1.3-9.5,9.3
			c-2,10.1-2.5,10.5,8.5,7.2c8.8-2.6,17.7-3.5,26.5-0.1c2.8,1.1,5,3.4,4.5,6.5c-0.5,3.2-3.8,1.9-5.9,2.1c-9.6,0.9-19.3,1.3-28.3,5.2
			c-10.4,4.5-14.7,12.5-13,24.2c1.3,9.2,9,16.4,19,17.8c10.3,1.4,19.4-1.2,28.6-8.7c-1.3,7.4,2.5,7.4,7,7.2c4.5-0.3,9-0.1,13.5,0
			c2.5,0.1,3.6-0.7,3.6-3.4C618.3,74.4,618.7,59.4,618.2,44.4L618.2,44.4z M589.9,77.4c-5.5,2.2-11,3-16.2-0.2
			c-4.3-2.7-3.7-10.3,1-13.2c5.5-3.3,11.8-3.1,17.9-3.7c1.6-0.2,1.8,1.1,1.9,2.3c0,1.7,0,3.3,0,5.4
			C594.7,71.7,594.8,75.5,589.9,77.4L589.9,77.4z"/>
		<path class="st0" d="M123.9,94.2c2.3,0,4.7,0.2,7,0c16.5-1.3,28.5-11.4,31.8-26.9c1.2-5.6,1.2-11.2,0.5-16.8
			C161.2,36.2,152.5,26,138.6,22c-6-1.7-12.1-1.9-18.3-1.7c-21.1,0.6-34.5,13.4-36,34.3c-1.3,17.2,6.7,30.6,20.9,36.5
			c4.2,1.7,8.7,2.6,13.2,2.8L123.9,94.2L123.9,94.2z M137.8,67.5c-1.8,7.4-6.6,11.1-13.9,11.1c-7.3,0-11.8-3.7-13.8-11.3
			c-0.8-3.2-1.3-6.5-1-9.5c-0.2-4,0.3-7.6,1.4-11.2c2.2-7.2,6.6-10.5,13.9-10.4c7,0.1,11.2,3.4,13.2,10.6
			C139.4,53.6,139.5,60.6,137.8,67.5L137.8,67.5z"/>
	</g>
</g>
</svg>
