<?xml version="1.0" encoding="utf-8"?>
<!-- Generator: Adobe Illustrator 24.1.2, SVG Export Plug-In . SVG Version: 6.00 Build 0)  -->
<svg version="1.1" id="Layer_1" xmlns="http://www.w3.org/2000/svg" xmlns:xlink="http://www.w3.org/1999/xlink" x="0px" y="0px"
	 viewBox="0 0 73 40" style="enable-background:new 0 0 73 40;" xml:space="preserve">
<style type="text/css">
	.st0{fill-rule:evenodd;clip-rule:evenodd;fill:#FCF5A3;}
</style>
<path class="st0" d="M4.4,25.8c2.2,4.8,7.1,8.2,12.8,8.2l0,0l4.8,0c-2.2-2.3-4-5.1-4.9-8.2h38.2c-1,3.1-2.7,5.9-4.9,8.2l4.6,0
	c5.7,0,10.6-3.4,12.8-8.2l0,0h1.8c-2.3,5.7-8,9.8-14.6,9.8l0,0l-6.3,0c-3.4,2.7-7.7,4.4-12.4,4.4c-4.7,0-9-1.6-12.5-4.4l-6.6,0
	c-6.6,0-12.2-4.1-14.5-9.8l0,0H4.4z M30.5,17.7c0.7,0,1.3,0,1.8,0.1c0.6,0.1,1,0.2,1.3,0.3c0.4,0.1,0.7,0.4,0.8,0.6
	c0.1,0.2,0.2,0.6,0.2,1v3c0,0.1,0,0.2,0.1,0.3c0.1,0.1,0.1,0.1,0.3,0.2v0.1h-3.2l-0.2-0.5c-0.4,0.2-0.9,0.4-1.3,0.5
	c-0.5,0.1-1,0.2-1.6,0.2c-0.9,0-1.6-0.1-2.1-0.4c-0.5-0.3-0.7-0.7-0.7-1.3c0-0.6,0.2-1,0.7-1.2c0.5-0.2,1.4-0.4,2.7-0.6
	c0.2,0,0.4,0,0.7,0c1,0,1.5-0.2,1.5-0.5c0-0.2-0.1-0.3-0.3-0.4c-0.2-0.1-0.5-0.1-0.9-0.1c-0.3,0-0.6,0-0.7,0.1s-0.3,0.2-0.3,0.4
	h-3.1c0-0.6,0.4-1.1,1.1-1.4C28.1,17.9,29.1,17.7,30.5,17.7z M72.8,16v7.3h-2.8v-0.7c-0.3,0.3-0.7,0.5-1.1,0.6
	c-0.4,0.1-0.9,0.2-1.5,0.2c-1,0-1.8-0.3-2.4-0.8c-0.6-0.5-1-1.2-1-2.1c0-0.8,0.3-1.5,1-2c0.6-0.6,1.4-0.8,2.4-0.8
	c0.5,0,0.9,0.1,1.3,0.2c0.4,0.1,0.7,0.3,1,0.6V16H72.8z M52,17.7c0.7,0,1.3,0,1.8,0.1c0.6,0.1,1,0.2,1.3,0.3
	c0.4,0.1,0.6,0.4,0.8,0.6c0.1,0.2,0.2,0.6,0.2,1v3c0,0.1,0,0.2,0.1,0.3c0,0.1,0.1,0.1,0.3,0.2v0.1h-3.2l-0.2-0.5
	c-0.4,0.2-0.9,0.4-1.3,0.5c-0.5,0.1-1,0.2-1.6,0.2c-0.9,0-1.6-0.1-2.1-0.4s-0.7-0.7-0.7-1.3c0-0.6,0.3-1,0.7-1.2
	c0.5-0.2,1.4-0.4,2.7-0.6c0.1,0,0.4,0,0.7,0c1,0,1.5-0.2,1.5-0.5c0-0.2-0.1-0.3-0.3-0.4c-0.2-0.1-0.5-0.1-0.9-0.1
	c-0.3,0-0.6,0-0.7,0.1c-0.2,0.1-0.3,0.2-0.3,0.4h-3.1c0-0.6,0.4-1.1,1.1-1.4C49.6,17.9,50.6,17.7,52,17.7z M41.4,15.8
	c1.6,0,2.8,0.3,3.7,0.8c0.9,0.5,1.4,1.3,1.5,2.2h-3.3c0-0.4-0.2-0.7-0.5-0.9c-0.3-0.2-0.7-0.3-1.3-0.3c-0.7,0-1.2,0.1-1.5,0.5
	c-0.4,0.3-0.5,0.8-0.5,1.5c0,0.6,0.2,1.1,0.5,1.5c0.4,0.3,0.9,0.5,1.6,0.5c0.6,0,1-0.1,1.3-0.3c0.3-0.2,0.5-0.5,0.6-0.9h3.3
	c-0.1,1-0.6,1.7-1.5,2.3c-0.9,0.5-2.1,0.8-3.7,0.8c-1.7,0-3.1-0.3-4.1-1c-1-0.7-1.4-1.6-1.4-2.8c0-1.2,0.4-2.1,1.4-2.8
	C38.3,16.2,39.7,15.8,41.4,15.8z M14.6,17.9v5.4h-3.2v-5.4H14.6z M6.6,16.1c0.5,0.1,1,0.2,1.3,0.3c0.7,0.3,1.3,0.7,1.7,1.3
	c0.4,0.6,0.6,1.2,0.6,2c0,0.8-0.2,1.5-0.7,2.1c-0.4,0.6-1.1,1-2.1,1.3c-0.3,0.1-0.8,0.2-1.3,0.2c-0.6,0-1.4,0.1-2.6,0.1H0V16l4.8,0
	C5.6,16,6.1,16.1,6.6,16.1z M21.8,17.8c0.5,0,0.9,0,1.3,0.1c0.4,0.1,0.7,0.3,1,0.5s0.4,0.4,0.5,0.7c0.1,0.3,0.1,0.7,0.1,1.3v2.8
	h-3.1v-2.8c0-0.4-0.1-0.7-0.3-0.8c-0.1-0.1-0.4-0.2-0.8-0.2c-0.4,0-0.7,0.1-0.9,0.3c-0.2,0.2-0.3,0.4-0.3,0.8v2.8h-3.2v-5.4H19v0.8
	c0.4-0.3,0.8-0.6,1.2-0.7C20.7,17.9,21.3,17.8,21.8,17.8z M63.4,17.8V20c-0.1,0-0.2,0-0.3,0h-0.3l0,0c-0.7,0-1.1,0.1-1.4,0.3
	c-0.3,0.2-0.5,0.5-0.5,0.9v2.2h-3.1v-5.4h2.9v1c0.2-0.4,0.5-0.7,0.9-0.9c0.4-0.2,0.9-0.3,1.6-0.3H63.4z M31.5,20.9
	c-0.3,0.1-0.7,0.1-1.2,0.2c-0.8,0.1-1.2,0.3-1.2,0.6c0,0.1,0.1,0.3,0.2,0.4c0.1,0.1,0.4,0.1,0.7,0.1c0.5,0,0.9-0.1,1.1-0.3
	c0.3-0.1,0.4-0.4,0.4-0.8L31.5,20.9L31.5,20.9C31.5,21,31.5,20.9,31.5,20.9z M53,20.9c-0.3,0.1-0.7,0.1-1.2,0.2
	c-0.8,0.1-1.2,0.3-1.2,0.6c0,0.1,0.1,0.3,0.3,0.4c0.1,0.1,0.4,0.1,0.7,0.1c0.5,0,0.9-0.1,1.1-0.3c0.2-0.1,0.4-0.4,0.4-0.8
	C53,21.1,53,21,53,20.9L53,20.9L53,20.9z M68.4,19.4c-0.4,0-0.8,0.1-1,0.3c-0.2,0.2-0.3,0.5-0.3,0.9s0.1,0.7,0.3,0.9
	c0.2,0.2,0.6,0.3,1,0.3s0.7-0.1,1-0.3c0.2-0.2,0.3-0.5,0.3-0.9s-0.1-0.7-0.3-0.9C69.2,19.6,68.8,19.4,68.4,19.4z M4.4,17.9h-1v3.6
	h0.9c0.9,0,1.4-0.1,1.8-0.4c0.3-0.3,0.5-0.7,0.5-1.4c0-0.7-0.2-1.1-0.5-1.4C5.8,18,5.2,17.9,4.4,17.9z M14.6,15.9v1.6h-3.2v-1.6
	H14.6z M36.3,0c4.7,0,9,1.6,12.4,4.4l6.3,0c6.6,0,12.2,4.1,14.6,9.8l0,0h-1.8C65.6,9.3,60.7,6,55,6l0,0l-4.6,0
	c2.2,2.3,4,5.1,4.9,8.2H17.1c1-3.1,2.7-5.9,4.9-8.2l-4.8,0C11.6,6,6.7,9.3,4.4,14.2l0,0H2.7C5,8.4,10.6,4.4,17.2,4.4l0,0l6.6,0
	C27.2,1.6,31.6,0,36.3,0z"/>
</svg>
