<svg xmlns="http://www.w3.org/2000/svg" xmlns:xlink="http://www.w3.org/1999/xlink" width="309" height="40" viewBox="0 0 309 40">
  <defs>
    <polygon id="intesa-a" points="0 40 308.739 40 308.739 0 0 0"/>
  </defs>
  <g fill="none" fill-rule="evenodd">
    <path fill="#346275" d="M35.7155593 11.2928081L35.7155593 11.2899798 35.6982133 11.2831111C35.4561768 11.1352323 35.0907016 11.051596 34.8434209 11.162303 33.2653426 11.0087677 31.7598752 11.0277576 30.1648543 11.0463434L30.1192708 11.0463434 30.057148 11.0463434C29.2568138 11.0572525 28.4294522 11.0661414 27.602494 11.051596L20.9202681 10.9170505C19.3555018 10.8730101 17.6362355 10.8867475 15.9532747 10.9465455 14.7116272 10.9594747 13.4962003 10.9889697 12.2622172 11.0277576 10.9822473 11.0608889 7.91080339 11.071798 6.08141044 11.0770505 5.09995222 11.0794747 4.59207885 11.082303 4.52471201 11.082303 4.30647572 11.0984646 4.04709321 11.3990707 4.04291276 11.6427071 4.03902533 11.7812929 4.11768721 11.9344242 4.35407624 11.9558384 4.52309843 11.9744242 5.63202924 11.9796768 7.643353 11.9744242L9.70026031 11.9651313C10.2533138 11.9610909 10.5058386 11.9744242 10.622823 11.9598788L10.6365384 11.9558384C12.1492668 11.8091717 13.6652225 11.8160404 15.1368047 11.8225051L15.1553608 11.8225051 15.2513687 11.8225051C16.2005554 11.8305859 17.1832238 11.8374545 18.1723465 11.7962424 18.3796911 11.8439192 18.597524 11.8014949 18.8024483 11.7558384L18.8343164 11.752202C18.9315345 11.7336162 19.0243151 11.7174545 19.1174992 11.7065455 19.3393661 11.7707879 19.5999587 11.7707879 19.8702329 11.7614949 20.133246 11.7558384 20.4006963 11.7534141 20.6463634 11.8107879L20.6463634 11.8184646 20.6862995 11.8160404 20.6862995 11.8091717C20.901712 11.7376566 21.0957446 11.7748283 21.3018791 11.8160404 21.3087368 11.8184646 21.3418151 11.8225051 21.3418151 11.8225051 21.4402433 11.8410909 21.5293935 11.8584646 21.6221742 11.8612929 23.530229 11.8091717 25.6432081 11.8798788 28.2781794 12.0794747 28.2741454 12.0794747 29.5266846 12.211596 29.5266846 12.211596L29.5412068 12.211596C30.6477172 12.102101 31.7933569 12.1942222 32.9006742 12.2697778 32.9022877 12.2697778 32.9289117 12.2726061 32.9289117 12.2726061 33.7595005 12.3311919 34.5457159 12.3913939 35.327494 12.372404L35.3327381 12.3845253 35.3779183 12.3659394 35.3779183 12.3566465 35.7901872 12.0265455 35.7942211 12.0265455 35.8139875 12.0091717 35.8087433 12.0035152C35.945494 11.7853333 35.905558 11.4726061 35.7155593 11.2928081M24.6551342 25.5133333L24.6898261 25.4963636 24.6886159 25.4111111 24.6603783 22.8050505 24.6603783 22.7957576 24.6603783 22.790101C24.6111642 22.400202 24.5990624 21.9674747 24.5913979 21.5064646 24.5821198 20.990101 24.5688078 20.4543434 24.5038614 19.9884848 24.486112 19.3052525 24.3546055 18.5808081 24.2243091 17.8830303L24.1363692 17.4062626 24.1287047 17.3626263 24.095223 17.3290909C23.9903405 17.2240404 23.956052 17.0947475 23.9169227 16.9387879 23.8826342 16.8111111 23.8467321 16.6818182 23.7680702 16.5577778 23.5942073 16.2381818 23.3174789 15.9282828 23.0730219 15.6551515L23.0593065 15.6406061C22.998394 15.5593939 22.9253796 15.5165657 22.8680977 15.4741414 22.8321956 15.450303 22.7950833 15.4272727 22.7591812 15.3981818L22.7035128 15.3476768 22.6688209 15.3541414 22.6248509 15.3185859C22.4017739 15.1440404 22.19927 15.0757576 21.9600572 14.9945455L21.9536029 14.9945455C21.8842191 14.8963636 21.7527125 14.8818182 21.6623522 14.8818182L21.6623522 14.8147475 21.5401238 14.7989899 20.9616564 14.7109091 20.8805742 14.6987879 20.8273261 14.7670707C20.8023157 14.7989899 20.7970715 14.8030303 20.6756499 14.7561616 20.6187713 14.7379798 20.5614893 14.7149495 20.4937191 14.7080808L20.4243352 14.7032323 20.3912569 14.7347475C20.3767347 14.7230303 20.3513209 14.7080808 20.3271172 14.6935354L20.0842739 14.6232323 20.0681381 14.7347475C19.9604319 14.7323232 19.8660376 14.7525253 19.7918131 14.7989899L19.6748287 14.7989899 19.4073783 14.7989899 19.0576355 14.7989899 19.0963614 14.9347475 19.0911172 14.9412121C18.935407 14.9 18.8172125 14.9945455 18.7490389 15.0494949 18.7385507 15.0612121 18.7216081 15.0692929 18.7171708 15.0785859 18.5925219 15.1 18.5195076 15.1517172 18.4674697 15.1892929 18.429954 15.219596 18.4154319 15.2276768 18.3851773 15.2317172L18.3250715 15.2357576 18.2851355 15.2793939C18.2322909 15.3460606 18.0616551 15.4208081 17.9741185 15.459596L17.7812961 15.5472727 17.8212321 15.5888889C17.7933979 15.5993939 17.7615298 15.6208081 17.7296616 15.6527273L17.6856916 15.6527273 17.5432935 15.6527273 17.5432935 15.7965657 17.5432935 15.800202C17.531595 15.7965657 17.5287713 15.7965657 17.5235272 15.7965657L17.4146107 15.7484848C17.4065428 15.7444444 17.3399828 15.8389899 17.3399828 15.8389899 17.2213849 16.0014141 17.0753561 16.1573737 16.9131916 16.3278788 16.7336812 16.5222222 16.5424723 16.7270707 16.3936198 16.9480808L16.3520702 17.0094949 16.3786943 17.080202C16.3440023 17.1 16.2552556 17.1573737 16.2391198 17.2612121 16.1661055 17.3424242 16.1511799 17.4478788 16.1394815 17.5157576 16.1366577 17.5355556 16.1338339 17.5646465 16.1261695 17.5783838 16.0462974 17.6713131 16.0329854 17.7634343 16.0196734 17.8365657 16.0103953 17.8923232 16.0063614 17.9218182 15.9825611 17.9525253L15.889377 18.0680808 15.9305232 18.0987879C15.9038992 18.1690909 15.9038992 18.2438384 15.9038992 18.2907071 15.9038992 18.3092929 15.902689 18.3319192 15.8986551 18.3464646L15.8389527 18.3876768 15.8534749 18.4850505C15.8788888 18.6632323 15.8534749 18.8337374 15.8284645 19.0135354 15.8070846 19.1840404 15.7840911 19.3626263 15.8030507 19.5610101 15.7324567 19.6717172 15.7498026 19.7953535 15.7602909 19.8793939 15.7643248 19.9032323 15.7711825 19.9444444 15.7711825 19.9630303L15.6767883 20.0337374 15.7445585 20.1428283C15.792159 20.2268687 15.7550467 20.3614141 15.7126903 20.4943434 15.679612 20.6127273 15.635642 20.7650505 15.679612 20.8951515 15.6663 20.9048485 15.6554084 20.9165657 15.6473405 20.9311111 15.6299945 20.9569697 15.6166825 20.990101 15.6219266 21.0393939 15.6219266 21.1391919 15.6114384 21.1694949 15.6061943 21.18L15.5372138 21.3226263 15.5279358 21.3775758 15.6501642 21.4648485C15.635642 21.5464646 15.6473405 21.6264646 15.6554084 21.6959596 15.6755781 21.7905051 15.679612 21.8276768 15.6473405 21.8676768L15.5715023 22.0082828 15.6473405 22.0967677 15.6473405 22.1214141C15.6404828 22.1856566 15.635642 22.300404 15.7191446 22.3844444 15.7191446 22.4030303 15.7207582 22.4147475 15.7231786 22.4292929L15.5836042 22.4624242 15.679612 22.6640404C15.6767883 22.6769697 15.6711407 22.6967677 15.6663 22.7157576 15.6501642 22.7715152 15.6275742 22.8862626 15.6848561 22.9836364 15.6404828 23.0975758 15.6663 23.2111111 15.6872765 23.2870707 15.6925206 23.3068687 15.7005885 23.3359596 15.7022021 23.3545455 15.5702922 23.4963636 15.6299945 23.6838384 15.6711407 23.7840404 15.6061943 23.8769697 15.6219266 23.9913131 15.635642 24.0608081L15.4573418 24.1210101 15.6404828 24.3137374C15.6299945 24.3537374 15.6299945 24.4030303 15.6594423 24.4535354 15.6832426 24.4830303 15.7114802 24.5080808 15.7352804 24.5173737L15.6832426 24.5375758C15.6832426 24.5432323 15.6848561 24.5464646 15.6913104 24.5521212L15.6872765 24.5521212 15.7550467 24.7254545 15.7498026 24.74C15.7352804 24.8385859 15.7602909 24.9379798 15.8070846 25.0131313 15.7893352 25.0329293 15.7792504 25.0636364 15.7764266 25.0927273L15.7022021 25.1686869 15.7764266 25.2672727C15.8284645 25.3460606 15.8111185 25.4494949 15.7711825 25.6094949 15.7352804 25.7476768 15.6913104 25.9307071 15.7711825 26.0850505L15.6711407 26.1848485 15.7978065 26.2725253C15.7937726 26.2830303 15.7893352 26.2874747 15.7893352 26.2927273 15.7550467 26.3577778 15.6965546 26.4652525 15.7711825 26.5892929L15.7643248 26.5763636C15.7893352 26.6345455 15.7764266 26.7311111 15.7643248 26.8349495 15.7498026 26.979596 15.7231786 27.1565657 15.8046642 27.3282828L15.7816708 27.5080808 15.7869149 27.4886869C15.7643248 27.5525253 15.7816708 27.6135354 15.8030507 27.6567677L15.7445585 27.6830303 15.7869149 27.8070707C15.8284645 27.9343434 15.8284645 28.0886869 15.8284645 28.2583838 15.8284645 28.569899 15.8284645 28.9278788 16.1156812 29.1993939L16.1765937 29.2591919 16.2552556 29.2345455C16.4662308 29.170303 16.4783326 28.9626263 16.4835768 28.8478788 16.4835768 28.8187879 16.4835768 28.7985859 16.4876107 28.7828283L16.4928548 28.749697 16.4835768 28.7189899C16.398864 28.4365657 16.4319423 28.0543434 16.4662308 27.7230303 16.4742987 27.6321212 16.4835768 27.5484848 16.4876107 27.470101L16.4928548 27.430101 16.4742987 27.3909091C16.4174201 27.2753535 16.4291185 27.1610101 16.4452543 27.0264646 16.4621969 26.9088889 16.4742987 26.7743434 16.4319423 26.6345455 16.4835768 26.0248485 16.4529188 25.3032323 16.4250846 24.6652525 16.4174201 24.3977778 16.4041081 24.139596 16.4041081 23.9076768L16.398864 23.8979798 16.398864 23.8927273C16.3653822 23.5892929 16.3734501 23.2668687 16.385552 22.9541414 16.3879723 22.6721212 16.398864 22.3880808 16.3734501 22.1214141 16.4412204 21.8155556 16.4359762 21.5412121 16.4303287 21.2430303 16.4291185 21.1056566 16.4250846 20.9711111 16.4291185 20.8260606L16.4319423 20.7860606 16.4226642 20.7731313C16.4876107 20.6939394 16.5021329 20.6127273 16.4662308 20.530303 16.498099 20.42 16.5021329 20.3109091 16.507377 20.2175758 16.507377 20.1428283 16.5142347 20.0684848 16.5303705 20.0042424L16.5368248 19.9670707 16.5279501 19.9286869C16.507377 19.869697 16.5235128 19.7953535 16.5424723 19.7153535 16.5662726 19.6171717 16.5928966 19.5076768 16.5501368 19.3945455 16.6630872 19.1614141 16.6860807 18.8834343 16.7110911 18.610303L16.7203692 18.5169697C16.7296473 18.4543434 16.705847 18.4038384 16.6630872 18.3517172L16.6630872 18.3436364C16.6630872 18.2228283 16.7203692 18.1254545 16.7998379 18.0014141 16.8906016 17.8684848 16.9821721 17.7177778 17.0087961 17.5117172L17.0116198 17.4729293 17.0087961 17.4688889C17.0180742 17.4583838 17.0342099 17.4478788 17.0418744 17.4369697 17.0955258 17.3917172 17.1737843 17.3290909 17.1725742 17.2187879 17.1725742 17.1973737 17.1685402 17.1787879 17.1657164 17.1614141 17.2613209 17.0680808 17.323847 16.9626263 17.381129 16.869697 17.4634214 16.7339394 17.5235272 16.6353535 17.6856916 16.5884848L17.7651603 16.5686869 17.78533 16.4846465C17.8067099 16.3969697 17.8837582 16.3436364 18.0088104 16.2648485 18.1044149 16.2090909 18.206877 16.1424242 18.2811016 16.0430303 18.3888078 16.0519192 18.4513339 16.0240404 18.4884462 15.9852525 18.6122883 15.9533333 18.7119266 15.880202 18.7901851 15.8151515 18.9233052 15.7084848 18.970099 15.6842424 19.0576355 15.7254545L19.1479958 15.7670707 19.206488 15.7084848C19.2105219 15.7084848 19.2173796 15.7044444 19.2210102 15.7044444 19.2609462 15.6951515 19.3355742 15.6737374 19.3771238 15.6046465 19.4166564 15.5993939 19.4501381 15.5848485 19.4803927 15.5763636 19.5526003 15.5513131 19.5735768 15.5472727 19.6002008 15.5606061 19.6252112 15.5779798 19.6772491 15.5969697 19.7357413 15.5816162L19.7421956 15.590101 19.8446577 15.5779798 19.9842321 15.5606061C20.4057791 15.5060606 20.7648 15.459596 21.0907426 15.6365657L21.2077269 15.6963636 21.2779175 15.5953535C21.2912295 15.6046465 21.3073653 15.6260606 21.3206773 15.6406061 21.4029697 15.7339394 21.5494018 15.8963636 21.7632008 15.8587879 21.8071708 15.9016162 21.861629 15.9323232 21.905599 15.9589899 21.9257687 15.9707071 21.9483587 15.9852525 21.9657047 15.9985859L21.9657047 16.0014141 21.9947491 16.0430303C22.0649397 16.1290909 22.2033039 16.1719192 22.3138339 16.1771717 22.5582909 16.4329293 22.8071851 16.7872727 22.8071851 16.9387879L22.8071851 17.0826263 22.9173117 17.0826263 22.9173117 17.0947475C22.9560376 17.2810101 23.0157399 17.5210101 23.1593483 17.6777778 23.1182021 17.7751515 23.1541042 17.889899 23.1714501 17.9416162 23.1754841 17.9561616 23.1807282 17.9763636 23.1843587 17.9949495L23.1472465 18.0987879 23.2444645 18.1985859 23.2630206 18.2094949C23.2577765 18.3092929 23.3057804 18.4038384 23.3372452 18.4676768 23.3481368 18.4850505 23.3574149 18.5024242 23.362659 18.5222222L23.3372452 18.5783838C23.2085624 18.8260606 23.3856525 18.9646465 23.4663313 19.0272727 23.4824671 19.040202 23.4917452 19.0470707 23.4969893 19.0535354 23.4304292 19.1028283 23.4344632 19.1577778 23.4227648 19.2414141L23.4344632 19.3585859 23.4756094 19.4288889 23.4824671 19.4288889C23.4824671 19.4329293 23.4848875 19.4373737 23.4877112 19.4438384 23.4929554 19.4624242 23.503847 19.4931313 23.5199828 19.5250505L23.4703653 19.5783838 23.4372869 19.7060606 23.5119149 19.809899 23.5635493 19.8353535C23.5635493 19.8991919 23.5849292 19.949697 23.6059057 19.9828283 23.6075193 19.9937374 23.6115533 19.9977778 23.6127634 20.0042424L23.5994514 20.0684848C23.5502373 20.3056566 23.4929554 20.6127273 23.6365637 20.860404 23.6337399 20.8660606 23.6284958 20.8713131 23.6272856 20.8781818 23.561129 20.9658586 23.5756512 21.0713131 23.5849292 21.149697 23.5901734 21.1763636 23.5978379 21.2135354 23.5942073 21.2280808L23.561129 21.3775758C23.5554815 21.3824242 23.6059057 21.3917172 23.6486655 21.4038384 23.6422112 21.4159596 23.6337399 21.4329293 23.6325298 21.4507071L23.6034854 21.6208081 23.6607674 21.6208081C23.6486655 21.6785859 23.6486655 21.7339394 23.6486655 21.7836364 23.6458418 21.8729293 23.6405977 21.9270707 23.6115533 21.9767677L23.5978379 21.9941414 23.5901734 22.0167677C23.5502373 22.1775758 23.6115533 22.320202 23.6551198 22.4410101 23.6635911 22.4624242 23.6688352 22.4838384 23.6793235 22.5068687 23.6551198 22.5331313 23.6284958 22.5723232 23.6325298 22.6276768 23.6337399 22.6426263 23.6405977 22.6519192 23.6405977 22.6640404L23.6115533 22.6907071 23.6365637 22.7820202C23.6551198 22.8313131 23.6845676 22.8571717 23.7192595 22.8757576L23.6954593 22.8862626C23.6898117 22.8862626 23.6898117 22.9953535 23.6898117 22.9953535L23.6898117 23.0393939 23.5978379 23.0591919 23.6422112 23.1581818C23.6192178 23.1981818 23.5978379 23.2616162 23.6220415 23.3359596L23.561129 23.4458586C23.561129 23.4458586 23.570407 23.5092929 23.6244619 23.5383838 23.570407 23.7335354 23.7124018 23.8822222 23.7979214 23.9678788 23.8334201 24.0006061 23.8548 24.0313131 23.8733561 24.050303L23.7979214 24.050303 23.8548 24.2406061 23.8548 24.2446465C23.841488 24.2539394 23.8309997 24.269697 23.8176877 24.2846465L23.6990898 24.3440404 23.7378157 24.5080808 23.7257138 24.5432323C23.6990898 24.6256566 23.7192595 24.6866667 23.7430598 24.7210101 23.7483039 24.7254545 23.753548 24.7307071 23.7587922 24.7359596 23.7192595 24.7743434 23.6688352 24.8385859 23.6607674 24.9379798L23.6486655 25.0725253 23.7587922 25.0927273C23.7483039 25.1181818 23.7378157 25.1476768 23.7321681 25.1767677 23.7192595 25.2272727 23.7071577 25.2713131 23.6845676 25.3056566 23.6793235 25.3113131 23.6793235 25.3153535 23.6752896 25.320202L23.868112 25.4280808C23.8398744 25.4842424 23.8253522 25.5335354 23.8124436 25.5747475 23.8055859 25.5921212 23.7979214 25.6187879 23.7922739 25.6325253L23.7773483 25.6325253 23.6151838 25.6325253 23.6244619 25.8240404C23.6337399 25.850303 23.6365637 25.8866667 23.6405977 25.9214141 23.6458418 25.9545455 23.6486655 25.9941414 23.6607674 26.0381818L23.6607674 26.2288889C23.6607674 26.2527273 23.6607674 26.2874747 23.6688352 26.3335354L23.6458418 26.3432323 23.6607674 26.4470707C23.6688352 26.5 23.6635911 26.5509091 23.6607674 26.6054545 23.6607674 26.6345455 23.6551198 26.669697 23.6551198 26.6991919L23.5224031 26.7690909 23.6845676 26.9480808 23.6845676 26.9581818C23.6635911 26.9973737 23.6405977 27.0583838 23.6405977 27.1222222L23.5264371 27.1222222 23.7204697 27.3589899C23.7378157 27.3787879 23.753548 27.4337374 23.7628261 27.4737374 23.7680702 27.4789899 23.7680702 27.4842424 23.7680702 27.4886869 23.6845676 27.5682828 23.6752896 27.6830303 23.6688352 27.7416162 23.6635911 27.7654545 23.6635911 27.8119192 23.6551198 27.8256566L23.6607674 27.820404 23.7071577 27.8850505C23.6688352 27.9169697 23.6458418 27.9460606 23.6337399 27.9690909 23.6151838 28.019596 23.6115533 28.0636364 23.6151838 28.1088889L23.4267987 28.1088889 23.5849292 28.2624242 23.4372869 28.3177778 23.561129 28.4155556 23.561129 28.8046465C23.561129 28.8733333 23.5901734 28.9319192 23.6486655 28.9626263 23.6551198 28.9626263 23.6607674 28.9682828 23.6607674 28.9682828 23.7378157 29.0143434 23.824142 29.0107071 23.8902987 28.9973737L23.8902987 29.1610101 24.0754567 29.1028283C24.2134175 29.0628283 24.3174932 29.0559596 24.4280232 29.0769697L24.5780859 29.1064646 24.5990624 28.9533333C24.6736903 28.3715152 24.6603783 27.8119192 24.6458561 27.270101 24.6285102 26.74 24.6151982 26.2406061 24.684582 25.7476768 24.7257282 25.6478788 24.6817582 25.5626263 24.6551342 25.5133333M13.565342 25.5133333L13.5988238 25.4963636 13.5988238 25.4111111 13.565342 22.8050505 13.565342 22.7957576 13.565342 22.790101C13.5217755 22.400202 13.5133042 21.9674747 13.5016057 21.5064646 13.4923277 20.990101 13.481436 20.4543434 13.4112454 19.9884848 13.3991436 19.3052525 13.2648133 18.5808081 13.134517 17.8830303L13.0453668 17.4062626 13.037299 17.3626263 13.0054308 17.3290909C12.8993381 17.2240404 12.86747 17.0947475 12.8275339 16.9387879 12.7916319 16.8111111 12.7585535 16.6818182 12.6786815 16.5577778 12.5068355 16.2381818 12.2264765 15.9282828 11.9820196 15.6551515L11.9711279 15.6406061C11.909812 15.5593939 11.8367977 15.5165657 11.7730614 15.4741414 11.7371593 15.450303 11.7069047 15.4272727 11.669389 15.3981818L11.612107 15.3476768 11.5802389 15.3541414 11.5326384 15.3185859C11.3144021 15.1440404 11.1070574 15.0757576 10.8690548 14.9945455L10.8638107 14.9945455C10.7944269 14.8963636 10.6645339 14.8818182 10.5749804 14.8818182L10.5749804 14.8147475 10.4503316 14.7989899 9.87065405 14.7109091 9.78795822 14.6987879 9.73632376 14.7670707C9.71494386 14.7989899 9.70727937 14.8030303 9.58747128 14.7561616 9.5301893 14.7379798 9.46887337 14.7149495 9.40110313 14.7080808L9.33736684 14.7032323 9.30146475 14.7347475C9.2841188 14.7230303 9.26193211 14.7080808 9.23732507 14.6935354L8.99569191 14.6232323 8.97713577 14.7347475C8.8694295 14.7323232 8.77624543 14.7525253 8.70202089 14.7989899L8.57817885 14.7989899 8.31758616 14.7989899 7.96421279 14.7989899 8.00656919 14.9347475 7.99850131 14.9412121C7.8444047 14.9 7.72217624 14.9945455 7.65803655 15.0494949 7.64875849 15.0612121 7.63181593 15.0692929 7.62495822 15.0785859 7.49990601 15.1 7.4297154 15.1517172 7.37606397 15.1892929 7.34016188 15.219596 7.3244295 15.2276768 7.29538512 15.2317172L7.23164883 15.2357576 7.19292298 15.2793939C7.14249869 15.3460606 6.97509008 15.4208081 6.88432637 15.459596L6.69150392 15.5472727 6.73547389 15.5888889C6.70078198 15.5993939 6.67012402 15.6208081 6.63825587 15.6527273L6.59710966 15.6527273 6.45229112 15.6527273 6.45229112 15.7965657 6.45229112 15.800202C6.44422324 15.7965657 6.43776893 15.7965657 6.42970104 15.7965657L6.32481854 15.7484848C6.31513708 15.7444444 6.24898042 15.8389899 6.24898042 15.8389899 6.13481984 16.0014141 5.98435379 16.1573737 5.82622324 16.3278788 5.64267885 16.5222222 5.45389034 16.7270707 5.30463446 16.9480808L5.26106789 17.0094949 5.29011227 17.080202C5.25421018 17.1 5.16667363 17.1573737 5.15336162 17.2612121 5.0775235 17.3424242 5.06138773 17.4478788 5.0496893 17.5157576 5.04807572 17.5355556 5.04323499 17.5646465 5.03637728 17.5783838 4.95932898 17.6713131 4.94198303 17.7634343 4.92867102 17.8365657 4.92181332 17.8923232 4.91414883 17.9218182 4.89397911 17.9525253L4.79958486 18.0680808 4.84355483 18.0987879C4.81410705 18.1690909 4.80886292 18.2438384 4.80886292 18.2907071L4.80886292 18.3464646 4.74633681 18.3876768 4.76368277 18.4850505C4.78909661 18.6632323 4.76529634 18.8337374 4.74109269 19.0135354 4.71608225 19.1840404 4.69470235 19.3626263 4.71043473 19.5610101 4.64024413 19.6717172 4.65839687 19.7953535 4.67211227 19.8793939 4.6773564 19.9032323 4.68139034 19.9444444 4.68139034 19.9630303L4.58820627 20.0337374 4.65194256 20.1428283C4.70115666 20.2268687 4.66001044 20.3614141 4.62410836 20.4943434 4.58820627 20.6127273 4.54463969 20.7650505 4.59224021 20.8951515 4.58175196 20.9048485 4.56682637 20.9165657 4.5575483 20.9311111 4.54302611 20.9569697 4.52850392 20.990101 4.53092428 21.0393939 4.53092428 21.1391919 4.5228564 21.1694949 4.51761227 21.18L4.44742167 21.3226263 4.43693342 21.3775758 4.56158225 21.4648485C4.54988381 21.5464646 4.55916188 21.6264646 4.57247389 21.6959596 4.58175196 21.7905051 4.58820627 21.8276768 4.55916188 21.8676768L4.47646606 22.0082828 4.55916188 22.0967677C4.55916188 22.1072727 4.55916188 22.1165657 4.5575483 22.1214141 4.55512794 22.1856566 4.54988381 22.300404 4.62531854 22.3844444 4.62935248 22.4030303 4.63459661 22.4147475 4.63742037 22.4292929L4.49098825 22.4624242 4.58820627 22.6640404C4.58820627 22.6769697 4.58175196 22.6967677 4.57650783 22.7157576 4.56158225 22.7715152 4.53616841 22.8862626 4.59627415 22.9836364 4.55230418 23.0975758 4.58175196 23.2111111 4.59627415 23.2870707 4.60151828 23.3068687 4.61079634 23.3359596 4.61079634 23.3545455 4.47646606 23.4963636 4.54463969 23.6838384 4.58175196 23.7840404 4.51922585 23.8769697 4.53253786 23.9913131 4.54706005 24.0608081L4.36875979 24.1210101 4.54988381 24.3137374C4.54302611 24.3537374 4.54302611 24.4030303 4.57247389 24.4535354 4.59224021 24.4830303 4.61886423 24.5080808 4.6491188 24.5173737L4.59224021 24.5375758C4.59224021 24.5432323 4.59627415 24.5464646 4.59627415 24.5521212L4.66001044 24.7254545 4.66001044 24.74C4.64548825 24.8385859 4.66646475 24.9379798 4.71608225 25.0131313 4.70115666 25.0329293 4.68945822 25.0636364 4.68542428 25.0927273L4.61604047 25.1686869 4.68542428 25.2672727C4.74109269 25.3460606 4.72132637 25.4494949 4.68139034 25.6094949 4.64024413 25.7476768 4.59627415 25.9307071 4.68139034 26.0850505L4.58175196 26.1848485 4.70680418 26.2725253C4.70680418 26.2830303 4.70115666 26.2874747 4.69470235 26.2927273 4.66404439 26.3577778 4.60797258 26.4652525 4.68139034 26.5892929L4.67211227 26.5763636C4.70115666 26.6345455 4.68945822 26.7311111 4.6773564 26.8349495 4.6559765 26.979596 4.63742037 27.1565657 4.71608225 27.3282828L4.68945822 27.5080808 4.69470235 27.4886869C4.6773564 27.5525253 4.68945822 27.6135354 4.71043473 27.6567677L4.6559765 27.6830303 4.69470235 27.8070707C4.73705875 27.9343434 4.74109269 28.0886869 4.74109269 28.2583838 4.74109269 28.569899 4.74109269 28.9278788 5.02306527 29.1993939L5.08397781 29.2591919 5.16667363 29.2345455C5.37522846 29.170303 5.38733029 28.9626263 5.39136423 28.8478788 5.39136423 28.8187879 5.39418799 28.7985859 5.39660836 28.7828283L5.40225587 28.749697 5.39136423 28.7189899C5.31028198 28.4365657 5.34497389 28.0543434 5.37522846 27.7230303 5.38329634 27.6321212 5.39136423 27.5484848 5.39660836 27.470101L5.40225587 27.430101 5.38329634 27.3909091C5.32480418 27.2753535 5.33932637 27.1610101 5.35788251 27.0264646 5.3724047 26.9088889 5.38329634 26.7743434 5.33932637 26.6345455 5.39015405 26.0248485 5.36191645 25.3032323 5.33932637 24.6652525 5.32480418 24.3977778 5.31552611 24.139596 5.31028198 23.9076768L5.31028198 23.8979798 5.31028198 23.8927273C5.2743799 23.5892929 5.28486815 23.2668687 5.29454961 22.9541414 5.3022141 22.6721212 5.31028198 22.3880808 5.28486815 22.1214141 5.34860444 21.8155556 5.34497389 21.5412121 5.33932637 21.2430303L5.33932637 20.8260606 5.33932637 20.7860606 5.33408225 20.7731313C5.39660836 20.6939394 5.41516449 20.6127273 5.38087598 20.530303 5.40992037 20.42 5.41516449 20.3109091 5.41919843 20.2175758 5.41919843 20.1428283 5.42323238 20.0684848 5.43896475 20.0042424L5.44824282 19.9670707 5.43896475 19.9286869C5.41919843 19.869697 5.43251044 19.7953535 5.45389034 19.7153535 5.47486684 19.6171717 5.49745692 19.5076768 5.45913446 19.3945455 5.5761188 19.1614141 5.59991906 18.8834343 5.62129896 18.610303L5.63178721 18.5169697C5.63743473 18.4543434 5.62129896 18.4038384 5.57208486 18.3517172L5.57208486 18.3436364C5.57208486 18.2228283 5.63178721 18.1254545 5.71044909 18.0014141 5.79556527 17.8684848 5.89399347 17.7177778 5.91900392 17.5117172L5.9202141 17.4729293 5.91900392 17.4688889C5.92989556 17.4583838 5.94280418 17.4478788 5.95369582 17.4369697 6.00573368 17.3917172 6.08641253 17.3290909 6.08278198 17.2187879 6.08278198 17.1973737 6.07753786 17.1787879 6.0747141 17.1614141 6.17717624 17.0680808 6.23808877 16.9626263 6.29012663 16.869697 6.37524282 16.7339394 6.43373499 16.6353535 6.59307572 16.5884848L6.67415796 16.5686869 6.69553786 16.4846465C6.71691775 16.3969697 6.79517624 16.3436364 6.92022846 16.2648485 7.01341253 16.2090909 7.11869843 16.1424242 7.19292298 16.0430303 7.29538512 16.0519192 7.36033159 16.0240404 7.39744386 15.9852525 7.52410966 15.9533333 7.62213446 15.880202 7.70200653 15.8151515 7.83391645 15.7084848 7.88030679 15.6842424 7.96945692 15.7254545L8.06344778 15.7670707 8.11951958 15.7084848C8.12355352 15.7084848 8.12758747 15.7044444 8.12758747 15.7044444 8.17115405 15.6951515 8.2445718 15.6737374 8.28733159 15.6046465 8.32565405 15.5993939 8.36276632 15.5848485 8.39624804 15.5763636 8.46522846 15.5513131 8.48499478 15.5472727 8.50879504 15.5606061 8.53582245 15.5779798 8.58221279 15.5969697 8.6447389 15.5816162L8.64998303 15.590101 8.7576893 15.5779798 8.89726371 15.5606061C9.31760052 15.5060606 9.67258747 15.459596 9.99974021 15.6365657L10.1167245 15.6963636 10.1881253 15.5953535C10.199017 15.6046465 10.2119256 15.6260606 10.2308851 15.6406061 10.3119674 15.7339394 10.4579961 15.8963636 10.6726018 15.8587879 10.7185888 15.9016162 10.7706266 15.9323232 10.8162102 15.9589899 10.8371867 15.9707071 10.8585666 15.9852525 10.8771227 15.9985859L10.8771227 16.0014141 10.9061671 16.0430303C10.9699034 16.1290909 11.1123016 16.1719192 11.2224282 16.1771717 11.4672885 16.4329293 11.7161828 16.7872727 11.7161828 16.9387879L11.7161828 17.0826263 11.8263094 17.0826263 11.8263094 17.0947475C11.8674556 17.2810101 11.9219138 17.5210101 12.0695561 17.6777778 12.0271997 17.7751515 12.0626984 17.889899 12.0800444 17.9416162 12.0840783 17.9561616 12.0893225 17.9763636 12.0961802 17.9949495L12.0562441 18.0987879 12.1534621 18.1985859 12.174842 18.2094949C12.1695979 18.3092929 12.2131645 18.4038384 12.2466462 18.4676768 12.2531005 18.4850505 12.2664125 18.5024242 12.2716567 18.5222222L12.2506802 18.5783838C12.1187702 18.8260606 12.2942467 18.9646465 12.375329 19.0272727 12.3926749 19.040202 12.3967089 19.0470707 12.4071971 19.0535354 12.3434608 19.1028283 12.3462846 19.1577778 12.3329726 19.2414141L12.3462846 19.3585859 12.3874308 19.4288889 12.3926749 19.4288889C12.3926749 19.4329293 12.3967089 19.4373737 12.3967089 19.4438384 12.401953 19.4624242 12.4112311 19.4931313 12.4309974 19.5250505L12.3805731 19.5783838 12.3474948 19.7060606 12.4209125 19.809899 12.4749674 19.8353535C12.472547 19.8991919 12.4963473 19.949697 12.516517 19.9828283 12.516517 19.9937374 12.516517 19.9977778 12.5217611 20.0042424L12.5108695 20.0684848C12.4632689 20.3056566 12.401953 20.6127273 12.5483851 20.860404 12.5455614 20.8660606 12.5415274 20.8713131 12.5362833 20.8781818 12.4668995 20.9658586 12.485859 21.0713131 12.4963473 21.149697 12.5015914 21.1763636 12.5068355 21.2135354 12.5068355 21.2280808L12.4668995 21.3775758C12.4668995 21.3824242 12.516517 21.3917172 12.5576632 21.4038384 12.5536292 21.4159596 12.5455614 21.4329293 12.543141 21.4507071L12.5108695 21.6208081 12.573799 21.6208081C12.5600836 21.6785859 12.5576632 21.7339394 12.5576632 21.7836364 12.556453 21.8729293 12.5536292 21.9270707 12.5217611 21.9767677L12.5108695 21.9941414 12.5015914 22.0167677C12.459235 22.1775758 12.516517 22.320202 12.5645209 22.4410101 12.573799 22.4624242 12.5802533 22.4838384 12.5867076 22.5068687 12.5645209 22.5331313 12.5415274 22.5723232 12.543141 22.6276768 12.543141 22.6426263 12.5483851 22.6519192 12.5536292 22.6640404L12.5217611 22.6907071 12.5483851 22.7820202C12.5645209 22.8313131 12.5919517 22.8571717 12.6294674 22.8757576L12.6052637 22.8862626C12.6000196 22.8862626 12.6000196 22.9953535 12.6000196 22.9953535L12.6000196 23.0393939 12.5068355 23.0591919 12.5536292 23.1581818C12.5310392 23.1981818 12.5068355 23.2616162 12.5310392 23.3359596L12.472547 23.4458586C12.472547 23.4458586 12.4790013 23.5092929 12.5362833 23.5383838 12.4749674 23.7335354 12.6213995 23.8822222 12.7024817 23.9678788 12.7436279 24.0006061 12.766218 24.0313131 12.7823538 24.050303L12.708936 24.050303 12.7650078 24.2406061 12.766218 24.2446465C12.7541162 24.2539394 12.739594 24.269697 12.7291057 24.2846465L12.6092977 24.3440404 12.6504439 24.5080808 12.6347115 24.5432323C12.6092977 24.6256566 12.6294674 24.6866667 12.6560914 24.7210101 12.6601253 24.7254545 12.6653695 24.7307071 12.6722272 24.7359596 12.6242232 24.7743434 12.5802533 24.8385859 12.573799 24.9379798L12.5576632 25.0725253 12.6694034 25.0927273C12.6601253 25.1181818 12.6504439 25.1476768 12.6451997 25.1767677 12.6294674 25.2272727 12.615752 25.2713131 12.5919517 25.3056566L12.5947755 25.3056566C12.5907415 25.3113131 12.5854974 25.3153535 12.5814634 25.320202L12.7754961 25.4280808C12.7488721 25.4842424 12.7343499 25.5335354 12.7238616 25.5747475 12.7182141 25.5921212 12.708936 25.6187879 12.7024817 25.6325253L12.6867493 25.6325253 12.5241815 25.6325253 12.5310392 25.8240404C12.543141 25.850303 12.5483851 25.8866667 12.5508055 25.9214141 12.556453 25.9545455 12.5600836 25.9941414 12.569765 26.0381818L12.569765 26.2288889C12.569765 26.2527273 12.573799 26.2874747 12.5774295 26.3335354L12.556453 26.3432323 12.573799 26.4470707C12.5774295 26.5 12.5774295 26.5509091 12.573799 26.6054545 12.569765 26.6345455 12.569765 26.669697 12.569765 26.6991919L12.4366449 26.7690909 12.5947755 26.9480808C12.5947755 26.9529293 12.5919517 26.9529293 12.5919517 26.9529293 12.573799 26.9973737 12.5536292 27.0583838 12.5536292 27.1222222L12.4366449 27.1222222 12.6294674 27.3589899C12.6504439 27.3787879 12.6625457 27.4337374 12.6734373 27.4737374 12.6770679 27.4789899 12.6770679 27.4842424 12.6786815 27.4886869 12.6000196 27.5682828 12.5854974 27.6830303 12.5802533 27.7416162 12.5774295 27.7654545 12.573799 27.8119192 12.569765 27.8256566L12.569765 27.820404 12.6213995 27.8850505C12.5802533 27.9169697 12.5576632 27.9460606 12.543141 27.9690909 12.5217611 28.019596 12.5217611 28.0636364 12.5241815 28.1088889L12.3382167 28.1088889 12.4963473 28.2624242 12.3474948 28.3177778 12.472547 28.4155556 12.472547 28.8046465C12.472547 28.8733333 12.5015914 28.9319192 12.5600836 28.9626263 12.5645209 28.9626263 12.569765 28.9682828 12.569765 28.9682828 12.6480235 29.0143434 12.7291057 29.0107071 12.8005065 28.9973737L12.8005065 29.1610101 12.9884883 29.1028283C13.1252389 29.0628283 13.2260875 29.0559596 13.3382311 29.0769697L13.4870836 29.1064646 13.5080601 28.9533333C13.5851084 28.3715152 13.565342 27.8119192 13.556064 27.270101 13.5375078 26.74 13.5270196 26.2406061 13.596 25.7476768 13.6343225 25.6478788 13.596 25.5626263 13.565342 25.5133333M35.5546453 25.7149495L35.588127 25.6882828 35.588127 25.6094949 35.561503 23.0046465 35.561503 22.9953535 35.5546453 22.9888889C35.5110787 22.5969697 35.4977667 22.1658586 35.4925226 21.7048485 35.4804208 21.1880808 35.4695291 20.659596 35.3977249 20.180404 35.3848163 19.5076768 35.2516962 18.780404 35.1197863 18.0773737L35.0346701 17.6046465 35.0241819 17.5569697 34.9951375 17.5262626C34.8926753 17.4208081 34.8539495 17.2878788 34.8180474 17.1359596 34.7837589 17.0094949 34.7478568 16.8777778 34.6667745 16.7525253 34.491298 16.4341414 34.2161832 16.1266667 33.9713228 15.8523232L33.9604312 15.8361616C33.8991153 15.7537374 33.8236805 15.709697 33.7623646 15.669697 33.7264625 15.6446465 33.6933842 15.6260606 33.6586923 15.590101L33.6014103 15.5448485 33.5671218 15.5513131 33.5259756 15.5193939C33.3037054 15.339596 33.0991845 15.2717172 32.8583581 15.1929293L32.8543242 15.1929293C32.78252 15.0943434 32.6538372 15.0785859 32.5606531 15.0757576L32.5606531 15.0094949 32.4420552 14.9917172 31.8611675 14.9080808 31.7788751 14.8935354 31.7228033 14.959798C31.7030369 14.9909091 31.6977928 14.9985859 31.5767745 14.9505051 31.5194926 14.9347475 31.4597902 14.9121212 31.3908098 14.9028283L31.3254599 14.8987879 31.2895578 14.9307071C31.2734221 14.9173737 31.2524456 14.9028283 31.2282419 14.8923232L30.9825748 14.8216162 30.9652289 14.9307071C30.8575226 14.9307071 30.7655487 14.9505051 30.6872902 14.9909091L30.5674821 14.9909091 30.308503 14.9909091 29.9535161 14.9917172 29.9958725 15.130303C29.9946623 15.1343434 29.9918385 15.1343434 29.9878046 15.139596 29.829674 15.0971717 29.7114795 15.1929293 29.6477432 15.2490909 29.6328176 15.2571717 29.6235396 15.2676768 29.6118411 15.2717172 29.4892093 15.2971717 29.4190187 15.3476768 29.3657706 15.3888889 29.3294651 15.4139394 29.3137328 15.4248485 29.2846884 15.4272727L29.2209521 15.4325253 29.1834364 15.4769697C29.1301884 15.5448485 28.9643933 15.6167677 28.8748398 15.6579798L28.6755631 15.7432323 28.723567 15.7828283C28.6916988 15.800202 28.6570069 15.8187879 28.6275591 15.8454545L28.5876231 15.8454545 28.4403842 15.8454545 28.4403842 15.9933333 28.4403842 15.9985859C28.4335265 15.9985859 28.4230383 15.9933333 28.4190043 15.9933333L28.315332 15.949697C28.3044403 15.9428283 28.2354599 16.0373737 28.2354599 16.0373737 28.1225095 16.1945455 27.9760774 16.3569697 27.8155265 16.5222222 27.6319821 16.7206061 27.4431936 16.9230303 27.2943411 17.1440404L27.2503711 17.2090909 27.2782054 17.2717172C27.245127 17.2983838 27.1559769 17.3505051 27.1374208 17.4583838 27.0668268 17.5367677 27.0494808 17.6422222 27.0402027 17.7084848 27.0377824 17.729899 27.0325383 17.7606061 27.0281009 17.7751515 26.9474221 17.8684848 26.9312863 17.9630303 26.9195879 18.0309091 26.9111166 18.0870707 26.9034521 18.120202 26.8832824 18.1468687L26.7892915 18.2652525 26.8316479 18.2959596C26.8009899 18.3666667 26.8009899 18.4438384 26.8009899 18.4850505L26.8009899 18.5460606 26.7384638 18.5852525 26.7489521 18.6793939C26.7800134 18.8591919 26.7545996 19.0321212 26.726362 19.2094949 26.7053855 19.3824242 26.6852158 19.5610101 26.7041753 19.7593939 26.6307576 19.8644444 26.6521375 19.9937374 26.6614155 20.0725253 26.6666597 20.1016162 26.6694834 20.1428283 26.6666597 20.1565657L26.5710552 20.2321212 26.6400356 20.34C26.6904599 20.4252525 26.6521375 20.559798 26.6134116 20.6890909 26.5775095 20.8115152 26.533943 20.9658586 26.5775095 21.0935354 26.5670213 21.1056566 26.5561296 21.1137374 26.5484651 21.1282828 26.5286988 21.149697 26.5178072 21.1880808 26.5202275 21.2373737 26.5202275 21.3359596 26.5085291 21.3682828 26.5044952 21.3719192L26.4391453 21.5169697 26.4262367 21.570303 26.5508855 21.659596C26.5363633 21.7448485 26.5484651 21.8232323 26.5561296 21.8886869 26.5710552 21.9820202 26.5775095 22.0288889 26.5484651 22.060404L26.472627 22.2006061 26.5484651 22.2951515 26.5484651 22.320202C26.5416074 22.3844444 26.5363633 22.4987879 26.6174456 22.5828283 26.6186557 22.5969697 26.6214795 22.6119192 26.6214795 22.6276768L26.4819051 22.6676768 26.5775095 22.8648485C26.5710552 22.8757576 26.5710552 22.8951515 26.5670213 22.9105051 26.5508855 22.970303 26.5258751 23.0834343 26.5815435 23.1884848 26.5403973 23.3028283 26.5670213 23.4111111 26.5855774 23.4854545 26.5936453 23.5040404 26.6000996 23.5347475 26.6000996 23.5561616 26.4685931 23.6931313 26.5323294 23.8822222 26.5710552 23.9820202 26.5073189 24.0765657 26.5218411 24.190101 26.533943 24.260404L26.3556427 24.3189899 26.5403973 24.5080808C26.5286988 24.5464646 26.5286988 24.5961616 26.5617772 24.6466667 26.5815435 24.6810101 26.6093777 24.7068687 26.6364051 24.7157576L26.5815435 24.730303C26.5815435 24.74 26.5855774 24.7452525 26.5855774 24.7517172L26.6521375 24.9193939 26.6521375 24.9379798C26.6331779 25.0369697 26.6614155 25.1367677 26.7053855 25.2115152 26.6904599 25.2329293 26.6787615 25.2551515 26.6747275 25.2911111L26.6041336 25.360202 26.6747275 25.4644444C26.726362 25.5440404 26.7094195 25.6438384 26.6666597 25.8026263 26.6307576 25.9464646 26.5855774 26.1250505 26.6694834 26.2830303L26.5710552 26.3832323 26.6961074 26.4761616C26.6961074 26.4814141 26.6904599 26.4854545 26.6852158 26.4923232 26.6561714 26.5509091 26.5936453 26.6640404 26.6666597 26.7909091L26.6614155 26.7743434C26.6904599 26.8280808 26.6747275 26.9290909 26.6666597 27.0264646 26.6468933 27.1779798 26.6267236 27.3553535 26.7053855 27.5270707L26.6787615 27.7072727 26.6852158 27.6830303C26.6614155 27.7561616 26.6787615 27.8119192 26.7041753 27.8547475L26.6468933 27.8814141 26.6852158 28.0054545C26.7251518 28.130303 26.726362 28.2874747 26.726362 28.4567677 26.726362 28.7694949 26.726362 29.1250505 27.0111584 29.3953535L27.0724743 29.4527273 27.1559769 29.4329293C27.3649351 29.3690909 27.3766336 29.1545455 27.3806675 29.0410101 27.3834913 29.0216162 27.3834913 28.9973737 27.3899456 28.9759596L27.3899456 28.9480808 27.3806675 28.9161616C27.2943411 28.629697 27.3286296 28.2527273 27.3649351 27.919798 27.3713894 27.8317172 27.3806675 27.7468687 27.3899456 27.6680808L27.3899456 27.6232323 27.3713894 27.589697C27.3141074 27.4737374 27.3286296 27.3589899 27.3435552 27.2248485 27.359691 27.1048485 27.3754234 26.9731313 27.3286296 26.8280808 27.3806675 26.2191919 27.3512197 25.4991919 27.3233855 24.86 27.3141074 24.5909091 27.3048294 24.3335354 27.2995852 24.1008081L27.2995852 24.0951515 27.2995852 24.0858586C27.2636832 23.7872727 27.271751 23.4656566 27.2782054 23.1480808 27.2915174 22.8757576 27.2995852 22.5828283 27.271751 22.3149495 27.3379077 22.0127273 27.3379077 21.7339394 27.3286296 21.4357576 27.3286296 21.3068687 27.3233855 21.1694949 27.3286296 21.0208081L27.3286296 20.9872727 27.3205617 20.9711111C27.3899456 20.889899 27.4044678 20.8074747 27.3689691 20.7286869 27.3992236 20.6127273 27.4044678 20.510101 27.4085017 20.4135354 27.4085017 20.34 27.4125356 20.2652525 27.428268 20.1961616L27.4339155 20.1618182 27.4230239 20.1266667C27.4085017 20.0632323 27.4230239 19.9884848 27.4431936 19.9153535 27.4641701 19.8151515 27.4867602 19.7008081 27.4512615 19.5929293 27.5613881 19.3626263 27.5880121 19.0777778 27.6106022 18.8070707L27.6210905 18.7129293C27.626738 18.6555556 27.6053581 18.599798 27.5613881 18.5460606L27.5613881 18.5424242C27.5613881 18.4224242 27.6210905 18.3238384 27.6985422 18.1985859 27.7836584 18.0680808 27.8832967 17.9125253 27.907097 17.7044444L27.9111309 17.670101 27.9083072 17.6648485C27.9191988 17.6539394 27.9325108 17.6446465 27.9429991 17.6353535 27.9950369 17.590101 28.074909 17.5222222 28.0736988 17.4131313 28.0736988 17.3917172 28.0668411 17.3771717 28.061597 17.3557576 28.1624456 17.2664646 28.2237615 17.1614141 28.2806401 17.0680808 28.3645461 16.9311111 28.4230383 16.8309091 28.582379 16.7872727L28.6626544 16.7606061 28.6848411 16.6818182C28.706221 16.5929293 28.7848829 16.5432323 28.9083215 16.4636364 29.0027158 16.4050505 29.1080017 16.339596 29.1834364 16.2426263 29.2911427 16.250303 29.3500383 16.2212121 29.3867471 16.1812121 29.5134129 16.1509091 29.6118411 16.0733333 29.6913098 16.0131313 29.8244299 15.9028283 29.8696101 15.8785859 29.9587602 15.9230303L30.0491205 15.9642424 30.1076127 15.9028283 30.1209247 15.9028283C30.1620709 15.8935354 30.2350852 15.8668687 30.2766349 15.8042424 30.3149573 15.7937374 30.3548933 15.7828283 30.3803072 15.7739394 30.4545317 15.7472727 30.4759116 15.7444444 30.4985017 15.7606061 30.5279495 15.7739394 30.5715161 15.7937374 30.6340422 15.7791919L30.6392863 15.7884848 30.7469926 15.7739394 30.886567 15.7537374C31.3069038 15.700404 31.6659247 15.6551515 31.9890435 15.8309091L32.1060278 15.8935354 32.1721845 15.7884848C32.1935644 15.8042424 32.2084899 15.8228283 32.2165578 15.8361616 32.303691 15.9307071 32.4472993 16.0894949 32.6619051 16.0575758 32.7030513 16.0987879 32.7611401 16.1307071 32.8055134 16.1573737 32.822456 16.1694949 32.8478698 16.1812121 32.866426 16.1945455L32.866426 16.199798 32.8954704 16.2381818C32.9596101 16.3238384 33.1032184 16.3650505 33.213345 16.370303 33.4553816 16.6272727 33.705486 16.9828283 33.705486 17.1359596L33.705486 17.2810101 33.8115787 17.2810101 33.8156127 17.2915152C33.8571623 17.4810101 33.9116205 17.7189899 34.060473 17.8713131 34.0177132 17.9682828 34.0552289 18.0870707 34.069751 18.1347475 34.0762054 18.1521212 34.0802393 18.1735354 34.0854834 18.1905051L34.0495813 18.2959596 34.1427654 18.3957576 34.1693894 18.4062626C34.1589012 18.5064646 34.2065017 18.599798 34.2359495 18.6620202 34.2424038 18.6806061 34.2516819 18.7020202 34.2637837 18.7193939L34.2399834 18.770303C34.1092837 19.020404 34.28355 19.1577778 34.367456 19.2240404 34.3767341 19.2333333 34.3860121 19.2414141 34.3965004 19.2494949 34.3315539 19.3028283 34.3355879 19.3545455 34.3222758 19.4438384L34.3315539 19.5517172 34.3767341 19.6248485 34.3819782 19.6248485C34.3819782 19.630101 34.3860121 19.6357576 34.3860121 19.6393939 34.3912563 19.6608081 34.4005343 19.689899 34.420704 19.7274747L34.3743137 19.7715152 34.3392184 19.9032323 34.407392 20.0082828 34.4642706 20.0337374C34.4642706 20.0935354 34.4860539 20.1468687 34.5017863 20.180404 34.5058202 20.1868687 34.5110644 20.1909091 34.5110644 20.2014141L34.5017863 20.2652525C34.4485383 20.5040404 34.3912563 20.8115152 34.5376884 21.0640404 34.5324443 21.0640404 34.5308307 21.0713131 34.5308307 21.0713131 34.4590265 21.1642424 34.4767758 21.2692929 34.4860539 21.3428283 34.491298 21.3682828 34.4965422 21.4123232 34.491298 21.4252525L34.4566061 21.570303C34.4566061 21.5759596 34.5058202 21.5917172 34.5481766 21.5993939 34.5441427 21.6147475 34.5348646 21.6288889 34.5324443 21.6450505L34.5017863 21.819596 34.5614886 21.819596C34.5481766 21.8793939 34.5481766 21.9331313 34.5457563 21.9820202 34.5441427 22.0672727 34.5441427 22.1258586 34.5110644 22.1711111L34.5017863 22.1925253 34.491298 22.2094949C34.4485383 22.3694949 34.5058202 22.5189899 34.5538242 22.6369697 34.5614886 22.6640404 34.5695565 22.6826263 34.5800448 22.7012121 34.5538242 22.7315152 34.5308307 22.7715152 34.5324443 22.8264646 34.5324443 22.8410101 34.5376884 22.849899 34.5441427 22.8648485L34.5110644 22.890303 34.5376884 22.9808081C34.5493868 23.0244444 34.5840787 23.0539394 34.6187706 23.0757576L34.5949704 23.080202C34.5893228 23.080202 34.5893228 23.1937374 34.5893228 23.1937374L34.5893228 23.2321212 34.4965422 23.2591919 34.5441427 23.3545455C34.5203424 23.3961616 34.4965422 23.46 34.5203424 23.5294949L34.4590265 23.6438384C34.4590265 23.6438384 34.4699181 23.7092929 34.5255866 23.7383838 34.4642706 23.9371717 34.6094926 24.0793939 34.6946087 24.1646465 34.7329312 24.1989899 34.7543111 24.2248485 34.771657 24.2482828L34.6982393 24.2482828 34.7543111 24.4333333 34.7543111 24.4377778C34.7393855 24.4535354 34.731721 24.4668687 34.718409 24.4830303L34.6014247 24.5375758 34.6373268 24.7012121 34.6256283 24.74C34.5949704 24.8236364 34.6187706 24.8838384 34.6453946 24.9133333 34.6506388 24.9238384 34.6546727 24.9290909 34.6587067 24.9351515 34.6187706 24.979596 34.5667328 25.0369697 34.5614886 25.1327273L34.5457563 25.2713131 34.6587067 25.2858586C34.6466048 25.3153535 34.6401505 25.3460606 34.6316792 25.369899 34.6187706 25.4256566 34.6054586 25.469697 34.5840787 25.4991919 34.5800448 25.509697 34.5748007 25.5133333 34.5748007 25.5254545L34.7660095 25.6264646C34.7393855 25.6830303 34.7236531 25.7319192 34.7143751 25.7719192 34.7103411 25.7933333 34.6982393 25.8159596 34.687751 25.8317172L34.6800866 25.8317172 34.5163085 25.8317172 34.5231662 26.0212121C34.5324443 26.050303 34.5376884 26.0793939 34.5401087 26.1210101 34.5441427 26.1557576 34.5481766 26.1941414 34.5590683 26.2353535L34.5590683 26.4220202C34.5590683 26.4470707 34.5614886 26.4854545 34.5667328 26.5274747L34.5457563 26.5416162 34.5614886 26.6454545C34.5667328 26.6991919 34.5614886 26.749697 34.5614886 26.8042424 34.5590683 26.8280808 34.5562445 26.8656566 34.5562445 26.8983838L34.424738 26.9682828 34.5840787 27.1424242C34.5840787 27.1460606 34.5840787 27.1517172 34.5800448 27.1517172 34.5614886 27.1965657 34.5441427 27.2543434 34.5441427 27.3206061L34.4271584 27.3206061 34.6187706 27.5577778C34.6373268 27.5775758 34.651849 27.6321212 34.6615304 27.6680808 34.6627406 27.6761616 34.6667745 27.6761616 34.6667745 27.6830303 34.5893228 27.7610101 34.5748007 27.8761616 34.5667328 27.9416162 34.5667328 27.9690909 34.5614886 28.0054545 34.5562445 28.019596L34.5590683 28.0131313 34.6054586 28.079798C34.5667328 28.1088889 34.5457563 28.1436364 34.5324443 28.1727273 34.5110644 28.2183838 34.5110644 28.2624242 34.5179221 28.3072727L34.3246962 28.3072727 34.4804064 28.4591919 34.3392184 28.5109091 34.4590265 28.6082828 34.4590265 29.0014141C34.4590265 29.0721212 34.491298 29.1319192 34.5481766 29.1610101L34.5614886 29.1610101C34.6373268 29.2143434 34.718409 29.2143434 34.7930369 29.1957576L34.7930369 29.3525253 34.9777915 29.299596C35.1145422 29.2591919 35.2186179 29.2486869 35.3218868 29.2745455L35.4804208 29.3036364 35.4961531 29.1505051C35.5707811 28.569899 35.561503 28.0107071 35.5453672 27.4644444 35.530845 26.9319192 35.5163228 26.4361616 35.5865134 25.9464646 35.6240291 25.8466667 35.5824795 25.7610101 35.5546453 25.7149495"/>
    <mask id="intesa-b" fill="#FEFEFE">
      <use xlink:href="#intesa-a"/>
    </mask>
    <path fill="#346275" d="M2.10571802 37.8864646L37.8242624 37.8864646 37.8242624 2.11111111 2.10571802 2.11111111 2.10571802 37.8864646zM0 39.999596L39.9380483 39.999596 39.9380483 0 0 0 0 39.999596zM296.483765 24.532404C296.66852 24.532404 296.778647 24.6067475 296.854888 24.7893737L299.808944 32.6273535C299.990875 33.0750303 299.73472 33.4067475 299.47211 33.4806869 299.103811 33.521899 298.960606 33.5954343 298.960606 33.8128081 298.960606 34.0758384 299.400306 34.0758384 300.066713 34.1109899 303.017139 34.1841212 305.713426 34.1841212 307.0414 34.1841212 308.40931 34.1841212 308.73969 34.1109899 308.73969 33.8128081 308.73969 33.5554343 308.554935 33.521899 308.263281 33.521899 307.816724 33.521899 307.26367 33.4806869 306.710213 33.3732121 305.935293 33.1481616 304.862667 32.6390707 303.462486 29.3198788 301.097386 23.7198788 295.192904 8.63058586 294.30584 6.59583838 293.937541 5.74371717 293.71285 5.41321212 293.380453 5.41321212 293.012961 5.41321212 292.791498 5.82210101 292.350184 6.89159596L283.081798 30.1186667C282.341166 31.9631111 281.643294 33.2237172 279.944198 33.4463434 279.650123 33.4806869 279.131358 33.521899 278.798961 33.521899 278.50408 33.521899 278.355631 33.5954343 278.355631 33.8128081 278.355631 34.1109899 278.578305 34.1841212 279.05552 34.1841212 280.975677 34.1841212 283.009994 34.0758384 283.411775 34.0758384 284.557818 34.0758384 286.146384 34.1841212 287.328733 34.1841212 287.73253 34.1841212 287.954397 34.1109899 287.954397 33.8128081 287.954397 33.5954343 287.842657 33.521899 287.397713 33.521899L286.847887 33.521899C285.701844 33.521899 285.37106 33.0402828 285.37106 32.3703838 285.37106 31.9295758 285.553395 31.0410909 285.924517 30.1186667L287.917285 24.8305859C287.990299 24.6067475 288.066541 24.532404 288.248472 24.532404L296.483765 24.532404zM288.989104 22.6827071C288.841461 22.6827071 288.804349 22.572 288.841461 22.4241212L292.238444 13.3263434C292.271926 13.1796768 292.350184 12.991798 292.458698 12.991798 292.570438 12.991798 292.606743 13.1796768 292.646276 13.3263434L295.965 22.4625051C296.004936 22.572 295.965 22.6827071 295.78428 22.6827071L288.989104 22.6827071z" mask="url(#intesa-b)"/>
    <path fill="#346275" d="M275.121579 17.1214141L273.969081 16.339596C270.545071 13.9840404 269.594674 12.6789899 269.594674 10.9569697 269.594674 8.72020202 271.448271 7.11373737 274.503579 7.11373737 277.185344 7.11373737 278.381811 8.23777778 278.999811 8.9420202 279.866705 9.91575758 280.07405 11.0717172 280.07405 11.4111111 280.07405 11.8559596 280.192245 12.0810101 280.483495 12.0810101 280.813472 12.0810101 280.9357 11.7812121 280.9357 10.9569697 280.9357 8.04868687 281.104722 6.96464646 281.104722 6.47858586 281.104722 6.21474747 280.896974 6.10565657 280.525045 6.03131313 279.45363 5.76868687 277.721858 5.39737374 275.036463 5.39737374 269.306247 5.39737374 265.513131 8.34565657 265.513131 12.4511111 265.513131 15.4769697 267.081931 18.0907071 271.612856 21.3040404L273.51607 22.6474747C276.93645 25.0793939 277.557677 26.7945455 277.557677 28.6240404 277.557677 30.5977778 275.739982 32.8789899 272.029158 32.8789899 269.473656 32.8789899 267.035541 31.8684848 266.134358 29.1064646 265.923786 28.4709091 265.758798 27.6923232 265.758798 27.2070707 265.758798 26.9036364 265.718862 26.5707071 265.347739 26.5707071 265.13394 26.5707071 265.002434 26.7452525 264.933454 27.0220202 264.883029 27.1860606 264.854792 27.3909091 264.826957 27.6187879 264.782987 27.9747475 264.654305 28.8478788 264.609931 29.0907071 264.350952 30.6127273 263.903991 31.3969697 262.940686 31.8389899 261.979397 32.2854545 260.418262 32.2854545 259.454149 32.2854545 255.671925 32.2854545 252.925213 31.7286869 252.848972 29.170303 252.813473 28.0886869 252.848972 24.6721212 252.848972 23.4066667L252.848972 20.4745455C252.848972 20.2507071 252.885277 20.1016162 253.070032 20.1016162 253.960726 20.1016162 259.243174 20.1375758 259.94629 20.2123232 261.316621 20.3614141 261.837806 20.9206061 262.024174 21.659596 262.135914 22.1428283 262.135914 22.6276768 262.173027 22.9993939 262.173027 23.1828283 262.245234 23.3327273 262.507037 23.3327273 262.839434 23.3327273 262.839434 22.9246465 262.839434 22.6276768 262.839434 22.3694949 262.914869 20.8818182 262.99232 20.1375758 263.101237 18.2385859 263.284378 17.6486869 263.284378 17.4208081 263.284378 17.1973737 263.173041 17.1278788 263.030643 17.1278788 262.839434 17.1278788 262.694212 17.3133333 262.433619 17.6090909 262.101626 17.9816162 261.541715 18.0947475 260.65344 18.1654545 259.798648 18.2385859 253.924421 18.2385859 253.111178 18.2385859 252.885277 18.2385859 252.848972 18.0947475 252.848972 17.8337374L252.848972 8.43252525C252.848972 8.17272727 252.925213 8.0620202 253.111178 8.0620202 253.84939 8.0620202 259.356125 8.13636364 259.985823 8.20989899 261.837806 8.43252525 262.208929 8.87979798 262.471135 9.54686869 262.656293 9.99010101 262.694212 10.6240404 262.694212 10.8866667 262.694212 11.2167677 262.76884 11.4058586 263.030643 11.4058586 263.284378 11.4058586 263.363443 11.179596 263.398942 10.9941414 263.471956 10.5521212 263.545374 8.91454545 263.582486 8.54121212 263.69705 6.83656566 263.883015 6.39050505 263.883015 6.12828283 263.883015 5.94323232 263.843079 5.79414141 263.661148 5.79414141 263.471956 5.79414141 263.250089 5.90727273 263.061301 5.94323232 262.76884 6.01676768 262.173027 6.09232323 261.469507 6.16262626 260.763567 6.20181818 251.774733 6.20181818 250.589964 6.20181818 250.069182 6.20181818 249.21802 6.16262626 248.245033 6.12828283 247.487055 6.12828283 246.622985 6.10565657 245.783521 6.09636364 245.748426 5.91010101 245.676622 5.82484848 245.514054 5.82484848 245.226837 5.82484848 244.344211 6.19373737 241.985564 6.19373737L229.498092 6.19373737C228.283472 6.19373737 226.885711 6.12020202 225.825187 6.00747475 224.904642 5.93676768 224.552882 5.70363636 224.255984 5.70363636 224.052269 5.70363636 223.929234 5.77676768 223.825562 6.18040404L223.462104 6.18040404C222.97319 6.18040404 222.479839 6.20181818 222.021179 6.22282828 221.220845 6.24949495 220.54758 6.28545455 220.115545 6.29353535 219.366845 6.28020202 217.891229 6.18040404 216.301452 6.18040404 215.806891 6.18040404 215.44787 6.22040404 215.44787 6.51333333 215.44787 6.73191919 215.579377 6.84464646 215.970266 6.84464646 216.430538 6.84464646 217.214333 6.84464646 217.704054 7.06444444 218.404346 7.39333333 218.71738 7.98080808 218.798059 9.71575758L218.912623 24.6721212C218.356746 24.0793939 202.176199 6.04585859 201.69616 5.6810101 201.07937 5.21353535 200.446848 5.64626263 200.446848 6.22848485L200.12736 15.9028283 199.681609 28.6911111C199.64611 31.8777778 199.018429 32.5129293 198.170494 33.0244444 197.779605 33.2571717 197.090608 33.3783838 196.617426 33.3933333 196.472204 33.4010101 194.950198 33.4664646 194.30275 33.3121212 193.320485 33.0749495 192.729512 32.4090909 192.619386 31.4179798 192.472954 29.8345455 192.472954 26.9290909 192.472954 23.3509091L192.472954 16.869697C192.472954 11.270101 192.472954 10.2393939 192.544758 9.05676768 192.619386 7.77434343 192.91588 7.14323232 193.906213 6.95939394 194.341072 6.88505051 194.631113 6.84868687 195.000622 6.84868687 195.363273 6.84868687 195.579896 6.77555556 195.579896 6.47858586 195.579896 6.26161616 195.292679 6.18565657 194.817481 6.18565657 193.424964 6.18565657 191.265998 6.29353535 190.3511 6.29353535 189.290576 6.29353535 186.984775 6.18565657 185.596695 6.18565657 185.00895 6.18565657 184.714068 6.26161616 184.714068 6.47858586 184.714068 6.77555556 184.937549 6.84868687 185.304234 6.84868687 185.733446 6.84868687 186.215098 6.88505051 186.62051 6.99535354 187.422457 7.17919192 187.789143 7.80626263 187.860947 9.05676768 187.935575 10.2393939 187.935575 11.270101 187.935575 16.869697L187.935575 23.3509091C187.935575 26.9290909 187.935575 29.8345455 187.754451 31.3836364 187.644324 32.450303 187.422457 33.0749495 186.687877 33.2236364 186.362741 33.3 185.922638 33.3670707 185.372408 33.3670707 184.937549 33.3670707 184.784662 33.4810101 184.784662 33.6644444 184.784662 33.9218182 185.046062 34.0361616 185.520857 34.0361616 186.984775 34.0361616 189.290576 33.9218182 190.132863 33.9218182 191.121179 33.9218182 196.630738 34.0325253 196.806215 34.0325253 198.699344 34.0325253 200.621517 33.9727273 200.950284 33.9727273 201.643315 33.9727273 203.097551 34.0818182 205.471123 34.0818182 205.981417 34.0818182 206.30857 34.0123232 206.30857 33.7157576 206.30857 33.4971717 206.090333 33.4224242 205.688553 33.4224242 205.103631 33.4224242 204.412617 33.3872727 203.793003 33.1626263 203.06407 32.909697 202.588468 31.9521212 202.516664 29.0907071L202.37951 21.8676768 202.266559 14.6737374C202.855515 15.370303 217.476943 31.3836364 219.534657 33.5860606 219.898115 33.9872727 220.285777 34.3921212 220.643588 34.3921212 220.940083 34.3921212 221.071589 34.0616162 221.071589 33.2519192L221.430207 10.0757576C221.437064 9.78646465 221.447553 9.52141414 221.457638 9.27494949 221.571395 7.88222222 221.884025 7.36545455 222.525826 7.06444444 222.867904 6.91131313 223.350363 6.86323232 223.767877 6.84868687 223.7469 7.91414141 223.767877 10.0620202 223.767877 10.5254545 223.767877 10.9331313 223.844118 11.1129293 224.100677 11.1129293 224.319316 11.1129293 224.42904 10.9678788 224.505685 10.6721212 224.577489 10.3779798 224.75942 9.93191919 225.127719 9.37515152 225.674318 8.56666667 226.563802 8.37878788 228.694127 8.30323232L232.37389 8.15535354 232.37389 23.3327273C232.37389 26.7343434 232.37389 29.6567677 232.194379 31.2078788 232.080622 32.2854545 231.645763 33.0987879 230.912796 33.2482828 230.580802 33.3169697 229.398454 33.3933333 228.851048 33.3933333 228.405297 33.3933333 228.263302 33.5064646 228.263302 33.6943434 228.263302 33.9472727 228.518651 34.0616162 228.995463 34.0616162 230.462204 34.0616162 233.735345 33.9472727 234.575615 33.9472727 235.610322 33.9472727 237.930242 34.0616162 240.353028 34.0616162 240.758036 34.0616162 241.056144 33.9472727 241.056144 33.6943434 241.056144 33.5064646 240.869776 33.3933333 240.465978 33.3933333 239.914135 33.3933333 239.103313 33.3169697 238.588581 33.2482828 237.488929 33.0987879 237.267062 32.2854545 237.157742 31.2438384 236.969357 29.6567677 236.969357 26.7343434 236.969357 23.3327273L236.969357 8.15535354 240.589417 8.26686869C243.861751 8.34282828 244.976733 9.37515152 245.052571 10.3367677L245.085649 10.7480808C245.125989 11.3020202 245.201423 11.4870707 245.493078 11.4870707 245.714944 11.4870707 245.783521 11.2644444 245.825071 10.8943434 245.825071 9.99535354 245.814583 7.7210101 245.809339 6.78363636 246.092521 6.80343434 246.347467 6.83131313 246.506001 6.87252525 247.732722 7.13515152 248.028007 7.72666667 248.098601 8.98888889 248.177263 10.1779798 248.177263 11.2167677 248.177263 16.8656566L248.177263 23.4066667C248.177263 26.8240404 248.177263 29.7606061 247.989685 31.3226263 247.842042 32.399798 247.656884 33.2171717 246.913832 33.3610101 246.579015 33.4393939 246.137702 33.5157576 245.57779 33.5157576 245.133653 33.5157576 244.984801 33.6236364 244.984801 33.8127273 244.984801 34.069697 245.241763 34.1783838 245.728256 34.1783838 246.471309 34.1783838 247.435017 34.1456566 248.286179 34.1060606 249.176874 34.1060606 249.995764 34.069697 250.401579 34.069697 251.51535 34.069697 252.664217 34.1060606 254.260852 34.1783838 255.853856 34.22 260.045929 34.2943434 262.830156 34.2943434 264.238002 34.2943434 264.574433 34.2943434 264.832605 33.3254545 264.949186 33.4810101 265.13394 33.5860606 265.429225 33.699596 267.20416 34.4078788 269.058967 34.6713131 271.448271 34.6713131 273.637895 34.6713131 275.94773 34.3331313 278.006655 33.1387879 280.975636 31.3876768 281.884887 28.8078788 281.884887 26.6454545 281.884887 23.0943434 280.111162 20.5189899 275.121579 17.1214141M139.192681 34.8449293C141.493238 34.8449293 144.222604 34.5863434 145.661107 33.9960404 146.268619 33.7342222 146.413438 33.5503838 146.591738 32.9253333 146.953583 31.6647273 147.386828 28.4461414 147.386828 28.0053333 147.386828 27.7071515 147.312604 27.4485657 147.059675 27.4485657 146.772862 27.4485657 146.702268 27.5976566 146.591738 28.1875556 146.450953 28.852202 145.981402 29.9241212 145.369857 30.6295758 143.934177 32.3301818 141.99264 32.7031111 138.796951 32.7031111 133.978406 32.7031111 127.479322 28.3366465 127.479322 19.5370505 127.479322 15.9495758 128.160251 12.4364444 130.78312 9.95684848 132.365636 8.47886869 134.414476 7.66391919 137.537554 7.66391919 140.841353 7.66391919 143.64696 8.66270707 144.832536 9.95684848 145.731298 10.9172525 146.198429 12.2113939 146.231507 13.3580606 146.231507 13.8736162 146.307345 14.171798 146.591738 14.171798 146.916067 14.171798 146.989485 13.8736162 147.023773 13.322101 147.094367 12.5827071 147.059675 10.5483636 147.130269 9.33220202 147.204897 8.03280808 147.312604 7.5879596 147.312604 7.29624242 147.312604 7.0740202 147.167785 6.89018182 146.772862 6.84856566 145.69701 6.73947475 144.542899 6.40654545 143.181443 6.22311111 141.527527 6.00048485 140.200763 5.85260606 137.969589 5.85260606 132.616951 5.85260606 129.202622 7.3309899 126.614041 9.77341414 123.16623 13.0267475 122.41269 17.391596 122.41269 19.9099798 122.41269 23.4962424 123.345741 27.6360404 126.867776 30.8162424 130.134463 33.7342222 134.270867 34.8449293 139.192681 34.8449293M68.2284102 27.8957576C68.2284102 31.780202 65.3856909 32.6783838 63.7051504 32.6783838 62.8491478 32.6783838 61.9915316 32.6391919 60.9874833 32.2254545 59.7950499 31.7406061 59.6845198 31.1090909 59.6845198 28.6391919L59.6845198 19.7886869C59.6845198 19.6048485 59.7567274 19.530101 59.9027561 19.530101 60.4650877 19.530101 60.8386308 19.530101 61.5062483 19.5660606 62.9620982 19.6355556 63.819311 19.8993939 64.6039128 20.4666667 67.437354 22.4412121 68.2284102 25.5777778 68.2284102 27.8957576L68.2284102 27.8957576zM55.2056334 23.4109091C55.2056334 26.8440404 55.2056334 29.8056566 55.0176517 31.3688889 54.8651687 32.4553535 54.6868684 33.2678788 53.9450264 33.4226263 53.6085956 33.4969697 53.1616347 33.5717172 52.598093 33.5717172 52.1487117 33.5717172 52.006717 33.6848485 52.006717 33.8723232 52.006717 34.1325253 52.2644859 34.2456566 52.7497692 34.2456566 54.2427313 34.2456566 56.5904859 34.1325253 57.4376138 34.1325253 58.5703449 34.1325253 61.9580499 34.3543434 62.8491478 34.3543434 69.7120943 34.3543434 72.8097587 30.2133333 72.8097587 26.2141414 72.8097587 21.8488889 69.0739245 19.1894949 66.024264 18.1385859 68.0714898 16.5050505 69.8262548 14.6775758 69.8262548 11.6121212 69.8262548 9.63353535 68.6378554 6.00727273 61.8769676 6.00727273 60.6143436 6.00727273 59.1605107 6.11515152 57.3327313 6.11515152 56.5904859 6.11515152 54.2427313 6.00727273 52.2644859 6.00727273 51.7045747 6.00727273 51.443982 6.08040404 51.443982 6.34707071 51.443982 6.60646465 51.6622183 6.68121212 52.0769076 6.68121212 52.598093 6.68121212 53.2310185 6.71434343 53.5315473 6.79151515 54.7586726 7.05252525 55.0604115 7.64767677 55.1322157 8.91959596 55.2056334 10.1139394 55.2056334 11.1567677 55.2056334 16.8339394L55.2056334 23.4109091zM59.6845198 8.24848485C59.6845198 7.83434343 59.7567274 7.68888889 60.0225642 7.61171717 60.3920734 7.53575758 60.7333449 7.53575758 61.2468658 7.53575758 64.4550603 7.53575758 65.9109102 10.8238384 65.9109102 13.3248485 65.9109102 15.1571717 65.3473684 16.5050505 64.3832561 17.2812121 63.7450864 17.8432323 62.9249859 17.9975758 61.6934232 17.9975758 60.8386308 17.9975758 60.2815433 17.9632323 59.9439023 17.8832323 59.7950499 17.8432323 59.6845198 17.7713131 59.6845198 17.4690909L59.6845198 8.24848485zM164.273275 24.532404C164.458029 24.532404 164.568156 24.6067475 164.642784 24.7893737L167.598454 32.6273535C167.780384 33.0750303 167.520598 33.4067475 167.260813 33.4806869 166.894127 33.521899 166.749309 33.5954343 166.749309 33.8128081 166.749309 34.0758384 167.189412 34.0758384 167.855416 34.1109899 170.806648 34.1841212 173.503339 34.1841212 174.834136 34.1841212 176.202046 34.1841212 176.533636 34.1109899 176.533636 33.8128081 176.533636 33.5554343 176.342831 33.521899 176.05279 33.521899 175.607846 33.521899 175.051969 33.4806869 174.499319 33.3732121 173.725205 33.1481616 172.655001 32.6390707 171.252399 29.3198788 168.886895 23.7198788 162.984027 8.63058586 162.096559 6.59583838 161.725033 5.74371717 161.50236 5.41321212 161.170366 5.41321212 160.80247 5.41321212 160.579797 5.82210101 160.139694 6.89159596L150.872921 30.1186667C150.135113 31.9631111 149.432803 33.2237172 148.219393 33.4463434 147.925319 33.5004848 147.797846 33.521899 147.46545 33.521899 147.167745 33.521899 147.022523 33.5954343 147.022523 33.8128081 147.022523 34.1109899 147.241969 34.1841212 147.724429 34.1841212 149.641762 34.1841212 150.797083 34.0758384 151.206528 34.0758384 152.348537 34.0758384 153.935087 34.1841212 155.118242 34.1841212 155.524057 34.1841212 155.74552 34.1109899 155.74552 33.8128081 155.74552 33.5954343 155.63257 33.521899 155.192467 33.521899L154.636589 33.521899C153.49216 33.521899 153.160973 33.0402828 153.160973 32.3703838 153.160973 31.9295758 153.343307 31.0410909 153.71564 30.1186667L155.707601 24.8305859C155.781422 24.6067475 155.857664 24.532404 156.037981 24.532404L164.273275 24.532404zM156.774982 22.6827071C156.630164 22.6827071 156.595472 22.572 156.630164 22.4241212L160.028357 13.3263434C160.063856 13.1796768 160.139694 12.991798 160.249014 12.991798 160.362367 12.991798 160.396656 13.1796768 160.433768 13.3263434L163.754913 22.4625051C163.793639 22.572 163.754913 22.6827071 163.574192 22.6827071L156.774982 22.6827071z" mask="url(#intesa-b)"/>
    <path fill="#346275" d="M122.269041,5.99648485 C121.989892,5.99648485 121.91123,6.00052525 121.637326,6.00739394 L121.581657,6.00739394 L121.568345,6.00739394 C121.483229,6.00739394 121.409004,6.00739394 121.339621,6.01143434 L121.306542,6.01143434 C120.18551,6.04173737 116.596914,6.00052525 115.005927,6.00052525 C114.510156,6.00052525 114.154766,6.03931313 114.154766,6.33466667 C114.154766,6.55325253 114.282642,6.66638384 114.674741,6.66638384 C115.13461,6.66638384 115.72639,6.66638384 116.218127,6.88214141 C116.915999,7.21385859 117.231454,7.99648485 117.309712,9.72779798 L117.422662,24.7811313 C116.869609,24.1952727 100.689062,6.05911111 100.210636,5.69426263 C99.5922329,5.22678788 98.9597107,5.65991919 98.9597107,6.24133333 L98.641836,16.0162828 L98.1948752,28.8045657 C98.1601833,31.9391111 97.8628817,33.3730505 96.7245031,33.3730505 C95.5808804,33.3730505 95.1048752,31.988404 93.9923138,29.3524444 C91.6272133,23.7520404 85.721118,8.66517172 84.8344574,6.63163636 C84.4685789,5.77709091 84.2426781,5.44658586 83.9118948,5.44658586 C83.5431924,5.44658586 83.3172916,5.85264646 82.8788021,6.92456566 L73.6116258,30.1520404 C72.8738178,32.0005253 72.1707016,33.2570909 70.4740253,33.4740606 C70.1775305,33.5156768 69.6599757,33.5552727 69.3279822,33.5552727 C69.0326977,33.5552727 68.8838452,33.6288081 68.8838452,33.8473939 C68.8838452,34.1455758 69.1069222,34.2199192 69.5857512,34.2199192 C71.507118,34.2199192 73.5369979,34.1059798 73.9440227,34.1059798 C75.0876454,34.1059798 76.6733883,34.2199192 77.856947,34.2199192 C78.261148,34.2199192 78.4830149,34.1455758 78.4830149,33.8473939 C78.4830149,33.6288081 78.3700645,33.5552727 77.9299614,33.5552727 L77.3744875,33.5552727 C76.2320749,33.5552727 75.9012916,33.0748687 75.9012916,32.4049697 C75.9012916,31.9629495 76.0832225,31.0772929 76.4543452,30.1520404 L78.4459026,24.8651717 C78.518917,24.6397172 78.5947551,24.5665859 78.7782995,24.5665859 L87.0135932,24.5665859 C87.1971376,24.5665859 87.306054,24.6397172 87.3818922,24.8235556 L90.3359483,32.5686061 C90.5182825,33.0138586 90.2032316,33.4013333 89.9466728,33.4740606 C89.5743399,33.5156768 89.429118,33.5863838 89.429118,33.808202 C89.429118,34.0667879 89.8720449,34.0667879 90.5364352,34.1059798 C92.1838974,34.1455758 93.7647995,34.1455758 95.0758308,34.1403232 C95.2101611,34.1455758 95.2993112,34.1455758 95.3166572,34.1455758 C96.1024692,34.1455758 96.8919117,34.1362828 97.5712277,34.1217374 C97.913306,34.1217374 98.1884209,34.1172929 98.4143217,34.1059798 C98.9447851,34.0910303 99.33043,34.0857778 99.4631467,34.0857778 C100.153354,34.0857778 101.613238,34.1960808 103.981162,34.1960808 C104.49307,34.1960808 104.819819,34.1217374 104.819819,33.8288081 C104.819819,33.6102222 104.6036,33.5358788 104.200205,33.5358788 C103.619721,33.5358788 102.923866,33.4970909 102.303042,33.2785051 C101.574916,33.0187071 101.103751,32.0651717 101.026703,29.2037576 L100.891162,21.9766869 L100.777002,14.7867879 C101.364344,15.4809293 115.985772,31.3968889 118.04752,33.6009293 C118.406541,34.0033535 118.800254,34.407798 119.161695,34.407798 C119.454156,34.407798 119.587276,34.0760808 119.587276,33.268 L119.717572,24.7811313 L119.968887,9.72537374 C120.044725,7.99648485 120.355742,7.20860606 121.057648,6.88092929 C121.549789,6.66234343 122.138745,6.66234343 122.597404,6.66234343 C122.992327,6.66234343 123.121413,6.54921212 123.121413,6.32941414 C123.121413,6.03810101 122.763602,5.99648485 122.269041,5.99648485 M86.3128974,22.7209293 L79.5185279,22.7209293 C79.3696755,22.7209293 79.331353,22.607798 79.3696755,22.4591111 L82.7670619,13.3609293 C82.8053843,13.2154747 82.8788021,13.028 82.986105,13.028 C83.1006689,13.028 83.1353608,13.2154747 83.1736833,13.3609293 L86.4948282,22.4987071 C86.5323439,22.607798 86.4948282,22.7209293 86.3128974,22.7209293" mask="url(#intesa-b)"/>
  </g>
</svg>
