<?xml version="1.0" encoding="utf-8"?>
<!-- Generator: Adobe Illustrator 24.1.2, SVG Export Plug-In . SVG Version: 6.00 Build 0)  -->
<svg version="1.1" id="Layer_1" xmlns="http://www.w3.org/2000/svg" xmlns:xlink="http://www.w3.org/1999/xlink" x="0px" y="0px"
	 viewBox="0 0 309 40" style="enable-background:new 0 0 309 40;" xml:space="preserve">
<style type="text/css">
	.st0{fill-rule:evenodd;clip-rule:evenodd;fill:#FCF5A3;}
	.st1{filter:url(#Adobe_OpacityMaskFilter);}
	.st2{fill-rule:evenodd;clip-rule:evenodd;fill:#FEFEFE;}
	.st3{mask:url(#intesa-b_1_);fill-rule:evenodd;clip-rule:evenodd;fill:#FCF5A3;}
	.st4{filter:url(#Adobe_OpacityMaskFilter_1_);}
	.st5{mask:url(#intesa-b_2_);fill-rule:evenodd;clip-rule:evenodd;fill:#FCF5A3;}
	.st6{filter:url(#Adobe_OpacityMaskFilter_2_);}
	.st7{mask:url(#intesa-b_3_);fill-rule:evenodd;clip-rule:evenodd;fill:#FCF5A3;}
</style>
<g>
	<path class="st0" d="M35.7,11.3L35.7,11.3L35.7,11.3c-0.3-0.2-0.6-0.2-0.9-0.1C33.3,11,31.8,11,30.2,11h0h-0.1c-0.8,0-1.6,0-2.5,0
		l-6.7-0.1c-1.6,0-3.3,0-5,0c-1.2,0-2.5,0-3.7,0.1c-1.3,0-4.4,0-6.2,0c-1,0-1.5,0-1.6,0c-0.2,0-0.5,0.3-0.5,0.6
		c0,0.1,0.1,0.3,0.3,0.3c0.2,0,1.3,0,3.3,0l2.1,0c0.6,0,0.8,0,0.9,0l0,0c1.5-0.1,3-0.1,4.5-0.1h0h0.1c0.9,0,1.9,0,2.9,0
		c0.2,0,0.4,0,0.6,0l0,0c0.1,0,0.2,0,0.3,0c0.2,0.1,0.5,0.1,0.8,0.1c0.3,0,0.5,0,0.8,0v0l0,0v0c0.2-0.1,0.4,0,0.6,0c0,0,0,0,0,0
		c0.1,0,0.2,0,0.3,0c1.9-0.1,4,0,6.7,0.2c0,0,1.2,0.1,1.2,0.1h0c1.1-0.1,2.3,0,3.4,0.1c0,0,0,0,0,0c0.8,0.1,1.6,0.1,2.4,0.1l0,0l0,0
		v0l0.4-0.3h0l0,0l0,0C35.9,11.8,35.9,11.5,35.7,11.3 M24.7,25.5L24.7,25.5l0-0.1l0-2.6v0v0c0-0.4-0.1-0.8-0.1-1.3
		c0-0.5,0-1.1-0.1-1.5c0-0.7-0.1-1.4-0.3-2.1l-0.1-0.5l0,0l0,0c-0.1-0.1-0.1-0.2-0.2-0.4c0-0.1-0.1-0.3-0.1-0.4
		c-0.2-0.3-0.5-0.6-0.7-0.9l0,0c-0.1-0.1-0.1-0.1-0.2-0.2c0,0-0.1,0-0.1-0.1l-0.1-0.1l0,0l0,0c-0.2-0.2-0.4-0.2-0.7-0.3h0
		c-0.1-0.1-0.2-0.1-0.3-0.1v-0.1l-0.1,0L21,14.7l-0.1,0l-0.1,0.1c0,0,0,0-0.2,0c-0.1,0-0.1,0-0.2,0l-0.1,0l0,0c0,0,0,0-0.1,0
		l-0.2-0.1l0,0.1c-0.1,0-0.2,0-0.3,0.1h-0.1h-0.3h-0.3l0,0.1l0,0c-0.2,0-0.3,0.1-0.3,0.1c0,0,0,0,0,0c-0.1,0-0.2,0.1-0.2,0.1
		c0,0-0.1,0-0.1,0l-0.1,0l0,0c-0.1,0.1-0.2,0.1-0.3,0.2l-0.2,0.1l0,0c0,0-0.1,0-0.1,0.1h0h-0.1v0.1v0c0,0,0,0,0,0l-0.1,0
		c0,0-0.1,0.1-0.1,0.1c-0.1,0.2-0.3,0.3-0.4,0.5c-0.2,0.2-0.4,0.4-0.5,0.6l0,0.1l0,0.1c0,0-0.1,0.1-0.1,0.2
		c-0.1,0.1-0.1,0.2-0.1,0.3c0,0,0,0,0,0.1C16,17.7,16,17.8,16,17.8c0,0.1,0,0.1,0,0.1l-0.1,0.1l0,0c0,0.1,0,0.1,0,0.2c0,0,0,0,0,0.1
		l-0.1,0l0,0.1c0,0.2,0,0.3,0,0.5c0,0.2,0,0.3,0,0.5c-0.1,0.1-0.1,0.2,0,0.3c0,0,0,0.1,0,0.1L15.7,20l0.1,0.1c0,0.1,0,0.2,0,0.4
		c0,0.1-0.1,0.3,0,0.4c0,0,0,0,0,0c0,0,0,0.1,0,0.1c0,0.1,0,0.1,0,0.1l-0.1,0.1l0,0.1l0.1,0.1c0,0.1,0,0.2,0,0.2c0,0.1,0,0.1,0,0.2
		L15.6,22l0.1,0.1v0c0,0.1,0,0.2,0.1,0.3c0,0,0,0,0,0l-0.1,0l0.1,0.2c0,0,0,0,0,0.1c0,0.1,0,0.2,0,0.3c0,0.1,0,0.2,0,0.3
		c0,0,0,0,0,0.1c-0.1,0.1-0.1,0.3,0,0.4c-0.1,0.1,0,0.2,0,0.3l-0.2,0.1l0.2,0.2c0,0,0,0.1,0,0.1c0,0,0.1,0.1,0.1,0.1l-0.1,0
		c0,0,0,0,0,0h0l0.1,0.2l0,0c0,0.1,0,0.2,0.1,0.3c0,0,0,0.1,0,0.1l-0.1,0.1l0.1,0.1c0.1,0.1,0,0.2,0,0.3c0,0.1-0.1,0.3,0,0.5
		l-0.1,0.1l0.1,0.1c0,0,0,0,0,0c0,0.1-0.1,0.2,0,0.3l0,0c0,0.1,0,0.2,0,0.3c0,0.1,0,0.3,0,0.5l0,0.2l0,0c0,0.1,0,0.1,0,0.2l-0.1,0
		l0,0.1c0,0.1,0,0.3,0,0.5c0,0.3,0,0.7,0.3,0.9l0.1,0.1l0.1,0c0.2-0.1,0.2-0.3,0.2-0.4c0,0,0,0,0-0.1l0,0l0,0c-0.1-0.3-0.1-0.7,0-1
		c0-0.1,0-0.2,0-0.3l0,0l0,0c-0.1-0.1,0-0.2,0-0.4c0-0.1,0-0.3,0-0.4c0.1-0.6,0-1.3,0-2c0-0.3,0-0.5,0-0.8l0,0v0c0-0.3,0-0.6,0-0.9
		c0-0.3,0-0.6,0-0.8c0.1-0.3,0.1-0.6,0.1-0.9c0-0.1,0-0.3,0-0.4l0,0l0,0c0.1-0.1,0.1-0.2,0-0.2c0-0.1,0-0.2,0-0.3c0-0.1,0-0.1,0-0.2
		l0,0l0,0c0-0.1,0-0.1,0-0.2c0-0.1,0.1-0.2,0-0.3c0.1-0.2,0.1-0.5,0.2-0.8l0-0.1c0-0.1,0-0.1-0.1-0.2v0c0-0.1,0.1-0.2,0.1-0.3
		c0.1-0.1,0.2-0.3,0.2-0.5l0,0l0,0c0,0,0,0,0,0c0.1,0,0.1-0.1,0.1-0.2c0,0,0,0,0-0.1c0.1-0.1,0.2-0.2,0.2-0.3
		c0.1-0.1,0.1-0.2,0.3-0.3l0.1,0l0-0.1c0-0.1,0.1-0.1,0.2-0.2c0.1-0.1,0.2-0.1,0.3-0.2c0.1,0,0.2,0,0.2-0.1c0.1,0,0.2-0.1,0.3-0.2
		c0.1-0.1,0.2-0.1,0.3-0.1l0.1,0l0.1-0.1c0,0,0,0,0,0c0,0,0.1,0,0.2-0.1c0,0,0.1,0,0.1,0c0.1,0,0.1,0,0.1,0c0,0,0.1,0,0.1,0l0,0
		l0.1,0l0.1,0c0.4-0.1,0.8-0.1,1.1,0.1l0.1,0.1l0.1-0.1c0,0,0,0,0,0c0.1,0.1,0.2,0.3,0.4,0.2c0,0,0.1,0.1,0.1,0.1c0,0,0,0,0.1,0v0
		l0,0c0.1,0.1,0.2,0.1,0.3,0.1c0.2,0.3,0.5,0.6,0.5,0.8v0.1h0.1v0c0,0.2,0.1,0.4,0.2,0.6c0,0.1,0,0.2,0,0.3c0,0,0,0,0,0.1l0,0.1
		l0.1,0.1l0,0c0,0.1,0,0.2,0.1,0.3c0,0,0,0,0,0.1l0,0.1c-0.1,0.2,0,0.4,0.1,0.4c0,0,0,0,0,0c-0.1,0-0.1,0.1-0.1,0.2l0,0.1l0,0.1h0
		c0,0,0,0,0,0c0,0,0,0,0,0.1l0,0.1l0,0.1l0.1,0.1l0.1,0c0,0.1,0,0.1,0,0.1c0,0,0,0,0,0l0,0.1c0,0.2-0.1,0.5,0,0.8c0,0,0,0,0,0
		c-0.1,0.1-0.1,0.2,0,0.3c0,0,0,0.1,0,0.1l0,0.1c0,0,0,0,0.1,0c0,0,0,0,0,0l0,0.2h0.1c0,0.1,0,0.1,0,0.2c0,0.1,0,0.1,0,0.2l0,0l0,0
		c0,0.2,0,0.3,0.1,0.4c0,0,0,0,0,0.1c0,0-0.1,0.1,0,0.1c0,0,0,0,0,0l0,0l0,0.1c0,0,0,0.1,0.1,0.1l0,0c0,0,0,0.1,0,0.1v0l-0.1,0
		l0,0.1c0,0,0,0.1,0,0.2l-0.1,0.1c0,0,0,0.1,0.1,0.1c-0.1,0.2,0.1,0.3,0.2,0.4c0,0,0.1,0.1,0.1,0.1h-0.1l0.1,0.2v0c0,0,0,0,0,0
		l-0.1,0.1l0,0.2l0,0c0,0.1,0,0.1,0,0.2c0,0,0,0,0,0c0,0-0.1,0.1-0.1,0.2l0,0.1l0.1,0c0,0,0,0.1,0,0.1c0,0.1,0,0.1,0,0.1
		c0,0,0,0,0,0l0.2,0.1c0,0.1,0,0.1-0.1,0.1c0,0,0,0,0,0.1h0h-0.2l0,0.2c0,0,0,0.1,0,0.1c0,0,0,0.1,0,0.1v0.2c0,0,0,0.1,0,0.1l0,0
		l0,0.1c0,0.1,0,0.1,0,0.2c0,0,0,0.1,0,0.1l-0.1,0.1l0.2,0.2v0c0,0,0,0.1,0,0.2h-0.1l0.2,0.2c0,0,0,0.1,0,0.1c0,0,0,0,0,0
		c-0.1,0.1-0.1,0.2-0.1,0.3c0,0,0,0.1,0,0.1l0,0l0,0.1c0,0-0.1,0.1-0.1,0.1c0,0.1,0,0.1,0,0.1h-0.2l0.2,0.2l-0.1,0.1l0.1,0.1v0.4
		c0,0.1,0,0.1,0.1,0.2c0,0,0,0,0,0c0.1,0,0.2,0,0.2,0v0.2l0.2-0.1c0.1,0,0.2,0,0.4,0l0.2,0l0-0.2c0.1-0.6,0.1-1.1,0-1.7
		c0-0.5,0-1,0-1.5C24.7,25.6,24.7,25.6,24.7,25.5 M13.6,25.5L13.6,25.5l0-0.1l0-2.6v0v0c0-0.4-0.1-0.8-0.1-1.3c0-0.5,0-1.1-0.1-1.5
		c0-0.7-0.1-1.4-0.3-2.1L13,17.4l0,0l0,0c-0.1-0.1-0.1-0.2-0.2-0.4c0-0.1-0.1-0.3-0.1-0.4c-0.2-0.3-0.5-0.6-0.7-0.9l0,0
		c-0.1-0.1-0.1-0.1-0.2-0.2c0,0-0.1,0-0.1-0.1l-0.1-0.1l0,0l0,0c-0.2-0.2-0.4-0.2-0.7-0.3h0c-0.1-0.1-0.2-0.1-0.3-0.1v-0.1l-0.1,0
		l-0.6-0.1l-0.1,0l-0.1,0.1c0,0,0,0-0.1,0c-0.1,0-0.1,0-0.2,0l-0.1,0l0,0c0,0,0,0-0.1,0L9,14.6l0,0.1c-0.1,0-0.2,0-0.3,0.1H8.6H8.3
		H8l0,0.1l0,0c-0.2,0-0.3,0.1-0.3,0.1c0,0,0,0,0,0c-0.1,0-0.2,0.1-0.2,0.1c0,0-0.1,0-0.1,0l-0.1,0l0,0c-0.1,0.1-0.2,0.1-0.3,0.2
		l-0.2,0.1l0,0c0,0-0.1,0-0.1,0.1h0H6.5v0.1v0c0,0,0,0,0,0l-0.1,0c0,0-0.1,0.1-0.1,0.1C6.1,16,6,16.2,5.8,16.3
		c-0.2,0.2-0.4,0.4-0.5,0.6l0,0.1l0,0.1c0,0-0.1,0.1-0.1,0.2c-0.1,0.1-0.1,0.2-0.1,0.3c0,0,0,0,0,0.1c-0.1,0.1-0.1,0.2-0.1,0.3
		c0,0.1,0,0.1,0,0.1l-0.1,0.1l0,0c0,0.1,0,0.1,0,0.2v0.1l-0.1,0l0,0.1c0,0.2,0,0.3,0,0.5c0,0.2,0,0.3,0,0.5c-0.1,0.1-0.1,0.2,0,0.3
		c0,0,0,0.1,0,0.1L4.6,20l0.1,0.1c0,0.1,0,0.2,0,0.4c0,0.1-0.1,0.3,0,0.4c0,0,0,0,0,0c0,0,0,0.1,0,0.1c0,0.1,0,0.1,0,0.1l-0.1,0.1
		l0,0.1l0.1,0.1c0,0.1,0,0.2,0,0.2c0,0.1,0,0.1,0,0.2L4.5,22l0.1,0.1c0,0,0,0,0,0c0,0.1,0,0.2,0.1,0.3c0,0,0,0,0,0l-0.1,0l0.1,0.2
		c0,0,0,0,0,0.1c0,0.1,0,0.2,0,0.3c0,0.1,0,0.2,0,0.3c0,0,0,0,0,0.1c-0.1,0.1-0.1,0.3,0,0.4c-0.1,0.1,0,0.2,0,0.3l-0.2,0.1l0.2,0.2
		c0,0,0,0.1,0,0.1c0,0,0,0.1,0.1,0.1l-0.1,0c0,0,0,0,0,0l0.1,0.2v0c0,0.1,0,0.2,0.1,0.3c0,0,0,0.1,0,0.1l-0.1,0.1l0.1,0.1
		c0.1,0.1,0,0.2,0,0.3c0,0.1-0.1,0.3,0,0.5l-0.1,0.1l0.1,0.1c0,0,0,0,0,0c0,0.1-0.1,0.2,0,0.3l0,0c0,0.1,0,0.2,0,0.3
		c0,0.1,0,0.3,0,0.5l0,0.2l0,0c0,0.1,0,0.1,0,0.2l-0.1,0l0,0.1c0,0.1,0,0.3,0,0.5c0,0.3,0,0.7,0.3,0.9l0.1,0.1l0.1,0
		c0.2-0.1,0.2-0.3,0.2-0.4c0,0,0,0,0-0.1l0,0l0,0c-0.1-0.3,0-0.7,0-1c0-0.1,0-0.2,0-0.3l0,0l0,0c-0.1-0.1,0-0.2,0-0.4
		c0-0.1,0-0.3,0-0.4c0.1-0.6,0-1.3,0-2c0-0.3,0-0.5,0-0.8v0v0c0-0.3,0-0.6,0-0.9c0-0.3,0-0.6,0-0.8c0.1-0.3,0.1-0.6,0.1-0.9v-0.4v0
		l0,0c0.1-0.1,0.1-0.2,0-0.2c0-0.1,0-0.2,0-0.3c0-0.1,0-0.1,0-0.2l0,0l0,0c0-0.1,0-0.1,0-0.2c0-0.1,0-0.2,0-0.3
		c0.1-0.2,0.1-0.5,0.2-0.8l0-0.1c0-0.1,0-0.1-0.1-0.2v0c0-0.1,0.1-0.2,0.1-0.3c0.1-0.1,0.2-0.3,0.2-0.5l0,0l0,0c0,0,0,0,0,0
		c0.1,0,0.1-0.1,0.1-0.2c0,0,0,0,0-0.1c0.1-0.1,0.2-0.2,0.2-0.3c0.1-0.1,0.1-0.2,0.3-0.3l0.1,0l0-0.1c0-0.1,0.1-0.1,0.2-0.2
		C7,16.2,7.1,16.1,7.2,16c0.1,0,0.2,0,0.2-0.1c0.1,0,0.2-0.1,0.3-0.2c0.1-0.1,0.2-0.1,0.3-0.1l0.1,0l0.1-0.1c0,0,0,0,0,0
		c0,0,0.1,0,0.2-0.1c0,0,0.1,0,0.1,0c0.1,0,0.1,0,0.1,0c0,0,0.1,0,0.1,0l0,0l0.1,0l0.1,0c0.4-0.1,0.8-0.1,1.1,0.1l0.1,0.1l0.1-0.1
		c0,0,0,0,0,0c0.1,0.1,0.2,0.3,0.4,0.2c0,0,0.1,0.1,0.1,0.1c0,0,0,0,0.1,0v0l0,0c0.1,0.1,0.2,0.1,0.3,0.1c0.2,0.3,0.5,0.6,0.5,0.8
		v0.1h0.1v0c0,0.2,0.1,0.4,0.2,0.6c0,0.1,0,0.2,0,0.3c0,0,0,0,0,0.1l0,0.1l0.1,0.1l0,0c0,0.1,0,0.2,0.1,0.3c0,0,0,0,0,0.1l0,0.1
		c-0.1,0.2,0,0.4,0.1,0.4c0,0,0,0,0,0c-0.1,0-0.1,0.1-0.1,0.2l0,0.1l0,0.1h0c0,0,0,0,0,0c0,0,0,0,0,0.1l-0.1,0.1l0,0.1l0.1,0.1
		l0.1,0c0,0.1,0,0.1,0,0.1c0,0,0,0,0,0l0,0.1c0,0.2-0.1,0.5,0,0.8c0,0,0,0,0,0c-0.1,0.1-0.1,0.2,0,0.3c0,0,0,0.1,0,0.1l0,0.1
		c0,0,0,0,0.1,0c0,0,0,0,0,0l0,0.2h0.1c0,0.1,0,0.1,0,0.2c0,0.1,0,0.1,0,0.2l0,0l0,0c0,0.2,0,0.3,0.1,0.4c0,0,0,0,0,0.1
		c0,0,0,0.1,0,0.1c0,0,0,0,0,0l0,0l0,0.1c0,0,0,0.1,0.1,0.1l0,0c0,0,0,0.1,0,0.1v0l-0.1,0l0,0.1c0,0,0,0.1,0,0.2l-0.1,0.1
		c0,0,0,0.1,0.1,0.1c-0.1,0.2,0.1,0.3,0.2,0.4c0,0,0.1,0.1,0.1,0.1h-0.1l0.1,0.2l0,0c0,0,0,0,0,0l-0.1,0.1l0,0.2l0,0
		c0,0.1,0,0.1,0,0.2c0,0,0,0,0,0c0,0-0.1,0.1-0.1,0.2l0,0.1l0.1,0c0,0,0,0.1,0,0.1c0,0.1,0,0.1-0.1,0.1h0c0,0,0,0,0,0l0.2,0.1
		c0,0.1,0,0.1-0.1,0.1c0,0,0,0,0,0.1h0h-0.2l0,0.2c0,0,0,0.1,0,0.1c0,0,0,0.1,0,0.1v0.2c0,0,0,0.1,0,0.1l0,0l0,0.1
		c0,0.1,0,0.1,0,0.2c0,0,0,0.1,0,0.1l-0.1,0.1l0.2,0.2c0,0,0,0,0,0c0,0,0,0.1,0,0.2h-0.1l0.2,0.2c0,0,0,0.1,0,0.1c0,0,0,0,0,0
		c-0.1,0.1-0.1,0.2-0.1,0.3c0,0,0,0.1,0,0.1v0l0.1,0.1c0,0-0.1,0.1-0.1,0.1c0,0.1,0,0.1,0,0.1h-0.2l0.2,0.2l-0.1,0.1l0.1,0.1v0.4
		c0,0.1,0,0.1,0.1,0.2c0,0,0,0,0,0c0.1,0,0.2,0,0.2,0v0.2l0.2-0.1c0.1,0,0.2,0,0.3,0l0.1,0l0-0.2c0.1-0.6,0.1-1.1,0-1.7
		c0-0.5,0-1,0-1.5C13.6,25.6,13.6,25.6,13.6,25.5 M35.6,25.7L35.6,25.7l0-0.1l0-2.6v0l0,0c0-0.4-0.1-0.8-0.1-1.3c0-0.5,0-1-0.1-1.5
		c0-0.7-0.1-1.4-0.3-2.1L35,17.6l0,0l0,0c-0.1-0.1-0.1-0.2-0.2-0.4c0-0.1-0.1-0.3-0.2-0.4c-0.2-0.3-0.5-0.6-0.7-0.9l0,0
		c-0.1-0.1-0.1-0.1-0.2-0.2c0,0-0.1,0-0.1-0.1l-0.1,0l0,0l0,0c-0.2-0.2-0.4-0.2-0.7-0.3h0c-0.1-0.1-0.2-0.1-0.3-0.1V15l-0.1,0
		l-0.6-0.1l-0.1,0L31.7,15c0,0,0,0-0.1,0c-0.1,0-0.1,0-0.2,0l-0.1,0l0,0c0,0,0,0-0.1,0L31,14.8l0,0.1c-0.1,0-0.2,0-0.3,0.1h-0.1
		h-0.3L30,15l0,0.1c0,0,0,0,0,0c-0.2,0-0.3,0.1-0.3,0.1c0,0,0,0,0,0c-0.1,0-0.2,0.1-0.2,0.1c0,0-0.1,0-0.1,0l-0.1,0l0,0
		c-0.1,0.1-0.2,0.1-0.3,0.2l-0.2,0.1l0,0c0,0-0.1,0-0.1,0.1h0h-0.1V16v0c0,0,0,0,0,0l-0.1,0c0,0-0.1,0.1-0.1,0.1
		c-0.1,0.2-0.3,0.3-0.4,0.5c-0.2,0.2-0.4,0.4-0.5,0.6l0,0.1l0,0.1c0,0-0.1,0.1-0.1,0.2c-0.1,0.1-0.1,0.2-0.1,0.3c0,0,0,0.1,0,0.1
		c-0.1,0.1-0.1,0.2-0.1,0.3c0,0.1,0,0.1,0,0.1l-0.1,0.1l0,0c0,0.1,0,0.1,0,0.2v0.1l-0.1,0l0,0.1c0,0.2,0,0.4,0,0.5
		c0,0.2,0,0.4,0,0.5c-0.1,0.1-0.1,0.2,0,0.3c0,0,0,0.1,0,0.1l-0.1,0.1l0.1,0.1c0.1,0.1,0,0.2,0,0.3c0,0.1-0.1,0.3,0,0.4c0,0,0,0,0,0
		c0,0,0,0.1,0,0.1c0,0.1,0,0.1,0,0.1l-0.1,0.1l0,0.1l0.1,0.1c0,0.1,0,0.2,0,0.2c0,0.1,0,0.1,0,0.2l-0.1,0.1l0.1,0.1v0
		c0,0.1,0,0.2,0.1,0.3c0,0,0,0,0,0l-0.1,0l0.1,0.2c0,0,0,0,0,0c0,0.1,0,0.2,0,0.3c0,0.1,0,0.2,0,0.3c0,0,0,0,0,0.1
		c-0.1,0.1-0.1,0.3,0,0.4c-0.1,0.1,0,0.2,0,0.3l-0.2,0.1l0.2,0.2c0,0,0,0.1,0,0.1c0,0,0,0.1,0.1,0.1l-0.1,0c0,0,0,0,0,0l0.1,0.2v0
		c0,0.1,0,0.2,0.1,0.3c0,0,0,0,0,0.1l-0.1,0.1l0.1,0.1c0.1,0.1,0,0.2,0,0.3c0,0.1-0.1,0.3,0,0.5l-0.1,0.1l0.1,0.1c0,0,0,0,0,0
		c0,0.1-0.1,0.2,0,0.3l0,0c0,0.1,0,0.2,0,0.3c0,0.2,0,0.3,0,0.5l0,0.2l0,0c0,0.1,0,0.1,0,0.2l-0.1,0l0,0.1c0,0.1,0,0.3,0,0.5
		c0,0.3,0,0.7,0.3,0.9l0.1,0.1l0.1,0c0.2-0.1,0.2-0.3,0.2-0.4c0,0,0,0,0-0.1v0l0,0c-0.1-0.3-0.1-0.7,0-1c0-0.1,0-0.2,0-0.3v0l0,0
		c-0.1-0.1,0-0.2,0-0.4c0-0.1,0-0.3,0-0.4c0.1-0.6,0-1.3,0-2c0-0.3,0-0.5,0-0.8v0v0c0-0.3,0-0.6,0-0.9c0-0.3,0-0.6,0-0.8
		c0.1-0.3,0.1-0.6,0.1-0.9c0-0.1,0-0.3,0-0.4v0l0,0c0.1-0.1,0.1-0.2,0-0.2c0-0.1,0-0.2,0-0.3c0-0.1,0-0.1,0-0.2l0,0l0,0
		c0-0.1,0-0.1,0-0.2c0-0.1,0-0.2,0-0.3c0.1-0.2,0.1-0.5,0.2-0.8l0-0.1c0-0.1,0-0.1-0.1-0.2v0c0-0.1,0.1-0.2,0.1-0.3
		c0.1-0.1,0.2-0.3,0.2-0.5l0,0l0,0c0,0,0,0,0,0c0.1,0,0.1-0.1,0.1-0.2c0,0,0,0,0-0.1c0.1-0.1,0.2-0.2,0.2-0.3
		c0.1-0.1,0.1-0.2,0.3-0.3l0.1,0l0-0.1c0-0.1,0.1-0.1,0.2-0.2c0.1-0.1,0.2-0.1,0.3-0.2c0.1,0,0.2,0,0.2-0.1c0.1,0,0.2-0.1,0.3-0.2
		c0.1-0.1,0.2-0.1,0.3-0.1l0.1,0l0.1-0.1h0c0,0,0.1,0,0.2-0.1c0,0,0.1,0,0.1,0c0.1,0,0.1,0,0.1,0c0,0,0.1,0,0.1,0l0,0l0.1,0l0.1,0
		c0.4-0.1,0.8-0.1,1.1,0.1l0.1,0.1l0.1-0.1c0,0,0,0,0,0c0.1,0.1,0.2,0.3,0.4,0.2c0,0,0.1,0.1,0.1,0.1c0,0,0,0,0.1,0v0l0,0
		c0.1,0.1,0.2,0.1,0.3,0.1c0.2,0.3,0.5,0.6,0.5,0.8v0.1h0.1l0,0c0,0.2,0.1,0.4,0.2,0.6c0,0.1,0,0.2,0,0.3c0,0,0,0,0,0.1l0,0.1
		l0.1,0.1l0,0c0,0.1,0,0.2,0.1,0.3c0,0,0,0,0,0.1l0,0.1c-0.1,0.3,0,0.4,0.1,0.5c0,0,0,0,0,0c-0.1,0.1-0.1,0.1-0.1,0.2l0,0.1l0,0.1h0
		c0,0,0,0,0,0c0,0,0,0.1,0,0.1l0,0l0,0.1l0.1,0.1l0.1,0c0,0.1,0,0.1,0,0.1c0,0,0,0,0,0l0,0.1c-0.1,0.2-0.1,0.5,0,0.8c0,0,0,0,0,0
		c-0.1,0.1-0.1,0.2,0,0.3c0,0,0,0.1,0,0.1l0,0.1c0,0,0,0,0.1,0c0,0,0,0,0,0l0,0.2h0.1c0,0.1,0,0.1,0,0.2c0,0.1,0,0.1,0,0.2l0,0l0,0
		c0,0.2,0,0.3,0.1,0.4c0,0,0,0,0,0.1c0,0,0,0.1,0,0.1c0,0,0,0,0,0l0,0l0,0.1c0,0,0,0.1,0.1,0.1l0,0c0,0,0,0.1,0,0.1v0l-0.1,0l0,0.1
		c0,0,0,0.1,0,0.2l-0.1,0.1c0,0,0,0.1,0.1,0.1c-0.1,0.2,0.1,0.3,0.2,0.4c0,0,0.1,0.1,0.1,0.1h-0.1l0.1,0.2v0c0,0,0,0,0,0l-0.1,0.1
		l0,0.2l0,0c0,0.1,0,0.1,0,0.2c0,0,0,0,0,0c0,0-0.1,0.1-0.1,0.2l0,0.1l0.1,0c0,0,0,0.1,0,0.1c0,0.1,0,0.1,0,0.1c0,0,0,0,0,0l0.2,0.1
		c0,0.1,0,0.1-0.1,0.1c0,0,0,0,0,0.1h0h-0.2l0,0.2c0,0,0,0.1,0,0.1c0,0,0,0.1,0,0.1v0.2c0,0,0,0.1,0,0.1l0,0l0,0.1
		c0,0.1,0,0.1,0,0.2c0,0,0,0.1,0,0.1L34.4,27l0.2,0.2c0,0,0,0,0,0c0,0,0,0.1,0,0.2h-0.1l0.2,0.2c0,0,0,0.1,0,0.1c0,0,0,0,0,0
		c-0.1,0.1-0.1,0.2-0.1,0.3c0,0,0,0.1,0,0.1l0,0l0,0.1c0,0-0.1,0.1-0.1,0.1c0,0,0,0.1,0,0.1h-0.2l0.2,0.2l-0.1,0.1l0.1,0.1V29
		c0,0.1,0,0.1,0.1,0.2h0c0.1,0.1,0.2,0.1,0.2,0v0.2l0.2-0.1c0.1,0,0.2-0.1,0.3,0l0.2,0l0-0.2c0.1-0.6,0.1-1.1,0-1.7c0-0.5,0-1,0-1.5
		C35.6,25.8,35.6,25.8,35.6,25.7"/>
	<defs>
		<filter id="Adobe_OpacityMaskFilter" filterUnits="userSpaceOnUse" x="0" y="0" width="308.7" height="40">
			<feColorMatrix  type="matrix" values="1 0 0 0 0  0 1 0 0 0  0 0 1 0 0  0 0 0 1 0"/>
		</filter>
	</defs>
	<mask maskUnits="userSpaceOnUse" x="0" y="0" width="308.7" height="40" id="intesa-b_1_">
		<g class="st1">
			<polygon id="intesa-a_1_" class="st2" points="0,40 308.7,40 308.7,0 0,0 			"/>
		</g>
	</mask>
	<path class="st3" d="M2.1,37.9h35.7V2.1H2.1V37.9z M0,40h39.9V0H0V40z M296.5,24.5c0.2,0,0.3,0.1,0.4,0.3l3,7.8
		c0.2,0.4-0.1,0.8-0.3,0.9c-0.4,0-0.5,0.1-0.5,0.3c0,0.3,0.4,0.3,1.1,0.3c3,0.1,5.6,0.1,7,0.1c1.4,0,1.7-0.1,1.7-0.4
		c0-0.3-0.2-0.3-0.5-0.3c-0.4,0-1,0-1.6-0.1c-0.8-0.2-1.8-0.7-3.2-4.1c-2.4-5.6-8.3-20.7-9.2-22.7c-0.4-0.9-0.6-1.2-0.9-1.2
		c-0.4,0-0.6,0.4-1,1.5l-9.3,23.2c-0.7,1.8-1.4,3.1-3.1,3.3c-0.3,0-0.8,0.1-1.1,0.1c-0.3,0-0.4,0.1-0.4,0.3c0,0.3,0.2,0.4,0.7,0.4
		c1.9,0,4-0.1,4.4-0.1c1.1,0,2.7,0.1,3.9,0.1c0.4,0,0.6-0.1,0.6-0.4c0-0.2-0.1-0.3-0.6-0.3h-0.5c-1.1,0-1.5-0.5-1.5-1.2
		c0-0.4,0.2-1.3,0.6-2.3l2-5.3c0.1-0.2,0.1-0.3,0.3-0.3H296.5z M289,22.7c-0.1,0-0.2-0.1-0.1-0.3l3.4-9.1c0-0.1,0.1-0.3,0.2-0.3
		c0.1,0,0.1,0.2,0.2,0.3l3.3,9.1c0,0.1,0,0.2-0.2,0.2H289z"/>
	<defs>
		<filter id="Adobe_OpacityMaskFilter_1_" filterUnits="userSpaceOnUse" x="51.4" y="5.4" width="230.4" height="29.4">
			<feColorMatrix  type="matrix" values="1 0 0 0 0  0 1 0 0 0  0 0 1 0 0  0 0 0 1 0"/>
		</filter>
	</defs>
	<mask maskUnits="userSpaceOnUse" x="51.4" y="5.4" width="230.4" height="29.4" id="intesa-b_2_">
		<g class="st4">
			<polygon id="intesa-a_2_" class="st2" points="0,40 308.7,40 308.7,0 0,0 			"/>
		</g>
	</mask>
	<path class="st5" d="M275.1,17.1l-1.2-0.8c-3.4-2.4-4.4-3.7-4.4-5.4c0-2.2,1.9-3.8,4.9-3.8c2.7,0,3.9,1.1,4.5,1.8
		c0.9,1,1.1,2.1,1.1,2.5c0,0.4,0.1,0.7,0.4,0.7c0.3,0,0.5-0.3,0.5-1.1c0-2.9,0.2-4,0.2-4.5c0-0.3-0.2-0.4-0.6-0.4
		c-1.1-0.3-2.8-0.6-5.5-0.6c-5.7,0-9.5,2.9-9.5,7.1c0,3,1.6,5.6,6.1,8.9l1.9,1.3c3.4,2.4,4,4.1,4,6c0,2-1.8,4.3-5.5,4.3
		c-2.6,0-5-1-5.9-3.8c-0.2-0.6-0.4-1.4-0.4-1.9c0-0.3,0-0.6-0.4-0.6c-0.2,0-0.3,0.2-0.4,0.5c-0.1,0.2-0.1,0.4-0.1,0.6
		c0,0.4-0.2,1.2-0.2,1.5c-0.3,1.5-0.7,2.3-1.7,2.7c-1,0.4-2.5,0.4-3.5,0.4c-3.8,0-6.5-0.6-6.6-3.1c0-1.1,0-4.5,0-5.8v-2.9
		c0-0.2,0-0.4,0.2-0.4c0.9,0,6.2,0,6.9,0.1c1.4,0.1,1.9,0.7,2.1,1.4c0.1,0.5,0.1,1,0.1,1.3c0,0.2,0.1,0.3,0.3,0.3
		c0.3,0,0.3-0.4,0.3-0.7c0-0.3,0.1-1.7,0.2-2.5c0.1-1.9,0.3-2.5,0.3-2.7c0-0.2-0.1-0.3-0.3-0.3c-0.2,0-0.3,0.2-0.6,0.5
		c-0.3,0.4-0.9,0.5-1.8,0.6c-0.9,0.1-6.7,0.1-7.5,0.1c-0.2,0-0.3-0.1-0.3-0.4V8.4c0-0.3,0.1-0.4,0.3-0.4c0.7,0,6.2,0.1,6.9,0.1
		c1.9,0.2,2.2,0.7,2.5,1.3c0.2,0.4,0.2,1.1,0.2,1.3c0,0.3,0.1,0.5,0.3,0.5c0.3,0,0.3-0.2,0.4-0.4c0.1-0.4,0.1-2.1,0.2-2.5
		c0.1-1.7,0.3-2.2,0.3-2.4c0-0.2,0-0.3-0.2-0.3c-0.2,0-0.4,0.1-0.6,0.1c-0.3,0.1-0.9,0.1-1.6,0.2c-0.7,0-9.7,0-10.9,0
		c-0.5,0-1.4,0-2.3-0.1c-0.8,0-1.6,0-2.5,0c0-0.2-0.1-0.3-0.3-0.3c-0.3,0-1.2,0.4-3.5,0.4h-12.5c-1.2,0-2.6-0.1-3.7-0.2
		c-0.9-0.1-1.3-0.3-1.6-0.3c-0.2,0-0.3,0.1-0.4,0.5h-0.4c-0.5,0-1,0-1.4,0c-0.8,0-1.5,0.1-1.9,0.1c-0.7,0-2.2-0.1-3.8-0.1
		c-0.5,0-0.9,0-0.9,0.3c0,0.2,0.1,0.3,0.5,0.3c0.5,0,1.2,0,1.7,0.2c0.7,0.3,1,0.9,1.1,2.7l0.1,15c-0.6-0.6-16.7-18.6-17.2-19
		c-0.6-0.5-1.2,0-1.2,0.5l-0.3,9.7l-0.4,12.8c0,3.2-0.7,3.8-1.5,4.3c-0.4,0.2-1.1,0.4-1.6,0.4c-0.1,0-1.7,0.1-2.3-0.1
		c-1-0.2-1.6-0.9-1.7-1.9c-0.1-1.6-0.1-4.5-0.1-8.1v-6.5c0-5.6,0-6.6,0.1-7.8c0.1-1.3,0.4-1.9,1.4-2.1c0.4-0.1,0.7-0.1,1.1-0.1
		c0.4,0,0.6-0.1,0.6-0.4c0-0.2-0.3-0.3-0.8-0.3c-1.4,0-3.6,0.1-4.5,0.1c-1.1,0-3.4-0.1-4.8-0.1c-0.6,0-0.9,0.1-0.9,0.3
		c0,0.3,0.2,0.4,0.6,0.4c0.4,0,0.9,0,1.3,0.1c0.8,0.2,1.2,0.8,1.2,2.1c0.1,1.2,0.1,2.2,0.1,7.8v6.5c0,3.6,0,6.5-0.2,8
		c-0.1,1.1-0.3,1.7-1.1,1.8c-0.3,0.1-0.8,0.1-1.3,0.1c-0.4,0-0.6,0.1-0.6,0.3c0,0.3,0.3,0.4,0.7,0.4c1.5,0,3.8-0.1,4.6-0.1
		c1,0,6.5,0.1,6.7,0.1c1.9,0,3.8-0.1,4.1-0.1c0.7,0,2.1,0.1,4.5,0.1c0.5,0,0.8-0.1,0.8-0.4c0-0.2-0.2-0.3-0.6-0.3
		c-0.6,0-1.3,0-1.9-0.3c-0.7-0.3-1.2-1.2-1.3-4.1l-0.1-7.2l-0.1-7.2c0.6,0.7,15.2,16.7,17.3,18.9c0.4,0.4,0.8,0.8,1.1,0.8
		c0.3,0,0.4-0.3,0.4-1.1l0.4-23.2c0-0.3,0-0.6,0-0.8c0.1-1.4,0.4-1.9,1.1-2.2c0.3-0.2,0.8-0.2,1.2-0.2c0,1.1,0,3.2,0,3.7
		c0,0.4,0.1,0.6,0.3,0.6c0.2,0,0.3-0.1,0.4-0.4c0.1-0.3,0.3-0.7,0.6-1.3c0.5-0.8,1.4-1,3.6-1.1l3.7-0.1v15.2c0,3.4,0,6.3-0.2,7.9
		c-0.1,1.1-0.5,1.9-1.3,2c-0.3,0.1-1.5,0.1-2.1,0.1c-0.4,0-0.6,0.1-0.6,0.3c0,0.3,0.3,0.4,0.7,0.4c1.5,0,4.7-0.1,5.6-0.1
		c1,0,3.4,0.1,5.8,0.1c0.4,0,0.7-0.1,0.7-0.4c0-0.2-0.2-0.3-0.6-0.3c-0.6,0-1.4-0.1-1.9-0.1c-1.1-0.1-1.3-1-1.4-2
		c-0.2-1.6-0.2-4.5-0.2-7.9V8.2l3.6,0.1c3.3,0.1,4.4,1.1,4.5,2.1l0,0.4c0,0.6,0.1,0.7,0.4,0.7c0.2,0,0.3-0.2,0.3-0.6
		c0-0.9,0-3.2,0-4.1c0.3,0,0.5,0,0.7,0.1c1.2,0.3,1.5,0.9,1.6,2.1c0.1,1.2,0.1,2.2,0.1,7.9v6.5c0,3.4,0,6.4-0.2,7.9
		c-0.1,1.1-0.3,1.9-1.1,2c-0.3,0.1-0.8,0.2-1.3,0.2c-0.4,0-0.6,0.1-0.6,0.3c0,0.3,0.3,0.4,0.7,0.4c0.7,0,1.7,0,2.6-0.1
		c0.9,0,1.7,0,2.1,0c1.1,0,2.3,0,3.9,0.1c1.6,0,5.8,0.1,8.6,0.1c1.4,0,1.7,0,2-1c0.1,0.2,0.3,0.3,0.6,0.4c1.8,0.7,3.6,1,6,1
		c2.2,0,4.5-0.3,6.6-1.5c3-1.8,3.9-4.3,3.9-6.5C281.9,23.1,280.1,20.5,275.1,17.1 M139.2,34.8c2.3,0,5-0.3,6.5-0.8
		c0.6-0.3,0.8-0.4,0.9-1.1c0.4-1.3,0.8-4.5,0.8-4.9c0-0.3-0.1-0.6-0.3-0.6c-0.3,0-0.4,0.1-0.5,0.7c-0.1,0.7-0.6,1.7-1.2,2.4
		c-1.4,1.7-3.4,2.1-6.6,2.1c-4.8,0-11.3-4.4-11.3-13.2c0-3.6,0.7-7.1,3.3-9.6c1.6-1.5,3.6-2.3,6.8-2.3c3.3,0,6.1,1,7.3,2.3
		c0.9,1,1.4,2.3,1.4,3.4c0,0.5,0.1,0.8,0.4,0.8c0.3,0,0.4-0.3,0.4-0.8c0.1-0.7,0-2.8,0.1-4c0.1-1.3,0.2-1.7,0.2-2
		c0-0.2-0.1-0.4-0.5-0.4c-1.1-0.1-2.2-0.4-3.6-0.6c-1.7-0.2-3-0.4-5.2-0.4c-5.4,0-8.8,1.5-11.4,3.9c-3.4,3.3-4.2,7.6-4.2,10.1
		c0,3.6,0.9,7.7,4.5,10.9C130.1,33.7,134.3,34.8,139.2,34.8 M68.2,27.9c0,3.9-2.8,4.8-4.5,4.8c-0.9,0-1.7,0-2.7-0.5
		c-1.2-0.5-1.3-1.1-1.3-3.6v-8.9c0-0.2,0.1-0.3,0.2-0.3c0.6,0,0.9,0,1.6,0c1.5,0.1,2.3,0.3,3.1,0.9C67.4,22.4,68.2,25.6,68.2,27.9
		L68.2,27.9z M55.2,23.4c0,3.4,0,6.4-0.2,8c-0.2,1.1-0.3,1.9-1.1,2.1c-0.3,0.1-0.8,0.1-1.3,0.1c-0.4,0-0.6,0.1-0.6,0.3
		c0,0.3,0.3,0.4,0.7,0.4c1.5,0,3.8-0.1,4.7-0.1c1.1,0,4.5,0.2,5.4,0.2c6.9,0,10-4.1,10-8.1c0-4.4-3.7-7-6.8-8.1
		c2-1.6,3.8-3.5,3.8-6.5c0-2-1.2-5.6-7.9-5.6c-1.3,0-2.7,0.1-4.5,0.1c-0.7,0-3.1-0.1-5.1-0.1c-0.6,0-0.8,0.1-0.8,0.3
		c0,0.3,0.2,0.3,0.6,0.3c0.5,0,1.2,0,1.5,0.1c1.2,0.3,1.5,0.9,1.6,2.1c0.1,1.2,0.1,2.2,0.1,7.9V23.4z M59.7,8.2
		c0-0.4,0.1-0.6,0.3-0.6c0.4-0.1,0.7-0.1,1.2-0.1c3.2,0,4.7,3.3,4.7,5.8c0,1.8-0.6,3.2-1.5,4c-0.6,0.6-1.5,0.7-2.7,0.7
		c-0.9,0-1.4,0-1.7-0.1c-0.1,0-0.3-0.1-0.3-0.4V8.2z M164.3,24.5c0.2,0,0.3,0.1,0.4,0.3l3,7.8c0.2,0.4-0.1,0.8-0.3,0.9
		c-0.4,0-0.5,0.1-0.5,0.3c0,0.3,0.4,0.3,1.1,0.3c3,0.1,5.6,0.1,7,0.1c1.4,0,1.7-0.1,1.7-0.4c0-0.3-0.2-0.3-0.5-0.3
		c-0.4,0-1,0-1.6-0.1c-0.8-0.2-1.8-0.7-3.2-4.1c-2.4-5.6-8.3-20.7-9.2-22.7c-0.4-0.9-0.6-1.2-0.9-1.2c-0.4,0-0.6,0.4-1,1.5
		l-9.3,23.2c-0.7,1.8-1.4,3.1-2.7,3.3c-0.3,0.1-0.4,0.1-0.8,0.1c-0.3,0-0.4,0.1-0.4,0.3c0,0.3,0.2,0.4,0.7,0.4
		c1.9,0,3.1-0.1,3.5-0.1c1.1,0,2.7,0.1,3.9,0.1c0.4,0,0.6-0.1,0.6-0.4c0-0.2-0.1-0.3-0.6-0.3h-0.6c-1.1,0-1.5-0.5-1.5-1.2
		c0-0.4,0.2-1.3,0.6-2.3l2-5.3c0.1-0.2,0.2-0.3,0.3-0.3H164.3z M156.8,22.7c-0.1,0-0.2-0.1-0.1-0.3l3.4-9.1c0-0.1,0.1-0.3,0.2-0.3
		c0.1,0,0.1,0.2,0.2,0.3l3.3,9.1c0,0.1,0,0.2-0.2,0.2H156.8z"/>
	<defs>
		<filter id="Adobe_OpacityMaskFilter_2_" filterUnits="userSpaceOnUse" x="68.9" y="5.4" width="54.2" height="29">
			<feColorMatrix  type="matrix" values="1 0 0 0 0  0 1 0 0 0  0 0 1 0 0  0 0 0 1 0"/>
		</filter>
	</defs>
	<mask maskUnits="userSpaceOnUse" x="68.9" y="5.4" width="54.2" height="29" id="intesa-b_3_">
		<g class="st6">
			<polygon id="intesa-a_3_" class="st2" points="0,40 308.7,40 308.7,0 0,0 			"/>
		</g>
	</mask>
	<path class="st7" d="M122.3,6c-0.3,0-0.4,0-0.6,0h-0.1h0c-0.1,0-0.2,0-0.2,0h0c-1.1,0-4.7,0-6.3,0c-0.5,0-0.9,0-0.9,0.3
		c0,0.2,0.1,0.3,0.5,0.3c0.5,0,1.1,0,1.5,0.2c0.7,0.3,1,1.1,1.1,2.8l0.1,15.1c-0.6-0.6-16.7-18.7-17.2-19.1c-0.6-0.5-1.3,0-1.3,0.5
		L98.6,16l-0.4,12.8c0,3.1-0.3,4.6-1.5,4.6c-1.1,0-1.6-1.4-2.7-4c-2.4-5.6-8.3-20.7-9.2-22.7c-0.4-0.9-0.6-1.2-0.9-1.2
		c-0.4,0-0.6,0.4-1,1.5l-9.3,23.2c-0.7,1.8-1.4,3.1-3.1,3.3c-0.3,0-0.8,0.1-1.1,0.1c-0.3,0-0.4,0.1-0.4,0.3c0,0.3,0.2,0.4,0.7,0.4
		c1.9,0,4-0.1,4.4-0.1c1.1,0,2.7,0.1,3.9,0.1c0.4,0,0.6-0.1,0.6-0.4c0-0.2-0.1-0.3-0.6-0.3h-0.6c-1.1,0-1.5-0.5-1.5-1.2
		c0-0.4,0.2-1.3,0.6-2.3l2-5.3c0.1-0.2,0.1-0.3,0.3-0.3H87c0.2,0,0.3,0.1,0.4,0.3l3,7.7c0.2,0.4-0.1,0.8-0.4,0.9
		c-0.4,0-0.5,0.1-0.5,0.3c0,0.3,0.4,0.3,1.1,0.3c1.6,0,3.2,0,4.5,0c0.1,0,0.2,0,0.2,0c0.8,0,1.6,0,2.3,0c0.3,0,0.6,0,0.8,0
		c0.5,0,0.9,0,1,0c0.7,0,2.2,0.1,4.5,0.1c0.5,0,0.8-0.1,0.8-0.4c0-0.2-0.2-0.3-0.6-0.3c-0.6,0-1.3,0-1.9-0.3
		c-0.7-0.3-1.2-1.2-1.3-4.1l-0.1-7.2l-0.1-7.2c0.6,0.7,15.2,16.6,17.3,18.8c0.4,0.4,0.8,0.8,1.1,0.8c0.3,0,0.4-0.3,0.4-1.1l0.1-8.5
		L120,9.7c0.1-1.7,0.4-2.5,1.1-2.8c0.5-0.2,1.1-0.2,1.5-0.2c0.4,0,0.5-0.1,0.5-0.3C123.1,6,122.8,6,122.3,6 M86.3,22.7h-6.8
		c-0.1,0-0.2-0.1-0.1-0.3l3.4-9.1c0-0.1,0.1-0.3,0.2-0.3c0.1,0,0.1,0.2,0.2,0.3l3.3,9.1C86.5,22.6,86.5,22.7,86.3,22.7"/>
</g>
</svg>
