<?xml version="1.0" encoding="UTF-8"?>
<svg id="Layer_2" data-name="Layer 2" xmlns="http://www.w3.org/2000/svg" viewBox="0 0 88.39 30">
  <defs>
    <style>
      .cls-1 {
        fill: #346275;
      }
    </style>
  </defs>
  <g id="Layer_1-2" data-name="Layer 1">
    <g>
      <path class="cls-1" d="M32.89,25.54c1.25-.24,2.48-.48,3.72-.72,.03,.07,.05,.11,.06,.15,.36,1.45,1.41,2.01,2.91,1.89,.36-.03,.73-.16,1.05-.32,.43-.22,.59-.63,.54-1.11-.05-.48-.36-.73-.79-.83-1.02-.24-2.06-.43-3.07-.69-.65-.17-1.32-.36-1.91-.66-1.69-.85-2.26-2.34-2.07-4.04,.2-1.81,1.29-2.93,2.93-3.51,1.97-.69,3.95-.65,5.85,.26,1.42,.68,2.29,1.83,2.63,3.38,0,.04,.01,.09,.02,.16-1.19,.24-2.38,.48-3.57,.73-.04-.14-.07-.25-.1-.36-.43-1.52-2.19-1.91-3.25-1.38-.12,.06-.23,.14-.33,.23-.64,.57-.47,1.49,.33,1.76,.55,.18,1.13,.27,1.7,.41,.78,.19,1.56,.36,2.33,.58,.36,.1,.72,.27,1.05,.45,1.47,.81,2.08,2.1,1.99,3.74-.1,1.89-1.16,3.1-2.85,3.76-2.16,.85-4.34,.79-6.46-.18-1.47-.67-2.42-1.8-2.68-3.44-.01-.07-.01-.15-.02-.25Z"/>
      <path class="cls-1" d="M24.61,25.42c0,.47,0,.88,0,1.3,.01,1.68-.76,2.6-2.43,2.86-.39,.06-.79,.07-1.22,.1V15.56c.1,0,.2-.01,.29-.01,1.92,0,3.84,0,5.76,0,.79,0,1.56,.11,2.3,.4,1.93,.76,3.03,2.63,2.91,4.8-.15,2.77-2.13,4.5-4.8,4.64-.81,.04-1.62,.02-2.44,.02-.11,0-.23,0-.38,0Zm.02-3.12c.79,0,1.56,.04,2.32,0,1-.06,1.63-.72,1.68-1.69,.05-.93-.5-1.69-1.47-1.8-.82-.1-1.67-.02-2.52-.02v3.52Z"/>
      <path class="cls-1" d="M9.02,3.61h-.38c-1.53,0-3.06,0-4.59,0q-.44,0-.44,.46c0,1.5,0,3,0,4.5,0,.27-.05,.38-.36,.38-.98-.02-1.97-.01-2.95,0C.08,8.94,0,8.89,0,8.65,0,5.86,0,3.07,0,.28,0,.08,.06,0,.28,0,3.1,0,5.93,0,8.76,0c.12,0,.26-.02,.25,.18,0,1.13,0,2.25,0,3.43Z"/>
      <path class="cls-1" d="M15.62,29.65V15.56h3.65c0,.12,0,.22,0,.32,0,3.41,0,6.82,0,10.23,0,.63-.1,1.24-.37,1.81-.52,1.11-1.42,1.66-2.63,1.72-.21,0-.42,0-.65,0Z"/>
      <path class="cls-1" d="M3.63,17.71c0,.52,.03,1.03,0,1.55-.07,.97,.71,1.75,1.74,1.73,1.09-.01,2.18,0,3.27,0,.38,0,.39,.01,.39,.38,0,.96,0,1.93,0,2.89,0,.24-.08,.34-.33,.34-1.14,0-2.27,0-3.41,0-2.71-.04-4.69-1.86-5.17-4.14-.06-.28-.1-.57-.1-.85-.01-1.23,0-2.46,0-3.7,0-.35,.02-.37,.38-.37,.96,0,1.91,0,2.87,0,.27,0,.38,.09,.37,.37-.01,.6,0,1.2,0,1.8Z"/>
      <path class="cls-1" d="M24.57,6.77c0,.63,0,1.26,0,1.89,0,.22-.07,.28-.28,.28-1,0-2.01-.01-3.01,0-.25,0-.33-.06-.33-.32,.01-1.1,0-2.2,0-3.29,0-1.05-.67-1.71-1.73-1.71-1.12,0-2.24,0-3.35,0-.24,0-.31-.07-.31-.31,.01-1,0-2.01,0-3.01,0-.16,0-.3,.23-.3,1.38,.02,2.77-.04,4.15,.06,2.49,.18,4.55,2.43,4.61,4.93,.01,.59,0,1.18,0,1.78h0Z"/>
      <path class="cls-1" d="M13.03,7.36v5.63H7.41c0-.11-.02-.21-.02-.32,0-1.66,0-3.33,0-4.99,0-.28,.08-.35,.35-.35,1.66,.01,3.33,0,4.99,0,.09,0,.19,0,.3,.01Z"/>
      <path class="cls-1" d="M65.23,26.1v3.49c-.35,0-.68,0-1,0-.05,0-.13-.1-.14-.16-.02-.19,0-.38,0-.57,0-1.52,0-3.04,0-4.56,0-.23,.07-.29,.3-.32,.48-.05,.79,.12,1.08,.5,.8,1.01,1.65,1.98,2.48,2.97,.04,.05,.09,.1,.19,.21,0-.16,.02-.26,.02-.35,0-1.01,0-2.03,0-3.04,0-.21,.05-.28,.27-.28,.88,0,.88-.02,.88,.85,0,1.48,0,2.96,0,4.44,0,.25-.06,.31-.32,.33-.47,.04-.77-.12-1.07-.48-.8-.98-1.64-1.92-2.46-2.87-.05-.06-.1-.11-.15-.17-.02,0-.05,0-.07,.01Z"/>
      <path class="cls-1" d="M75.93,27.52c.62,.69,1.21,1.34,1.85,2.05-.5,0-.93,0-1.35,0-.07,0-.14-.11-.21-.18-.51-.56-1.02-1.11-1.51-1.69-.2-.23-.43-.17-.66-.15-.04,0-.09,.15-.09,.23,0,.49,0,.97,0,1.46,0,.1,0,.21-.01,.34-.33,0-.65,0-.96,0-.06,0-.12-.1-.16-.17-.02-.03,0-.09,0-.14,0-1.66,0-3.32,0-4.99,0-.23,.06-.32,.3-.31,.94,.03,1.9-.02,2.83,.06,1.13,.1,1.78,1.1,1.51,2.19-.15,.6-.55,.97-1.11,1.18-.11,.04-.23,.07-.41,.13Zm-1.06-1.03s0,0,0,0c.26,0,.52,.02,.77,0,.51-.04,.81-.43,.72-.9-.07-.33-.36-.55-.8-.57-.47-.02-.93,0-1.4,0-.14,0-.21,.05-.21,.2,0,.36,0,.72,0,1.09,0,.15,.05,.21,.2,.2,.24,0,.48,0,.72,0Z"/>
      <path class="cls-1" d="M62.77,27.29h-2.84v1.25c.11,0,.22,.02,.33,.02,.82,0,1.64,0,2.47,0,.24,0,.31,.08,.31,.31,0,.72,0,.72-.72,.72-1.05,0-2.1,0-3.15,0-.11,0-.23,0-.37,0,0-.13-.02-.23-.02-.33,0-1.65,0-3.31,0-4.96,0-.24,.05-.33,.31-.33,1.21,.01,2.43,.01,3.64,0,.22,0,.3,.06,.3,.29,0,.75,0,.75-.72,.75-.71,0-1.41,0-2.12,0-.19,0-.28,.05-.27,.26,.01,.24,.02,.48,0,.72-.02,.22,.06,.3,.29,.3,.75-.01,1.51,0,2.26-.01,.25,0,.34,.07,.32,.32-.02,.22,0,.44,0,.7Z"/>
      <path class="cls-1" d="M48.77,27.81c.38,.78,.91,1.05,1.67,.85,.13-.03,.27-.1,.38-.19,.37-.31,.28-.86-.18-1-.45-.13-.91-.2-1.37-.3-.19-.04-.37-.09-.55-.16-.54-.21-.89-.59-.97-1.18-.08-.62,.09-1.15,.6-1.55,.86-.67,2.44-.57,3.21,.21,.26,.26,.44,.57,.5,.97-.34,.07-.67,.15-.99,.2-.05,0-.14-.08-.17-.14-.27-.57-.85-.83-1.45-.64-.33,.11-.53,.37-.51,.68,.02,.28,.17,.44,.55,.52,.46,.1,.92,.17,1.37,.29,1.02,.27,1.5,1.08,1.24,2.04-.12,.44-.39,.78-.8,.97-1.01,.48-2.02,.45-2.98-.14-.36-.22-.57-.55-.68-.96-.05-.18,0-.27,.18-.3,.31-.05,.62-.12,.94-.18Z"/>
      <path class="cls-1" d="M57.99,24.05c-.83,.91-1.67,1.82-2.51,2.75,.91,.92,1.79,1.82,2.68,2.72-.01,.02-.02,.04-.03,.07-.45,0-.91,0-1.36,0-.08,0-.18-.1-.25-.17-.6-.63-1.2-1.26-1.81-1.88-.09-.1-.24-.14-.35-.21l-.08,.06v2.22c-.36,0-.69,0-1.01,0-.05,0-.12-.08-.13-.14-.02-.1,0-.21,0-.31,0-1.61,0-3.23,0-4.84,0-.24,.07-.33,.31-.31,.26,.02,.62-.07,.77,.07,.14,.13,.06,.5,.07,.76,0,.5,0,.99,0,1.59,.17-.12,.28-.17,.36-.26,.62-.65,1.22-1.32,1.84-1.96,.1-.1,.27-.17,.41-.18,.35-.03,.7,0,1.06,0,.01,.02,.03,.05,.04,.07Z"/>
      <path class="cls-1" d="M78.1,29.59c.05-.13,.08-.22,.11-.31,.72-1.67,1.45-3.34,2.17-5.02,.09-.22,.21-.29,.45-.29,.74,.01,.74,0,1.04,.69,.66,1.52,1.32,3.05,1.98,4.57,.04,.1,.08,.21,.14,.35-.39,0-.74,0-1.09,0-.07,0-.16-.09-.19-.16-.12-.27-.21-.55-.35-.82-.05-.09-.19-.2-.28-.2-.69-.02-1.38-.02-2.06,0-.09,0-.22,.1-.27,.18-.13,.25-.24,.52-.33,.79-.06,.17-.16,.23-.34,.22-.3-.01-.61,0-.97,0Zm3.74-2.24c-.27-.67-.52-1.28-.8-1.97-.29,.7-.54,1.32-.8,1.97h1.61Z"/>
      <path class="cls-1" d="M84.09,27.88c.28-.06,.57-.12,.86-.18,.18-.04,.2,.08,.24,.2,.17,.51,.47,.76,.94,.78,.67,.03,1.11-.4,1.11-1.13,0-1.05,0-2.1,0-3.15q0-.42,.41-.42,.73,0,.73,.71c0,.93-.01,1.85,0,2.78,.02,1.68-1.32,2.51-2.82,2.16-.81-.19-1.45-.95-1.47-1.76Z"/>
      <path class="cls-1" d="M8.98,15.56h2.59v2.6c-.38,0-.75,0-1.12,0-.42,0-.84,0-1.26,0-.07,0-.2-.1-.2-.15-.01-.81,0-1.61,0-2.44Z"/>
      <path class="cls-1" d="M15.59,8.95h2.57v2.56h-2.57v-2.56Z"/>
      <path class="cls-1" d="M71.58,23.98v5.61c-.34,0-.66,0-.98,0-.05,0-.11-.08-.13-.14-.02-.06,0-.13,0-.2,0-1.65,0-3.31,0-4.96,0-.23,.06-.33,.3-.31,.26,.02,.53,0,.82,0Z"/>
    </g>
  </g>
</svg>