<?xml version="1.0" encoding="utf-8"?>
<!-- Generator: Adobe Illustrator 24.1.2, SVG Export Plug-In . SVG Version: 6.00 Build 0)  -->
<svg version="1.1" id="Layer_2_1_" xmlns="http://www.w3.org/2000/svg" xmlns:xlink="http://www.w3.org/1999/xlink" x="0px" y="0px"
	 viewBox="0 0 88.4 30" style="enable-background:new 0 0 88.4 30;" xml:space="preserve">
<style type="text/css">
	.st0{fill:#FCF5A3;}
</style>
<g id="Layer_1-2">
	<g>
		<path class="st0" d="M32.9,25.5c1.3-0.2,2.5-0.5,3.7-0.7c0,0.1,0,0.1,0.1,0.1c0.4,1.5,1.4,2,2.9,1.9c0.4,0,0.7-0.2,1-0.3
			c0.4-0.2,0.6-0.6,0.5-1.1c0-0.5-0.4-0.7-0.8-0.8c-1-0.2-2.1-0.4-3.1-0.7c-0.7-0.2-1.3-0.4-1.9-0.7c-1.7-0.9-2.3-2.3-2.1-4
			c0.2-1.8,1.3-2.9,2.9-3.5c2-0.7,4-0.6,5.8,0.3c1.4,0.7,2.3,1.8,2.6,3.4c0,0,0,0.1,0,0.2c-1.2,0.2-2.4,0.5-3.6,0.7
			c0-0.1-0.1-0.3-0.1-0.4c-0.4-1.5-2.2-1.9-3.3-1.4c-0.1,0.1-0.2,0.1-0.3,0.2c-0.6,0.6-0.5,1.5,0.3,1.8c0.5,0.2,1.1,0.3,1.7,0.4
			c0.8,0.2,1.6,0.4,2.3,0.6c0.4,0.1,0.7,0.3,1,0.5c1.5,0.8,2.1,2.1,2,3.7c-0.1,1.9-1.2,3.1-2.8,3.8c-2.2,0.9-4.3,0.8-6.5-0.2
			c-1.5-0.7-2.4-1.8-2.7-3.4C32.9,25.7,32.9,25.6,32.9,25.5L32.9,25.5z"/>
		<path class="st0" d="M24.6,25.4c0,0.5,0,0.9,0,1.3c0,1.7-0.8,2.6-2.4,2.9c-0.4,0.1-0.8,0.1-1.2,0.1V15.6c0.1,0,0.2,0,0.3,0
			c1.9,0,3.8,0,5.8,0c0.8,0,1.6,0.1,2.3,0.4c1.9,0.8,3,2.6,2.9,4.8c-0.2,2.8-2.1,4.5-4.8,4.6c-0.8,0-1.6,0-2.4,0
			C24.9,25.4,24.8,25.4,24.6,25.4L24.6,25.4z M24.6,22.3c0.8,0,1.6,0,2.3,0c1-0.1,1.6-0.7,1.7-1.7c0-0.9-0.5-1.7-1.5-1.8
			c-0.8-0.1-1.7,0-2.5,0L24.6,22.3L24.6,22.3z"/>
		<path class="st0" d="M9,3.6H8.6c-1.5,0-3.1,0-4.6,0c-0.3,0-0.4,0.2-0.4,0.5c0,1.5,0,3,0,4.5c0,0.3,0,0.4-0.4,0.4c-1,0-2,0-3,0
			C0.1,8.9,0,8.9,0,8.6c0-2.8,0-5.6,0-8.4C0,0.1,0.1,0,0.3,0c2.8,0,5.6,0,8.5,0C8.9,0,9,0,9,0.2C9,1.3,9,2.4,9,3.6L9,3.6z"/>
		<path class="st0" d="M15.6,29.6V15.6h3.7c0,0.1,0,0.2,0,0.3c0,3.4,0,6.8,0,10.2c0,0.6-0.1,1.2-0.4,1.8c-0.5,1.1-1.4,1.7-2.6,1.7
			C16.1,29.6,15.9,29.6,15.6,29.6L15.6,29.6z"/>
		<path class="st0" d="M3.6,17.7c0,0.5,0,1,0,1.5c-0.1,1,0.7,1.8,1.7,1.7c1.1,0,2.2,0,3.3,0C9,21,9,21,9,21.4c0,1,0,1.9,0,2.9
			c0,0.2-0.1,0.3-0.3,0.3c-1.1,0-2.3,0-3.4,0c-2.7,0-4.7-1.9-5.2-4.1C0.1,20.2,0,19.9,0,19.6c0-1.2,0-2.5,0-3.7c0-0.4,0-0.4,0.4-0.4
			c1,0,1.9,0,2.9,0c0.3,0,0.4,0.1,0.4,0.4C3.6,16.5,3.6,17.1,3.6,17.7L3.6,17.7z"/>
		<path class="st0" d="M24.6,6.8c0,0.6,0,1.3,0,1.9c0,0.2-0.1,0.3-0.3,0.3c-1,0-2,0-3,0c-0.3,0-0.3-0.1-0.3-0.3c0-1.1,0-2.2,0-3.3
			c0-1.1-0.7-1.7-1.7-1.7c-1.1,0-2.2,0-3.4,0c-0.2,0-0.3-0.1-0.3-0.3c0-1,0-2,0-3c0-0.2,0-0.3,0.2-0.3c1.4,0,2.8,0,4.2,0.1
			c2.5,0.2,4.5,2.4,4.6,4.9C24.6,5.6,24.5,6.2,24.6,6.8L24.6,6.8L24.6,6.8z"/>
		<path class="st0" d="M13,7.4V13H7.4c0-0.1,0-0.2,0-0.3c0-1.7,0-3.3,0-5c0-0.3,0.1-0.3,0.3-0.3c1.7,0,3.3,0,5,0
			C12.8,7.3,12.9,7.3,13,7.4L13,7.4z"/>
		<path class="st0" d="M65.2,26.1v3.5c-0.3,0-0.7,0-1,0c-0.1,0-0.1-0.1-0.1-0.2c0-0.2,0-0.4,0-0.6c0-1.5,0-3,0-4.6
			c0-0.2,0.1-0.3,0.3-0.3c0.5,0,0.8,0.1,1.1,0.5c0.8,1,1.7,2,2.5,3c0,0,0.1,0.1,0.2,0.2c0-0.2,0-0.3,0-0.4c0-1,0-2,0-3
			c0-0.2,0.1-0.3,0.3-0.3c0.9,0,0.9,0,0.9,0.9c0,1.5,0,3,0,4.4c0,0.3-0.1,0.3-0.3,0.3c-0.5,0-0.8-0.1-1.1-0.5
			c-0.8-1-1.6-1.9-2.5-2.9C65.4,26.2,65.4,26.2,65.2,26.1C65.3,26.1,65.3,26.1,65.2,26.1L65.2,26.1z"/>
		<path class="st0" d="M75.9,27.5c0.6,0.7,1.2,1.3,1.8,2c-0.5,0-0.9,0-1.3,0c-0.1,0-0.1-0.1-0.2-0.2c-0.5-0.6-1-1.1-1.5-1.7
			c-0.2-0.2-0.4-0.2-0.7-0.1c0,0-0.1,0.1-0.1,0.2c0,0.5,0,1,0,1.5c0,0.1,0,0.2,0,0.3c-0.3,0-0.7,0-1,0c-0.1,0-0.1-0.1-0.2-0.2
			c0,0,0-0.1,0-0.1c0-1.7,0-3.3,0-5c0-0.2,0.1-0.3,0.3-0.3c0.9,0,1.9,0,2.8,0.1c1.1,0.1,1.8,1.1,1.5,2.2c-0.2,0.6-0.6,1-1.1,1.2
			C76.3,27.4,76.1,27.5,75.9,27.5L75.9,27.5z M74.9,26.5L74.9,26.5c0.3,0,0.5,0,0.8,0c0.5,0,0.8-0.4,0.7-0.9
			C76.3,25.3,76,25,75.6,25c-0.5,0-0.9,0-1.4,0c-0.1,0-0.2,0-0.2,0.2c0,0.4,0,0.7,0,1.1c0,0.1,0.1,0.2,0.2,0.2
			C74.4,26.5,74.6,26.5,74.9,26.5L74.9,26.5z"/>
		<path class="st0" d="M62.8,27.3h-2.8v1.3c0.1,0,0.2,0,0.3,0c0.8,0,1.6,0,2.5,0c0.2,0,0.3,0.1,0.3,0.3c0,0.7,0,0.7-0.7,0.7
			c-1,0-2.1,0-3.2,0c-0.1,0-0.2,0-0.4,0c0-0.1,0-0.2,0-0.3c0-1.6,0-3.3,0-5c0-0.2,0-0.3,0.3-0.3c1.2,0,2.4,0,3.6,0
			C63,24,63,24,63,24.3c0,0.8,0,0.8-0.7,0.8c-0.7,0-1.4,0-2.1,0c-0.2,0-0.3,0-0.3,0.3c0,0.2,0,0.5,0,0.7c0,0.2,0.1,0.3,0.3,0.3
			c0.8,0,1.5,0,2.3,0c0.3,0,0.3,0.1,0.3,0.3C62.8,26.8,62.8,27,62.8,27.3L62.8,27.3z"/>
		<path class="st0" d="M48.8,27.8c0.4,0.8,0.9,1,1.7,0.9c0.1,0,0.3-0.1,0.4-0.2c0.4-0.3,0.3-0.9-0.2-1c-0.5-0.1-0.9-0.2-1.4-0.3
			c-0.2,0-0.4-0.1-0.5-0.2c-0.5-0.2-0.9-0.6-1-1.2c-0.1-0.6,0.1-1.1,0.6-1.5c0.9-0.7,2.4-0.6,3.2,0.2c0.3,0.3,0.4,0.6,0.5,1
			c-0.3,0.1-0.7,0.1-1,0.2c0,0-0.1-0.1-0.2-0.1c-0.3-0.6-0.8-0.8-1.5-0.6c-0.3,0.1-0.5,0.4-0.5,0.7c0,0.3,0.2,0.4,0.5,0.5
			c0.5,0.1,0.9,0.2,1.4,0.3c1,0.3,1.5,1.1,1.2,2c-0.1,0.4-0.4,0.8-0.8,1c-1,0.5-2,0.5-3-0.1c-0.4-0.2-0.6-0.5-0.7-1
			c0-0.2,0-0.3,0.2-0.3C48.1,27.9,48.4,27.9,48.8,27.8L48.8,27.8z"/>
		<path class="st0" d="M58,24c-0.8,0.9-1.7,1.8-2.5,2.8c0.9,0.9,1.8,1.8,2.7,2.7c0,0,0,0,0,0.1c-0.5,0-0.9,0-1.4,0
			c-0.1,0-0.2-0.1-0.3-0.2c-0.6-0.6-1.2-1.3-1.8-1.9c-0.1-0.1-0.2-0.1-0.3-0.2l-0.1,0.1v2.2c-0.4,0-0.7,0-1,0c0,0-0.1-0.1-0.1-0.1
			c0-0.1,0-0.2,0-0.3c0-1.6,0-3.2,0-4.8c0-0.2,0.1-0.3,0.3-0.3c0.3,0,0.6-0.1,0.8,0.1c0.1,0.1,0.1,0.5,0.1,0.8c0,0.5,0,1,0,1.6
			c0.2-0.1,0.3-0.2,0.4-0.3c0.6-0.6,1.2-1.3,1.8-2c0.1-0.1,0.3-0.2,0.4-0.2C57.3,24,57.6,24,58,24C58,24,58,24.1,58,24L58,24z"/>
		<path class="st0" d="M78.1,29.6c0.1-0.1,0.1-0.2,0.1-0.3c0.7-1.7,1.4-3.3,2.2-5c0.1-0.2,0.2-0.3,0.4-0.3c0.7,0,0.7,0,1,0.7
			c0.7,1.5,1.3,3,2,4.6c0,0.1,0.1,0.2,0.1,0.4c-0.4,0-0.7,0-1.1,0c-0.1,0-0.2-0.1-0.2-0.2c-0.1-0.3-0.2-0.5-0.3-0.8
			c-0.1-0.1-0.2-0.2-0.3-0.2c-0.7,0-1.4,0-2.1,0c-0.1,0-0.2,0.1-0.3,0.2c-0.1,0.3-0.2,0.5-0.3,0.8c-0.1,0.2-0.2,0.2-0.3,0.2
			C78.8,29.6,78.5,29.6,78.1,29.6L78.1,29.6z M81.8,27.4c-0.3-0.7-0.5-1.3-0.8-2c-0.3,0.7-0.5,1.3-0.8,2H81.8L81.8,27.4z"/>
		<path class="st0" d="M84.1,27.9c0.3-0.1,0.6-0.1,0.9-0.2c0.2,0,0.2,0.1,0.2,0.2c0.2,0.5,0.5,0.8,0.9,0.8c0.7,0,1.1-0.4,1.1-1.1
			c0-1,0-2.1,0-3.1c0-0.3,0.1-0.4,0.4-0.4c0.5,0,0.7,0.2,0.7,0.7c0,0.9,0,1.9,0,2.8c0,1.7-1.3,2.5-2.8,2.2
			C84.8,29.4,84.1,28.7,84.1,27.9L84.1,27.9z"/>
		<path class="st0" d="M9,15.6h2.6v2.6c-0.4,0-0.8,0-1.1,0c-0.4,0-0.8,0-1.3,0C9.1,18.2,9,18.1,9,18C9,17.2,9,16.4,9,15.6L9,15.6z"
			/>
		<path class="st0" d="M15.6,8.9h2.6v2.6h-2.6C15.6,11.5,15.6,9,15.6,8.9z"/>
		<path class="st0" d="M71.6,24v5.6c-0.3,0-0.7,0-1,0c-0.1,0-0.1-0.1-0.1-0.1s0-0.1,0-0.2c0-1.6,0-3.3,0-5c0-0.2,0.1-0.3,0.3-0.3
			C71,24,71.3,24,71.6,24L71.6,24z"/>
	</g>
</g>
</svg>
