<svg width="67" height="40" viewBox="0 0 67 40" xmlns="http://www.w3.org/2000/svg"><title>maestro</title><path d="M57.122 20.24c0 .34-.029.653-.084.939-.199 1.218-1.298 1.92-1.809 1.92-.848.016-1.355-.698-1.355-1.763 0-1.258.733-2.686 1.949-2.686.961-.004 1.299.773 1.299 1.59zm2.686 3.768h-.06v.139h.086s.029 0 .056-.011c.03-.012.03-.039.03-.062 0-.02 0-.043-.03-.054.002-.012-.055-.012-.082-.012zm5.55 6.77a.636.636 0 0 1 0 .64.627.627 0 0 1-.239.241.654.654 0 0 1-.318.086.64.64 0 0 1-.563-.327.647.647 0 0 1 0-.64.598.598 0 0 1 .243-.24.645.645 0 0 1 .317-.086c.11 0 .214.03.316.086a.577.577 0 0 1 .244.24zm-.423.325c.056-.025.084-.081.084-.14a.2.2 0 0 0-.057-.136.305.305 0 0 0-.14-.03h-.227v.54h.113v-.212h.085l.085.213h.14l-.083-.235zM33.08 19.565c0-.635-.396-1.006-1.102-1.006-.763 0-1.3.498-1.526 1.406l2.628.005v-.405zm27.207 4.615c0 .26-.198.47-.453.47a.48.48 0 0 1-.48-.47.48.48 0 0 1 .48-.463c.255 0 .453.21.453.463zm-.314.037a.15.15 0 0 0 .086-.14.201.201 0 0 0-.057-.135.314.314 0 0 0-.143-.032h-.226v.542h.113v-.211h.085l.086.21h.142l-.086-.234zM46.818 40a19.906 19.906 0 0 1-13.42-5.171 19.923 19.923 0 0 1-13.404 5.164C8.958 39.993 0 31.037 0 20 0 9.006 8.887.076 19.866.004c5.284 0 9.985 1.956 13.532 5.166A19.917 19.917 0 0 1 46.81 0c11.039-.001 19.992 8.95 19.995 19.991.003 11.051-8.944 20.006-19.987 20.009zM20.762 15.162H16.92l-2.627 5.964-.17-5.964H10.42l-1.837 9.63h2.147l1.413-7.357.396 7.358h2.147l3.249-7.408-1.413 7.408h2.373l1.866-9.631zm6.695 3.92c0-1.5-1.074-2.297-3.107-2.297-.876 0-1.639.112-2.825.413l-.31 1.764.197-.051.34-.086c.507-.135 1.27-.216 1.948-.216 1.1 0 1.526.193 1.526.71 0 .144-.03.251-.086.51-.367-.038-.706-.061-.96-.061-2.626 0-4.152 1.114-4.152 3.02 0 1.264.876 2.137 2.148 2.137 1.073 0 1.894-.3 2.486-.945l-.057.81h1.977l.027-.213.03-.267.056-.397.084-.498.509-2.783c.142-.87.17-1.162.17-1.55zm.425 2.35c0 2.308 1.385 3.512 4.04 3.512.82 0 1.61-.103 2.402-.316l.394-1.961c-.846.345-1.61.497-2.458.497-1.355 0-2.062-.463-2.062-1.369 0-.074 0-.128.03-.248h4.686c.2-.795.286-1.356.286-1.937 0-1.736-1.244-2.844-3.192-2.844-2.374.003-4.126 1.98-4.126 4.666zm13.758-4.49a18.468 18.468 0 0 0-2.117-.155c-2.657 0-3.59 1.204-3.59 2.65 0 .989.566 1.673 1.837 2.184.96.39 1.102.507 1.102.865 0 .489-.424.707-1.356.707a7.557 7.557 0 0 1-2.148-.31l-.34 1.808.114.022.423.077c.144.029.369.05.651.072a19.3 19.3 0 0 0 1.298.064c2.544 0 3.703-.826 3.703-2.614 0-1.074-.483-1.704-1.696-2.18-.989-.398-1.102-.486-1.102-.853 0-.42.395-.636 1.159-.636.481 0 1.102.043 1.724.115l.338-1.817zm2.542 5.517c0-.073 0-.181.03-.323l.62-3.268h1.215l.34-1.906h-1.214l.338-1.799h-2.344l-1.102 5.981-.112.62-.142.77c-.029.249-.056.483-.056.704 0 1.11.65 1.721 1.864 1.721.538 0 1.046-.078 1.696-.256l.31-1.738c-.17.051-.367.076-.62.076-.568-.003-.823-.175-.823-.582zm6.894-3.275l.283.058.844-2.214c-.198-.077-.226-.077-.254-.085-.114-.028-.201-.043-.201-.047a1.967 1.967 0 0 0-.255-.02c-.764 0-1.327.348-2.062 1.274l.226-1.19h-2.148l-1.441 7.835h2.374c.848-4.79 1.214-5.632 2.343-5.632.094 0 .178.007.291.021zm8.505 2.06c.057-.456.057-.489.057-.976 0-1.986-1.3-3.534-3.76-3.534-2.825 0-4.661 1.883-4.661 4.657 0 1.988 1.07 3.613 3.76 3.613 2.428.001 4.236-1.156 4.604-3.76zm.876 2.936a.62.62 0 0 0-.622-.608.62.62 0 0 0-.622.608c0 .34.283.614.622.614a.62.62 0 0 0 .622-.614zm-38.14-1.713c0 .487.311.799.847.799.961 0 1.638-.803 1.695-1.962a4.423 4.423 0 0 0-.538-.029c-1.326-.001-2.004.4-2.004 1.192zm42.448 8.43h-.057v.139h.086s.029 0 .057-.011c.028-.013.028-.04.028-.064 0-.02 0-.041-.028-.054 0-.01-.057-.01-.086-.01z" fill="#346275" fill-rule="evenodd"/></svg>