<?xml version="1.0" encoding="utf-8"?>
<!-- Generator: Adobe Illustrator 24.1.2, SVG Export Plug-In . SVG Version: 6.00 Build 0)  -->
<svg version="1.1" id="Layer_2_1_" xmlns="http://www.w3.org/2000/svg" xmlns:xlink="http://www.w3.org/1999/xlink" x="0px" y="0px"
	 viewBox="0 0 260.7 170.8" style="enable-background:new 0 0 260.7 170.8;" xml:space="preserve">
<style type="text/css">
	.st0{fill:#FCF5A3;}
</style>
<g id="Layer_1-2">
	<g>
		<path class="st0" d="M105.6,0c-12,0-22.8,4.8-30.8,12.5C66.9,4.8,56.1,0,44.1,0C19.8,0,0,19.8,0,44.1s19.8,44.1,44.1,44.1
			c12,0,22.8-4.8,30.8-12.5c7.9,7.7,18.8,12.5,30.8,12.5c24.4,0,44.1-19.8,44.1-44.1S130,0,105.6,0z"/>
		<g>
			<path class="st0" d="M7.9,168.1c0,0.6-0.3,1-0.7,1.4s-0.9,0.6-1.4,0.6c-0.7,0-1.2-0.2-1.5-0.6c-0.3-0.4-0.5-0.9-0.5-1.4v-41.6
				c0-0.6,0.2-1,0.6-1.4s0.9-0.6,1.5-0.6c0.5,0,1,0.2,1.4,0.6c0.4,0.4,0.6,0.9,0.6,1.4L7.9,168.1L7.9,168.1z"/>
			<path class="st0" d="M38.7,124.6c3.2,0,6,0.6,8.4,1.8c2.4,1.2,4.4,2.9,6,5.1c1.6,2.1,2.8,4.6,3.5,7.3c0.8,2.7,1.1,5.6,1.1,8.6
				c0,4.2-0.7,8-2,11.4s-3.5,6.2-6.3,8.3s-6.4,3.1-10.7,3.1H22.1c-0.6,0-1-0.2-1.4-0.6c-0.4-0.4-0.5-0.9-0.5-1.4v-41.7
				c0-0.5,0.2-1,0.5-1.4c0.4-0.4,0.8-0.6,1.4-0.6L38.7,124.6L38.7,124.6z M38,166.3c3.7,0,6.6-0.9,8.9-2.5c2.3-1.7,4-4,5-6.9
				s1.6-6.1,1.6-9.5c0-2.5-0.3-4.9-0.9-7.2s-1.5-4.3-2.7-6.1s-2.8-3.1-4.8-4.2s-4.3-1.5-7.1-1.5H23.8l0.5-0.5V167l-0.4-0.6L38,166.3
				L38,166.3z"/>
			<path class="st0" d="M118,128c0.5,0.3,0.8,0.8,0.9,1.3c0.1,0.5-0.1,1.1-0.5,1.6c-0.3,0.4-0.7,0.7-1.1,0.7c-0.5,0-0.9-0.1-1.4-0.3
				c-1.6-1.1-3.4-1.9-5.3-2.5c-1.9-0.6-3.9-0.9-6.1-0.9c-2.7,0-5.1,0.5-7.4,1.4s-4.3,2.3-6,4c-1.7,1.7-3,3.8-3.9,6.2s-1.4,5-1.4,7.9
				s0.5,5.6,1.4,8s2.3,4.5,4,6.2c1.7,1.7,3.7,3.1,6,4s4.7,1.4,7.3,1.4c2.1,0,4.1-0.3,6-0.9c1.9-0.6,3.7-1.4,5.3-2.5
				c0.4-0.3,0.9-0.4,1.4-0.3s0.9,0.3,1.2,0.8c0.3,0.5,0.5,1,0.4,1.6c-0.1,0.6-0.4,1-0.8,1.2c-1.1,0.7-2.4,1.4-3.8,2
				c-1.5,0.6-3,1.1-4.7,1.5s-3.3,0.5-4.9,0.5c-3.1,0-6.1-0.6-8.8-1.7c-2.8-1.1-5.2-2.7-7.3-4.8c-2.1-2.1-3.8-4.5-5-7.4
				s-1.8-6.1-1.8-9.6s0.6-6.5,1.8-9.3c1.2-2.8,2.8-5.3,4.9-7.4c2.1-2.1,4.5-3.7,7.3-4.9c2.8-1.2,5.8-1.8,8.9-1.8
				c2.5,0,4.9,0.3,7.2,1S116.1,126.7,118,128L118,128z"/>
			<path class="st0" d="M141.4,136.6c2.7,0,4.9,0.6,6.6,1.8s2.9,2.8,3.7,4.8c0.8,2,1.2,4.2,1.2,6.6v18.4c0,0.5-0.2,1-0.6,1.4
				s-0.9,0.6-1.4,0.6c-0.6,0-1.1-0.2-1.5-0.6c-0.4-0.4-0.6-0.9-0.6-1.4v-18.4c0-1.8-0.3-3.4-0.8-4.8c-0.5-1.4-1.4-2.6-2.6-3.4
				c-1.2-0.9-2.8-1.3-4.9-1.3c-1.8,0-3.6,0.4-5.2,1.3c-1.6,0.9-2.9,2-3.9,3.4s-1.5,3-1.5,4.8v18.4c0,0.5-0.2,1-0.6,1.4
				s-0.9,0.6-1.4,0.6c-0.6,0-1.1-0.2-1.5-0.6c-0.4-0.4-0.6-0.9-0.6-1.4v-44.3c0-0.5,0.2-1,0.6-1.4s0.9-0.6,1.4-0.6
				c0.6,0,1,0.2,1.4,0.6s0.6,0.8,0.6,1.4V145l-1.5,2.3c0.1-1.4,0.5-2.7,1.3-3.9c0.8-1.3,1.8-2.4,3-3.4s2.6-1.8,4-2.4
				S139.9,136.6,141.4,136.6L141.4,136.6z"/>
			<path class="st0" d="M178.3,170.8c-3.3,0-6.3-0.7-8.9-2.1c-2.6-1.4-4.6-3.4-6-6c-1.4-2.6-2.1-5.6-2.1-9c0-3.7,0.7-6.8,2.2-9.4
				c1.4-2.6,3.3-4.6,5.7-6s4.8-2.1,7.4-2.1c1.9,0,3.8,0.3,5.6,1s3.4,1.7,4.8,3c1.4,1.3,2.5,2.9,3.4,4.9s1.3,4.1,1.4,6.6
				c0,0.5-0.3,1-0.6,1.3c-0.4,0.4-0.9,0.6-1.4,0.6h-26.1l-0.8-3.5h25.7l-0.9,0.8v-1.3c-0.2-2-0.9-3.8-2-5.2
				c-1.1-1.4-2.5-2.5-4.1-3.3s-3.3-1.1-5-1.1c-1.3,0-2.6,0.3-4,0.8s-2.6,1.3-3.7,2.4s-2,2.5-2.7,4.2c-0.7,1.7-1,3.7-1,6.1
				c0,2.6,0.5,4.9,1.6,7c1,2.1,2.6,3.7,4.5,4.9s4.3,1.8,7.1,1.8c1.5,0,2.9-0.2,4.1-0.6s2.3-1,3.2-1.7s1.7-1.5,2.3-2.3
				c0.5-0.4,0.9-0.6,1.4-0.6c0.5,0,0.9,0.2,1.2,0.5c0.3,0.4,0.5,0.7,0.5,1.2c0,0.5-0.2,1-0.6,1.4c-1.3,1.6-3,2.9-5.1,4.1
				S180.8,170.8,178.3,170.8L178.3,170.8z"/>
			<path class="st0" d="M214.7,136.1c2.1,0,4,0.2,5.7,0.7c1.7,0.5,3.1,1.1,4.2,1.9s1.6,1.6,1.6,2.5c0,0.4-0.1,0.9-0.5,1.3
				c-0.3,0.4-0.7,0.6-1.2,0.6c-0.6,0-1-0.1-1.3-0.4c-0.3-0.2-0.6-0.5-0.9-0.9c-0.3-0.4-0.8-0.7-1.4-0.9c-0.6-0.3-1.4-0.6-2.4-0.8
				c-1.1-0.2-2.3-0.3-3.6-0.3c-2.4,0-4.6,0.6-6.6,1.8c-1.9,1.2-3.5,2.8-4.6,4.9c-1.1,2-1.7,4.3-1.7,6.9s0.5,4.9,1.6,7
				s2.6,3.7,4.5,4.9s4.1,1.8,6.7,1.8c1.7,0,3-0.1,4-0.5c1-0.3,1.8-0.6,2.4-1c0.9-0.5,1.5-0.9,1.9-1.4s0.9-0.7,1.5-0.7
				c0.6,0,1,0.2,1.3,0.5s0.4,0.8,0.4,1.3c0,0.7-0.5,1.5-1.5,2.3s-2.4,1.6-4.2,2.2s-3.8,0.9-6.2,0.9c-3.2,0-6.1-0.8-8.5-2.3
				s-4.4-3.6-5.7-6.2s-2.1-5.6-2.1-8.9s0.7-6.1,2.1-8.7s3.3-4.7,5.8-6.3S211.4,136.1,214.7,136.1L214.7,136.1z"/>
			<path class="st0" d="M236.1,170.2c-0.6,0-1-0.2-1.4-0.6c-0.4-0.4-0.6-0.9-0.6-1.4v-44.3c0-0.5,0.2-1,0.6-1.4
				c0.4-0.4,0.8-0.6,1.4-0.6s1,0.2,1.4,0.6c0.4,0.4,0.6,0.8,0.6,1.4v44.3c0,0.5-0.2,1-0.6,1.4C237.2,170,236.7,170.2,236.1,170.2z
				 M258.2,136.8c0.5,0,1,0.2,1.4,0.6c0.4,0.4,0.6,0.9,0.6,1.3c0,0.6-0.2,1.1-0.7,1.5l-21.9,18.6l-0.2-4.6l19.5-16.8
				C257.3,137,257.7,136.8,258.2,136.8L258.2,136.8z M258.8,170.2c-0.6,0-1.1-0.2-1.5-0.7l-14.8-15.8l2.9-2.7l14.7,15.7
				c0.4,0.4,0.6,0.9,0.6,1.5c0,0.6-0.2,1.1-0.7,1.4C259.6,170,259.1,170.2,258.8,170.2L258.8,170.2z"/>
		</g>
	</g>
</g>
</svg>
