<svg width="67" height="40" viewBox="0 0 67 40" xmlns="http://www.w3.org/2000/svg"><title>master</title><path d="M65.12 30.536a.651.651 0 0 0-.316-.085.645.645 0 0 0-.318.085.598.598 0 0 0-.242.24.65.65 0 0 0 .563.967.646.646 0 0 0 .312-1.207zm-.154.922l-.06-.11a.577.577 0 0 0-.119-.165.153.153 0 0 0-.088-.025h-.065v.297h-.113v-.697h.24c.083 0 .142.007.175.021a.156.156 0 0 1 .088.068.175.175 0 0 1 .032.102c0 .05-.02.093-.054.133a.224.224 0 0 1-.145.064.15.15 0 0 1 .06.037.813.813 0 0 1 .103.137l.086.136h-.14v.002zm-.066-.424c-.025.024-.067.03-.132.03h-.138v-.208h.13c.053 0 .088.004.11.013.022.008.034.023.048.033.011.02.017.034.017.056a.092.092 0 0 1-.035.076zm-.636-7.024a.485.485 0 0 0-.201.2.556.556 0 0 0-.073.27c0 .092.025.183.07.267a.55.55 0 0 0 .468.276.542.542 0 0 0 .266-.075.536.536 0 0 0 .199-.738.52.52 0 0 0-.202-.2.526.526 0 0 0-.527 0zm.487.217a.16.16 0 0 1 .032.102c0 .051-.02.094-.055.133-.036.04-.086.056-.144.063a.191.191 0 0 1 .06.036c.029.029.062.07.102.136l.085.138h-.138l-.062-.107a.557.557 0 0 0-.116-.163.14.14 0 0 0-.09-.026h-.064v.295h-.116v-.695h.241c.082 0 .142.007.177.022a.197.197 0 0 1 .088.066zm-.265.006a.39.39 0 0 1 .113.013c.021.01.036.021.047.035.013.02.018.033.018.056 0 .03-.012.057-.033.078-.026.02-.069.029-.134.029h-.136v-.21h.125v-.001zm-14.773-2.858c.363 0 .402.037.464.05.04.356-.225 2.036-1.506 2.036-.662 0-.833-.502-.833-.802 0-.584.315-1.284 1.875-1.284zm-34.508 0c.364 0 .402.037.463.05.042.356-.225 2.036-1.506 2.036-.66 0-.833-.502-.833-.802 0-.584.316-1.284 1.876-1.284zM33.398 5.17A19.921 19.921 0 0 0 19.994.004C8.889.076 0 9.006 0 20c0 11.037 8.958 19.994 19.994 19.994 5.154 0 9.855-1.954 13.403-5.166A19.912 19.912 0 0 0 46.817 40c11.043-.004 19.99-8.959 19.988-20 0-11.052-8.953-20.003-19.996-20a19.915 19.915 0 0 0-13.41 5.17zM8.162 25.092l1.212-7.645-2.735 7.645H5.173l-.19-7.645-1.296 7.645H1.633l1.702-10.138h3.107l.109 6.22 2.098-6.22h3.37l-1.68 10.138H8.163zm7.262-.011l.07-.815c-.033.004-.681.978-2.183.978-.786 0-2.055-.43-2.055-2.294 0-2.371 1.933-3.158 3.775-3.158.29 0 .914.053.914.053s.07-.145.07-.537c0-.644-.579-.732-1.372-.732-1.397 0-2.32.374-2.32.374l.31-1.835s1.12-.469 2.577-.469c.755 0 2.924.08 2.924 2.567l-.835 5.862h-1.875v.006zm7.923-2.586c0 2.829-2.74 2.707-3.22 2.707-1.786 0-2.337-.247-2.388-.26l.284-1.863c.002-.016.896.325 1.89.325.575 0 1.32-.057 1.32-.743 0-1.026-2.665-.78-2.665-3.218 0-2.15 1.597-2.779 3.172-2.779 1.217 0 1.964.167 1.964.167l-.269 1.879s-1.154-.096-1.454-.096c-.757 0-1.17.166-1.17.696 0 1.063 2.536.54 2.536 3.185zm3.291.74c.19 0 .403-.065.55-.065l-.267 1.809c-.214.06-.82.274-1.596.28-.992.008-1.697-.546-1.697-1.804 0-.845 1.21-7.8 1.257-7.846h2.128l-.216 1.244h1.062l-.272 2.004H26.46l-.598 3.693c-.046.292.035.685.776.685zm4.682-6.618c2.336 0 3.036 1.71 3.036 3.113 0 .562-.282 1.941-.282 1.941H29.75s-.4 1.704 1.885 1.704c1.072 0 2.261-.525 2.261-.525l-.375 2.053s-.687.35-2.249.35c-1.692 0-3.677-.716-3.677-3.723.001-2.605 1.585-4.911 3.726-4.913zm5.163 8.49h-2.185l1.328-8.251h1.982l-.19 1.196s.706-1.301 1.66-1.301c.276 0 .41.028.41.028-.283.576-.532 1.104-.791 2.469-1.48-.526-1.592 2.333-2.214 5.86zm8.324-.128s-1.145.292-1.862.292c-2.54 0-3.83-1.753-3.83-4.408 0-4.004 2.39-6.137 4.847-6.137 1.11 0 2.397.521 2.397.521l-.348 2.256s-.87-.609-1.953-.609c-1.448 0-2.748 1.382-2.748 3.894 0 1.238.606 2.39 2.118 2.39.718 0 1.76-.522 1.76-.522l-.38 2.323zm5.124.102l.072-.815c-.034.004-.683.978-2.183.978-.787 0-2.056-.43-2.056-2.294 0-2.371 1.934-3.158 3.774-3.158.29 0 .916.053.916.053s.072-.144.072-.535c0-.645-.58-.733-1.374-.733-1.397 0-2.319.374-2.319.374l.31-1.835s1.12-.469 2.579-.469c.753 0 2.924.08 2.923 2.567l-.836 5.863c-.002.004-1.878.004-1.878.004zm4.424.026H52.17l1.328-8.251h1.984l-.19 1.196s.707-1.301 1.66-1.301c.278 0 .41.028.41.028-.281.576-.534 1.104-.792 2.469-1.48-.526-1.593 2.333-2.215 5.86zm10.734-.95a.64.64 0 0 1 0 .643.636.636 0 0 1-.56.326.636.636 0 0 1-.557-.327.64.64 0 0 1 0-.642.655.655 0 0 1 .557-.326c.11 0 .215.03.317.086a.59.59 0 0 1 .243.24zm-3.106-6.343l.46-2.848 2.134-.004-1.627 10.122h-2.07l.092-.76s-.706.89-1.984.89c-1.77 0-2.637-1.708-2.637-3.455 0-2.7 1.625-5.055 3.575-5.055 1.255.003 2.057 1.11 2.057 1.11zm-29.676 2.169h-2.363c0-.14.224-1.46 1.384-1.46 1.201 0 .98 1.352.98 1.46zm27.987-1.228c.766 0 1.16.526 1.16 1.764 0 1.122-.557 2.627-1.71 2.627-.767 0-1.125-.646-1.125-1.653-.002-1.65.739-2.738 1.675-2.738z" fill="#346275" fill-rule="evenodd"/></svg>