<?xml version="1.0" encoding="utf-8"?>
<!-- Generator: Adobe Illustrator 24.1.2, SVG Export Plug-In . SVG Version: 6.00 Build 0)  -->
<svg version="1.1" id="Layer_1" xmlns="http://www.w3.org/2000/svg" xmlns:xlink="http://www.w3.org/1999/xlink" x="0px" y="0px"
	 viewBox="0 0 54 19" style="enable-background:new 0 0 54 19;" xml:space="preserve">
<style type="text/css">
	.st0{filter:url(#Adobe_OpacityMaskFilter);}
	.st1{fill-rule:evenodd;clip-rule:evenodd;fill:#FFFFFF;}
	.st2{mask:url(#mask-2_1_);fill:#FCF5A3;}
	.st3{filter:url(#Adobe_OpacityMaskFilter_1_);}
	.st4{mask:url(#mask-4_1_);fill:#FCF5A3;}
	.st5{filter:url(#Adobe_OpacityMaskFilter_2_);}
	.st6{mask:url(#mask-6_1_);fill:#FCF5A3;}
	.st7{filter:url(#Adobe_OpacityMaskFilter_3_);}
	.st8{mask:url(#mask-8_1_);fill:#FCF5A3;}
	.st9{filter:url(#Adobe_OpacityMaskFilter_4_);}
	.st10{mask:url(#mask-10_1_);fill:#FCF5A3;}
	.st11{filter:url(#Adobe_OpacityMaskFilter_5_);}
	.st12{mask:url(#mask-12_1_);fill:#FCF5A3;}
	.st13{filter:url(#Adobe_OpacityMaskFilter_6_);}
	.st14{mask:url(#mask-14_1_);fill:#FCF5A3;}
	.st15{filter:url(#Adobe_OpacityMaskFilter_7_);}
	.st16{mask:url(#mask-16_1_);fill:#FCF5A3;}
	.st17{filter:url(#Adobe_OpacityMaskFilter_8_);}
	.st18{mask:url(#mask-18_1_);fill:#FCF5A3;}
	.st19{filter:url(#Adobe_OpacityMaskFilter_9_);}
	.st20{mask:url(#mask-20_1_);fill:#FCF5A3;}
	.st21{fill:#FCF5A3;}
	.st22{filter:url(#Adobe_OpacityMaskFilter_10_);}
	.st23{mask:url(#mask-22_1_);fill:#FCF5A3;}
	.st24{filter:url(#Adobe_OpacityMaskFilter_11_);}
	.st25{mask:url(#mask-24_1_);fill:#FCF5A3;}
	.st26{filter:url(#Adobe_OpacityMaskFilter_12_);}
	.st27{mask:url(#mask-26_1_);fill:#FCF5A3;}
	.st28{filter:url(#Adobe_OpacityMaskFilter_13_);}
	.st29{mask:url(#mask-28_1_);fill:#FCF5A3;}
	.st30{filter:url(#Adobe_OpacityMaskFilter_14_);}
	.st31{mask:url(#mask-30_1_);fill:#FCF5A3;}
	.st32{filter:url(#Adobe_OpacityMaskFilter_15_);}
	.st33{mask:url(#mask-32_1_);fill:#FCF5A3;}
	.st34{filter:url(#Adobe_OpacityMaskFilter_16_);}
	.st35{mask:url(#mask-34_1_);fill:#FCF5A3;}
	.st36{filter:url(#Adobe_OpacityMaskFilter_17_);}
	.st37{mask:url(#mask-36_1_);fill:#FCF5A3;}
	.st38{filter:url(#Adobe_OpacityMaskFilter_18_);}
	.st39{mask:url(#mask-38_1_);fill:#FCF5A3;}
	.st40{filter:url(#Adobe_OpacityMaskFilter_19_);}
	.st41{mask:url(#mask-40_1_);fill:#FCF5A3;}
</style>
<desc>Created with Sketch.</desc>
<g id="Page-1">
	<g id="mc-secure">
		<g id="Group">
			<g id="Clipped">
				<g>
					<g id="SVGID_1_">
					</g>
					<defs>
						<filter id="Adobe_OpacityMaskFilter" filterUnits="userSpaceOnUse" x="0.8" y="10.1" width="5.3" height="8.6">
							<feColorMatrix  type="matrix" values="1 0 0 0 0  0 1 0 0 0  0 0 1 0 0  0 0 0 1 0"/>
						</filter>
					</defs>
					<mask maskUnits="userSpaceOnUse" x="0.8" y="10.1" width="5.3" height="8.6" id="mask-2_1_">
						<g class="st0">
							<rect id="path-1_1_" x="0.7" y="0.1" class="st1" width="53" height="18.7"/>
						</g>
					</mask>
					<path id="Path" class="st2" d="M5.6,12.1c-0.3-0.2-0.7-0.4-1.3-0.4s-1.1,0.1-1.1,0.8c0,1.2,2.3,0.7,2.3,3.3
						c0,2.3-1.5,2.9-2.9,2.9c-0.6,0-1.3-0.2-1.8-0.4l0.4-1.7c0.3,0.3,0.9,0.5,1.5,0.5c0.5,0,1.3-0.1,1.3-1c0-1.3-2.3-0.8-2.3-3.2
						c0-2.2,1.3-2.8,2.6-2.8c0.7,0,1.4,0.1,1.8,0.4L5.6,12.1z"/>
				</g>
				<g>
					<g id="SVGID_2_">
					</g>
					<defs>
						<filter id="Adobe_OpacityMaskFilter_1_" filterUnits="userSpaceOnUse" x="6" y="11.8" width="4.8" height="7">
							<feColorMatrix  type="matrix" values="1 0 0 0 0  0 1 0 0 0  0 0 1 0 0  0 0 0 1 0"/>
						</filter>
					</defs>
					<mask maskUnits="userSpaceOnUse" x="6" y="11.8" width="4.8" height="7" id="mask-4_1_">
						<g class="st3">
							<rect id="path-3_1_" x="0.7" y="0.1" class="st1" width="53" height="18.7"/>
						</g>
					</mask>
					<path id="Shape" class="st4" d="M9.3,14.5c0-0.1,0-0.3,0-0.3c0-0.5-0.3-0.9-0.7-0.9c-0.5,0-0.9,0.4-1,1.2H9.3z M10.2,18.5
						c-0.5,0.2-1,0.3-1.6,0.3c-1.7,0-2.6-1-2.6-3c0-2.3,1.2-4,2.7-4c1.3,0,2.1,0.9,2.1,2.4c0,0.5-0.1,1-0.2,1.6H7.5
						c0,0.1,0,0.1,0,0.2c0,0.8,0.5,1.2,1.4,1.2c0.6,0,1.1-0.1,1.6-0.4L10.2,18.5z"/>
				</g>
				<g>
					<g id="SVGID_3_">
					</g>
					<defs>
						<filter id="Adobe_OpacityMaskFilter_2_" filterUnits="userSpaceOnUse" x="11.1" y="11.9" width="4.5" height="6.9">
							<feColorMatrix  type="matrix" values="1 0 0 0 0  0 1 0 0 0  0 0 1 0 0  0 0 0 1 0"/>
						</filter>
					</defs>
					<mask maskUnits="userSpaceOnUse" x="11.1" y="11.9" width="4.5" height="6.9" id="mask-6_1_">
						<g class="st5">
							<rect id="path-5_1_" x="0.7" y="0.1" class="st1" width="53" height="18.7"/>
						</g>
					</mask>
					<path id="Path_1_" class="st6" d="M14.7,18.5c-0.3,0.2-0.8,0.3-1.4,0.3c-1.4,0-2.2-1.4-2.2-3c0-2.2,1.2-3.9,3-3.9
						c0.4,0,1,0.2,1.5,0.4l-0.3,1.6c-0.3-0.2-0.7-0.4-1-0.4c-0.8,0-1.4,0.8-1.4,2.1c0,0.8,0.4,1.4,1.1,1.4c0.4,0,0.7-0.1,1-0.3
						L14.7,18.5z"/>
				</g>
				<g>
					<g id="SVGID_4_">
					</g>
					<defs>
						<filter id="Adobe_OpacityMaskFilter_3_" filterUnits="userSpaceOnUse" x="15.7" y="11.8" width="5.6" height="6.8">
							<feColorMatrix  type="matrix" values="1 0 0 0 0  0 1 0 0 0  0 0 1 0 0  0 0 0 1 0"/>
						</filter>
					</defs>
					<mask maskUnits="userSpaceOnUse" x="15.7" y="11.8" width="5.6" height="6.8" id="mask-8_1_">
						<g class="st7">
							<rect id="path-7_1_" x="0.7" y="0.1" class="st1" width="53" height="18.7"/>
						</g>
					</mask>
					<path id="Path_2_" class="st8" d="M20.6,16.8c-0.1,0.6-0.2,1.1-0.2,1.7h-1.5l0.1-1.1l0,0c-0.5,0.7-1,1.2-1.8,1.2
						c-0.9,0-1.5-1-1.5-2.3c0-0.4,0-0.7,0.1-1.4l0.4-3.1h1.7l-0.4,3.1c0,0.3-0.1,0.7-0.1,1c0,0.4,0.2,0.8,0.6,0.8
						c0.7,0,1.1-0.8,1.2-1.8l0.5-3h1.6L20.6,16.8z"/>
				</g>
				<g>
					<g id="SVGID_5_">
					</g>
					<defs>
						<filter id="Adobe_OpacityMaskFilter_4_" filterUnits="userSpaceOnUse" x="21" y="11.8" width="3.8" height="6.8">
							<feColorMatrix  type="matrix" values="1 0 0 0 0  0 1 0 0 0  0 0 1 0 0  0 0 0 1 0"/>
						</filter>
					</defs>
					<mask maskUnits="userSpaceOnUse" x="21" y="11.8" width="3.8" height="6.8" id="mask-10_1_">
						<g class="st9">
							<rect id="path-9_1_" x="0.7" y="0.1" class="st1" width="53" height="18.7"/>
						</g>
					</mask>
					<path id="Path_3_" class="st10" d="M24.8,11.8c0,0-0.1,0-0.2,0c-0.5,0-0.8,0.3-1.3,1.1l0.1-1H22l-1,6.7h1.6
						c0.6-4.1,0.7-4.8,1.5-4.8c0,0,0,0,0.1,0C24.4,13,24.6,12.4,24.8,11.8L24.8,11.8z"/>
				</g>
				<g>
					<g id="SVGID_6_">
					</g>
					<defs>
						<filter id="Adobe_OpacityMaskFilter_5_" filterUnits="userSpaceOnUse" x="24.4" y="11.8" width="4.8" height="7">
							<feColorMatrix  type="matrix" values="1 0 0 0 0  0 1 0 0 0  0 0 1 0 0  0 0 0 1 0"/>
						</filter>
					</defs>
					<mask maskUnits="userSpaceOnUse" x="24.4" y="11.8" width="4.8" height="7" id="mask-12_1_">
						<g class="st11">
							<rect id="path-11_1_" x="0.7" y="0.1" class="st1" width="53" height="18.7"/>
						</g>
					</mask>
					<path id="Shape_1_" class="st12" d="M27.8,14.5c0-0.1,0-0.3,0-0.3c0-0.5-0.3-0.9-0.7-0.9c-0.5,0-0.9,0.4-1,1.2H27.8z
						 M28.7,18.5c-0.5,0.2-1,0.3-1.6,0.3c-1.7,0-2.7-1-2.7-3c0-2.3,1.2-4,2.7-4c1.3,0,2.1,0.9,2.1,2.4c0,0.5-0.1,1-0.2,1.6h-3
						c0,0.1,0,0.1,0,0.2c0,0.8,0.5,1.2,1.4,1.2c0.6,0,1.1-0.1,1.6-0.4L28.7,18.5z"/>
				</g>
				<g>
					<g id="SVGID_7_">
					</g>
					<defs>
						<filter id="Adobe_OpacityMaskFilter_6_" filterUnits="userSpaceOnUse" x="29.8" y="10.3" width="5.3" height="8.5">
							<feColorMatrix  type="matrix" values="1 0 0 0 0  0 1 0 0 0  0 0 1 0 0  0 0 0 1 0"/>
						</filter>
					</defs>
					<mask maskUnits="userSpaceOnUse" x="29.8" y="10.3" width="5.3" height="8.5" id="mask-14_1_">
						<g class="st13">
							<rect id="path-13_1_" x="0.7" y="0.1" class="st1" width="53" height="18.7"/>
						</g>
					</mask>
					<path id="Path_4_" class="st14" d="M35.1,10.6l-0.3,1.8c-0.6-0.3-1-0.4-1.4-0.4c-1.2,0-2,1.3-2,3.1c0,1.2,0.5,2,1.5,2
						c0.4,0,0.8-0.1,1.3-0.4l-0.3,1.9c-0.6,0.2-1,0.2-1.4,0.2c-1.7,0-2.7-1.4-2.7-3.5c0-2.9,1.4-5,3.5-5c0.3,0,0.5,0,0.7,0.1
						l0.6,0.2C34.9,10.5,35,10.5,35.1,10.6"/>
				</g>
				<g>
					<g id="SVGID_8_">
					</g>
					<defs>
						<filter id="Adobe_OpacityMaskFilter_7_" filterUnits="userSpaceOnUse" x="34.5" y="11.8" width="5.4" height="6.9">
							<feColorMatrix  type="matrix" values="1 0 0 0 0  0 1 0 0 0  0 0 1 0 0  0 0 0 1 0"/>
						</filter>
					</defs>
					<mask maskUnits="userSpaceOnUse" x="34.5" y="11.8" width="5.4" height="6.9" id="mask-16_1_">
						<g class="st15">
							<rect id="path-15_1_" x="0.7" y="0.1" class="st1" width="53" height="18.7"/>
						</g>
					</mask>
					<path id="Shape_2_" class="st16" d="M39.9,14.8c0-1.7-0.8-3-2.4-3c-1.8,0-3,1.6-3,3.9c0,1.7,0.7,3,2.4,3
						C38.7,18.8,39.9,17.6,39.9,14.8 M38.3,14.8c0,1.5-0.5,2.4-1.2,2.4c-0.5,0-0.9-0.6-0.9-1.5c0-1.1,0.5-2.3,1.2-2.3
						C38.1,13.4,38.3,14.1,38.3,14.8"/>
				</g>
				<g>
					<g id="SVGID_9_">
					</g>
					<defs>
						<filter id="Adobe_OpacityMaskFilter_8_" filterUnits="userSpaceOnUse" x="40.5" y="10.2" width="5.8" height="8.3">
							<feColorMatrix  type="matrix" values="1 0 0 0 0  0 1 0 0 0  0 0 1 0 0  0 0 0 1 0"/>
						</filter>
					</defs>
					<mask maskUnits="userSpaceOnUse" x="40.5" y="10.2" width="5.8" height="8.3" id="mask-18_1_">
						<g class="st17">
							<rect id="path-17_1_" x="0.7" y="0.1" class="st1" width="53" height="18.7"/>
						</g>
					</mask>
					<path id="Shape_3_" class="st18" d="M42.8,16.9c0.7,0,1.2-0.9,1.2-2.2c0-0.8-0.3-1.3-0.8-1.3c-0.7,0-1.2,0.9-1.2,2.2
						C42,16.5,42.3,16.9,42.8,16.9L42.8,16.9z M45.2,18.5h-1.5l0.1-0.7c-0.4,0.5-0.9,0.7-1.4,0.7c-1.1,0-1.9-1.1-1.9-2.8
						c0-2.2,1.2-4.1,2.5-4.1c0.6,0,1.1,0.3,1.5,0.9l0.3-2.3h1.5L45.2,18.5z"/>
				</g>
				<g>
					<g id="SVGID_10_">
					</g>
					<defs>
						<filter id="Adobe_OpacityMaskFilter_9_" filterUnits="userSpaceOnUse" x="46.2" y="11.8" width="4.8" height="7">
							<feColorMatrix  type="matrix" values="1 0 0 0 0  0 1 0 0 0  0 0 1 0 0  0 0 0 1 0"/>
						</filter>
					</defs>
					<mask maskUnits="userSpaceOnUse" x="46.2" y="11.8" width="4.8" height="7" id="mask-20_1_">
						<g class="st19">
							<rect id="path-19_1_" x="0.7" y="0.1" class="st1" width="53" height="18.7"/>
						</g>
					</mask>
					<path id="Shape_4_" class="st20" d="M49.6,14.5c0-0.1,0-0.3,0-0.3c0-0.5-0.3-0.9-0.7-0.9c-0.5,0-0.9,0.4-1,1.2H49.6z
						 M50.5,18.5c-0.5,0.2-1,0.3-1.6,0.3c-1.7,0-2.7-1-2.7-3c0-2.3,1.2-4,2.7-4c1.3,0,2.1,0.9,2.1,2.4c0,0.5-0.1,1-0.2,1.6h-3.1
						c0,0.1,0,0.1,0,0.2c0,0.8,0.5,1.2,1.4,1.2c0.6,0,1.1-0.1,1.6-0.4L50.5,18.5z"/>
				</g>
			</g>
			<path id="Shape_5_" class="st21" d="M51.4,17.1v0.2h0.4v1.1H52v-1.1h0.4v-0.2H51.4z M53.3,17.1l-0.2,1.1l0,0l-0.2-1.1h-0.4v1.3
				h0.2v-1.1l0,0l0.2,1.1h0.2l0.2-1.1l0,0v1.1h0.2v-1.3H53.3z"/>
			<polygon id="Path_5_" class="st21" points="6.4,0.3 4.8,5.3 4.7,0.3 2.3,0.3 1,8.5 2.6,8.5 3.6,2.2 3.7,8.5 4.9,8.5 7,2.2 6,8.5 
				7.7,8.5 9,0.3 			"/>
			<g id="Clipped_1_">
				<g>
					<g id="SVGID_11_">
					</g>
					<defs>
						<filter id="Adobe_OpacityMaskFilter_10_" filterUnits="userSpaceOnUse" x="8.6" y="1.6" width="5.3" height="7">
							<feColorMatrix  type="matrix" values="1 0 0 0 0  0 1 0 0 0  0 0 1 0 0  0 0 0 1 0"/>
						</filter>
					</defs>
					<mask maskUnits="userSpaceOnUse" x="8.6" y="1.6" width="5.3" height="7" id="mask-22_1_">
						<g class="st22">
							<rect id="path-21_1_" x="0.7" y="0.1" class="st1" width="53" height="18.7"/>
						</g>
					</mask>
					<path id="Shape_6_" class="st23" d="M13.2,8.5h-1.4V7.8c-0.4,0.6-1,0.8-1.7,0.8c-0.9,0-1.5-0.7-1.5-1.8c0-1.6,1.1-2.6,2.9-2.6
						c0.2,0,0.4,0,0.7,0c0.1-0.2,0.1-0.3,0.1-0.4c0-0.4-0.3-0.6-1.1-0.6c-0.5,0-1,0.1-1.4,0.2L9.6,3.5H9.5L9.7,2
						c0.8-0.3,1.4-0.4,2-0.4c1.4,0,2.2,0.7,2.2,2c0,0.3,0,0.6-0.1,1.3l-0.3,2.4l-0.1,0.4V8v0.2L13.2,8.5z M12,5.5
						c-0.2,0-0.3,0-0.4,0c-0.9,0-1.4,0.3-1.4,1c0,0.4,0.2,0.7,0.6,0.7C11.5,7.2,12,6.5,12,5.5L12,5.5z"/>
				</g>
				<g>
					<g id="SVGID_12_">
					</g>
					<defs>
						<filter id="Adobe_OpacityMaskFilter_11_" filterUnits="userSpaceOnUse" x="13.8" y="1.8" width="4.5" height="6.8">
							<feColorMatrix  type="matrix" values="1 0 0 0 0  0 1 0 0 0  0 0 1 0 0  0 0 0 1 0"/>
						</filter>
					</defs>
					<mask maskUnits="userSpaceOnUse" x="13.8" y="1.8" width="4.5" height="6.8" id="mask-24_1_">
						<g class="st24">
							<rect id="path-23_1_" x="0.7" y="0.1" class="st1" width="53" height="18.7"/>
						</g>
					</mask>
					<path id="Path_6_" class="st25" d="M14.4,3.9c0,0.8,0.4,1.4,1.3,1.9c0.7,0.3,0.8,0.4,0.8,0.7c0,0.4-0.3,0.6-1,0.6
						c-0.5,0-1-0.1-1.5-0.3l-0.2,1.5h0.1l0.3,0.1c0.1,0,0.2,0,0.4,0.1c0.4,0,0.7,0.1,0.9,0.1c1.8,0,2.6-0.7,2.6-2.2
						c0-0.9-0.3-1.5-1.2-1.9c-0.7-0.3-0.8-0.4-0.8-0.7c0-0.4,0.3-0.5,0.8-0.5c0.3,0,0.8,0,1.2,0.1l0.2-1.5c-0.4-0.1-1.1-0.1-1.5-0.1
						C15.1,1.7,14.4,2.7,14.4,3.9"/>
				</g>
				<g>
					<g id="SVGID_13_">
					</g>
					<defs>
						<filter id="Adobe_OpacityMaskFilter_12_" filterUnits="userSpaceOnUse" x="18.5" y="0.9" width="3.3" height="7.7">
							<feColorMatrix  type="matrix" values="1 0 0 0 0  0 1 0 0 0  0 0 1 0 0  0 0 0 1 0"/>
						</filter>
					</defs>
					<mask maskUnits="userSpaceOnUse" x="18.5" y="0.9" width="3.3" height="7.7" id="mask-26_1_">
						<g class="st26">
							<rect id="path-25_1_" x="0.7" y="0.1" class="st1" width="53" height="18.7"/>
						</g>
					</mask>
					<path id="Path_7_" class="st27" d="M21,8.4c-0.5,0.2-0.8,0.2-1.2,0.2c-0.9,0-1.3-0.5-1.3-1.5c0-0.2,0-0.4,0-0.6l0.1-0.6
						l0.1-0.5l0.7-4.5h1.7l-0.2,1h0.9l-0.2,1.6h-0.9l-0.4,2.8c0,0.1,0,0.2,0,0.3c0,0.3,0.2,0.5,0.6,0.5c0.2,0,0.3,0,0.4-0.1L21,8.4z
						"/>
				</g>
				<g>
					<g id="SVGID_14_">
					</g>
					<defs>
						<filter id="Adobe_OpacityMaskFilter_13_" filterUnits="userSpaceOnUse" x="21.8" y="1.6" width="5.2" height="7">
							<feColorMatrix  type="matrix" values="1 0 0 0 0  0 1 0 0 0  0 0 1 0 0  0 0 0 1 0"/>
						</filter>
					</defs>
					<mask maskUnits="userSpaceOnUse" x="21.8" y="1.6" width="5.2" height="7" id="mask-28_1_">
						<g class="st28">
							<rect id="path-27_1_" x="0.7" y="0.1" class="st1" width="53" height="18.7"/>
						</g>
					</mask>
					<path id="Shape_7_" class="st29" d="M25.4,4.4c0-0.1,0-0.3,0-0.3c0-0.5-0.3-0.9-0.8-0.9s-0.9,0.4-1.1,1.2H25.4z M26.3,8.3
						c-0.6,0.2-1.1,0.3-1.7,0.3c-1.9,0-2.8-1-2.8-3c0-2.3,1.2-4,2.9-4C26.1,1.6,27,2.5,27,4c0,0.5-0.1,1-0.2,1.6h-3.3
						c0,0.1,0,0.1,0,0.2C23.5,6.6,24,7,25,7c0.6,0,1.1-0.1,1.7-0.4L26.3,8.3z"/>
				</g>
				<g>
					<g id="SVGID_15_">
					</g>
					<defs>
						<filter id="Adobe_OpacityMaskFilter_14_" filterUnits="userSpaceOnUse" x="27" y="1.7" width="4" height="6.8">
							<feColorMatrix  type="matrix" values="1 0 0 0 0  0 1 0 0 0  0 0 1 0 0  0 0 0 1 0"/>
						</filter>
					</defs>
					<mask maskUnits="userSpaceOnUse" x="27" y="1.7" width="4" height="6.8" id="mask-30_1_">
						<g class="st30">
							<rect id="path-29_1_" x="0.7" y="0.1" class="st1" width="53" height="18.7"/>
						</g>
					</mask>
					<path id="Path_8_" class="st31" d="M31,1.7c-0.1,0-0.1,0-0.2,0c-0.6,0-0.9,0.3-1.4,1.1l0.1-1H28l-1,6.7h1.7
						c0.6-4.1,0.8-4.8,1.6-4.8h0.1C30.6,2.9,30.8,2.3,31,1.7L31,1.7z"/>
				</g>
				<g>
					<g id="SVGID_16_">
					</g>
					<defs>
						<filter id="Adobe_OpacityMaskFilter_15_" filterUnits="userSpaceOnUse" x="30.9" y="0.2" width="5.6" height="8.5">
							<feColorMatrix  type="matrix" values="1 0 0 0 0  0 1 0 0 0  0 0 1 0 0  0 0 0 1 0"/>
						</filter>
					</defs>
					<mask maskUnits="userSpaceOnUse" x="30.9" y="0.2" width="5.6" height="8.5" id="mask-32_1_">
						<g class="st32">
							<rect id="path-31_1_" x="0.7" y="0.1" class="st1" width="53" height="18.7"/>
						</g>
					</mask>
					<path id="Path_9_" class="st33" d="M36.5,0.5l-0.3,1.8c-0.6-0.3-1-0.4-1.5-0.4c-1.2,0-2.1,1.3-2.1,3.1c0,1.2,0.6,2,1.6,2
						c0.4,0,0.9-0.1,1.4-0.4l-0.3,1.9c-0.6,0.2-1,0.2-1.5,0.2c-1.8,0-2.9-1.4-2.9-3.5c0-2.9,1.5-5,3.8-5c0.3,0,0.5,0,0.7,0.1
						l0.7,0.2C36.3,0.5,36.4,0.5,36.5,0.5"/>
				</g>
				<g>
					<g id="SVGID_17_">
					</g>
					<defs>
						<filter id="Adobe_OpacityMaskFilter_16_" filterUnits="userSpaceOnUse" x="36" y="1.6" width="5.3" height="7">
							<feColorMatrix  type="matrix" values="1 0 0 0 0  0 1 0 0 0  0 0 1 0 0  0 0 0 1 0"/>
						</filter>
					</defs>
					<mask maskUnits="userSpaceOnUse" x="36" y="1.6" width="5.3" height="7" id="mask-34_1_">
						<g class="st34">
							<rect id="path-33_1_" x="0.7" y="0.1" class="st1" width="53" height="18.7"/>
						</g>
					</mask>
					<path id="Shape_8_" class="st35" d="M40.6,8.5h-1.4V7.8c-0.4,0.6-1,0.8-1.7,0.8c-0.9,0-1.5-0.7-1.5-1.8c0-1.6,1.1-2.6,2.9-2.6
						c0.2,0,0.4,0,0.7,0c0.1-0.2,0.1-0.3,0.1-0.4c0-0.4-0.3-0.6-1.1-0.6c-0.5,0-1,0.1-1.4,0.2L37,3.5h-0.1L37.1,2
						c0.8-0.3,1.4-0.4,2-0.4c1.4,0,2.2,0.7,2.2,2c0,0.3,0,0.6-0.1,1.3l-0.4,2.4l-0.1,0.4V8v0.2L40.6,8.5z M39.4,5.5
						c-0.2,0-0.3,0-0.4,0c-1,0-1.4,0.3-1.4,1c0,0.4,0.2,0.7,0.6,0.7C38.9,7.2,39.4,6.5,39.4,5.5L39.4,5.5z"/>
				</g>
				<g>
					<g id="SVGID_18_">
					</g>
					<defs>
						<filter id="Adobe_OpacityMaskFilter_17_" filterUnits="userSpaceOnUse" x="41.3" y="1.7" width="4" height="6.8">
							<feColorMatrix  type="matrix" values="1 0 0 0 0  0 1 0 0 0  0 0 1 0 0  0 0 0 1 0"/>
						</filter>
					</defs>
					<mask maskUnits="userSpaceOnUse" x="41.3" y="1.7" width="4" height="6.8" id="mask-36_1_">
						<g class="st36">
							<rect id="path-35_1_" x="0.7" y="0.1" class="st1" width="53" height="18.7"/>
						</g>
					</mask>
					<path id="Path_10_" class="st37" d="M45.3,1.7c-0.1,0-0.1,0-0.2,0c-0.5,0-0.9,0.3-1.4,1.1l0.1-1h-1.5l-1,6.7H43
						c0.6-4.1,0.8-4.8,1.6-4.8c0.1,0,0,0,0.1,0C44.9,2.9,45.1,2.3,45.3,1.7L45.3,1.7z"/>
				</g>
				<g>
					<g id="SVGID_19_">
					</g>
					<defs>
						<filter id="Adobe_OpacityMaskFilter_18_" filterUnits="userSpaceOnUse" x="44.8" y="0.2" width="6.3" height="8.3">
							<feColorMatrix  type="matrix" values="1 0 0 0 0  0 1 0 0 0  0 0 1 0 0  0 0 0 1 0"/>
						</filter>
					</defs>
					<mask maskUnits="userSpaceOnUse" x="44.8" y="0.2" width="6.3" height="8.3" id="mask-38_1_">
						<g class="st38">
							<rect id="path-37_1_" x="0.7" y="0.1" class="st1" width="53" height="18.7"/>
						</g>
					</mask>
					<path id="Shape_9_" class="st39" d="M47.4,6.9c0.8,0,1.3-0.9,1.3-2.2c0-0.8-0.3-1.3-0.9-1.3c-0.8,0-1.3,0.9-1.3,2.2
						C46.5,6.5,46.8,6.9,47.4,6.9L47.4,6.9z M49.8,8.5h-1.6l0.1-0.7c-0.5,0.5-0.9,0.7-1.5,0.7c-1.2,0-2-1.1-2-2.8
						c0-2.2,1.2-4.1,2.7-4.1c0.6,0,1.1,0.3,1.6,0.9l0.4-2.3h1.6L49.8,8.5z"/>
				</g>
				<g>
					<g id="SVGID_20_">
					</g>
					<defs>
						<filter id="Adobe_OpacityMaskFilter_19_" filterUnits="userSpaceOnUse" x="50.8" y="6.5" width="2" height="2">
							<feColorMatrix  type="matrix" values="1 0 0 0 0  0 1 0 0 0  0 0 1 0 0  0 0 0 1 0"/>
						</filter>
					</defs>
					<mask maskUnits="userSpaceOnUse" x="50.8" y="6.5" width="2" height="2" id="mask-40_1_">
						<g class="st40">
							<rect id="path-39_1_" x="0.7" y="0.1" class="st1" width="53" height="18.7"/>
						</g>
					</mask>
					<path id="Shape_10_" class="st41" d="M51.7,7.4L51.7,7.4h0.2V7.3V7.2h-0.1h-0.1V7.4z M51.7,8h-0.2V7h0.4c0.1,0,0.2,0,0.2,0.1
						c0.1,0.1,0.1,0.1,0.1,0.2c0,0.1-0.1,0.2-0.2,0.2l0.2,0.4H52l-0.1-0.4h-0.1L51.7,8L51.7,8z M51.8,8.3c0.4,0,0.8-0.4,0.8-0.8
						s-0.3-0.8-0.8-0.8c-0.4,0-0.8,0.4-0.8,0.8S51.4,8.3,51.8,8.3L51.8,8.3z M50.8,7.5c0-0.6,0.4-1,1-1c0.6,0,1,0.5,1,1
						c0,0.6-0.4,1-1,1C51.2,8.5,50.8,8.1,50.8,7.5L50.8,7.5z"/>
				</g>
			</g>
		</g>
	</g>
</g>
</svg>
