<?xml version="1.0" encoding="UTF-8"?>
<svg width="54px" height="19px" viewBox="0 0 54 19" version="1.1" xmlns="http://www.w3.org/2000/svg" xmlns:xlink="http://www.w3.org/1999/xlink">
    <!-- Generator: Sketch 53.2 (72643) - https://sketchapp.com -->
    <title>mc-secure</title>
    <desc>Created with Sketch.</desc>
    <defs>
        <rect id="path-1" x="0.7" y="0.1" width="53" height="18.7"></rect>
        <rect id="path-3" x="0.7" y="0.1" width="53" height="18.7"></rect>
        <rect id="path-5" x="0.7" y="0.1" width="53" height="18.7"></rect>
        <rect id="path-7" x="0.7" y="0.1" width="53" height="18.7"></rect>
        <rect id="path-9" x="0.7" y="0.1" width="53" height="18.7"></rect>
        <rect id="path-11" x="0.7" y="0.1" width="53" height="18.7"></rect>
        <rect id="path-13" x="0.7" y="0.1" width="53" height="18.7"></rect>
        <rect id="path-15" x="0.7" y="0.1" width="53" height="18.7"></rect>
        <rect id="path-17" x="0.7" y="0.1" width="53" height="18.7"></rect>
        <rect id="path-19" x="0.7" y="0.1" width="53" height="18.7"></rect>
        <rect id="path-21" x="0.7" y="0.1" width="53" height="18.7"></rect>
        <rect id="path-23" x="0.7" y="0.1" width="53" height="18.7"></rect>
        <rect id="path-25" x="0.7" y="0.1" width="53" height="18.7"></rect>
        <rect id="path-27" x="0.7" y="0.1" width="53" height="18.7"></rect>
        <rect id="path-29" x="0.7" y="0.1" width="53" height="18.7"></rect>
        <rect id="path-31" x="0.7" y="0.1" width="53" height="18.7"></rect>
        <rect id="path-33" x="0.7" y="0.1" width="53" height="18.7"></rect>
        <rect id="path-35" x="0.7" y="0.1" width="53" height="18.7"></rect>
        <rect id="path-37" x="0.7" y="0.1" width="53" height="18.7"></rect>
        <rect id="path-39" x="0.7" y="0.1" width="53" height="18.7"></rect>
    </defs>
    <g id="Page-1" stroke="none" stroke-width="1" fill="none" fill-rule="evenodd">
        <g id="mc-secure">
            <g id="Group">
                <g id="Clipped">
                    <g>
                        <mask id="mask-2" fill="white">
                            <use xlink:href="#path-1"></use>
                        </mask>
                        <g id="SVGID_1_"></g>
                        <path d="M5.6,12.1 C5.3,11.9 4.9,11.7 4.3,11.7 C3.7,11.7 3.2,11.8 3.2,12.5 C3.2,13.7 5.5,13.2 5.5,15.8 C5.5,18.1 4,18.7 2.6,18.7 C2,18.7 1.3,18.5 0.8,18.3 L1.2,16.6 C1.5,16.9 2.1,17.1 2.7,17.1 C3.2,17.1 4,17 4,16.1 C4,14.8 1.7,15.3 1.7,12.9 C1.7,10.7 3,10.1 4.3,10.1 C5,10.1 5.7,10.2 6.1,10.5 L5.6,12.1 Z" id="Path" fill="#346275" fill-rule="nonzero" mask="url(#mask-2)"></path>
                    </g>
                    <g>
                        <mask id="mask-4" fill="white">
                            <use xlink:href="#path-3"></use>
                        </mask>
                        <g id="SVGID_1_"></g>
                        <path d="M9.3,14.5 C9.3,14.4 9.3,14.2 9.3,14.2 C9.3,13.7 9,13.3 8.6,13.3 C8.1,13.3 7.7,13.7 7.6,14.5 L9.3,14.5 Z M10.2,18.5 C9.7,18.7 9.2,18.8 8.6,18.8 C6.9,18.8 6,17.8 6,15.8 C6,13.5 7.2,11.8 8.7,11.8 C10,11.8 10.8,12.7 10.8,14.2 C10.8,14.7 10.7,15.2 10.6,15.8 L7.5,15.8 C7.5,15.9 7.5,15.9 7.5,16 C7.5,16.8 8,17.2 8.9,17.2 C9.5,17.2 10,17.1 10.5,16.8 L10.2,18.5 Z" id="Shape" fill="#346275" fill-rule="nonzero" mask="url(#mask-4)"></path>
                    </g>
                    <g>
                        <mask id="mask-6" fill="white">
                            <use xlink:href="#path-5"></use>
                        </mask>
                        <g id="SVGID_1_"></g>
                        <path d="M14.7,18.5 C14.4,18.7 13.9,18.8 13.3,18.8 C11.9,18.8 11.1,17.4 11.1,15.8 C11.1,13.6 12.3,11.9 14.1,11.9 C14.5,11.9 15.1,12.1 15.6,12.3 L15.3,13.9 C15,13.7 14.6,13.5 14.3,13.5 C13.5,13.5 12.9,14.3 12.9,15.6 C12.9,16.4 13.3,17 14,17 C14.4,17 14.7,16.9 15,16.7 L14.7,18.5 Z" id="Path" fill="#346275" fill-rule="nonzero" mask="url(#mask-6)"></path>
                    </g>
                    <g>
                        <mask id="mask-8" fill="white">
                            <use xlink:href="#path-7"></use>
                        </mask>
                        <g id="SVGID_1_"></g>
                        <path d="M20.6,16.8 C20.5,17.4 20.4,17.9 20.4,18.5 L18.9,18.5 L19,17.4 L19,17.4 C18.5,18.1 18,18.6 17.2,18.6 C16.3,18.6 15.7,17.6 15.7,16.3 C15.7,15.9 15.7,15.6 15.8,14.9 L16.2,11.8 L17.9,11.8 L17.5,14.9 C17.5,15.2 17.4,15.6 17.4,15.9 C17.4,16.3 17.6,16.7 18,16.7 C18.7,16.7 19.1,15.9 19.2,14.9 L19.7,11.9 L21.3,11.9 L20.6,16.8 Z" id="Path" fill="#346275" fill-rule="nonzero" mask="url(#mask-8)"></path>
                    </g>
                    <g>
                        <mask id="mask-10" fill="white">
                            <use xlink:href="#path-9"></use>
                        </mask>
                        <g id="SVGID_1_"></g>
                        <path d="M24.8,11.8 C24.8,11.8 24.7,11.8 24.6,11.8 C24.1,11.8 23.8,12.1 23.3,12.9 L23.4,11.9 L22,11.9 L21,18.6 L22.6,18.6 C23.2,14.5 23.3,13.8 24.1,13.8 C24.1,13.8 24.1,13.8 24.2,13.8 C24.4,13 24.6,12.4 24.8,11.8 L24.8,11.8 Z" id="Path" fill="#346275" fill-rule="nonzero" mask="url(#mask-10)"></path>
                    </g>
                    <g>
                        <mask id="mask-12" fill="white">
                            <use xlink:href="#path-11"></use>
                        </mask>
                        <g id="SVGID_1_"></g>
                        <path d="M27.8,14.5 C27.8,14.4 27.8,14.2 27.8,14.2 C27.8,13.7 27.5,13.3 27.1,13.3 C26.6,13.3 26.2,13.7 26.1,14.5 L27.8,14.5 Z M28.7,18.5 C28.2,18.7 27.7,18.8 27.1,18.8 C25.4,18.8 24.4,17.8 24.4,15.8 C24.4,13.5 25.6,11.8 27.1,11.8 C28.4,11.8 29.2,12.7 29.2,14.2 C29.2,14.7 29.1,15.2 29,15.8 L26,15.8 C26,15.9 26,15.9 26,16 C26,16.8 26.5,17.2 27.4,17.2 C28,17.2 28.5,17.1 29,16.8 L28.7,18.5 Z" id="Shape" fill="#346275" fill-rule="nonzero" mask="url(#mask-12)"></path>
                    </g>
                    <g>
                        <mask id="mask-14" fill="white">
                            <use xlink:href="#path-13"></use>
                        </mask>
                        <g id="SVGID_1_"></g>
                        <path d="M35.1,10.6 L34.8,12.4 C34.2,12.1 33.8,12 33.4,12 C32.2,12 31.4,13.3 31.4,15.1 C31.4,16.3 31.9,17.1 32.9,17.1 C33.3,17.1 33.7,17 34.2,16.7 L33.9,18.6 C33.3,18.8 32.9,18.8 32.5,18.8 C30.8,18.8 29.8,17.4 29.8,15.3 C29.8,12.4 31.2,10.3 33.3,10.3 C33.6,10.3 33.8,10.3 34,10.4 L34.6,10.6 C34.9,10.5 35,10.5 35.1,10.6" id="Path" fill="#346275" fill-rule="nonzero" mask="url(#mask-14)"></path>
                    </g>
                    <g>
                        <mask id="mask-16" fill="white">
                            <use xlink:href="#path-15"></use>
                        </mask>
                        <g id="SVGID_1_"></g>
                        <path d="M39.9,14.8 C39.9,13.1 39.1,11.8 37.5,11.8 C35.7,11.8 34.5,13.4 34.5,15.7 C34.5,17.4 35.2,18.7 36.9,18.7 C38.7,18.8 39.9,17.6 39.9,14.8 M38.3,14.8 C38.3,16.3 37.8,17.2 37.1,17.2 C36.6,17.2 36.2,16.6 36.2,15.7 C36.2,14.6 36.7,13.4 37.4,13.4 C38.1,13.4 38.3,14.1 38.3,14.8" id="Shape" fill="#346275" fill-rule="nonzero" mask="url(#mask-16)"></path>
                    </g>
                    <g>
                        <mask id="mask-18" fill="white">
                            <use xlink:href="#path-17"></use>
                        </mask>
                        <g id="SVGID_1_"></g>
                        <path d="M42.8,16.9 C43.5,16.9 44,16 44,14.7 C44,13.9 43.7,13.4 43.2,13.4 C42.5,13.4 42,14.3 42,15.6 C42,16.5 42.3,16.9 42.8,16.9 L42.8,16.9 Z M45.2,18.5 L43.7,18.5 L43.8,17.8 C43.4,18.3 42.9,18.5 42.4,18.5 C41.3,18.5 40.5,17.4 40.5,15.7 C40.5,13.5 41.7,11.6 43,11.6 C43.6,11.6 44.1,11.9 44.5,12.5 L44.8,10.2 L46.3,10.2 L45.2,18.5 Z" id="Shape" fill="#346275" fill-rule="nonzero" mask="url(#mask-18)"></path>
                    </g>
                    <g>
                        <mask id="mask-20" fill="white">
                            <use xlink:href="#path-19"></use>
                        </mask>
                        <g id="SVGID_1_"></g>
                        <path d="M49.6,14.5 C49.6,14.4 49.6,14.2 49.6,14.2 C49.6,13.7 49.3,13.3 48.9,13.3 C48.4,13.3 48,13.7 47.9,14.5 L49.6,14.5 Z M50.5,18.5 C50,18.7 49.5,18.8 48.9,18.8 C47.2,18.8 46.2,17.8 46.2,15.8 C46.2,13.5 47.4,11.8 48.9,11.8 C50.2,11.8 51,12.7 51,14.2 C51,14.7 50.9,15.2 50.8,15.8 L47.7,15.8 C47.7,15.9 47.7,15.9 47.7,16 C47.7,16.8 48.2,17.2 49.1,17.2 C49.7,17.2 50.2,17.1 50.7,16.8 L50.5,18.5 Z" id="Shape" fill="#346275" fill-rule="nonzero" mask="url(#mask-20)"></path>
                    </g>
                </g>
                <path d="M51.4,17.1 L51.4,17.3 L51.8,17.3 L51.8,18.4 L52,18.4 L52,17.3 L52.4,17.3 L52.4,17.1 L51.4,17.1 Z M53.3,17.1 L53.1,18.2 L53.1,18.2 L52.9,17.1 L52.5,17.1 L52.5,18.4 L52.7,18.4 L52.7,17.3 L52.7,17.3 L52.9,18.4 L53.1,18.4 L53.3,17.3 L53.3,17.3 L53.3,18.4 L53.5,18.4 L53.5,17.1 L53.3,17.1 Z" id="Shape" fill="#346275" fill-rule="nonzero"></path>
                <polygon id="Path" fill="#346275" fill-rule="nonzero" points="6.4 0.3 4.8 5.3 4.7 0.3 2.3 0.3 1 8.5 2.6 8.5 3.6 2.2 3.7 8.5 4.9 8.5 7 2.2 6 8.5 7.7 8.5 9 0.3"></polygon>
                <g id="Clipped">
                    <g>
                        <mask id="mask-22" fill="white">
                            <use xlink:href="#path-21"></use>
                        </mask>
                        <g id="SVGID_3_"></g>
                        <path d="M13.2,8.5 L11.8,8.5 L11.8,7.8 C11.4,8.4 10.8,8.6 10.1,8.6 C9.2,8.6 8.6,7.9 8.6,6.8 C8.6,5.2 9.7,4.2 11.5,4.2 C11.7,4.2 11.9,4.2 12.2,4.2 C12.3,4 12.3,3.9 12.3,3.8 C12.3,3.4 12,3.2 11.2,3.2 C10.7,3.2 10.2,3.3 9.8,3.4 L9.6,3.5 L9.5,3.5 L9.7,2 C10.5,1.7 11.1,1.6 11.7,1.6 C13.1,1.6 13.9,2.3 13.9,3.6 C13.9,3.9 13.9,4.2 13.8,4.9 L13.5,7.3 L13.4,7.7 L13.4,8 L13.4,8.2 L13.2,8.5 Z M12,5.5 C11.8,5.5 11.7,5.5 11.6,5.5 C10.7,5.5 10.2,5.8 10.2,6.5 C10.2,6.9 10.4,7.2 10.8,7.2 C11.5,7.2 12,6.5 12,5.5 L12,5.5 Z" id="Shape" fill="#346275" fill-rule="nonzero" mask="url(#mask-22)"></path>
                    </g>
                    <g>
                        <mask id="mask-24" fill="white">
                            <use xlink:href="#path-23"></use>
                        </mask>
                        <g id="SVGID_3_"></g>
                        <path d="M14.4,3.9 C14.4,4.7 14.8,5.3 15.7,5.8 C16.4,6.1 16.5,6.2 16.5,6.5 C16.5,6.9 16.2,7.1 15.5,7.1 C15,7.1 14.5,7 14,6.8 L13.8,8.3 L13.9,8.3 L14.2,8.4 C14.3,8.4 14.4,8.4 14.6,8.5 C15,8.5 15.3,8.6 15.5,8.6 C17.3,8.6 18.1,7.9 18.1,6.4 C18.1,5.5 17.8,4.9 16.9,4.5 C16.2,4.2 16.1,4.1 16.1,3.8 C16.1,3.4 16.4,3.3 16.9,3.3 C17.2,3.3 17.7,3.3 18.1,3.4 L18.3,1.9 C17.9,1.8 17.2,1.8 16.8,1.8 C15.1,1.7 14.4,2.7 14.4,3.9" id="Path" fill="#346275" fill-rule="nonzero" mask="url(#mask-24)"></path>
                    </g>
                    <g>
                        <mask id="mask-26" fill="white">
                            <use xlink:href="#path-25"></use>
                        </mask>
                        <g id="SVGID_3_"></g>
                        <path d="M21,8.4 C20.5,8.6 20.2,8.6 19.8,8.6 C18.9,8.6 18.5,8.1 18.5,7.1 C18.5,6.9 18.5,6.7 18.5,6.5 L18.6,5.9 L18.7,5.4 L19.4,0.9 L21.1,0.9 L20.9,1.9 L21.8,1.9 L21.6,3.5 L20.7,3.5 L20.3,6.3 C20.3,6.4 20.3,6.5 20.3,6.6 C20.3,6.9 20.5,7.1 20.9,7.1 C21.1,7.1 21.2,7.1 21.3,7 L21,8.4 Z" id="Path" fill="#346275" fill-rule="nonzero" mask="url(#mask-26)"></path>
                    </g>
                    <g>
                        <mask id="mask-28" fill="white">
                            <use xlink:href="#path-27"></use>
                        </mask>
                        <g id="SVGID_3_"></g>
                        <path d="M25.4,4.4 C25.4,4.3 25.4,4.1 25.4,4.1 C25.4,3.6 25.1,3.2 24.6,3.2 C24.1,3.2 23.7,3.6 23.5,4.4 L25.4,4.4 Z M26.3,8.3 C25.7,8.5 25.2,8.6 24.6,8.6 C22.7,8.6 21.8,7.6 21.8,5.6 C21.8,3.3 23,1.6 24.7,1.6 C26.1,1.6 27,2.5 27,4 C27,4.5 26.9,5 26.8,5.6 L23.5,5.6 C23.5,5.7 23.5,5.7 23.5,5.8 C23.5,6.6 24,7 25,7 C25.6,7 26.1,6.9 26.7,6.6 L26.3,8.3 Z" id="Shape" fill="#346275" fill-rule="nonzero" mask="url(#mask-28)"></path>
                    </g>
                    <g>
                        <mask id="mask-30" fill="white">
                            <use xlink:href="#path-29"></use>
                        </mask>
                        <g id="SVGID_3_"></g>
                        <path d="M31,1.7 C30.9,1.7 30.9,1.7 30.8,1.7 C30.2,1.7 29.9,2 29.4,2.8 L29.5,1.8 L28,1.8 L27,8.5 L28.7,8.5 C29.3,4.4 29.5,3.7 30.3,3.7 C30.3,3.7 30.4,3.7 30.4,3.7 C30.6,2.9 30.8,2.3 31,1.7 L31,1.7 Z" id="Path" fill="#346275" fill-rule="nonzero" mask="url(#mask-30)"></path>
                    </g>
                    <g>
                        <mask id="mask-32" fill="white">
                            <use xlink:href="#path-31"></use>
                        </mask>
                        <g id="SVGID_3_"></g>
                        <path d="M36.5,0.5 L36.2,2.3 C35.6,2 35.2,1.9 34.7,1.9 C33.5,1.9 32.6,3.2 32.6,5 C32.6,6.2 33.2,7 34.2,7 C34.6,7 35.1,6.9 35.6,6.6 L35.3,8.5 C34.7,8.7 34.3,8.7 33.8,8.7 C32,8.7 30.9,7.3 30.9,5.2 C30.9,2.3 32.4,0.2 34.7,0.2 C35,0.2 35.2,0.2 35.4,0.3 L36.1,0.5 C36.3,0.5 36.4,0.5 36.5,0.5" id="Path" fill="#346275" fill-rule="nonzero" mask="url(#mask-32)"></path>
                    </g>
                    <g>
                        <mask id="mask-34" fill="white">
                            <use xlink:href="#path-33"></use>
                        </mask>
                        <g id="SVGID_3_"></g>
                        <path d="M40.6,8.5 L39.2,8.5 L39.2,7.8 C38.8,8.4 38.2,8.6 37.5,8.6 C36.6,8.6 36,7.9 36,6.8 C36,5.2 37.1,4.2 38.9,4.2 C39.1,4.2 39.3,4.2 39.6,4.2 C39.7,4 39.7,3.9 39.7,3.8 C39.7,3.4 39.4,3.2 38.6,3.2 C38.1,3.2 37.6,3.3 37.2,3.4 L37,3.5 L36.9,3.5 L37.1,2 C37.9,1.7 38.5,1.6 39.1,1.6 C40.5,1.6 41.3,2.3 41.3,3.6 C41.3,3.9 41.3,4.2 41.2,4.9 L40.8,7.3 L40.7,7.7 L40.7,8 L40.7,8.2 L40.6,8.5 Z M39.4,5.5 C39.2,5.5 39.1,5.5 39,5.5 C38,5.5 37.6,5.8 37.6,6.5 C37.6,6.9 37.8,7.2 38.2,7.2 C38.9,7.2 39.4,6.5 39.4,5.5 L39.4,5.5 Z" id="Shape" fill="#346275" fill-rule="nonzero" mask="url(#mask-34)"></path>
                    </g>
                    <g>
                        <mask id="mask-36" fill="white">
                            <use xlink:href="#path-35"></use>
                        </mask>
                        <g id="SVGID_3_"></g>
                        <path d="M45.3,1.7 C45.2,1.7 45.2,1.7 45.1,1.7 C44.6,1.7 44.2,2 43.7,2.8 L43.8,1.8 L42.3,1.8 L41.3,8.5 L43,8.5 C43.6,4.4 43.8,3.7 44.6,3.7 C44.7,3.7 44.6,3.7 44.7,3.7 C44.9,2.9 45.1,2.3 45.3,1.7 L45.3,1.7 Z" id="Path" fill="#346275" fill-rule="nonzero" mask="url(#mask-36)"></path>
                    </g>
                    <g>
                        <mask id="mask-38" fill="white">
                            <use xlink:href="#path-37"></use>
                        </mask>
                        <g id="SVGID_3_"></g>
                        <path d="M47.4,6.9 C48.2,6.9 48.7,6 48.7,4.7 C48.7,3.9 48.4,3.4 47.8,3.4 C47,3.4 46.5,4.3 46.5,5.6 C46.5,6.5 46.8,6.9 47.4,6.9 L47.4,6.9 Z M49.8,8.5 L48.2,8.5 L48.3,7.8 C47.8,8.3 47.4,8.5 46.8,8.5 C45.6,8.5 44.8,7.4 44.8,5.7 C44.8,3.5 46,1.6 47.5,1.6 C48.1,1.6 48.6,1.9 49.1,2.5 L49.5,0.2 L51.1,0.2 L49.8,8.5 Z" id="Shape" fill="#346275" fill-rule="nonzero" mask="url(#mask-38)"></path>
                    </g>
                    <g>
                        <mask id="mask-40" fill="white">
                            <use xlink:href="#path-39"></use>
                        </mask>
                        <g id="SVGID_3_"></g>
                        <path d="M51.7,7.4 L51.8,7.4 C51.8,7.4 51.9,7.4 51.9,7.4 C51.9,7.4 51.9,7.3 51.9,7.3 C51.9,7.3 51.9,7.2 51.9,7.2 C51.9,7.2 51.8,7.2 51.8,7.2 L51.7,7.2 L51.7,7.4 Z M51.7,8 L51.5,8 L51.5,7 L51.9,7 C52,7 52.1,7 52.1,7.1 C52.2,7.2 52.2,7.2 52.2,7.3 C52.2,7.4 52.1,7.5 52,7.5 L52.2,7.9 L52,7.9 L51.9,7.5 L51.8,7.5 L51.8,8 L51.7,8 Z M51.8,8.3 C52.2,8.3 52.6,7.9 52.6,7.5 C52.6,7.1 52.3,6.7 51.8,6.7 C51.4,6.7 51,7.1 51,7.5 C51,7.9 51.4,8.3 51.8,8.3 L51.8,8.3 Z M50.8,7.5 C50.8,6.9 51.2,6.5 51.8,6.5 C52.4,6.5 52.8,7 52.8,7.5 C52.8,8.1 52.4,8.5 51.8,8.5 C51.2,8.5 50.8,8.1 50.8,7.5 L50.8,7.5 Z" id="Shape" fill="#346275" fill-rule="nonzero" mask="url(#mask-40)"></path>
                    </g>
                </g>
            </g>
        </g>
    </g>
</svg>