<?xml version="1.0" encoding="UTF-8"?>
<svg width="164px" height="40px" viewBox="0 0 164 40" version="1.1" xmlns="http://www.w3.org/2000/svg" xmlns:xlink="http://www.w3.org/1999/xlink">
    <!-- Generator: Sketch 52 (66869) - http://www.bohemiancoding.com/sketch -->
    <title>mcash</title>
    <desc>Created with Sketch.</desc>
    <g id="mcash" stroke="none" stroke-width="1" fill="none" fill-rule="evenodd">
        <path d="M40,20.0006671 C40,31.045732 31.045732,40 20,40 C8.95426799,40 0,31.045732 0,20.0006671 C0,8.95493512 8.95426799,0 20,0 C31.045732,0 40,8.95493512 40,20.0006671 Z M30.1591114,11.2818973 L13.6782414,11.2818973 C12.3639881,11.2818973 11.29524,12.3513126 11.29524,13.6648988 L11.29524,14.5408453 L9.84155576,14.5408453 C8.52730245,14.5408453 7.45788719,15.6095934 7.45788719,16.9238467 L7.45788719,26.6766737 C7.45788719,27.990927 8.52730245,29.0596751 9.84155576,29.0596751 L26.3217586,29.0596751 C27.6360119,29.0596751 28.70476,27.990927 28.70476,26.6766737 L28.70476,25.8013943 L30.1591114,25.8013943 C31.4733647,25.8013943 32.5421128,24.7319791 32.5421128,23.4177257 L32.5421128,13.6648988 C32.5421128,12.3513126 31.4733647,11.2818973 30.1591114,11.2818973 Z M30.9536676,23.4177257 C30.9536676,23.8560326 30.5967511,24.2122819 30.1591114,24.2122819 L28.70476,24.2122819 L28.70476,16.9238467 C28.70476,15.6095934 27.6360119,14.5408453 26.3217586,14.5408453 L12.8836852,14.5408453 L12.8836852,13.6648988 C12.8836852,13.2272591 13.2399346,12.8703426 13.6782414,12.8703426 L30.1591114,12.8703426 C30.5967511,12.8703426 30.9536676,13.2272591 30.9536676,13.6648988 L30.9536676,23.4177257 Z M27.1163148,26.6766737 C27.1163148,27.1149805 26.7600654,27.4712299 26.3217586,27.4712299 L9.84155576,27.4712299 C9.40324894,27.4712299 9.04699957,27.1149805 9.04699957,26.6766737 L9.04699957,16.9238467 C9.04699957,16.4855399 9.40324894,16.1292905 9.84155576,16.1292905 L26.3217586,16.1292905 C26.7600654,16.1292905 27.1163148,16.4855399 27.1163148,16.9238467 L27.1163148,26.6766737 Z M18.0292872,17.0112412 C14.135228,17.0112412 11.0844258,19.1033724 11.0844258,21.7739084 C11.0844258,24.4444444 14.135228,26.5372427 18.0292872,26.5372427 C21.9226792,26.5372427 24.9734814,24.4444444 24.9734814,21.7739084 C24.9734814,19.1033724 21.9226792,17.0112412 18.0292872,17.0112412 Z M18.0292872,24.9481304 C15.1259215,24.9481304 12.6735381,23.4944461 12.6735381,21.7739084 C12.6735381,20.0533707 15.1259215,18.5996864 18.0292872,18.5996864 C20.9319857,18.5996864 23.3843691,20.0533707 23.3843691,21.7739084 C23.3843691,23.4944461 20.9319857,24.9481304 18.0292872,24.9481304 Z" id="Fill-4" fill="#346275"></path>
        <g id="text" transform="translate(50.000000, 5.000000)" fill="#346275">
            <path d="M15.883,30.277 C15.883,30.598 14.677,30.598 13.953,30.598 C13.23,30.598 12.024,30.598 12.024,30.277 L12.024,15.8 C12.024,13.307 10.898,11.819 9.008,11.819 C7.037,11.819 4.825,14.353 3.861,16.122 L3.861,30.277 C3.861,30.598 2.654,30.598 1.93,30.598 C1.207,30.598 0,30.598 0,30.277 L0,8.843 C0,8.522 1.166,8.522 1.89,8.522 C2.614,8.522 3.659,8.522 3.659,8.843 L3.659,12.462 C5.027,10.371 7.359,8.16 10.254,8.16 C13.069,8.16 14.798,10.371 15.281,12.422 C16.808,10.251 19.141,8.16 21.956,8.16 C24.971,8.16 27.907,10.251 27.907,14.915 L27.907,30.277 C27.907,30.598 26.741,30.598 26.017,30.598 C25.293,30.598 24.047,30.598 24.047,30.277 L24.047,15.8 C24.047,13.187 23.041,11.819 21.071,11.819 C19.061,11.819 16.889,13.87 15.883,15.84 L15.883,30.277" id="Fill-6"></path>
            <path d="M51.23,5.426 C49.099,4.46 46.525,3.777 44.554,3.777 C40.976,3.777 37.84,5.385 37.84,9.245 L37.84,22.355 C37.84,26.818 41.338,27.662 44.554,27.662 C46.525,27.662 49.38,27.14 51.551,26.335 C51.994,26.135 52.919,29.392 52.516,29.593 C51.029,30.236 47.168,31 44.394,31 C38.242,31 33.859,28.748 33.859,22.275 L33.859,9.205 C33.859,2.812 38.282,0.4 44.394,0.4 C47.329,0.4 50.425,1.123 52.557,2.128 C52.999,2.329 51.712,5.626 51.23,5.426" id="Fill-8"></path>
            <path d="M68.603,20.183 C62.37,19.218 58.711,20.103 58.711,23.2 L58.711,24.164 C58.711,26.456 60.4,27.662 62.853,27.662 C64.984,27.662 67.034,26.697 68.603,25.25 L68.603,20.183 Z M70.492,30.598 C69.809,30.598 68.643,30.598 68.643,30.277 L68.643,28.185 C67.959,28.788 65.386,30.92 61.927,30.92 C57.665,30.92 55.051,28.346 55.051,24.325 L55.051,23.32 C55.051,18.816 58.791,16.041 68.603,17.449 L68.603,16.041 C68.603,12.825 67.276,11.618 64.019,11.618 C61.726,11.618 59.475,12.141 57.866,12.946 C57.424,13.227 56.257,9.929 56.821,9.648 C58.389,8.964 61.243,8.241 64.18,8.241 C69.688,8.241 72.262,10.975 72.262,16.081 L72.262,30.277 C72.262,30.598 71.216,30.598 70.492,30.598 Z" id="Fill-9"></path>
            <path d="M76.766,28.989 C76.364,28.748 77.852,25.773 78.254,26.014 C79.621,26.818 82.033,27.824 83.923,27.824 C86.618,27.824 87.905,26.255 87.905,24.566 C87.905,19.62 77.288,20.988 77.288,13.87 C77.288,10.894 79.5,8.119 84.527,8.119 C86.98,8.119 89.473,8.803 90.76,9.407 C91.161,9.608 90.156,12.543 89.754,12.422 C88.025,11.739 86.537,11.296 84.447,11.296 C82.114,11.296 80.989,12.503 80.989,13.789 C80.989,17.69 91.684,16.765 91.684,24.406 C91.684,27.945 88.95,31 84.084,31 C81.029,31 78.053,29.794 76.766,28.989" id="Fill-10"></path>
            <path d="M111.83,30.598 C111.147,30.598 109.901,30.598 109.901,30.277 L109.901,15.72 C109.901,13.147 108.613,11.659 106.483,11.659 C103.466,11.659 100.813,14.996 100.45,15.76 L100.45,30.277 C100.45,30.598 99.244,30.598 98.521,30.598 C97.796,30.598 96.59,30.598 96.59,30.277 L96.59,0.64 C96.59,0.359 97.836,0.319 98.521,0.319 C99.244,0.319 100.45,0.359 100.45,0.64 L100.45,11.9 C101.295,10.694 103.828,8.079 107.729,8.079 C111.468,8.119 113.801,10.854 113.801,14.795 L113.801,30.277 C113.801,30.598 112.554,30.598 111.83,30.598" id="Fill-12"></path>
        </g>
    </g>
</svg>