<?xml version="1.0" encoding="utf-8"?>
<!-- Generator: Adobe Illustrator 24.1.2, SVG Export Plug-In . SVG Version: 6.00 Build 0)  -->
<svg version="1.1" id="Layer_1" xmlns="http://www.w3.org/2000/svg" xmlns:xlink="http://www.w3.org/1999/xlink" x="0px" y="0px"
	 viewBox="0 0 164 40" style="enable-background:new 0 0 164 40;" xml:space="preserve">
<style type="text/css">
	.st0{fill-rule:evenodd;clip-rule:evenodd;fill:#FCF5A3;}
</style>
<desc>Created with Sketch.</desc>
<g id="mcash">
	<path id="Fill-4" class="st0" d="M40,20c0,11-9,20-20,20S0,31,0,20C0,9,9,0,20,0S40,9,40,20z M30.2,11.3H13.7
		c-1.3,0-2.4,1.1-2.4,2.4v0.9H9.8c-1.3,0-2.4,1.1-2.4,2.4v9.8c0,1.3,1.1,2.4,2.4,2.4h16.5c1.3,0,2.4-1.1,2.4-2.4v-0.9h1.5
		c1.3,0,2.4-1.1,2.4-2.4v-9.8C32.5,12.4,31.5,11.3,30.2,11.3z M31,23.4c0,0.4-0.4,0.8-0.8,0.8h-1.5v-7.3c0-1.3-1.1-2.4-2.4-2.4H12.9
		v-0.9c0-0.4,0.4-0.8,0.8-0.8h16.5c0.4,0,0.8,0.4,0.8,0.8V23.4z M27.1,26.7c0,0.4-0.4,0.8-0.8,0.8H9.8c-0.4,0-0.8-0.4-0.8-0.8v-9.8
		c0-0.4,0.4-0.8,0.8-0.8h16.5c0.4,0,0.8,0.4,0.8,0.8V26.7z M18,17c-3.9,0-6.9,2.1-6.9,4.8s3.1,4.8,6.9,4.8c3.9,0,6.9-2.1,6.9-4.8
		S21.9,17,18,17z M18,24.9c-2.9,0-5.4-1.5-5.4-3.2s2.5-3.2,5.4-3.2c2.9,0,5.4,1.5,5.4,3.2S20.9,24.9,18,24.9z"/>
	<g id="text" transform="translate(50.000000, 5.000000)">
		<path id="Fill-6" class="st0" d="M15.9,30.3c0,0.3-1.2,0.3-1.9,0.3c-0.7,0-1.9,0-1.9-0.3V15.8c0-2.5-1.1-4-3-4
			c-2,0-4.2,2.5-5.1,4.3v14.2c0,0.3-1.2,0.3-1.9,0.3c-0.7,0-1.9,0-1.9-0.3V8.8c0-0.3,1.2-0.3,1.9-0.3s1.8,0,1.8,0.3v3.6
			c1.4-2.1,3.7-4.3,6.6-4.3c2.8,0,4.5,2.2,5,4.3c1.5-2.2,3.9-4.3,6.7-4.3c3,0,6,2.1,6,6.8v15.4c0,0.3-1.2,0.3-1.9,0.3
			c-0.7,0-2,0-2-0.3V15.8c0-2.6-1-4-3-4c-2,0-4.2,2.1-5.2,4V30.3"/>
		<path id="Fill-8" class="st0" d="M51.2,5.4c-2.1-1-4.7-1.6-6.7-1.6c-3.6,0-6.7,1.6-6.7,5.5v13.1c0,4.5,3.5,5.3,6.7,5.3
			c2,0,4.8-0.5,7-1.3c0.4-0.2,1.4,3.1,1,3.3C51,30.2,47.2,31,44.4,31c-6.2,0-10.5-2.3-10.5-8.7V9.2c0-6.4,4.4-8.8,10.5-8.8
			c2.9,0,6,0.7,8.2,1.7C53,2.3,51.7,5.6,51.2,5.4"/>
		<path id="Fill-9" class="st0" d="M68.6,20.2c-6.2-1-9.9-0.1-9.9,3v1c0,2.3,1.7,3.5,4.1,3.5c2.1,0,4.2-1,5.7-2.4V20.2z M70.5,30.6
			c-0.7,0-1.8,0-1.8-0.3v-2.1c-0.7,0.6-3.3,2.7-6.7,2.7c-4.3,0-6.9-2.6-6.9-6.6v-1c0-4.5,3.7-7.3,13.6-5.9V16c0-3.2-1.3-4.4-4.6-4.4
			c-2.3,0-4.5,0.5-6.2,1.3c-0.4,0.3-1.6-3-1-3.3c1.6-0.7,4.4-1.4,7.4-1.4c5.5,0,8.1,2.7,8.1,7.8v14.2C72.3,30.6,71.2,30.6,70.5,30.6
			z"/>
		<path id="Fill-10" class="st0" d="M76.8,29c-0.4-0.2,1.1-3.2,1.5-3c1.4,0.8,3.8,1.8,5.7,1.8c2.7,0,4-1.6,4-3.3
			c0-4.9-10.6-3.6-10.6-10.7c0-3,2.2-5.8,7.2-5.8c2.5,0,4.9,0.7,6.2,1.3c0.4,0.2-0.6,3.1-1,3c-1.7-0.7-3.2-1.1-5.3-1.1
			c-2.3,0-3.5,1.2-3.5,2.5c0,3.9,10.7,3,10.7,10.6c0,3.5-2.7,6.6-7.6,6.6C81,31,78.1,29.8,76.8,29"/>
		<path id="Fill-12" class="st0" d="M111.8,30.6c-0.7,0-1.9,0-1.9-0.3V15.7c0-2.6-1.3-4.1-3.4-4.1c-3,0-5.7,3.3-6,4.1v14.5
			c0,0.3-1.2,0.3-1.9,0.3c-0.7,0-1.9,0-1.9-0.3V0.6c0-0.3,1.2-0.3,1.9-0.3c0.7,0,1.9,0,1.9,0.3v11.3c0.8-1.2,3.4-3.8,7.3-3.8
			c3.7,0,6.1,2.8,6.1,6.7v15.5C113.8,30.6,112.6,30.6,111.8,30.6"/>
	</g>
</g>
</svg>
