<?xml version="1.0" encoding="utf-8"?>
<!-- Generator: Adobe Illustrator 24.1.2, SVG Export Plug-In . SVG Version: 6.00 Build 0)  -->
<svg version="1.1" id="Layer_1" xmlns="http://www.w3.org/2000/svg" xmlns:xlink="http://www.w3.org/1999/xlink" x="0px" y="0px"
	 viewBox="0 0 335 155" style="enable-background:new 0 0 335 155;" xml:space="preserve">
<style type="text/css">
	.st0{fill-rule:evenodd;clip-rule:evenodd;fill:#FCF5A3;}
</style>
<g id="Page-1">
	<path id="monri" class="st0" d="M262,127.8l3.5,14.1l6.5-14.1h5.4l0,0l-1.8,3.5h-1.8l0.7,0.5l0.6,0.5l-11.3,22.4h-5.5l3.7-7.1
		l-5.7-19.7H262z M247.1,127.2c3.3,0,5.7,0.5,7,1.6c1.4,1.1,1.9,2.8,1.7,5.1l-1.4,13.5h-5.2l0.3-2.6c-1.7,1.4-3.1,2.2-4.2,2.6
		c-1,0.3-2.1,0.5-3.2,0.5c-1.7,0-3.1-0.6-4.1-1.7c-1-1.1-1.4-2.6-1.3-4.3c0.2-2.2,1.2-3.9,3-5.1c1.8-1.1,5.4-1.9,10.8-2.1l0.1-0.5
		c0.1-1.2-0.2-2.1-1-2.7c-0.8-0.6-2.2-0.8-4.1-0.8c-1.3,0-3.3,0.5-5.9,1.5h-0.2l0.4-4.1C242.6,127.5,245,127.2,247.1,127.2z
		 M303.2,127.2c5.9,0,8.6,3.1,7.9,9.4l-0.2,1.8h-14c-0.2,3.9,1.9,5.9,6.1,5.9c2.2,0,4.5-0.8,7-2.4h0.2l-0.5,4.5
		c-2.8,1-5.3,1.5-7.7,1.5c-3.7,0-6.4-0.9-8.2-2.6c-1.8-1.8-2.5-4.3-2.1-7.6c0.3-3.3,1.5-5.9,3.6-7.8
		C297.3,128.1,299.9,127.2,303.2,127.2z M285.8,122.2l-0.6,5.5h6l-0.4,3.5h-6l-0.8,8.1c-0.2,2.1-0.1,3.4,0.4,4.1
		c0.5,0.6,1.3,1,2.6,1c0.8,0,1.6-0.2,2.5-0.6h0.2l-0.4,3.6c-1.4,0.3-2.9,0.5-4.5,0.5c-2.3,0-4-0.5-5-1.5c-1-1-1.4-2.6-1.1-4.9
		l1.1-10.3H277l0.4-3.5l0,0l2.6,0l0.6-5.5H285.8z M228.8,121.8c3.3,0,5.8,0.7,7.4,2c1.6,1.4,2.2,3.3,2,5.9c-0.3,2.7-1.5,4.9-3.5,6.5
		c-2.1,1.6-4.6,2.4-7.7,2.4H223l-0.9,8.7h-5.6l2.7-25.6H228.8z M325.8,127.2c4.2,0,6,2.4,5.5,7.3l-1.3,12.9h-5.3l1-9.8
		c0.3-2.7,0.2-4.5-0.4-5.1c-0.5-0.7-1.5-1-2.9-1c-1.1,0-2.5,0.5-4.3,1.5l-1.5,14.4h-5.2l2-19.7h5.2l-0.3,2.8
		c1.8-1.3,3.2-2.2,4.2-2.7C323.7,127.4,324.7,127.2,325.8,127.2z M250.3,137.7c-3.5,0.3-5.6,0.7-6.6,1.3c-0.9,0.6-1.4,1.4-1.6,2.5
		c-0.1,1.1,0.1,1.9,0.7,2.3c0.6,0.4,1.5,0.7,2.8,0.7c1.3,0,2.7-0.6,4.2-1.8L250.3,137.7z M201.3,131.4c0.9,0,1.6,0.3,2.2,0.9
		c0.6,0.6,0.9,1.4,0.9,2.2c0,0.9-0.3,1.6-0.9,2.3c-0.6,0.6-1.4,0.9-2.2,0.9c-0.9,0-1.6-0.3-2.2-0.9c-0.6-0.6-0.9-1.4-0.9-2.3
		c0-0.9,0.3-1.6,0.9-2.2C199.7,131.7,200.4,131.4,201.3,131.4z M183.4,131.5c0.5,0,1,0.2,1.3,0.5c0.4,0.3,0.5,0.7,0.5,1.2
		c0,0.5-0.2,0.9-0.6,1.2c0.5,0.3,0.8,0.8,0.8,1.4c0,0.5-0.2,0.9-0.5,1.3c-0.4,0.3-0.8,0.5-1.4,0.5H181v-6.1H183.4z M163.4,131.5
		l1.8,2.9l1.7-2.9h1.2v6.1H167v-4l-1.7,2.8h-0.1l-1.7-2.8v3.9h-1.2v-6.1H163.4z M173,131.5v1.2h-2.5v1.3h2.3v1.1h-2.3v1.4h2.6v1.2
		h-3.8v-6.1H173z M209,131.5v1.1h-2.4v1.4h2.4v1.2h-2.4v2.4h-1.2v-6.1H209z M175.1,131.5l1.8,2.9l1.7-2.9h1.2v6.1h-1.2v-4l-1.7,2.8
		h-0.1l-1.7-2.8v3.9h-1.2v-6.1H175.1z M190,131.5v1.2h-2.5v1.3h2.3v1.1h-2.3v1.4h2.6v1.2h-3.8v-6.1H190z M193.3,131.5
		c0.6,0,1,0.2,1.4,0.6c0.4,0.4,0.6,0.9,0.6,1.4c0,0.4-0.1,0.7-0.3,1.1c-0.2,0.3-0.5,0.6-0.9,0.7l1.4,2.3h-1.3l-1.2-2.1h-0.9v2.1
		h-1.2v-6.1H193.3z M201.3,132.6c-0.6,0-1,0.2-1.4,0.6c-0.4,0.4-0.6,0.9-0.6,1.4c0,0.6,0.2,1.1,0.6,1.4c0.4,0.4,0.8,0.6,1.4,0.6
		c0.6,0,1-0.2,1.4-0.6c0.4-0.4,0.6-0.9,0.6-1.4c0-0.6-0.2-1.1-0.6-1.4C202.3,132.8,201.9,132.6,201.3,132.6z M183.6,135.1h-1.4v1.4
		h1.4c0.2,0,0.4-0.1,0.5-0.2c0.1-0.1,0.2-0.3,0.2-0.5c0-0.2-0.1-0.4-0.2-0.5C184,135.2,183.8,135.1,183.6,135.1z M302.4,130.4
		c-2.9,0-4.6,1.7-5.1,5.1h8.7C306.3,132.1,305.1,130.4,302.4,130.4z M226.2,125.9h-1.9l-0.9,8.8h1.5c2.8,0,4.7-0.4,5.7-1.2
		c1-0.8,1.6-2,1.7-3.6c0.1-1.3-0.2-2.3-1-3C230.5,126.2,228.8,125.9,226.2,125.9z M193.3,132.7h-1.2v1.8h1.2c0.2,0,0.4-0.1,0.6-0.3
		c0.2-0.2,0.2-0.4,0.2-0.6c0-0.2-0.1-0.5-0.2-0.6C193.8,132.8,193.6,132.7,193.3,132.7z M183.4,132.7h-1.2v1.3h1.2
		c0.2,0,0.3-0.1,0.5-0.2c0.1-0.1,0.2-0.3,0.2-0.5c0-0.2-0.1-0.4-0.2-0.5C183.8,132.7,183.6,132.7,183.4,132.7z M139,32.2
		c23,0,39.8,17.5,39.8,39.6c0,22.1-16.7,39.6-39.8,39.6c-23,0-39.6-17.2-39.9-39l0-0.7v-7.7c0-11.2-6.5-19.5-17.5-19.5
		c-9.5,0-16,5.8-18.9,15.7c0.1,0.9,0.2,1.8,0.2,2.7l0,0.4v46.8H49.6V64.2C49.6,53,43,44.7,32,44.7c-8.8,0-15.5,5.2-18.6,14l-0.1,0.4
		v51.1H0V33.5h13.2v8.4c5.7-7.1,14-9.7,21.7-9.7c10.1,0,18.4,4.6,23.2,12.6c7.2-10,17.8-12.6,25.7-12.6c11.2,0,19.8,5.1,24.6,13.8
		C115.4,37.6,126.3,32.2,139,32.2z M331.3,33.5v76.8h-13.2V33.5H331.3z M305.1,32.7c1.6,0,3.2,0.1,4.7,0.4l0.6,0.1v13.7
		c-2.2-0.6-4.6-0.9-7.4-0.9c-8.2,0-15.6,4-19,11.7l-0.2,0.4v52.2h-13.2V33.5h13.2v9.1C289.1,35.9,296.5,32.7,305.1,32.7z
		 M226.6,32.2c17.2,0,29.4,11.9,29.6,30.6l0,0.6v46.8H243V64.2c0-11.2-7.4-19.5-19.4-19.5c-10.6,0-17.9,5.8-20.8,15.6l-0.1,0.4v49.6
		h-13.2V33.5h13.2v8.8C208.6,34.9,217.7,32.2,226.6,32.2z M139,44.7c-15.7,0-26.3,12-26.3,27.2S123.4,99,139,99
		c15.7,0,26.1-12,26.1-27.2S154.7,44.7,139,44.7z M324.7,0c5.4,0,9.5,4.3,9.5,9.7c0,2.8-1,5.2-2.7,6.9l-0.2,0.2h-13.2
		c-1.8-1.7-2.9-4.1-2.9-7.1C315.2,4.3,319.4,0,324.7,0z"/>
</g>
</svg>
