<?xml version="1.0" encoding="utf-8"?>
<!-- Generator: Adobe Illustrator 24.1.2, SVG Export Plug-In . SVG Version: 6.00 Build 0)  -->
<svg version="1.1" id="Layer_1" xmlns="http://www.w3.org/2000/svg" xmlns:xlink="http://www.w3.org/1999/xlink" x="0px" y="0px"
	 viewBox="0 0 121 18" style="enable-background:new 0 0 121 18;" xml:space="preserve">
<style type="text/css">
	.st0{fill-rule:evenodd;clip-rule:evenodd;fill:#FCF5A3;}
</style>
<g id="Page-1">
	<g id="posta">
		<path id="Fill-1" class="st0" d="M25.9,0.9c0.1,0,0.2,0,0.3,0.1l0.3,0.2c0.1,0.1,0.1,0.2,0,0.3l-0.9,1.5l-3.8,1h12.1
			C34,4,34,4,34.1,4.1l0.3,0.3c0.1,0.1,0.1,0.1,0,0.2L33.6,6l-4.2,1.1h12.3c0.1,0,0.2,0,0.3,0.1l0.3,0.3c0.1,0.1,0.1,0.2,0,0.2
			l-0.7,1.2L29,12.3L5.7,3.1C4.9,2.8,5,2.7,5.2,2.4L6,1.1C6,1,6.1,0.9,6.2,0.9H25.9"/>
		<path id="Fill-2" class="st0" d="M39.5,11c0.1,0,0.2,0,0.3,0.1l0.4,0.3c0.1,0.1,0.1,0.2,0,0.3l-3.5,5.8H16.9c-0.1,0-0.2,0-0.3-0.1
			l-0.3-0.3c-0.1-0.1,0-0.2,0-0.3l1.5-2.4H9c-0.1,0-0.2,0-0.3-0.1L8.5,14c-0.1-0.1-0.1-0.2,0-0.4l1.4-2.4H1.1c-0.1,0-0.2,0-0.3-0.1
			l-0.3-0.3c-0.1-0.1,0-0.3,0.1-0.4l3.6-6c0.1-0.1,0.2-0.1,0.3-0.1l24.3,9.6L39.5,11"/>
		<path id="Fill-3" class="st0" d="M60.8,15.8c-0.3-1.4,0.1-3,1.2-4.9c1.2-1.9,2.8-3.5,4.8-4.9c2-1.4,4.2-2.1,6.6-2.1h0.2
			c2.3,0,3.6,0.7,4,2.1c0.3,1.4-0.1,3-1.2,4.9c-1.2,1.9-2.8,3.5-4.8,4.9c-2.1,1.4-4.3,2.1-6.6,2.1l-0.2,0
			C62.5,17.9,61.2,17.2,60.8,15.8z M67.2,14.7l0.5-0.1c0.7-0.2,1.5-0.5,2.3-1.1c0.8-0.6,1.6-1.4,2.3-2.6c0.7-1.1,1-2,0.8-2.5
			c-0.1-0.6-0.5-0.9-1-1.1l-0.4-0.1l-0.4,0l-0.5,0l-0.5,0.1c-0.7,0.2-1.4,0.5-2.2,1.1C67.5,9,66.7,9.8,66,10.9c-0.7,1.1-1,2-0.9,2.5
			c0.1,0.6,0.4,0.9,0.9,1.1l0.3,0.1l0.4,0L67.2,14.7z M56.1,17.5h-3.7l6.1-10.1H54L48,17.5h-3.7l7.9-13.2H64L56.1,17.5z M86.2,4.3
			l-6.1,10.2h3.1l6.1-10.2h3.7L87,14.4h3.2l6.1-10.2h3.7l-7.9,13.2H74.6l7.9-13.2H86.2z M111.9,4.3L110,7.4h-2.7l-6.1,10.1h-3.7
			l6.1-10.1l-3.2,0l1.9-3.1H111.9z M117.6,17.5h-3.3l0.6-2.3l-5.3,0l-2.1,2.3h-4l12.8-13.2l4.7,0L117.6,17.5z M115.7,12.1h-3.1
			l4.2-4.3L115.7,12.1L115.7,12.1z"/>
	</g>
</g>
</svg>
