<svg width="118" height="40" viewBox="0 0 118 40" xmlns="http://www.w3.org/2000/svg"><title>skrill</title><path d="M93.178 3.928l9.768-1.757v37.416h-9.768V3.927zm14.264 0v35.71h9.767V2.171l-9.767 1.757zm-28.166 35.71h9.768v-27.39h-9.768v27.39zM14.832 16.124c-1.24-.103-4.083-.258-4.083-2.842 0-3.101 4.135-3.101 5.633-3.101 2.688 0 6.202.775 8.734 1.55 0 0 1.396.517 2.584.982l.104.052V4.238l-.155-.052c-2.946-1.034-6.409-2.015-12.765-2.015C3.876 2.17 0 8.579 0 14.057 0 17.209 1.344 24.65 13.953 25.53c1.086.051 3.876.206 3.876 2.894 0 2.17-2.325 3.462-6.201 3.462-4.29 0-8.424-1.085-10.956-2.119v8.734C4.444 39.483 8.682 40 13.695 40c10.75 0 15.556-6.047 15.556-12.093 0-6.77-5.375-11.214-14.419-11.783zm58.966-4.29c-8.992.31-13.591 4.342-13.591 12.352v15.4h9.819V27.029c0-4.806.62-6.873 6.356-7.08V11.99c-.981-.207-2.584-.155-2.584-.155zm-26.46.362c-.206.569-1.757 4.962-5.58 9.51V2.17L31.68 4.186v35.452h10.077V28.682c2.894 4.393 4.341 10.956 4.341 10.956H58.14C56.95 34.677 51.73 25.53 51.73 25.53c4.703-5.943 6.719-12.248 7.08-13.334H47.34zm36.848-2.584c2.636 0 4.806-2.17 4.806-4.806 0-2.635-2.17-4.806-4.806-4.806S79.38 2.17 79.38 4.806a4.797 4.797 0 0 0 4.806 4.806z" fill="#346275" fill-rule="evenodd"/></svg>