<?xml version="1.0" encoding="UTF-8"?>
<svg id="Layer_2" data-name="Layer 2" xmlns="http://www.w3.org/2000/svg" viewBox="0 0 189.9 52.2">
  <defs>
    <style>
      .cls-1 {
        fill: #346275;
      }
    </style>
  </defs>
  <g id="Layer_1-2" data-name="Layer 1">
    <path class="cls-1" d="M51.4,0c-2.7,.6-4.8,1.8-6.1,4.2-2.3,4-4.6,8-6.9,12s0,.4,0,.6c1.9,3,5.1,4.2,8.3,3.7s4.7-1.9,5.9-4.1c2.4-4,4.7-8.1,7-12.2s0-.3,0-.4c-1.1-1.8-2.7-3-4.7-3.6-.2,0-.4-.1-.6-.1C53.6,0,52.9,0,52.2,0h0s-.5,0-.8,0Z"/>
    <path class="cls-1" d="M27.7,52.2c-.3,0-.7,0-1,0-2.9-.2-5.2-1.6-6.7-4.1-2.9-5-5.8-10-8.7-15.1C7.6,26.6,3.9,20.2,.2,13.8c0-.1-.1-.2-.2-.3,0-.1,.2,0,.2,0,4.6,0,9.2,0,13.8,0,.2,0,.3,0,.4,.3,4.2,7.4,8.5,14.7,12.7,22,1.3,2.3,3.3,3.7,6,4,3,.4,5.5-.5,7.5-2.8,0,0,.1,0,0,0-.8,1.3-1.5,2.6-2.3,3.9-1.4,2.4-2.7,4.8-4.1,7.1-1.3,2.3-3.3,3.6-5.8,4-.3,0-.6,0-.8,0Z"/>
    <path class="cls-1" d="M154.9,15.4c2.6,0,4.9,.3,7.1,1.2,1.1,.4,2.1,1,3,1.7,.2,.1,.2,.2,0,.4-.7,1-1.3,2-1.9,3-.1,.2-.2,.2-.4,0-1.4-1-3-1.6-4.6-1.9-1.4-.3-2.8-.4-4.2-.2-.9,0-1.8,.1-2.6,.5-.4,.2-.8,.4-1,.7-.6,.8-.3,1.9,.6,2.2,.8,.3,1.6,.4,2.4,.4,1.1,.1,2.1,.2,3.2,.4,.8,0,1.7,.2,2.5,.3,1.6,.2,3.2,.6,4.6,1.6,1.4,1,2.1,2.4,2.2,4.1,0,1.3-.1,2.5-.8,3.5-.6,.9-1.3,1.5-2.3,2-1.3,.7-2.8,1.1-4.3,1.3-1.1,.2-2.1,.2-3.2,.2-2.8,0-5.4-.4-7.9-1.6-.9-.4-1.7-1-2.5-1.5-.2-.1-.2-.2,0-.4,.6-1,1.2-2,1.9-3,.2-.3,.3-.3,.5-.1,1.5,1,3.1,1.8,4.8,2.2,1.6,.4,3.2,.5,4.8,.4,1.1,0,2.1-.2,3.1-.6,.4-.2,.7-.4,1-.7,.7-.7,.7-2.4-.7-2.8-.6-.2-1.1-.2-1.7-.3-1.1-.1-2.2-.3-3.3-.4-1-.1-2.1-.2-3.1-.4-1.7-.2-3.3-.6-4.7-1.6-1.2-.9-1.7-2.1-1.8-3.6,0-.9,0-1.8,.3-2.6,.5-1.3,1.4-2.2,2.5-2.9,1.3-.8,2.8-1.2,4.3-1.4,.8-.1,1.6-.1,2.3-.1Z"/>
    <path class="cls-1" d="M189.9,15.9c0,3,0,6,0,9,0,3.6,0,7.3,0,10.9q0,.4-.4,.4c-1.4,0-2.8,0-4.2,0,0-2.7,0-5.4,0-8.1,0-.3,0-.4-.4-.4-3.6,0-7.2,0-10.7,0-.3,0-.4,0-.4,.4,0,2.6,0,5.2,0,7.7,0,.3,0,.4-.4,.4-1.3,0-2.6,0-3.9,0-.3,0-.4,0-.4-.4,0-6.6,0-13.2,0-19.8,0-.3,0-.4,.4-.3,1.3,0,2.6,0,3.9,0,.3,0,.4,0,.4,.4,0,2.3,0,4.7,0,7,0,.3,0,.4,.4,.4,3.6,0,7.1,0,10.7,0q.4,0,.4-.5c0-2.3,0-4.6,0-6.9,0-.3,0-.4,.4-.4,1.4,0,2.8,0,4.2,0Z"/>
    <path class="cls-1" d="M105.7,15.4c1.9,0,3.7,.3,5.4,1,2.1,.9,3.6,2.3,4.8,4.2,.1,.2,0,.3-.1,.3-1,.6-2.1,1.2-3.1,1.8-.3,.2-.4,0-.5-.1-.6-.8-1.2-1.4-2-1.9-1.1-.7-2.4-1.1-3.7-1.2-1,0-2,0-3,.2-2.6,.7-4.1,2.3-4.6,4.9-.3,1.4-.2,2.8,.4,4.1,.8,1.9,2.1,3.1,4.1,3.6,2.5,.7,5,.4,7.2-1.2,.7-.5,1.2-1.1,1.7-1.7,.1-.2,.3-.2,.5,0,1,.6,2,1.2,3,1.7,.2,.1,.3,.2,.1,.5-1.8,2.8-4.3,4.4-7.5,4.9-.9,.2-1.8,.2-2.6,.2-2.9,0-5.6-.7-7.9-2.6-1.8-1.5-2.9-3.4-3.4-5.7-.2-.9-.3-1.8-.3-2.7,0-2.4,.7-4.6,2.3-6.6,1.2-1.4,2.6-2.5,4.4-3.1,1.6-.6,3.2-.9,4.8-.8Z"/>
    <path class="cls-1" d="M80.9,36.3c-1,0-2,0-3,0-.2,0-.4,0-.5-.3-1.1-2.6-2.3-5.2-3.4-7.9-1.1-2.4-2.2-4.9-3.2-7.3-.7-1.6-1.4-3.1-2.1-4.7-.1-.2,0-.2,.2-.2,1.5,0,3.1,0,4.6,0,.2,0,.3,0,.4,.3,1.6,4,3.3,8,4.9,12,.5,1.3,1.1,2.5,1.6,3.8,0,.2,.2,.3,.4,.3,.8,0,.6,0,.9-.6,1.7-4.2,3.5-8.5,5.2-12.7,.4-.9,.8-1.9,1.1-2.8,0-.2,.2-.3,.4-.3,1.5,0,2.9,0,4.4,0,.3,0,.3,0,.2,.3-.9,2-1.8,4-2.6,6-1,2.4-2.1,4.7-3.1,7.1-1,2.3-2,4.6-3,6.8,0,.2-.2,.2-.4,.2-1,0-2.1,0-3.1,0Z"/>
    <path class="cls-1" d="M50,20.9c-1.9,3.3-3.8,6.7-5.8,10-.6,1-1.1,2-1.8,2.8-1.5,1.6-3.4,2.5-5.6,2.7-3.3,.2-5.8-1.1-7.6-3.8,0-.1-.2-.2,0-.4,2.3-4,4.7-8.1,7-12.1,0,0,0,0,0,0,.4,.7,.9,1.4,1.5,1.9,1.4,1.3,3.1,2,5.1,2.1,2.2,.1,4.2-.5,5.8-1.9,.4-.4,.8-.8,1.2-1.3,0,0,0,0,0,0Z"/>
    <path class="cls-1" d="M142.4,36.1c-1.2-2.9-2.4-5.7-3.6-8.6-1.6-3.8-3.2-7.5-4.8-11.3-.1-.2-.2-.4-.5-.3-1.1,0-2.3,0-3.4,0s-2.3,0-3.4,0c-.3,0-.4,.1-.5,.4-1.5,3.4-3,6.8-4.5,10.3-1.4,3.2-2.7,6.3-4.1,9.5-.2,.4-.2,.4,.2,.4,1.4,0,2.8,0,4.2,0,.3,0,.4-.1,.5-.3,.3-.8,.7-1.7,1.1-2.5,0-.2,.2-.3,.4-.3,4,0,8,0,12,0,.2,0,.4,0,.5,.3,.4,.9,.7,1.7,1.1,2.6,0,.2,.2,.3,.4,.3,1.4,0,2.9,0,4.3,0,.2,0,.3,0,.2-.3Zm-8.1-6.9c-1.4,0-2.8,0-4.2,0-1.4,0-2.8,0-4.2,0-.3,0-.4,0-.2-.4,1.2-2.9,2.4-5.7,3.6-8.6,0-.2,.2-.2,.4-.2,.4,0,.7,0,1.1,0,.2,0,.3,0,.3,.2,1.2,2.9,2.3,5.8,3.5,8.7,.1,.3,0,.3-.2,.3Z"/>
  </g>
</svg>