<?xml version="1.0" encoding="utf-8"?>
<!-- Generator: Adobe Illustrator 24.1.2, SVG Export Plug-In . SVG Version: 6.00 Build 0)  -->
<svg version="1.1" id="Layer_2_1_" xmlns="http://www.w3.org/2000/svg" xmlns:xlink="http://www.w3.org/1999/xlink" x="0px" y="0px"
	 viewBox="0 0 189.9 52.2" style="enable-background:new 0 0 189.9 52.2;" xml:space="preserve">
<style type="text/css">
	.st0{fill:#FCF5A3;}
</style>
<g id="Layer_1-2">
	<path class="st0" d="M51.4,0c-2.7,0.6-4.8,1.8-6.1,4.2c-2.3,4-4.6,8-6.9,12s0,0.4,0,0.6c1.9,3,5.1,4.2,8.3,3.7s4.7-1.9,5.9-4.1
		c2.4-4,4.7-8.1,7-12.2s0-0.3,0-0.4c-1.1-1.8-2.7-3-4.7-3.6c-0.2,0-0.4-0.1-0.6-0.1C53.6,0,52.9,0,52.2,0l0,0C52.2,0,51.7,0,51.4,0z
		"/>
	<path class="st0" d="M27.7,52.2c-0.3,0-0.7,0-1,0c-2.9-0.2-5.2-1.6-6.7-4.1c-2.9-5-5.8-10-8.7-15.1C7.6,26.6,3.9,20.2,0.2,13.8
		c0-0.1-0.1-0.2-0.2-0.3c0-0.1,0.2,0,0.2,0c4.6,0,9.2,0,13.8,0c0.2,0,0.3,0,0.4,0.3c4.2,7.4,8.5,14.7,12.7,22c1.3,2.3,3.3,3.7,6,4
		c3,0.4,5.5-0.5,7.5-2.8c0,0,0.1,0,0,0c-0.8,1.3-1.5,2.6-2.3,3.9c-1.4,2.4-2.7,4.8-4.1,7.1c-1.3,2.3-3.3,3.6-5.8,4
		c-0.3,0-0.6,0-0.8,0L27.7,52.2z"/>
	<path class="st0" d="M154.9,15.4c2.6,0,4.9,0.3,7.1,1.2c1.1,0.4,2.1,1,3,1.7c0.2,0.1,0.2,0.2,0,0.4c-0.7,1-1.3,2-1.9,3
		c-0.1,0.2-0.2,0.2-0.4,0c-1.4-1-3-1.6-4.6-1.9c-1.4-0.3-2.8-0.4-4.2-0.2c-0.9,0-1.8,0.1-2.6,0.5c-0.4,0.2-0.8,0.4-1,0.7
		c-0.6,0.8-0.3,1.9,0.6,2.2c0.8,0.3,1.6,0.4,2.4,0.4c1.1,0.1,2.1,0.2,3.2,0.4c0.8,0,1.7,0.2,2.5,0.3c1.6,0.2,3.2,0.6,4.6,1.6
		c1.4,1,2.1,2.4,2.2,4.1c0,1.3-0.1,2.5-0.8,3.5c-0.6,0.9-1.3,1.5-2.3,2c-1.3,0.7-2.8,1.1-4.3,1.3c-1.1,0.2-2.1,0.2-3.2,0.2
		c-2.8,0-5.4-0.4-7.9-1.6c-0.9-0.4-1.7-1-2.5-1.5c-0.2-0.1-0.2-0.2,0-0.4c0.6-1,1.2-2,1.9-3c0.2-0.3,0.3-0.3,0.5-0.1
		c1.5,1,3.1,1.8,4.8,2.2c1.6,0.4,3.2,0.5,4.8,0.4c1.1,0,2.1-0.2,3.1-0.6c0.4-0.2,0.7-0.4,1-0.7c0.7-0.7,0.7-2.4-0.7-2.8
		c-0.6-0.2-1.1-0.2-1.7-0.3c-1.1-0.1-2.2-0.3-3.3-0.4c-1-0.1-2.1-0.2-3.1-0.4c-1.7-0.2-3.3-0.6-4.7-1.6c-1.2-0.9-1.7-2.1-1.8-3.6
		c0-0.9,0-1.8,0.3-2.6c0.5-1.3,1.4-2.2,2.5-2.9c1.3-0.8,2.8-1.2,4.3-1.4c0.8-0.1,1.6-0.1,2.3-0.1L154.9,15.4z"/>
	<path class="st0" d="M189.9,15.9c0,3,0,6,0,9c0,3.6,0,7.3,0,10.9c0,0.3-0.1,0.4-0.4,0.4c-1.4,0-2.8,0-4.2,0c0-2.7,0-5.4,0-8.1
		c0-0.3,0-0.4-0.4-0.4c-3.6,0-7.2,0-10.7,0c-0.3,0-0.4,0-0.4,0.4c0,2.6,0,5.2,0,7.7c0,0.3,0,0.4-0.4,0.4c-1.3,0-2.6,0-3.9,0
		c-0.3,0-0.4,0-0.4-0.4c0-6.6,0-13.2,0-19.8c0-0.3,0-0.4,0.4-0.3c1.3,0,2.6,0,3.9,0c0.3,0,0.4,0,0.4,0.4c0,2.3,0,4.7,0,7
		c0,0.3,0,0.4,0.4,0.4c3.6,0,7.1,0,10.7,0c0.3,0,0.4-0.2,0.4-0.5c0-2.3,0-4.6,0-6.9c0-0.3,0-0.4,0.4-0.4c1.4,0,2.8,0,4.2,0V15.9z"/>
	<path class="st0" d="M105.7,15.4c1.9,0,3.7,0.3,5.4,1c2.1,0.9,3.6,2.3,4.8,4.2c0.1,0.2,0,0.3-0.1,0.3c-1,0.6-2.1,1.2-3.1,1.8
		c-0.3,0.2-0.4,0-0.5-0.1c-0.6-0.8-1.2-1.4-2-1.9c-1.1-0.7-2.4-1.1-3.7-1.2c-1,0-2,0-3,0.2c-2.6,0.7-4.1,2.3-4.6,4.9
		c-0.3,1.4-0.2,2.8,0.4,4.1c0.8,1.9,2.1,3.1,4.1,3.6c2.5,0.7,5,0.4,7.2-1.2c0.7-0.5,1.2-1.1,1.7-1.7c0.1-0.2,0.3-0.2,0.5,0
		c1,0.6,2,1.2,3,1.7c0.2,0.1,0.3,0.2,0.1,0.5c-1.8,2.8-4.3,4.4-7.5,4.9c-0.9,0.2-1.8,0.2-2.6,0.2c-2.9,0-5.6-0.7-7.9-2.6
		c-1.8-1.5-2.9-3.4-3.4-5.7c-0.2-0.9-0.3-1.8-0.3-2.7c0-2.4,0.7-4.6,2.3-6.6c1.2-1.4,2.6-2.5,4.4-3.1c1.6-0.6,3.2-0.9,4.8-0.8
		L105.7,15.4z"/>
	<path class="st0" d="M80.9,36.3c-1,0-2,0-3,0c-0.2,0-0.4,0-0.5-0.3c-1.1-2.6-2.3-5.2-3.4-7.9c-1.1-2.4-2.2-4.9-3.2-7.3
		c-0.7-1.6-1.4-3.1-2.1-4.7c-0.1-0.2,0-0.2,0.2-0.2c1.5,0,3.1,0,4.6,0c0.2,0,0.3,0,0.4,0.3c1.6,4,3.3,8,4.9,12
		c0.5,1.3,1.1,2.5,1.6,3.8c0,0.2,0.2,0.3,0.4,0.3c0.8,0,0.6,0,0.9-0.6c1.7-4.2,3.5-8.5,5.2-12.7c0.4-0.9,0.8-1.9,1.1-2.8
		c0-0.2,0.2-0.3,0.4-0.3c1.5,0,2.9,0,4.4,0c0.3,0,0.3,0,0.2,0.3c-0.9,2-1.8,4-2.6,6c-1,2.4-2.1,4.7-3.1,7.1c-1,2.3-2,4.6-3,6.8
		c0,0.2-0.2,0.2-0.4,0.2C82.9,36.3,81.8,36.3,80.9,36.3L80.9,36.3z"/>
	<path class="st0" d="M50,20.9c-1.9,3.3-3.8,6.7-5.8,10c-0.6,1-1.1,2-1.8,2.8c-1.5,1.6-3.4,2.5-5.6,2.7c-3.3,0.2-5.8-1.1-7.6-3.8
		c0-0.1-0.2-0.2,0-0.4c2.3-4,4.7-8.1,7-12.1l0,0c0.4,0.7,0.9,1.4,1.5,1.9c1.4,1.3,3.1,2,5.1,2.1c2.2,0.1,4.2-0.5,5.8-1.9
		c0.4-0.4,0.8-0.8,1.2-1.3l0,0L50,20.9z"/>
	<path class="st0" d="M142.4,36.1c-1.2-2.9-2.4-5.7-3.6-8.6c-1.6-3.8-3.2-7.5-4.8-11.3c-0.1-0.2-0.2-0.4-0.5-0.3c-1.1,0-2.3,0-3.4,0
		s-2.3,0-3.4,0c-0.3,0-0.4,0.1-0.5,0.4c-1.5,3.4-3,6.8-4.5,10.3c-1.4,3.2-2.7,6.3-4.1,9.5c-0.2,0.4-0.2,0.4,0.2,0.4
		c1.4,0,2.8,0,4.2,0c0.3,0,0.4-0.1,0.5-0.3c0.3-0.8,0.7-1.7,1.1-2.5c0-0.2,0.2-0.3,0.4-0.3c4,0,8,0,12,0c0.2,0,0.4,0,0.5,0.3
		c0.4,0.9,0.7,1.7,1.1,2.6c0,0.2,0.2,0.3,0.4,0.3c1.4,0,2.9,0,4.3,0c0.2,0,0.3,0,0.2-0.3L142.4,36.1z M134.3,29.2
		c-1.4,0-2.8,0-4.2,0s-2.8,0-4.2,0c-0.3,0-0.4,0-0.2-0.4c1.2-2.9,2.4-5.7,3.6-8.6c0-0.2,0.2-0.2,0.4-0.2c0.4,0,0.7,0,1.1,0
		c0.2,0,0.3,0,0.3,0.2c1.2,2.9,2.3,5.8,3.5,8.7c0.1,0.3,0,0.3-0.2,0.3L134.3,29.2z"/>
</g>
</svg>
