<?xml version="1.0" encoding="utf-8"?>
<!-- Generator: Adobe Illustrator 24.1.2, SVG Export Plug-In . SVG Version: 6.00 Build 0)  -->
<svg version="1.1" id="Layer_1" xmlns="http://www.w3.org/2000/svg" xmlns:xlink="http://www.w3.org/1999/xlink" x="0px" y="0px"
	 viewBox="0 0 124 40" style="enable-background:new 0 0 124 40;" xml:space="preserve">
<style type="text/css">
	.st0{fill-rule:evenodd;clip-rule:evenodd;fill:#FCF5A3;}
</style>
<path class="st0" d="M37.4,38.9L48.9,0.7h10.3L47.7,38.9C47.7,38.9,37.4,38.9,37.4,38.9z M32.7,0.8L23.5,17
	c-2.4,4.2-3.7,6.4-4.4,9.1H19c0.1-3.4-0.3-7.6-0.4-9.9l-1-15.3H0.1L0,1.9c4.5,0,7.1,2.2,7.8,6.8L11.2,39h10.7L43.5,0.8H32.7z
	 M112.9,38.9l-0.3-5.7H99.8l-2.6,5.7H85.9l20.3-38.1H120l3.4,38.1H112.9z M111.7,16.4c-0.1-2.8-0.2-6.6,0-8.9h-0.1
	c-0.6,1.9-3.3,7.6-4.5,10.3l-3.8,8.3h9.1C112.3,26.2,111.7,16.4,111.7,16.4z M70,40c-7.3,0-12.1-2.3-15.5-4.4l4.9-7.5
	c3.1,1.7,5.5,3.7,11.2,3.7c1.8,0,3.6-0.4,4.5-2.2c1.4-2.5-0.3-3.8-4.4-6.1l-2-1.3c-5.9-4.1-8.5-8-5.7-14.7C64.8,3.3,69.5,0,77.3,0
	c5.4,0,10.5,2.3,13.4,4.6l-5.7,6.6c-2.9-2.3-5.3-3.5-8-3.5c-2.2,0-3.9,0.8-4.4,2c-1,2.2,0.4,3.6,3.5,5.5l2.4,1.5
	c7.3,4.6,9,9.4,7.1,13.8C82.6,38.3,76.4,40,70,40z"/>
</svg>
