<?xml version="1.0" encoding="utf-8"?>
<!-- Generator: Adobe Illustrator 24.1.2, SVG Export Plug-In . SVG Version: 6.00 Build 0)  -->
<svg version="1.1" id="Layer_2_1_" xmlns="http://www.w3.org/2000/svg" xmlns:xlink="http://www.w3.org/1999/xlink" x="0px" y="0px"
	 viewBox="0 0 202.1 105.4" style="enable-background:new 0 0 202.1 105.4;" xml:space="preserve">
<style type="text/css">
	.st0{fill-rule:evenodd;clip-rule:evenodd;fill:#FCF5A3;}
	.st1{fill:#FCF5A3;}
</style>
<g id="Layer_1-2_1_">
	<g id="Layer_1-2">
		<g>
			<path class="st0" d="M67,48.6L81.4,0.9h12.9L79.9,48.6H67z M61.2,1L49.6,21.2c-3,5.3-4.7,8-5.5,11.3H44c0.2-4.3-0.4-9.5-0.5-12.4
				L42.2,1H20.5l-0.2,1.3c5.6,0,8.9,2.8,9.8,8.6l4.3,37.8h13.4L74.7,1C74.7,1,61.2,1,61.2,1z M161.5,48.6l-0.4-7.1H145l-3.3,7.1h-14
				L153.1,1h17.2l4.3,47.6H161.5z M160,20.5c-0.2-3.5-0.3-8.3,0-11.1h-0.2c-0.7,2.3-4.2,9.5-5.7,12.9l-4.7,10.4h11.3L160,20.5
				L160,20.5L160,20.5z M107.8,50c-9.1,0-15.2-2.9-19.4-5.5l6.1-9.4c3.9,2.1,6.9,4.7,13.9,4.7c2.2,0,4.5-0.6,5.7-2.7
				c1.8-3.1-0.4-4.7-5.5-7.6l-2.5-1.6c-7.4-5.1-10.7-9.9-7.2-18.4c2.2-5.4,8.2-9.5,17.9-9.5c6.8,0,13.1,2.9,16.7,5.8l-7.1,8.3
				c-3.6-2.9-6.6-4.4-10-4.4c-2.7,0-4.8,1-5.5,2.5c-1.3,2.7,0.5,4.5,4.4,6.9l3,1.9c9.1,5.8,11.3,11.7,8.9,17.3
				C123.5,47.9,115.8,50,107.8,50C107.8,50,107.8,50,107.8,50z"/>
			<g>
				<path class="st1" d="M138.8,70.8h-5.7V79h5.4c3.7,0,5.3-1.4,5.3-4.1S142.1,70.8,138.8,70.8L138.8,70.8L138.8,70.8z"/>
				<path class="st1" d="M0,55.4v50h202.1v-50H0z M41.1,93.5c-6.4,0-9.3-3.4-9.9-7.5h3.8c0.7,3,2.7,4.5,6.3,4.5c3.8,0,5.3-1.7,5.3-4
					c0-2.5-1.3-3.8-6.2-5c-6.2-1.5-8.2-3.6-8.2-7.2c0-3.9,2.9-7,8.7-7c6.2,0,8.8,3.5,9.1,7h-3.8c-0.4-2.1-1.7-4-5.4-4
					c-2.9,0-4.6,1.3-4.6,3.6s1.4,3.2,5.8,4.2c7.3,1.8,8.7,4.6,8.7,7.9C50.6,90.2,47.5,93.5,41.1,93.5z M72.5,93.1H55.4V67.6h16.9
					v3.2H59.1v7.3h12.6v3.2H59.1v8.6H73L72.5,93.1L72.5,93.1z M87.9,90.3c3.9,0,5.5-2.3,6.3-4.6H98c-1.1,4.4-4.4,7.7-10.3,7.7
					c-7.7,0-11.6-5.8-11.6-13S80,67.3,87.9,67.3c6.2,0,9.4,3.5,10.2,7.8h-3.8c-0.8-2.6-2.6-4.7-6.5-4.7c-5.4,0-7.6,4.9-7.6,10
					S82.2,90.4,87.9,90.3L87.9,90.3L87.9,90.3z M122.8,82.8c0,8.4-4.7,10.7-10.1,10.7s-10.1-2.5-10.1-10.5V67.6h3.8v15.3
					c0,5.8,3.2,7.4,6.3,7.4c3.7,0,6.3-1.8,6.3-7.4V67.6h3.8L122.8,82.8L122.8,82.8L122.8,82.8z M147.2,87v1.1c0,1.8-0.1,3.9,0.4,5
					h-3.7c-0.5-1.1-0.4-3.1-0.4-5.5v-0.5c0-3.5-1-5-5.4-5h-4.9v11h-3.7V67.6h10.2c5.3,0,8.1,2.9,8.1,6.9c0,3.3-1.9,5.3-4.2,6
					C145.4,81,147.2,82.5,147.2,87L147.2,87L147.2,87z M170.3,93.1h-17.1V67.6h16.9v3.2h-13.2v7.3h12.6v3.2h-12.6v8.6h13.9
					L170.3,93.1L170.3,93.1L170.3,93.1z"/>
			</g>
		</g>
	</g>
</g>
</svg>
