<?xml version="1.0" encoding="UTF-8"?>
<svg id="Layer_2" data-name="Layer 2" xmlns="http://www.w3.org/2000/svg" viewBox="0 0 202.09 105.36">
  <defs>
    <style>
      .cls-1, .cls-2 {
        fill: #346275;
      }

      .cls-2 {
        fill-rule: evenodd;
      }
    </style>
  </defs>
  <g id="Layer_1-2" data-name="Layer 1">
    <g id="Layer_1-2" data-name="Layer 1-2">
      <g>
        <path class="cls-2" d="M67.04,48.6L81.44,.91h12.92l-14.5,47.69s-12.82,0-12.82,0ZM61.17,1l-11.52,20.17c-2.97,5.3-4.65,7.99-5.48,11.34h-.19c.19-4.28-.37-9.48-.47-12.36L42.21,1H20.46l-.18,1.3c5.58,0,8.92,2.79,9.76,8.55l4.28,37.84h13.38L74.66,1h-13.49Zm100.3,47.6l-.37-7.06h-16.08l-3.25,7.06h-14.03L153.11,1.01h17.19l4.27,47.59s-13.1,0-13.1,0Zm-1.49-28.08c-.19-3.53-.28-8.27,0-11.15h-.19c-.74,2.32-4.18,9.48-5.67,12.92l-4.74,10.41h11.34l-.74-12.18h0Zm-52.14,29.47c-9.11,0-15.15-2.88-19.42-5.48l6.13-9.39c3.9,2.14,6.88,4.65,13.94,4.65,2.23,0,4.46-.56,5.67-2.69,1.76-3.07-.37-4.74-5.48-7.62l-2.51-1.58c-7.43-5.11-10.69-9.94-7.16-18.4,2.23-5.39,8.18-9.48,17.94-9.48,6.79,0,13.1,2.88,16.73,5.76l-7.06,8.27c-3.62-2.88-6.6-4.37-10.04-4.37-2.7,0-4.83,1.02-5.48,2.51-1.3,2.69,.46,4.46,4.37,6.88l2.97,1.86c9.11,5.76,11.25,11.71,8.92,17.29-3.82,9.65-11.53,11.79-19.52,11.79h0Z"/>
        <g>
          <path class="cls-1" d="M138.8,70.76h-5.71v8.19h5.37c3.73,0,5.34-1.41,5.34-4.13s-1.69-4.06-5.01-4.06h.01Z"/>
          <path class="cls-1" d="M0,55.36v50H202.09V55.36H0Zm41.13,38.1c-6.43,0-9.31-3.45-9.86-7.5h3.84c.67,2.97,2.71,4.52,6.27,4.52,3.78,0,5.3-1.73,5.3-4.04,0-2.47-1.25-3.8-6.22-5-6.19-1.49-8.21-3.64-8.21-7.2,0-3.91,2.9-6.99,8.66-6.99,6.21,0,8.75,3.54,9.09,6.96h-3.84c-.42-2.14-1.74-3.97-5.38-3.97-2.94,0-4.61,1.31-4.61,3.62s1.37,3.18,5.78,4.24c7.3,1.77,8.65,4.59,8.65,7.92,0,4.22-3.14,7.44-9.47,7.44Zm31.35-.33h-17.07v-25.51h16.89v3.21h-13.19v7.35h12.6v3.21h-12.6v8.55h13.85l-.48,3.21v-.02Zm15.4-2.78c3.87,0,5.48-2.28,6.35-4.57h3.8c-1.11,4.41-4.41,7.68-10.31,7.68-7.72,0-11.56-5.78-11.56-13s3.87-13.21,11.71-13.21c6.16,0,9.43,3.54,10.16,7.8h-3.79c-.84-2.63-2.59-4.7-6.52-4.7-5.42,0-7.62,4.92-7.62,9.99s2.06,10.01,7.77,10.01h0Zm34.95-7.6c0,8.36-4.68,10.71-10.14,10.71s-10.08-2.52-10.08-10.5v-15.34h3.83v15.32c0,5.81,3.16,7.41,6.33,7.41,3.7,0,6.26-1.75,6.26-7.41v-15.32h3.81v15.13h-.01Zm24.38,4.24v1.13c0,1.75-.06,3.92,.35,5.02h-3.66c-.46-1.1-.45-3.08-.45-5.53v-.51c0-3.47-.97-5-5.45-5h-4.92v11.04h-3.74v-25.51h10.21c5.3,0,8.14,2.89,8.14,6.86,0,3.34-1.9,5.32-4.23,6.01,1.93,.54,3.76,2.05,3.76,6.51v-.02Zm23.1,6.14h-17.07v-25.51h16.89v3.21h-13.19v7.35h12.6v3.21h-12.6v8.55h13.85l-.48,3.21v-.02Z"/>
        </g>
      </g>
    </g>
  </g>
</svg>