<?xml version="1.0" encoding="utf-8"?>
<!-- Generator: Adobe Illustrator 24.1.2, SVG Export Plug-In . SVG Version: 6.00 Build 0)  -->
<svg version="1.1" id="Layer_1" xmlns="http://www.w3.org/2000/svg" xmlns:xlink="http://www.w3.org/1999/xlink" x="0px" y="0px"
	 viewBox="0 0 185 93" style="enable-background:new 0 0 185 93;" xml:space="preserve">
<style type="text/css">
	.st0{fill:#FCF5A3;}
</style>
<desc>Created with Sketch.</desc>
<g id="Page-1">
	<g id="visa-secure">
		<g id="Group">
			<path id="Path" class="st0" d="M10.1,32.5L0.3,2.4h4.2l4.7,14.8c1.3,4.1,2.4,7.7,3.2,11.3h0.1c0.8-3.5,2.1-7.3,3.4-11.2L21,2.4
				h4.2L14.4,32.5H10.1L10.1,32.5z"/>
			<path id="Shape" class="st0" d="M27.3,22.4c0.1,5.3,3.5,7.5,7.4,7.5c2.8,0,4.5-0.5,6-1.1l0.7,2.8c-1.4,0.6-3.8,1.3-7.2,1.3
				c-6.7,0-10.6-4.4-10.6-10.9s3.8-11.7,10.1-11.7c7.1,0,8.9,6.2,8.9,10.2c0,0.8-0.1,1.4-0.1,1.8L27.3,22.4L27.3,22.4z M38.8,19.6
				c0.1-2.5-1-6.4-5.5-6.4c-4,0-5.7,3.7-6,6.4H38.8z"/>
			<path id="Path_1_" class="st0" d="M45.7,17.6c0-2.5,0-4.7-0.2-6.7h3.4l0.1,4.2h0.2c1-2.9,3.4-4.7,6-4.7c0.4,0,0.8,0,1.1,0.1v3.7
				c-0.4-0.1-0.8-0.1-1.3-0.1c-2.8,0-4.7,2.1-5.3,5c-0.1,0.5-0.2,1.2-0.2,1.8v11.5h-3.9V17.6H45.7z"/>
			<path id="Shape_1_" class="st0" d="M63.1,4.8c0,1.3-0.9,2.4-2.5,2.4c-1.4,0-2.4-1.1-2.4-2.4c0-1.4,1-2.5,2.5-2.5
				C62.1,2.3,63.1,3.4,63.1,4.8L63.1,4.8z M58.7,10.9h3.9v21.6h-3.9V10.9z"/>
			<path id="Path_2_" class="st0" d="M67.8,32.5V13.9h-3v-3h3v-1c0-3,0.7-5.8,2.5-7.6c1.5-1.4,3.4-2,5.3-2c1.4,0,2.6,0.3,3.4,0.6
				l-0.5,3c-0.6-0.3-1.4-0.5-2.5-0.5c-3.3,0-4.2,2.9-4.2,6.3v1.2H77v3h-5.2v18.6H67.8z"/>
			<path id="Shape_2_" class="st0" d="M85.1,4.8c0.1,1.3-0.9,2.4-2.5,2.4c-1.4,0-2.4-1.1-2.4-2.4c0-1.4,1-2.5,2.5-2.5
				S85.1,3.4,85.1,4.8L85.1,4.8z M80.7,10.9h3.9v21.6h-3.9V10.9z"/>
			<path id="Shape_3_" class="st0" d="M91.6,22.4c0.1,5.3,3.5,7.5,7.4,7.5c2.8,0,4.5-0.5,6-1.1l0.7,2.8c-1.4,0.6-3.8,1.3-7.2,1.3
				c-6.7,0-10.6-4.4-10.6-10.9S91.7,10.3,98,10.3c7.1,0,8.9,6.2,8.9,10.2c0,0.8-0.1,1.4-0.1,1.8L91.6,22.4L91.6,22.4z M103.1,19.6
				c0-2.5-1-6.4-5.5-6.4c-4,0-5.7,3.7-6,6.4H103.1z"/>
			<path id="Shape_4_" class="st0" d="M128.7,0.8v26.1c0,1.9,0,4.1,0.2,5.6h-3.5l-0.2-3.8h-0.1c-1.2,2.4-3.8,4.2-7.4,4.2
				c-5.2,0-9.2-4.4-9.2-11c0-7.2,4.4-11.6,9.7-11.6c3.3,0,5.5,1.6,6.5,3.3h0.1V0.8H128.7z M124.8,19.7c0-0.5,0-1.2-0.2-1.7
				c-0.6-2.5-2.7-4.6-5.7-4.6c-4.1,0-6.5,3.6-6.5,8.4c0,4.4,2.1,8,6.4,8c2.6,0,5-1.7,5.8-4.7c0.1-0.5,0.2-1.1,0.2-1.7V19.7z"/>
			<path id="Shape_5_" class="st0" d="M143.2,32.5c0.1-1.5,0.2-3.7,0.2-5.6V0.8h3.9v13.6h0.1c1.4-2.4,3.9-4,7.4-4
				c5.4,0,9.2,4.5,9.1,11c0,7.7-4.9,11.6-9.7,11.6c-3.1,0-5.6-1.2-7.2-4.1h-0.1l-0.2,3.6H143.2z M147.3,23.8c0,0.5,0.1,1,0.2,1.4
				c0.8,2.7,3,4.6,5.9,4.6c4.1,0,6.6-3.4,6.6-8.3c0-4.3-2.2-8-6.4-8c-2.7,0-5.2,1.8-6,4.8c-0.1,0.4-0.2,1-0.2,1.6L147.3,23.8
				L147.3,23.8L147.3,23.8z"/>
			<path id="Path_3_" class="st0" d="M168.2,10.9l4.7,12.8c0.5,1.4,1,3.1,1.4,4.4h0.1c0.4-1.3,0.8-3,1.4-4.5l4.3-12.7h4.2l-5.9,15.4
				c-2.8,7.4-4.7,11.2-7.4,13.5c-1.9,1.7-3.8,2.4-4.8,2.5l-1-3.3c1-0.3,2.3-0.9,3.4-1.9c1.1-0.8,2.4-2.4,3.3-4.4
				c0.2-0.4,0.3-0.7,0.3-0.9c0-0.2-0.1-0.5-0.3-1l-8-19.9H168.2L168.2,10.9z"/>
		</g>
		<g id="Group_1_" transform="translate(23.000000, 46.000000)">
			<path id="Path_4_" class="st0" d="M42.5,1.2L30.6,31.3L25.8,5.7c-0.6-2.9-2.8-4.5-5.3-4.5H1L0.7,2.5c4,0.9,8.5,2.3,11.3,3.8
				c1.7,0.9,2.2,1.7,2.7,3.9l9.1,35.3H36L54.6,1.2H42.5L42.5,1.2z"/>
			<polygon id="Path_5_" class="st0" points="59.5,1.2 50,45.5 61.5,45.5 70.9,1.2 			"/>
			<path id="Path_6_" class="st0" d="M86,13.5c0-1.6,1.6-3.3,4.9-3.7c1.6-0.2,6.2-0.4,11.3,2l2-9.4c-2.8-1-6.3-2-10.7-2
				c-11.3,0-19.3,6-19.4,14.7c-0.1,6.4,5.7,9.9,10,12c4.5,2.2,6,3.5,5.9,5.5c0,3-3.6,4.3-6.8,4.3c-5.8,0.1-9.1-1.6-11.8-2.8
				l-2.1,9.7C72,45,76.9,46.1,82,46.1c12,0,19.9-5.9,19.9-15.2C102.1,19.4,85.9,18.7,86,13.5"/>
			<path id="Shape_6_" class="st0" d="M119.1,29.8l6.1-16.6l3.4,16.6H119.1z M123.5,1.2c-2.2,0-4.1,1.3-4.9,3.2l-17.2,41h12l2.4-6.6
				h14.7l1.4,6.6h10.6l-9.2-44.3h-9.8V1.2L123.5,1.2z"/>
		</g>
	</g>
</g>
</svg>
