<svg width="124" height="40" viewBox="0 0 124 40" xmlns="http://www.w3.org/2000/svg"><title>visa</title><path d="M37.398 38.885L48.922.743h10.335L47.658 38.885h-10.26zM32.714.818l-9.22 16.134c-2.379 4.238-3.717 6.394-4.386 9.07h-.149c.149-3.42-.297-7.583-.372-9.888L17.547.818H.148L0 1.858c4.461 0 7.138 2.231 7.807 6.84l3.42 30.261h10.706L43.494.818h-10.78zm80.223 38.067l-.298-5.65H99.777l-2.602 5.65H85.948L106.245.818H120l3.42 38.067h-10.483zm-1.19-22.454c-.148-2.825-.223-6.617 0-8.922h-.148c-.595 1.859-3.346 7.584-4.536 10.335l-3.792 8.327h9.071l-.595-9.74zM70.037 40c-7.286 0-12.119-2.305-15.539-4.387l4.907-7.509c3.123 1.71 5.502 3.718 11.153 3.718 1.784 0 3.568-.447 4.535-2.157 1.413-2.453-.297-3.791-4.387-6.096L68.7 22.305c-5.948-4.09-8.55-7.956-5.725-14.721C64.758 3.27 69.517 0 77.324 0c5.427 0 10.483 2.305 13.382 4.61l-5.65 6.617c-2.9-2.305-5.279-3.495-8.03-3.495-2.156 0-3.866.818-4.387 2.008-1.04 2.156.372 3.569 3.495 5.502l2.379 1.487c7.286 4.61 8.996 9.368 7.138 13.829C82.602 38.29 76.43 40 70.037 40z" fill="#346275" fill-rule="evenodd"/></svg>