<?xml version="1.0" encoding="UTF-8"?>
<svg width="284px" height="95px" viewBox="0 0 284 95" version="1.1" xmlns="http://www.w3.org/2000/svg" xmlns:xlink="http://www.w3.org/1999/xlink">
    <title>webpay</title>
    <g id="Page-1" stroke="none" stroke-width="1" fill="none" fill-rule="evenodd">
        <path d="M172.4902,69.2268 C179.8827,69.2268 185.2543,74.8428 185.2543,81.936 C185.2543,89.0294 179.8827,94.6445 172.4902,94.6445 C165.156548,94.6445 159.833136,89.1909771 159.680375,82.2434646 L159.677,81.936 L159.677,79.4732 C159.677,75.8769 157.6069,73.2172 154.0582,73.2172 C151.003,73.2172 148.9331,75.0892 147.9969,78.2413 C148.033875,78.50005 148.043119,78.7586312 148.04543,78.9965828 L148.0462,79.2269 L148.0462,94.2505 L143.8075,94.2505 L143.8075,79.4732 C143.8075,75.8769 141.6884,73.2172 138.1402,73.2172 C135.370834,73.2172 133.249768,74.8351336 132.223576,77.5786056 L132.1277,77.8476 L132.1277,94.2505 L127.889,94.2505 L127.889,69.6214 L132.1277,69.6214 L132.1277,72.3308 C133.9512,70.0648 136.6124,69.2268 139.0765,69.2268 C142.329,69.2268 144.9902,70.7048 146.518,73.2662 C148.8345,70.0648 152.2352,69.2268 154.7487,69.2268 C158.3462,69.2268 161.1057,70.8528 162.6338,73.6602 C164.9007,70.9512 168.3998,69.2268 172.4902,69.2268 Z M234.1914,69.6214 L234.1914,94.2505 L229.9527,94.2505 L229.9527,69.6214 L234.1914,69.6214 Z M225.7642,69.3745 C226.23724,69.3745 226.710664,69.406116 227.158616,69.4692456 L227.4894,69.5225 L227.4894,73.9066 C226.7989,73.7096 226.0106,73.6109 225.1236,73.6109 C222.551107,73.6109 220.20886,74.8539914 219.075944,77.2505673 L218.9631,77.5026 L218.9631,94.2505 L214.7247,94.2505 L214.7247,69.6214 L218.9631,69.6214 L218.9631,72.5278 C220.6389,70.4095 223.0044,69.3745 225.7642,69.3745 Z M200.581,69.2268 C206.055807,69.2268 209.958492,72.9876959 210.089214,78.9182219 L210.0926,79.2269 L210.0926,94.2505 L205.8548,94.2505 L205.8548,79.4732 C205.8548,75.8769 203.489,73.2172 199.645,73.2172 C196.291319,73.2172 193.962253,75.03296 193.019779,78.07607 L192.9424,78.3399 L192.9424,94.2505 L188.7044,94.2505 L188.7044,69.6214 L192.9424,69.6214 L192.9424,72.4291 C194.8153,70.0648 197.7228,69.2268 200.581,69.2268 Z M172.4902,73.2172 C167.4635,73.2172 164.0628,77.0595 164.0628,81.936 C164.0628,86.8127 167.4635,90.6545 172.4902,90.6545 C177.5169,90.6545 180.868,86.8127 180.868,81.936 C180.868,77.0595 177.5169,73.2172 172.4902,73.2172 Z M113.0185,75.4506 L114.8083,80.2794 C114.9939,80.8197 115.1966,81.4612 115.3315,81.9507 L115.3315,81.9507 L115.3653,81.9507 C115.5172,81.4612 115.6862,80.8364 115.8888,80.2454 L115.8888,80.2454 L117.5097,75.4506 L119.0798,75.4506 L116.8512,81.2755 C115.7874,84.0781 115.0614,85.5133 114.0483,86.3912 C113.3223,87.033 112.5964,87.2861 112.2251,87.3536 L112.2251,87.3536 L111.8534,86.1043 C112.2251,85.9861 112.7146,85.7497 113.1537,85.3784 C113.5588,85.0575 114.0653,84.4835 114.4029,83.7235 C114.4707,83.5716 114.5211,83.4534 114.5211,83.3692 C114.5211,83.2847 114.4874,83.1665 114.4199,82.9808 L114.4199,82.9808 L111.3976,75.4506 L113.0185,75.4506 Z M104.4584,71.6346 L104.4584,76.7673 L104.4921,76.7673 C105.0157,75.8557 105.9611,75.2646 107.278,75.2646 C109.3042,75.2646 110.7394,76.9532 110.7224,79.435 C110.7224,82.3561 108.8822,83.808 107.0586,83.808 C105.8766,83.808 104.9312,83.3522 104.3235,82.2716 L104.3235,82.2716 L104.2727,82.2716 L104.2053,83.6223 L102.922,83.6223 C102.9558,83.065 102.9895,82.2379 102.9895,81.5119 L102.9895,81.5119 L102.9895,71.6346 L104.4584,71.6346 Z M106.8052,76.4467 C105.7924,76.4467 104.8468,77.1389 104.5429,78.2702 C104.5091,78.4389 104.4584,78.6416 104.4584,78.878 L104.4584,78.878 L104.4584,80.3469 C104.4584,80.5325 104.4921,80.7182 104.5259,80.8872 C104.813,81.917 105.6742,82.6262 106.7548,82.6262 C108.3079,82.6262 109.2365,81.36 109.2365,79.4857 C109.2365,77.8479 108.3923,76.4467 106.8052,76.4467 Z M251.9941,14.4864 L258.954,43.3049 L272.4511,14.4864 L283.4646,14.4864 L255.1958,69.3757 L243.9088,69.3757 L251.6624,54.9127 L240.3981,14.4864 L251.9941,14.4864 Z M232.0722,58.8827 C233.7971,58.8827 235.1274,60.2623 235.1274,61.9857 C235.1274,62.8499769 234.833691,63.5879769 234.323432,64.122463 L234.1914,64.2518 L229.9527,64.2518 C229.3617,63.7101 229.0167,62.922 229.0167,61.9857 C229.0167,60.2623 230.347,58.8827 232.0722,58.8827 Z M126.2024,5.68434189e-14 L123.9795,19.8861 C127.3884,17.2695 130.1171,15.5211 132.175,14.6647 C134.2332,13.8084 136.3626,13.3804 138.5388,13.3804 C143.2845,13.3804 146.7442,15.1999 148.9295,18.8512 C151.1034,22.4909 151.827,27.6168 151.0889,34.2178 C150.3672,40.6763 148.1409,45.9096 144.385,49.9294 C140.6412,53.9495 136.3017,55.9596 131.3773,55.9596 C127.8451,55.9596 124.2003,54.6273 120.4274,51.9871 L119.4185,54.8416 L109.3802,54.8416 L115.5104,5.68434189e-14 L126.2024,5.68434189e-14 Z M90.3918,13.2375 C102.5232,13.2375 107.8688,19.6838 106.4276,32.5769 L106.0073,36.335 L77.3912,36.335 C76.9513,44.4228 81.0902,48.4665 89.7965,48.4665 C94.3518,48.4665 99.1154,46.8133 104.0862,43.5186 L104.4669,43.5186 L103.4314,52.7839 C97.738,54.8773 92.4837,55.9239 87.6784,55.9239 C80.102,55.9239 74.5359,54.1159 70.9651,50.5241 C67.3951,46.9202 65.9897,41.7228 66.7474,34.9435 C67.5,28.2118 69.9718,22.907 74.1742,19.0417 C78.3646,15.1761 83.7791,13.2375 90.3918,13.2375 Z M218.7774,13.3446 C225.5808,13.3446 230.3827,14.4388 233.1576,16.6393 C235.9457,18.8277 237.0776,22.3245 236.5433,27.1054 L233.443,54.8416 L222.81,54.8416 L223.3979,49.5844 C219.8135,52.3916 216.9644,54.1516 214.8517,54.8532 C212.7382,55.567 210.534,55.9239 208.2266,55.9239 C204.7059,55.9239 201.8959,54.7821 199.8329,52.4866 C197.7687,50.203 196.9333,47.2535 197.3347,43.6615 C197.8438,39.1062 199.942,35.6573 203.6308,33.302 C207.3178,30.9591 214.7125,29.4964 225.8153,28.9134 L225.9363,27.8311 C226.2181,25.3097 225.5559,23.4663 223.9336,22.3361 C222.325,21.1943 219.5104,20.6234 215.4903,20.6234 C212.743,20.6234 208.7011,21.6703 203.3649,23.7634 L202.9723,23.7634 L203.9188,15.2952 C209.4528,13.987 214.4126,13.3446 218.7774,13.3446 Z M11.9772,2.3312 L16.9209,38.2263 L30.8047,2.3312 L42.2583,2.3312 L47.8573,38.3216 L61.0739,2.3312 L72.6109,2.3312 L51.9336,54.8416 L41.2773,54.8416 L34.7284,15.8541 L19.7376,54.8416 L9.0454,54.8416 L0,2.3312 L11.9772,2.3312 Z M180.8252,2.3312 C187.6402,2.3312 192.6462,3.7227 195.8692,6.4939 C199.0916,9.265 200.397,13.3327 199.8003,18.6732 C199.177,24.2509 196.7307,28.6874 192.4586,32.006 C188.1876,35.3123 182.9126,36.9655 176.6446,36.9655 L168.5928,36.9655 L166.5947,54.8416 L155.0934,54.8416 L160.9625,2.3312 L180.8252,2.3312 Z M225.0462,34.8366 C217.9639,35.4192 213.4735,36.3234 211.578,37.5364 C209.6688,38.7612 208.5999,40.4504 208.3581,42.6149 C208.1016,44.9104 208.5406,46.5162 209.6646,47.4199 C210.8004,48.3239 212.6767,48.7757 215.3052,48.7757 C218.0648,48.7757 220.9397,47.5271 223.9081,45.0176 L225.0462,34.8366 Z M132.1098,21.6346 C129.5881,21.6346 126.699,22.5861 123.4653,24.489 L120.9645,46.8609 C123.2331,47.7411 125.3605,48.181 127.3348,48.181 C134.7443,48.181 138.9645,43.626 139.9853,34.4917 C140.944,25.9163 138.318,21.6346 132.1098,21.6346 Z M88.6762,19.8623 C82.7771,19.8623 79.2366,23.3353 78.0679,30.2811 L95.9797,30.2811 C96.6609,23.3353 94.2307,19.8623 88.6762,19.8623 Z M175.4065,10.5854 L171.4697,10.5854 L171.0045,14.7492 L165.8988,14.7492 L170.6746,17.6995 L169.4517,28.6401 L172.5205,28.6401 C178.289,28.6401 182.1838,27.8433 184.2412,26.2491 C186.2867,24.6554 187.4869,22.2171 187.8565,18.9107 C188.1593,16.1991 187.4988,14.1298 185.8493,12.7142 C184.2112,11.2989 180.735,10.5854 175.4065,10.5854 Z" id="webpay" fill="#346275"></path>
    </g>
</svg>