<?xml version="1.0" encoding="utf-8"?>
<!-- Generator: Adobe Illustrator 24.1.2, SVG Export Plug-In . SVG Version: 6.00 Build 0)  -->
<svg version="1.1" id="Layer_1" xmlns="http://www.w3.org/2000/svg" xmlns:xlink="http://www.w3.org/1999/xlink" x="0px" y="0px"
	 viewBox="0 0 284 95" style="enable-background:new 0 0 284 95;" xml:space="preserve">
<style type="text/css">
	.st0{fill-rule:evenodd;clip-rule:evenodd;fill:#FCF5A3;}
</style>
<g id="Page-1">
	<path id="webpay" class="st0" d="M172.5,69.2c7.4,0,12.8,5.6,12.8,12.7c0,7.1-5.4,12.7-12.8,12.7c-7.3,0-12.7-5.5-12.8-12.4l0-0.3
		v-2.5c0-3.6-2.1-6.3-5.6-6.3c-3.1,0-5.1,1.9-6.1,5c0,0.3,0,0.5,0,0.8l0,0.2v15h-4.2V79.5c0-3.6-2.1-6.3-5.7-6.3
		c-2.8,0-4.9,1.6-5.9,4.4l-0.1,0.3v16.4h-4.2V69.6h4.2v2.7c1.8-2.3,4.5-3.1,6.9-3.1c3.3,0,5.9,1.5,7.4,4c2.3-3.2,5.7-4,8.2-4
		c3.6,0,6.4,1.6,7.9,4.4C164.9,71,168.4,69.2,172.5,69.2z M234.2,69.6v24.6H230V69.6H234.2z M225.8,69.4c0.5,0,0.9,0,1.4,0.1
		l0.3,0.1v4.4c-0.7-0.2-1.5-0.3-2.4-0.3c-2.6,0-4.9,1.2-6,3.6l-0.1,0.3v16.7h-4.2V69.6h4.2v2.9C220.6,70.4,223,69.4,225.8,69.4z
		 M200.6,69.2c5.5,0,9.4,3.8,9.5,9.7l0,0.3v15h-4.2V79.5c0-3.6-2.4-6.3-6.2-6.3c-3.4,0-5.7,1.8-6.6,4.9l-0.1,0.3v15.9h-4.2V69.6h4.2
		v2.8C194.8,70.1,197.7,69.2,200.6,69.2z M172.5,73.2c-5,0-8.4,3.8-8.4,8.7c0,4.9,3.4,8.7,8.4,8.7s8.4-3.8,8.4-8.7
		C180.9,77.1,177.5,73.2,172.5,73.2z M113,75.5l1.8,4.8c0.2,0.5,0.4,1.2,0.5,1.7l0,0h0c0.2-0.5,0.3-1.1,0.5-1.7l0,0l1.6-4.8h1.6
		l-2.2,5.8c-1.1,2.8-1.8,4.2-2.8,5.1c-0.7,0.6-1.5,0.9-1.8,1l0,0l-0.4-1.2c0.4-0.1,0.9-0.4,1.3-0.7c0.4-0.3,0.9-0.9,1.2-1.7
		c0.1-0.2,0.1-0.3,0.1-0.4c0-0.1,0-0.2-0.1-0.4l0,0l-3-7.5H113z M104.5,71.6v5.1h0c0.5-0.9,1.5-1.5,2.8-1.5c2,0,3.5,1.7,3.4,4.2
		c0,2.9-1.8,4.4-3.7,4.4c-1.2,0-2.1-0.5-2.7-1.5l0,0h-0.1l-0.1,1.4h-1.3c0-0.6,0.1-1.4,0.1-2.1l0,0v-9.9H104.5z M106.8,76.4
		c-1,0-2,0.7-2.3,1.8c0,0.2-0.1,0.4-0.1,0.6l0,0v1.5c0,0.2,0,0.4,0.1,0.5c0.3,1,1.1,1.7,2.2,1.7c1.6,0,2.5-1.3,2.5-3.1
		C109.2,77.8,108.4,76.4,106.8,76.4z M252,14.5l7,28.8l13.5-28.8h11l-28.3,54.9h-11.3l7.8-14.5l-11.3-40.4H252z M232.1,58.9
		c1.7,0,3.1,1.4,3.1,3.1c0,0.9-0.3,1.6-0.8,2.1l-0.1,0.1H230c-0.6-0.5-0.9-1.3-0.9-2.3C229,60.3,230.3,58.9,232.1,58.9z M126.2,0
		L124,19.9c3.4-2.6,6.1-4.4,8.2-5.2c2.1-0.9,4.2-1.3,6.4-1.3c4.7,0,8.2,1.8,10.4,5.5c2.2,3.6,2.9,8.8,2.2,15.4
		c-0.7,6.5-2.9,11.7-6.7,15.7c-3.7,4-8.1,6-13,6c-3.5,0-7.2-1.3-10.9-4l-1,2.9h-10L115.5,0H126.2z M90.4,13.2
		c12.1,0,17.5,6.4,16,19.3l-0.4,3.8H77.4c-0.4,8.1,3.7,12.1,12.4,12.1c4.6,0,9.3-1.7,14.3-4.9h0.4l-1,9.3
		c-5.7,2.1-10.9,3.1-15.8,3.1c-7.6,0-13.1-1.8-16.7-5.4c-3.6-3.6-5-8.8-4.2-15.6c0.8-6.7,3.2-12,7.4-15.9
		C78.4,15.2,83.8,13.2,90.4,13.2z M218.8,13.3c6.8,0,11.6,1.1,14.4,3.3c2.8,2.2,3.9,5.7,3.4,10.5l-3.1,27.7h-10.6l0.6-5.3
		c-3.6,2.8-6.4,4.6-8.5,5.3c-2.1,0.7-4.3,1.1-6.6,1.1c-3.5,0-6.3-1.1-8.4-3.4c-2.1-2.3-2.9-5.2-2.5-8.8c0.5-4.6,2.6-8,6.3-10.4
		c3.7-2.3,11.1-3.8,22.2-4.4l0.1-1.1c0.3-2.5-0.4-4.4-2-5.5c-1.6-1.1-4.4-1.7-8.4-1.7c-2.7,0-6.8,1-12.1,3.1H203l0.9-8.5
		C209.5,14,214.4,13.3,218.8,13.3z M12,2.3l4.9,35.9L30.8,2.3h11.5l5.6,36l13.2-36h11.5L51.9,54.8H41.3l-6.5-39l-15,39H9L0,2.3H12z
		 M180.8,2.3c6.8,0,11.8,1.4,15,4.2c3.2,2.8,4.5,6.8,3.9,12.2c-0.6,5.6-3.1,10-7.3,13.3c-4.3,3.3-9.5,5-15.8,5h-8.1l-2,17.9h-11.5
		L161,2.3H180.8z M225,34.8c-7.1,0.6-11.6,1.5-13.5,2.7c-1.9,1.2-3,2.9-3.2,5.1c-0.3,2.3,0.2,3.9,1.3,4.8c1.1,0.9,3,1.4,5.6,1.4
		c2.8,0,5.6-1.2,8.6-3.8L225,34.8z M132.1,21.6c-2.5,0-5.4,1-8.6,2.9L121,46.9c2.3,0.9,4.4,1.3,6.4,1.3c7.4,0,11.6-4.6,12.7-13.7
		C140.9,25.9,138.3,21.6,132.1,21.6z M88.7,19.9c-5.9,0-9.4,3.5-10.6,10.4H96C96.7,23.3,94.2,19.9,88.7,19.9z M175.4,10.6h-3.9
		l-0.5,4.2h-5.1l4.8,3l-1.2,10.9h3.1c5.8,0,9.7-0.8,11.7-2.4c2-1.6,3.2-4,3.6-7.3c0.3-2.7-0.4-4.8-2-6.2
		C184.2,11.3,180.7,10.6,175.4,10.6z"/>
</g>
</svg>
